<?xml version="1.0" encoding="UTF-8" standalone="no"?>
<!-- Created with Inkscape (http://www.inkscape.org/) -->

<svg
   xmlns:dc="http://purl.org/dc/elements/1.1/"
   xmlns:cc="http://creativecommons.org/ns#"
   xmlns:rdf="http://www.w3.org/1999/02/22-rdf-syntax-ns#"
   xmlns:svg="http://www.w3.org/2000/svg"
   xmlns="http://www.w3.org/2000/svg"
   xmlns:sodipodi="http://sodipodi.sourceforge.net/DTD/sodipodi-0.dtd"
   xmlns:inkscape="http://www.inkscape.org/namespaces/inkscape"
   version="1.1"
   id="svg2"
   xml:space="preserve"
   width="143.38246"
   height="133.11234"
   viewBox="0 0 143.38246 133.11233"
   sodipodi:docname="logo.svg"
   inkscape:version="0.92.1 r15371"><metadata
     id="metadata8"><rdf:RDF><cc:Work
         rdf:about=""><dc:format>image/svg+xml</dc:format><dc:type
           rdf:resource="http://purl.org/dc/dcmitype/StillImage" /><dc:title></dc:title></cc:Work></rdf:RDF></metadata><defs
     id="defs6"><clipPath
       clipPathUnits="userSpaceOnUse"
       id="clipPath70"><path
         d="m 3982.75,3837.35 c -16.73,0 -30.29,13.56 -30.29,30.29 0,16.74 13.56,30.3 30.29,30.3 16.73,0 30.3,-13.56 30.3,-30.3 0,-16.73 -13.57,-30.29 -30.3,-30.29 m 5.2,55.29 c -8.7,0 -15.75,-7.05 -15.75,-15.74 0,-8.7 7.05,-15.74 15.75,-15.74 8.69,0 15.74,7.04 15.74,15.74 0,8.69 -7.05,15.74 -15.74,15.74"
         id="path68"
         inkscape:connector-curvature="0" /></clipPath></defs><sodipodi:namedview
     pagecolor="#ffffff"
     bordercolor="#666666"
     borderopacity="1"
     objecttolerance="10"
     gridtolerance="10"
     guidetolerance="10"
     inkscape:pageopacity="0"
     inkscape:pageshadow="2"
     inkscape:window-width="1366"
     inkscape:window-height="669"
     id="namedview4"
     showgrid="false"
     inkscape:zoom="2.0612997"
     inkscape:cx="42.93833"
     inkscape:cy="56.715925"
     inkscape:window-x="0"
     inkscape:window-y="28"
     inkscape:window-maximized="1"
     inkscape:current-layer="g10" /><g
     id="g10"
     inkscape:groupmode="layer"
     inkscape:label="ink_ext_XXXXXX"
     transform="matrix(1.3333333,0,0,-1.3333333,-13.957908,548.65499)"><path
       inkscape:connector-curvature="0"
       id="path646"
       style="fill:#f0d009;fill-opacity:1;fill-rule:nonzero;stroke:none;stroke-width:0.1"
       d="m 111.445,360.19 c 0,-25.731 -20.8598,-46.591 -46.5915,-46.591 -25.7316,0 -46.591,20.86 -46.591,46.591 0,25.732 20.8594,46.591 46.591,46.591 25.7317,0 46.5915,-20.859 46.5915,-46.591" /><path
       inkscape:connector-curvature="0"
       id="path648"
       style="fill:#4694c9;fill-opacity:1;fill-rule:nonzero;stroke:none;stroke-width:0.1"
       d="m 103.595,360.19 c 0,-21.396 -17.345,-38.741 -38.7415,-38.741 -21.3965,0 -38.7414,17.345 -38.7414,38.741 0,21.396 17.3449,38.742 38.7414,38.742 21.3965,0 38.7415,-17.346 38.7415,-38.742" /><path
       inkscape:connector-curvature="0"
       id="path650"
       style="fill:#7dcb29;fill-opacity:1;fill-rule:nonzero;stroke:none;stroke-width:0.1"
       d="m 110.722,315.265 c 0,-1.993 -21.0056,-3.608 -46.9169,-3.608 -25.9113,0 -46.9164,1.615 -46.9164,3.608 0,1.992 21.0051,3.608 46.9164,3.608 25.9113,0 46.9169,-1.616 46.9169,-3.608" /><path
       inkscape:connector-curvature="0"
       id="path652"
       style="fill:#559d33;fill-opacity:1;fill-rule:nonzero;stroke:none;stroke-width:0.1"
       d="m 94.7527,316.682 c 0,-0.782 -13.5648,-1.416 -30.2984,-1.416 -16.7332,0 -30.2984,0.634 -30.2984,1.416 0,0.783 13.5652,1.417 30.2984,1.417 16.7336,0 30.2984,-0.634 30.2984,-1.417" /><path
       inkscape:connector-curvature="0"
       id="path654"
       style="fill:#f04332;fill-opacity:1;fill-rule:nonzero;stroke:none;stroke-width:0.1"
       d="M 91.5563,368.032 64.8293,387.08 38.1027,368.032 v -51.34 h 53.4536 v 51.34" /><path
       inkscape:connector-curvature="0"
       id="path656"
       style="fill:#d63a24;fill-opacity:1;fill-rule:nonzero;stroke:none;stroke-width:0.1"
       d="M 91.5563,319.639 H 38.1027 v 2.859 h 53.4536 v -2.859" /><path
       inkscape:connector-curvature="0"
       id="path658"
       style="fill:#d63a24;fill-opacity:1;fill-rule:nonzero;stroke:none;stroke-width:0.1"
       d="M 91.5563,328.842 H 38.1027 v 2.86 h 53.4536 v -2.86" /><path
       inkscape:connector-curvature="0"
       id="path660"
       style="fill:#d63a24;fill-opacity:1;fill-rule:nonzero;stroke:none;stroke-width:0.1"
       d="M 91.5563,338.046 H 38.1027 v 2.859 h 53.4536 v -2.859" /><path
       inkscape:connector-curvature="0"
       id="path662"
       style="fill:#d63a24;fill-opacity:1;fill-rule:nonzero;stroke:none;stroke-width:0.1"
       d="M 91.5563,347.249 H 38.1027 v 2.859 h 53.4536 v -2.859" /><path
       inkscape:connector-curvature="0"
       id="path664"
       style="fill:#d63a24;fill-opacity:1;fill-rule:nonzero;stroke:none;stroke-width:0.1"
       d="m 38.1027,356.452 h 53.4535 v 2.85938 H 38.1027 Z" /><path
       inkscape:connector-curvature="0"
       id="path666"
       style="fill:#d63a24;fill-opacity:1;fill-rule:nonzero;stroke:none;stroke-width:0.1"
       d="m 38.1027,365.656 h 53.4535 v 2.85898 H 38.1027 Z" /><path
       inkscape:connector-curvature="0"
       id="path668"
       style="fill:#d63a24;fill-opacity:1;fill-rule:nonzero;stroke:none;stroke-width:0.1"
       d="m 83.5414,374.859 h -37.807 l 3.6601,2.859 h 30.591 l 3.5559,-2.859" /><path
       inkscape:connector-curvature="0"
       id="path670"
       style="fill:#52241c;fill-opacity:1;fill-rule:nonzero;stroke:none;stroke-width:0.1"
       d="m 96.1086,367.727 -31.2793,22.538 -31.2355,-22.538 1.7128,-1.875 29.5629,21.178 29.5266,-21.178 1.7125,1.875" /><path
       inkscape:connector-curvature="0"
       id="path672"
       style="fill:#84281b;fill-opacity:1;fill-rule:nonzero;stroke:none;stroke-width:0.1"
       d="m 38.1027,359.312 h 53.4535 v 0.95977 H 38.1027 Z" /><path
       inkscape:connector-curvature="0"
       id="path674"
       style="fill:#84281b;fill-opacity:1;fill-rule:nonzero;stroke:none;stroke-width:0.1"
       d="M 90.6828,368.515 H 39.0242 l 1.3399,0.96 h 48.9804 l 1.3383,-0.96" /><path
       inkscape:connector-curvature="0"
       id="path676"
       style="fill:#84281b;fill-opacity:1;fill-rule:nonzero;stroke:none;stroke-width:0.1"
       d="M 77.9652,377.718 H 51.8715 l 1.3398,0.961 h 23.4071 l 1.3468,-0.961" /><path
       inkscape:connector-curvature="0"
       id="path678"
       style="fill:#84281b;fill-opacity:1;fill-rule:nonzero;stroke:none;stroke-width:0.1"
       d="M 91.5563,350.108 H 38.1027 v 0.96 h 53.4536 v -0.96" /><path
       inkscape:connector-curvature="0"
       id="path680"
       style="fill:#84281b;fill-opacity:1;fill-rule:nonzero;stroke:none;stroke-width:0.1"
       d="M 91.5563,340.905 H 38.1027 v 0.96 h 53.4536 v -0.96" /><path
       inkscape:connector-curvature="0"
       id="path682"
       style="fill:#84281b;fill-opacity:1;fill-rule:nonzero;stroke:none;stroke-width:0.1"
       d="M 91.5563,331.702 H 38.1027 v 0.959 h 53.4536 v -0.959" /><path
       inkscape:connector-curvature="0"
       id="path684"
       style="fill:#84281b;fill-opacity:1;fill-rule:nonzero;stroke:none;stroke-width:0.1"
       d="M 91.5563,322.498 H 38.1027 v 0.96 h 53.4536 v -0.96" /><path
       inkscape:connector-curvature="0"
       id="path686"
       style="fill:#ce3823;fill-opacity:1;fill-rule:nonzero;stroke:none;stroke-width:0.1"
       d="m 91.5563,364.835 -1.1934,0.821 h 1.1934 v -0.821 m -0.8735,3.68 v 0 l -0.4758,0.341 0.4758,-0.341" /><path
       inkscape:connector-curvature="0"
       id="path688"
       style="fill:#a83020;fill-opacity:1;fill-rule:nonzero;stroke:none;stroke-width:0.1"
       d="m 91.5563,365.656 v 0 h -1.1934 l -4.1574,2.859 h 4.4773 v 0 l 0.8735,-0.626 v -2.233" /><path
       inkscape:connector-curvature="0"
       id="path690"
       style="fill:#3f1e18;fill-opacity:1;fill-rule:nonzero;stroke:none;stroke-width:0.1"
       d="m 91.5563,367.889 v 0 l -0.8735,0.626 -0.4758,0.341 -0.7015,0.503 2.0508,-1.47" /><path
       inkscape:connector-curvature="0"
       id="path692"
       style="fill:#ce3823;fill-opacity:1;fill-rule:nonzero;stroke:none;stroke-width:0.1"
       d="m 38.1027,364.835 v 0.821 h 1.1953 l -1.1953,-0.821" /><path
       inkscape:connector-curvature="0"
       id="path694"
       style="fill:#a83020;fill-opacity:1;fill-rule:nonzero;stroke:none;stroke-width:0.1"
       d="m 39.298,365.656 h -1.1953 v 2.199 l 0.9215,0.66 h 4.4375 l -4.1637,-2.859" /><path
       inkscape:connector-curvature="0"
       id="path696"
       style="fill:#ce3823;fill-opacity:1;fill-rule:nonzero;stroke:none;stroke-width:0.1"
       d="m 89.3445,369.475 h -4.5343 l -7.8286,5.384 h 4.8563 l 7.5066,-5.384" /><path
       inkscape:connector-curvature="0"
       id="path698"
       style="fill:#a83020;fill-opacity:1;fill-rule:nonzero;stroke:none;stroke-width:0.1"
       d="m 81.8379,374.859 h -4.8563 l -4.157,2.859 h 5.027 l 3.9863,-2.859" /><path
       inkscape:connector-curvature="0"
       id="path700"
       style="fill:#3f1e18;fill-opacity:1;fill-rule:nonzero;stroke:none;stroke-width:0.1"
       d="m 89.3445,369.475 v 0 l -7.5066,5.384 -3.9863,2.859 v 0 l 11.4929,-8.243" /><path
       inkscape:connector-curvature="0"
       id="path702"
       style="fill:#ce3823;fill-opacity:1;fill-rule:nonzero;stroke:none;stroke-width:0.1"
       d="m 44.8598,369.475 h -4.4957 l 7.516,5.384 h 4.8207 l -7.841,-5.384" /><path
       inkscape:connector-curvature="0"
       id="path704"
       style="fill:#a83020;fill-opacity:1;fill-rule:nonzero;stroke:none;stroke-width:0.1"
       d="m 52.7008,374.859 h -4.8207 l 3.9914,2.859 h 4.993 l -4.1637,-2.859" /><path
       inkscape:connector-curvature="0"
       id="path706"
       style="fill:#ce3823;fill-opacity:1;fill-rule:nonzero;stroke:none;stroke-width:0.1"
       d="m 76.5133,378.679 h -5.084 l -6.5781,4.524 -6.5887,-4.524 h -5.0512 l 11.6582,8.351 11.6438,-8.351" /><path
       inkscape:connector-curvature="0"
       id="path708"
       style="fill:#3f1e18;fill-opacity:1;fill-rule:nonzero;stroke:none;stroke-width:0.1"
       d="m 76.5133,378.679 v 0 l -11.6438,8.351 11.6438,-8.351" /><path
       inkscape:connector-curvature="0"
       id="path710"
       style="fill:#67211a;fill-opacity:1;fill-rule:nonzero;stroke:none;stroke-width:0.1"
       d="m 90.6828,368.515 h -4.4773 l -1.3953,0.96 h 4.5343 l 0.161,-0.116 0.7015,-0.503 0.4758,-0.341 m -47.2211,0 h -4.4375 l 1.3403,0.96 h 4.4953 l -1.3981,-0.96" /><path
       inkscape:connector-curvature="0"
       id="path712"
       style="fill:#67211a;fill-opacity:1;fill-rule:nonzero;stroke:none;stroke-width:0.1"
       d="m 77.8516,377.718 v 0 h -5.027 l -1.3953,0.961 h 5.084 v 0 l 1.3383,-0.961 m -20.9871,0 h -4.993 l 1.3398,0.961 h 5.0512 l -1.398,-0.961" /><path
       inkscape:connector-curvature="0"
       id="path714"
       style="fill:#511c18;fill-opacity:1;fill-rule:nonzero;stroke:none;stroke-width:0.1"
       d="M 77.6504,341.074 V 320.23 H 52.0523 v 20.844 c 0,7.422 5.7301,13.438 12.7989,13.438 7.0687,0 12.7992,-6.016 12.7992,-13.438" /><path
       inkscape:connector-curvature="0"
       id="path716"
       style="fill:#92291e;fill-opacity:1;fill-rule:nonzero;stroke:none;stroke-width:0.1"
       d="m 50.8301,356.975 h 27.4758 v 2.33633 H 50.8301 Z" /><path
       inkscape:connector-curvature="0"
       id="path718"
       style="fill:#b13221;fill-opacity:1;fill-rule:nonzero;stroke:none;stroke-width:0.1"
       d="m 50.8301,360.271 h 27.4758 v 5.38438 H 50.8301 Z" /><path
       inkscape:connector-curvature="0"
       id="path720"
       style="fill:#92291e;fill-opacity:1;fill-rule:nonzero;stroke:none;stroke-width:0.1"
       d="m 50.8301,365.656 h 27.4758 v 2.05078 H 50.8301 Z" /><path
       inkscape:connector-curvature="0"
       id="path722"
       style="fill:#581d19;fill-opacity:1;fill-rule:nonzero;stroke:none;stroke-width:0.1"
       d="m 50.8301,359.312 h 27.4758 v 0.95977 H 50.8301 Z" /><path
       inkscape:connector-curvature="0"
       id="path724"
       style="fill:#edbc3b;fill-opacity:1;fill-rule:nonzero;stroke:none;stroke-width:0.1"
       d="M 77.4574,357.882 H 51.6785 v 10.069 h 25.7789 v -10.069" /><path
       inkscape:connector-curvature="0"
       id="path726"
       style="fill:#66511f;fill-opacity:1;fill-rule:nonzero;stroke:none;stroke-width:0.1"
       d="m 54.5004,361.779 c 0.3871,-0.33 0.8816,-0.561 1.3266,-0.561 0.5023,0 0.75,0.198 0.75,0.52 0,0.337 -0.3051,0.445 -0.775,0.642 l -0.7,0.297 c -0.5524,0.223 -1.0797,0.684 -1.0797,1.467 0,0.889 0.791,1.597 1.9117,1.597 0.618,0 1.2687,-0.247 1.7305,-0.708 l -0.6184,-0.766 c -0.3539,0.272 -0.6836,0.428 -1.1121,0.428 -0.4199,0 -0.6836,-0.181 -0.6836,-0.486 0,-0.329 0.3539,-0.444 0.8152,-0.635 l 0.6926,-0.279 c 0.6508,-0.263 1.0629,-0.701 1.0629,-1.459 0,-0.89 -0.7418,-1.664 -2.027,-1.664 -0.7003,0 -1.4421,0.264 -1.9855,0.774 l 0.6918,0.833" /><path
       inkscape:connector-curvature="0"
       id="path728"
       style="fill:#66511f;fill-opacity:1;fill-rule:nonzero;stroke:none;stroke-width:0.1"
       d="m 60.6195,363.056 c 0.6672,0 0.9887,0.297 0.9887,0.856 0,0.561 -0.3461,0.767 -0.9887,0.767 h -0.6757 v -1.623 z m -1.8875,2.587 h 1.9618 c 1.1617,0 2.1007,-0.429 2.1007,-1.731 0,-1.26 -0.964,-1.82 -2.1007,-1.82 h -0.75 v -1.821 H 58.732 v 5.372" /><path
       inkscape:connector-curvature="0"
       id="path730"
       style="fill:#66511f;fill-opacity:1;fill-rule:nonzero;stroke:none;stroke-width:0.1"
       d="m 63.7219,365.643 h 1.2117 v -5.372 h -1.2117 v 5.372" /><path
       inkscape:connector-curvature="0"
       id="path732"
       style="fill:#66511f;fill-opacity:1;fill-rule:nonzero;stroke:none;stroke-width:0.1"
       d="m 66.2004,365.643 h 1.2113 v -2.2 h 0.0328 l 1.5989,2.2 h 1.3347 l -1.623,-2.142 1.9199,-3.23 h -1.3266 l -1.3101,2.265 -0.6266,-0.823 v -1.442 h -1.2113 v 5.372" /><path
       inkscape:connector-curvature="0"
       id="path734"
       style="fill:#66511f;fill-opacity:1;fill-rule:nonzero;stroke:none;stroke-width:0.1"
       d="m 71.2563,365.643 h 3.3617 v -1.022 h -2.1504 v -1.079 h 1.8293 v -1.013 h -1.8293 v -1.237 h 2.2328 v -1.021 h -3.4441 v 5.372" /><path
       inkscape:connector-curvature="0"
       id="path736"
       style="fill:#4a4b4c;fill-opacity:1;fill-rule:nonzero;stroke:none;stroke-width:0.1"
       d="m 77.666,327.502 c -13.6484,6.339 -25.6398,0 -25.6398,0 V 320.23 H 77.666 v 7.272" /><path
       inkscape:connector-curvature="0"
       id="path738"
       style="fill:#6e7071;fill-opacity:1;fill-rule:nonzero;stroke:none;stroke-width:0.1"
       d="m 65.8715,321.511 c 0.4254,-0.773 -0.2199,-1.944 -1.4414,-2.617 -1.2215,-0.672 -2.5567,-0.592 -2.9817,0.18 -0.4254,0.772 0.22,1.944 1.4414,2.617 1.2215,0.672 2.5567,0.591 2.9817,-0.18" /><path
       inkscape:connector-curvature="0"
       id="path740"
       style="fill:#a5a5a4;fill-opacity:1;fill-rule:nonzero;stroke:none;stroke-width:0.1"
       d="m 64.8309,335.064 c -1.7731,3.22 -4.868,4.918 -10.3512,1.898 -5.4832,-3.02 -5.7031,-6.543 -3.9301,-9.762 1.3871,-2.519 2.502,-4.693 6.7598,-3.41 l 1.2047,-2.188 c -1.9282,-1.062 -1.6911,-2.077 -1.0938,-3.161 0.5973,-1.085 1.3285,-1.828 3.2567,-0.766 1.739,0.958 2.7828,2.466 2.5328,3.548 0.7816,-0.789 2.6136,-0.714 4.3531,0.244 1.9277,1.062 1.6906,2.077 1.0937,3.162 -0.5972,1.084 -1.3285,1.827 -3.2566,0.765 l -0.0945,-0.055 -1.2067,2.19 c 3.3602,2.913 2.1192,5.017 0.7321,7.535" /><path
       inkscape:connector-curvature="0"
       id="path742"
       style="fill:#2e2d2d;fill-opacity:1;fill-rule:nonzero;stroke:none;stroke-width:0.1"
       d="m 62.8152,321.182 -1.7058,0.766 c -0.259,0.117 -0.2512,0.473 0.014,0.619 l 1.97,1.085 c 0.2652,0.146 0.5707,-0.038 0.5304,-0.319 l -0.264,-1.851 c -0.0352,-0.246 -0.3176,-0.402 -0.5446,-0.3" /><path
       inkscape:connector-curvature="0"
       id="path744"
       style="fill:#a5a5a4;fill-opacity:1;fill-rule:nonzero;stroke:none;stroke-width:0.1"
       d="m 57.7547,342.346 c -0.4578,-2.288 -0.5746,-4.204 -0.5746,-4.204 0,0 2.8308,0.858 4.8351,-0.279 0,0 0.0395,1.128 -0.2722,3.427 0,0 -3.4254,3.869 -3.9883,1.056" /><path
       inkscape:connector-curvature="0"
       id="path746"
       style="fill:#464648;fill-opacity:1;fill-rule:nonzero;stroke:none;stroke-width:0.1"
       d="m 57.7547,342.346 c 0,0 0.7133,-2.621 1.9891,-3.552 0.5269,0 1.9992,2.496 1.9992,2.496 l -3.9883,1.056" /><path
       inkscape:connector-curvature="0"
       id="path748"
       style="fill:#a5a5a4;fill-opacity:1;fill-rule:nonzero;stroke:none;stroke-width:0.1"
       d="m 57.7547,342.346 c -0.1848,-0.211 2.1133,-2.958 2.1133,-2.958 l 1.875,1.902 c 0,0 -3.3809,4.094 -3.9883,1.056" /><path
       inkscape:connector-curvature="0"
       id="path750"
       style="fill:#2e2d2d;fill-opacity:1;fill-rule:nonzero;stroke:none;stroke-width:0.1"
       d="m 50.0145,337.254 c 0,0 2.1496,-1.647 2.2652,-1.744 -2.0371,-1.529 -2.7,-4.153 -2.7,-4.153 l -2.2332,1.252 2.668,4.645" /><path
       inkscape:connector-curvature="0"
       id="path752"
       style="fill:#141211;fill-opacity:1;fill-rule:nonzero;stroke:none;stroke-width:0.1"
       d="m 47.3465,332.609 2.668,4.645 c 0,0 0.6906,-3.241 0.2285,-3.941 -0.766,-1.004 -2.8965,-0.704 -2.8965,-0.704" /><path
       inkscape:connector-curvature="0"
       id="path754"
       style="fill:#2e2d2d;fill-opacity:1;fill-rule:nonzero;stroke:none;stroke-width:0.1"
       d="m 50.0102,337.256 c 0.1472,-0.043 0.0578,-3.457 -0.084,-3.705 -0.1422,-0.249 -2.1828,-1.324 -2.5797,-0.942 -0.1863,0.18 0.6277,1.609 0.9816,2.316 0.3996,0.798 1.3012,2.52 1.6821,2.331" /><path
       inkscape:connector-curvature="0"
       id="path756"
       style="fill:#464648;fill-opacity:1;fill-rule:nonzero;stroke:none;stroke-width:0.1"
       d="m 56.9156,329.603 -2.3004,-1.267 -0.1476,0.268 2.3004,1.267 0.1476,-0.268" /><path
       inkscape:connector-curvature="0"
       id="path758"
       style="fill:#464648;fill-opacity:1;fill-rule:nonzero;stroke:none;stroke-width:0.1"
       d="m 61.4719,332.22 -2.3004,-1.267 -0.1477,0.268 2.3004,1.267 0.1477,-0.268" /><path
       inkscape:connector-curvature="0"
       id="path760"
       style="fill:#a5a5a4;fill-opacity:1;fill-rule:nonzero;stroke:none;stroke-width:0.1"
       d="m 73.673,317.067 h -0.0562 c -1.5348,0 -2.7789,1.244 -2.7789,2.779 v 2.108 c 0,1.534 1.2441,2.778 2.7789,2.778 h 0.0562 c 1.5348,0 2.779,-1.244 2.779,-2.778 v -2.108 c 0,-1.535 -1.2442,-2.779 -2.779,-2.779" /><path
       inkscape:connector-curvature="0"
       id="path762"
       style="fill:#464648;fill-opacity:1;fill-rule:nonzero;stroke:none;stroke-width:0.1"
       d="M 73.7719,320.239 H 73.534 v -3.172 h 0.2379 v 3.172" /><path
       inkscape:connector-curvature="0"
       id="path764"
       style="fill:#464648;fill-opacity:1;fill-rule:nonzero;stroke:none;stroke-width:0.1"
       d="m 75.2586,320.298 h -0.2379 v -2.882 l 0.2379,0.148 v 2.734" /><path
       inkscape:connector-curvature="0"
       id="path766"
       style="fill:#464648;fill-opacity:1;fill-rule:nonzero;stroke:none;stroke-width:0.1"
       d="m 72.2137,320.298 h -0.2379 v -2.695 l 0.2379,-0.156 v 2.851" /><path
       inkscape:connector-curvature="0"
       id="path768"
       style="fill:#c02227;fill-opacity:1;fill-rule:nonzero;stroke:none;stroke-width:0.1"
       d="m 116.003,380.686 c 0.502,4.716 -19.9768,4.211 -19.5811,7.928 0.1019,0.959 2.2898,21.513 2.0484,19.247 -0.241,-2.268 20.0307,-3.712 19.5257,-8.454 -0.28,-2.632 -1.993,-18.721 -1.993,-18.721" /><path
       inkscape:connector-curvature="0"
       id="path770"
       style="fill:#4d1619;fill-opacity:1;fill-rule:nonzero;stroke:none;stroke-width:0.1"
       d="m 96.4219,388.614 c 0.5019,4.717 13.4201,-0.314 13.7101,2.405 0.102,0.959 1.807,16.976 1.807,16.976 l -13.5245,-0.66 -1.9926,-18.721" /><path
       inkscape:connector-curvature="0"
       id="path772"
       style="fill:#c02227;fill-opacity:1;fill-rule:nonzero;stroke:none;stroke-width:0.1"
       d="m 12.4703,380.686 c -0.5019,4.716 19.977,4.211 19.5813,7.928 -0.102,0.959 -2.2899,21.513 -2.0485,19.247 0.241,-2.268 -20.03005,-3.712 -19.5254,-8.454 0.2801,-2.632 1.9926,-18.721 1.9926,-18.721" /><path
       inkscape:connector-curvature="0"
       id="path774"
       style="fill:#4d1619;fill-opacity:1;fill-rule:nonzero;stroke:none;stroke-width:0.1"
       d="m 32.0516,388.614 c -0.502,4.717 -13.4203,-0.314 -13.7098,2.405 -0.1023,0.959 -1.807,16.976 -1.807,16.976 l 13.5242,-0.66 1.9926,-18.721" /><path
       inkscape:connector-curvature="0"
       id="path776"
       style="fill:#d6252e;fill-opacity:1;fill-rule:nonzero;stroke:none;stroke-width:0.1"
       d="m 110.138,391.023 c -30.4778,4.483 -61.3189,4.483 -91.7962,0 -0.6141,5.657 -1.2277,11.314 -1.8414,16.971 31.7004,4.663 63.7781,4.663 95.4786,0 -0.614,-5.657 -1.228,-11.314 -1.841,-16.971" /><g
       aria-label="Lar dos Filhotes"
       transform="scale(1,-1)"
       style="font-style:normal;font-weight:normal;font-size:12px;line-height:1.25;font-family:sans-serif;letter-spacing:0px;word-spacing:0px;fill:#ffffff;fill-opacity:1;stroke:none;stroke-width:0.75"
       id="text4953"><path
         d="m 19.013281,-405.3425 h 1.183594 v 7.75195 h 4.259765 v 0.9961 h -5.443359 z"
         style="fill:#ffffff;stroke-width:0.75"
         id="path4955"
         inkscape:connector-curvature="0" /><path
         d="m 28.628515,-399.89328 q -1.30664,0 -1.810547,0.29883 -0.503906,0.29883 -0.503906,1.01953 0,0.57422 0.375,0.91406 0.380859,0.33399 1.03125,0.33399 0.896484,0 1.435547,-0.63282 0.544922,-0.63867 0.544922,-1.69336 v -0.24023 z m 2.150391,-0.44531 v 3.74414 h -1.078125 v -0.9961 q -0.369141,0.59766 -0.919922,0.88477 -0.550781,0.28125 -1.347656,0.28125 -1.007813,0 -1.605469,-0.5625 -0.591797,-0.56836 -0.591797,-1.51758 0,-1.10742 0.738281,-1.66992 0.744141,-0.5625 2.214844,-0.5625 h 1.511719 v -0.10547 q 0,-0.74414 -0.492188,-1.14844 -0.486328,-0.41015 -1.371093,-0.41015 -0.5625,0 -1.095704,0.13476 -0.533203,0.13477 -1.02539,0.4043 v -0.99609 q 0.591797,-0.22852 1.148437,-0.33985 0.556641,-0.11719 1.083985,-0.11719 1.423828,0 2.126953,0.73829 0.703125,0.73828 0.703125,2.23828 z"
         style="fill:#ffffff;stroke-width:0.75"
         id="path4957"
         inkscape:connector-curvature="0" /><path
         d="m 36.808203,-402.14914 q -0.181641,-0.10547 -0.398438,-0.15234 -0.210937,-0.0527 -0.46875,-0.0527 -0.914062,0 -1.40625,0.59766 -0.486328,0.5918 -0.486328,1.70508 v 3.45703 h -1.083984 v -6.5625 h 1.083984 v 1.01953 q 0.339844,-0.59766 0.884766,-0.88477 0.544922,-0.29297 1.324218,-0.29297 0.111329,0 0.246094,0.0176 0.134766,0.0117 0.298828,0.041 z"
         style="fill:#ffffff;stroke-width:0.75"
         id="path4959"
         inkscape:connector-curvature="0" /><path
         d="m 46.089453,-402.16086 v -3.55078 h 1.078125 v 9.11719 h -1.078125 v -0.98438 q -0.339844,0.58594 -0.861328,0.87305 -0.515625,0.28125 -1.242188,0.28125 -1.189453,0 -1.939453,-0.94922 -0.744141,-0.94922 -0.744141,-2.49609 0,-1.54688 0.744141,-2.4961 0.75,-0.94922 1.939453,-0.94922 0.726563,0 1.242188,0.28711 0.521484,0.28125 0.861328,0.86719 z m -3.673828,2.29102 q 0,1.18945 0.486328,1.86914 0.492187,0.67383 1.347656,0.67383 0.855469,0 1.347656,-0.67383 0.492188,-0.67969 0.492188,-1.86914 0,-1.18946 -0.492188,-1.86328 -0.492187,-0.67969 -1.347656,-0.67969 -0.855469,0 -1.347656,0.67969 -0.486328,0.67382 -0.486328,1.86328 z"
         style="fill:#ffffff;stroke-width:0.75"
         id="path4961"
         inkscape:connector-curvature="0" /><path
         d="m 51.93125,-402.40109 q -0.867188,0 -1.371094,0.67968 -0.503906,0.67383 -0.503906,1.85157 0,1.17773 0.498046,1.85742 0.503907,0.67383 1.376954,0.67383 0.861328,0 1.365234,-0.67969 0.503906,-0.67969 0.503906,-1.85156 0,-1.16602 -0.503906,-1.84571 -0.503906,-0.68554 -1.365234,-0.68554 z m 0,-0.91407 q 1.40625,0 2.208984,0.91407 0.802734,0.91406 0.802734,2.53125 0,1.61133 -0.802734,2.53125 -0.802734,0.91406 -2.208984,0.91406 -1.41211,0 -2.214844,-0.91406 -0.796875,-0.91992 -0.796875,-2.53125 0,-1.61719 0.796875,-2.53125 0.802734,-0.91407 2.214844,-0.91407 z"
         style="fill:#ffffff;stroke-width:0.75"
         id="path4963"
         inkscape:connector-curvature="0" /><path
         d="m 60.907812,-402.96359 v 1.01953 q -0.457031,-0.23438 -0.949219,-0.35156 -0.492187,-0.11719 -1.019531,-0.11719 -0.802734,0 -1.207031,0.24609 -0.398438,0.2461 -0.398438,0.73828 0,0.375 0.28711,0.5918 0.287109,0.21094 1.154297,0.4043 l 0.36914,0.082 q 1.148438,0.24609 1.628906,0.69726 0.486329,0.44532 0.486329,1.24805 0,0.91406 -0.726563,1.44727 -0.720703,0.5332 -1.986328,0.5332 -0.527344,0 -1.101563,-0.10547 -0.568359,-0.0996 -1.201171,-0.30469 v -1.11328 q 0.597656,0.31055 1.177734,0.46875 0.580078,0.15235 1.148437,0.15235 0.761719,0 1.171875,-0.25782 0.410157,-0.26367 0.410157,-0.73828 0,-0.43945 -0.298828,-0.67383 -0.292969,-0.23437 -1.294922,-0.45117 l -0.375,-0.0879 q -1.001953,-0.21094 -1.447266,-0.64453 -0.445312,-0.43945 -0.445312,-1.20117 0,-0.92578 0.65625,-1.42969 0.65625,-0.50391 1.863281,-0.50391 0.597656,0 1.125,0.0879 0.527344,0.0879 0.972656,0.26367 z"
         style="fill:#ffffff;stroke-width:0.75"
         id="path4965"
         inkscape:connector-curvature="0" /><path
         d="m 66.849218,-405.3425 h 5.027344 v 0.99609 h -3.84375 v 2.57813 h 3.46875 v 0.99609 h -3.46875 v 4.17774 h -1.183594 z"
         style="fill:#ffffff;stroke-width:0.75"
         id="path4967"
         inkscape:connector-curvature="0" /><path
         d="m 72.849218,-403.15695 h 1.078125 v 6.5625 h -1.078125 z m 0,-2.55469 h 1.078125 v 1.36523 h -1.078125 z"
         style="fill:#ffffff;stroke-width:0.75"
         id="path4969"
         inkscape:connector-curvature="0" /><path
         d="m 76.177343,-405.71164 h 1.078125 v 9.11719 h -1.078125 z"
         style="fill:#ffffff;stroke-width:0.75"
         id="path4971"
         inkscape:connector-curvature="0" /><path
         d="m 84.960546,-400.55539 v 3.96094 h -1.078125 v -3.92578 q 0,-0.93164 -0.363281,-1.39453 -0.363281,-0.4629 -1.089844,-0.4629 -0.873046,0 -1.376953,0.55665 -0.503906,0.55664 -0.503906,1.51757 v 3.70899 h -1.083984 v -9.11719 h 1.083984 v 3.57422 q 0.386719,-0.5918 0.908203,-0.88477 0.527344,-0.29297 1.212891,-0.29297 1.130859,0 1.710937,0.70313 0.580078,0.69727 0.580078,2.05664 z"
         style="fill:#ffffff;stroke-width:0.75"
         id="path4973"
         inkscape:connector-curvature="0" /><path
         d="m 89.665625,-402.40109 q -0.867188,0 -1.371094,0.67968 -0.503906,0.67383 -0.503906,1.85157 0,1.17773 0.498046,1.85742 0.503907,0.67383 1.376954,0.67383 0.861328,0 1.365234,-0.67969 0.503906,-0.67969 0.503906,-1.85156 0,-1.16602 -0.503906,-1.84571 -0.503906,-0.68554 -1.365234,-0.68554 z m 0,-0.91407 q 1.40625,0 2.208984,0.91407 0.802734,0.91406 0.802734,2.53125 0,1.61133 -0.802734,2.53125 -0.802734,0.91406 -2.208984,0.91406 -1.41211,0 -2.214844,-0.91406 -0.796875,-0.91992 -0.796875,-2.53125 0,-1.61719 0.796875,-2.53125 0.802734,-0.91407 2.214844,-0.91407 z"
         style="fill:#ffffff;stroke-width:0.75"
         id="path4975"
         inkscape:connector-curvature="0" /><path
         d="m 95.525,-405.02023 v 1.86328 h 2.220703 v 0.83789 H 95.525 v 3.5625 q 0,0.80273 0.216796,1.03125 0.222657,0.22851 0.896485,0.22851 h 1.107422 v 0.90235 h -1.107422 q -1.248047,0 -1.722656,-0.46289 -0.47461,-0.46875 -0.47461,-1.69922 v -3.5625 H 93.65 v -0.83789 h 0.791015 v -1.86328 z"
         style="fill:#ffffff;stroke-width:0.75"
         id="path4977"
         inkscape:connector-curvature="0" /><path
         d="m 104.78281,-400.14523 v 0.52734 h -4.957029 q 0.07031,1.11328 0.667969,1.69922 0.60352,0.58008 1.67578,0.58008 0.62109,0 1.20117,-0.15235 0.58594,-0.15234 1.16016,-0.45703 v 1.01953 q -0.58008,0.2461 -1.18945,0.375 -0.60938,0.12891 -1.23633,0.12891 -1.57031,0 -2.490237,-0.91406 -0.914062,-0.91407 -0.914062,-2.47266 0,-1.61133 0.867187,-2.55469 0.873052,-0.94922 2.349612,-0.94922 1.32422,0 2.09179,0.85547 0.77344,0.84961 0.77344,2.31446 z m -1.07812,-0.31641 q -0.0117,-0.88477 -0.49805,-1.41211 -0.48047,-0.52734 -1.27734,-0.52734 -0.90235,0 -1.44727,0.50976 -0.539062,0.50977 -0.621093,1.43555 z"
         style="fill:#ffffff;stroke-width:0.75"
         id="path4979"
         inkscape:connector-curvature="0" /><path
         d="m 110.73594,-402.96359 v 1.01953 q -0.45703,-0.23438 -0.94922,-0.35156 -0.49219,-0.11719 -1.01953,-0.11719 -0.80274,0 -1.20703,0.24609 -0.39844,0.2461 -0.39844,0.73828 0,0.375 0.28711,0.5918 0.28711,0.21094 1.15429,0.4043 l 0.36915,0.082 q 1.14843,0.24609 1.6289,0.69726 0.48633,0.44532 0.48633,1.24805 0,0.91406 -0.72656,1.44727 -0.72071,0.5332 -1.98633,0.5332 -0.52734,0 -1.10156,-0.10547 -0.56836,-0.0996 -1.20118,-0.30469 v -1.11328 q 0.59766,0.31055 1.17774,0.46875 0.58008,0.15235 1.14844,0.15235 0.76172,0 1.17187,-0.25782 0.41016,-0.26367 0.41016,-0.73828 0,-0.43945 -0.29883,-0.67383 -0.29297,-0.23437 -1.29492,-0.45117 l -0.375,-0.0879 q -1.00196,-0.21094 -1.44727,-0.64453 -0.44531,-0.43945 -0.44531,-1.20117 0,-0.92578 0.65625,-1.42969 0.65625,-0.50391 1.86328,-0.50391 0.59766,0 1.125,0.0879 0.52734,0.0879 0.97266,0.26367 z"
         style="fill:#ffffff;stroke-width:0.75"
         id="path4981"
         inkscape:connector-curvature="0" /></g></g></svg>