<?xml version="1.0" encoding="UTF-8"?>
<svg viewBox="0 0 199.98 199.98" xmlns="http://www.w3.org/2000/svg">
 <defs>
  <style>.cls-1{fill:none;}.cls-2{clip-path:url(#a);}.cls-3{opacity:0.7;}.cls-4{fill:#ed802c;}.cls-5{fill:#ffeed7;}</style>
  <clipPath id="a" transform="translate(0)">
   <rect class="cls-1" width="199.98" height="199.98"/>
  </clipPath>
 </defs>
 <g data-name="Layer 2">
  <g class="cls-2">
   <g class="cls-3">
    <path class="cls-4" transform="translate(0)" d="M200,169.59A30.39,30.39,0,0,1,169.59,200H30.39A30.39,30.39,0,0,1,0,169.59V30.39A30.39,30.39,0,0,1,30.39,0h139.2A30.39,30.39,0,0,1,200,30.39Z"/>
   </g>
  </g>
  <path class="cls-5" transform="translate(0)" d="M127.35,135.78H90.78a6.18,6.18,0,1,1,0-12.36h36.57a6.18,6.18,0,1,1,0,12.36M90.78,86.26h18a6.2,6.2,0,1,1,0,12.4h-18a6.2,6.2,0,1,1,0-12.4M160,102.4l-.86-1.79-1.44-1.13c-1.89-1.47-11.43.11-14-2.23-1.82-1.68-2.1-4.71-2.65-8.79-1-7.93-1.68-8.34-2.92-11-4.49-9.55-16.69-16.73-25.06-17.73H90.37A32.56,32.56,0,0,0,57.93,92.2v37.88A32.52,32.52,0,0,0,90.37,162.5h37.29a32.59,32.59,0,0,0,32.45-32.41l.21-26.24Z"/>
 </g>
</svg>
