<?xml version="1.0" encoding="UTF-8" standalone="no"?>
<svg viewBox="0 0 340 400" xmlns="http://www.w3.org/2000/svg" xmlns:xlink="http://www.w3.org/1999/xlink">
<defs>
<linearGradient id="linearGradient4461">
<stop offset="0" stop-color="#99aab4"/>
<stop offset="1" stop-color="#d9dfe3"/>
</linearGradient>
<linearGradient id="linearGradient4003">
<stop offset="0" stop-color="#a4a569"/>
<stop offset=".4527" stop-color="#9f7f25"/>
<stop offset=".7622" stop-color="#866e24"/>
<stop offset="1" stop-color="#775c15"/>
</linearGradient>
<linearGradient id="linearGradient3876">
<stop offset="0" stop-color="#733d20"/>
<stop offset=".2957" stop-color="#7a3a0d" stop-opacity="0"/>
<stop offset=".357" stop-color="#53280e" stop-opacity="0"/>
<stop offset=".6857" stop-color="#1e1814"/>
<stop offset=".8607" stop-color="#0f0c0a" stop-opacity=".5255"/>
<stop offset="1" stop-opacity="0"/>
</linearGradient>
<linearGradient id="linearGradient4091">
<stop offset="0" stop-color="#fff"/>
<stop offset="1" stop-color="#fff" stop-opacity="0"/>
</linearGradient>
<radialGradient cx="272.51129" cy="154.69922" gradientTransform="matrix(.95385,0,0,5.30762,332.18749,-655.69889)" gradientUnits="userSpaceOnUse" id="radialGradient5338" r="54.17621" spreadMethod="reflect">
<stop offset="0" stop-color="#733d20"/>
<stop offset=".2957" stop-color="#7a3a0d"/>
<stop offset=".5557" stop-color="#53280e"/>
<stop offset=".8427" stop-color="#1e1814"/>
<stop offset="1"/>
</radialGradient>
<radialGradient cx="343.13049" cy="193.13541" gradientTransform="matrix(1.80259,0,0,3.72398,-276.45759,-239.9635)" gradientUnits="userSpaceOnUse" id="radialGradient5131" r="51.60943" xlink:href="#linearGradient4003"/>
<radialGradient cx="485.45685" cy="225.26109" gradientTransform="matrix(.70044,0,0,1.36454,114.65758,221.04024)" gradientUnits="userSpaceOnUse" id="radialGradient5133" r="51.60943" spreadMethod="reflect" xlink:href="#linearGradient4091"/>
<radialGradient cx="374.83771" cy="364.62338" gradientTransform="matrix(1,0,0,.41409,0,213.63673)" gradientUnits="userSpaceOnUse" id="radialGradient5135" r="50.86073" xlink:href="#linearGradient4461"/>
<radialGradient cx="365.0174" cy="526.83075" gradientTransform="matrix(.62104,0,0,.38947,145.29135,358.27439)" gradientUnits="userSpaceOnUse" id="radialGradient5137" r="48.79688" spreadMethod="reflect" xlink:href="#linearGradient4461"/>
<radialGradient cx="371.08472" cy="580.00232" gradientTransform="matrix(1.24129,-.41074,.13543,.62419,-171.10011,404.3528)" gradientUnits="userSpaceOnUse" id="radialGradient5139" r="48.79688" spreadMethod="reflect" xlink:href="#linearGradient4461"/>
<radialGradient cx="591.625" cy="-32.76282" gradientTransform="matrix(1,0,0,.1405,0,-28.15978)" gradientUnits="userSpaceOnUse" id="radialGradient5141" r="15.125" xlink:href="#linearGradient4091"/>
<radialGradient cx="266.57925" cy="85.74721" gradientTransform="matrix(1,0,0,.35187,0,55.57517)" gradientUnits="userSpaceOnUse" id="radialGradient5169" r="45.82194" xlink:href="#linearGradient3876"/>
<radialGradient cx="403.64636" cy="610.49188" gradientTransform="matrix(.92388,-.24755,.1008,.3762,-30.69447,459.25747)" gradientUnits="userSpaceOnUse" id="radialGradient5187" r="48.79688" spreadMethod="reflect" xlink:href="#linearGradient4461"/>
<radialGradient cx="583.3631" cy="41.55304" gradientTransform="matrix(1,0,0,12.625,0,-483.05405)" gradientUnits="userSpaceOnUse" id="radialGradient5189" r="2.82843" xlink:href="#linearGradient4091"/>
<radialGradient cx="275.39316" cy="145.63994" gradientTransform="matrix(.98146,0,0,5.30762,324.66431,-655.69889)" gradientUnits="userSpaceOnUse" id="radialGradient5340" r="54.17621" spreadMethod="reflect" xlink:href="#linearGradient3876"/>
<radialGradient cx="589.10107" cy="87.64403" gradientTransform="matrix(2.13613,0,0,1.19335,-664.85093,-54.69934)" gradientUnits="userSpaceOnUse" id="radialGradient5342" r="49.07813" xlink:href="#linearGradient3876"/>
<radialGradient cx="255.45731" cy="107.30967" gradientTransform="matrix(-1.25243,.15589,.49077,3.32213,882.73316,-279.59874)" gradientUnits="userSpaceOnUse" id="radialGradient5344" r="6.25779" xlink:href="#linearGradient4091"/>
<radialGradient cx="266.69742" cy="72.33128" gradientTransform="matrix(.57173,-.1532,.51725,1.9304,420.11808,-20.31454)" gradientUnits="userSpaceOnUse" id="radialGradient5346" r="3.78947" xlink:href="#linearGradient4091"/>
<radialGradient cx="255.45731" cy="107.30967" gradientTransform="matrix(-.62003,.01404,.07503,1.6485,765.28206,-65.00102)" gradientUnits="userSpaceOnUse" id="radialGradient5348" r="6.25779" xlink:href="#linearGradient4091"/>
<radialGradient cx="592.44598" cy="-16.62495" gradientTransform="matrix(2.92695,0,0,1.20225,-1141.2363,-3.15889)" gradientUnits="userSpaceOnUse" id="radialGradient5350" r="25.12046" spreadMethod="reflect" xlink:href="#linearGradient3876"/>
<radialGradient cx="266.69742" cy="72.33128" gradientTransform="matrix(.93697,-.25106,.84768,3.1636,298.96986,-83.047)" gradientUnits="userSpaceOnUse" id="radialGradient5354" r="3.78947" xlink:href="#linearGradient4091"/>
<radialGradient cx="260.43073" cy="124.28024" fx="275.05978" fy="93.24554" gradientTransform="matrix(.92502,.50067,-.09839,.7352,38.92386,-135.12273)" gradientUnits="userSpaceOnUse" id="radialGradient5466" r="45.80793" xlink:href="#linearGradient4003"/>
<radialGradient cx="267.59784" cy="88.27585" gradientTransform="matrix(.99997,0,0,.35167,.00669,55.59217)" gradientUnits="userSpaceOnUse" id="radialGradient5474" r="45.80793" xlink:href="#linearGradient3876"/>
</defs>
<g transform="translate(-499.15625,49.06678)">
<path d="m592.20221-42.16053c-6.54143,0-12.48439.67892-16.78188,1.78125-3.22312.82675-5.51815,1.90299-6.46832,3.09375-.31673.39692-.50674.79764-.50674,1.21875 .0534.86731-.25512,1.82187-.35769,2.5625 0,1.09991.66045,2.16227 1.78847,3.125-1.89183,5.45966-3.65628,10.05374-2.44425,15.125 .34068,1.42542 2.28459,1.95745 2.65291,3.375 1.15423,4.44227-1.40055,11.62056-2.02694,13.65625-.70088,2.27775-1.3307,4.58181-1.8779,6.90625s-1.02196,4.66013-1.43078,6.96875-.78735,4.61346-1.07309,6.84375-.47779,4.41055-.65577,6.5-.33181,4.08266-.41732,5.96875-.11087,3.66102-.11923,5.28125c0,12.48801 3.80678,18.53106 1.78848,27.5-3.54515,15.75408-22.48295,24.34803-22.99859,43.75362s-.43735,36.24398-.43262,53.03482c.005,16.79084-.0641,33.53412-.14548,50.0656s-.1753,32.85118-.2207,48.79484c-.0227,7.97183-.3785,15.74993-.0241,23.61292 .34552,7.66594 0,0 2.0944,22.9257 0,12.70139 21.13307,23 49.65718,23s49.59755-10.29861 49.59755-23c1.99973-24.44088 1.66619-16.2735 1.99973-24.44088 .33266-8.14569-.00011-16.30495-.00013-24.45743-4e-005-16.31578-2e-005-32.6272 4e-005-48.94733s.00015-32.6427.00023-48.96201 .00013-32.63532-.62196-51.83357-19.56455-27.90251-23.10504-43.54628c-2.03253-8.98077 1.81829-15.01199 1.81829-27.5-.0675-1.57992-.19175-3.31798-.32789-5.1875s-.32137-3.87769-.53654-5.96875-.44059-4.28672-.7452-6.53125-.63883-4.54506-1.04328-6.875-.88629-4.68396-1.40097-7.03125-1.06373-4.67218-1.69905-6.96875c-.56286-2.03463-3.02511-9.21168-1.8481-13.625 .36981-1.38661 2.25947-1.91551 2.59329-3.3125 1.21348-5.0782-.52594-9.68404-2.41444-15.15625 1.12026-.95752 1.78848-1.99892 1.78848-3.09375-.16366-.93712-.30927-1.74622-.38751-2.5625 0-3.36888-10.58465-6.09375-23.6675-6.09375z" fill="url(#radialGradient5338)" opacity=".9581"/>
<path d="m592.20456-42.16053c-6.73075,0-12.84571.67892-17.26759,1.78125-3.31641.82675-5.67786,1.90299-6.65553,3.09375-.32589.39692-.5214.79764-.5214,1.21875 .0549.86731-.26251,1.82187-.36805,2.5625 0,1.09991.67956,2.16227 1.84023,3.125-1.94658,5.45966-3.7621,10.05374-2.51499,15.125 .35054,1.42542 2.35072,1.95745 2.7297,3.375 1.18763,4.44227-1.44109,11.62056-2.08561,13.65625-.72116,2.27775-1.36922,4.58181-1.93225,6.90625s-1.05154,4.66013-1.4722,6.96875-.81013,4.61346-1.10414,6.84375-.49162,4.41055-.67475,6.5-.34142,4.08266-.4294,5.96875-.11408,3.66102-.12268,5.28125c0,12.48801 3.91696,18.53106 1.84025,27.5-3.64777,15.75408-23.13368,24.34803-23.66424,43.75362s-.45,36.24398-.44514,53.03482c.005,16.79084-.0659,33.53412-.14969,50.0656s-.18038,32.85118-.22709,48.79484c-.0234,7.97183-.38946,15.74993-.0248,23.61292 .35552,7.66594 0,0 2.15501,22.9257 0,12.70139 21.74472,23 51.09439,23s51.03305-10.29861 51.03305-23c2.0576-24.44088 1.71441-16.2735 2.0576-24.44088 .34229-8.14569-.00011-16.30495-.00013-24.45743-5e-005-16.31578-3e-005-32.6272 4e-005-48.94733s.00016-32.6427.00023-48.96201 .00014-32.63532-.63995-51.83357-20.1308-27.90251-23.77377-43.54628c-2.09135-8.98077 1.87092-15.01199 1.87092-27.5-.0694-1.57992-.1973-3.31798-.33738-5.1875s-.33068-3.87769-.55207-5.96875-.45335-4.28672-.76677-6.53125-.65732-4.54506-1.07348-6.875-.91193-4.68396-1.44151-7.03125-1.09452-4.67218-1.74822-6.96875c-.57916-2.03463-3.11267-9.21168-1.90159-13.625 .3805-1.38661 2.32486-1.91551 2.66834-3.3125 1.2486-5.0782-.54116-9.68404-2.48432-15.15625 1.15269-.95752 1.84025-1.99892 1.84025-3.09375-.16841-.93712-.31823-1.74622-.39873-2.5625 0-3.36888-10.891-6.09375-24.35251-6.09375z" fill="url(#radialGradient5340)" opacity=".9581"/>
<path d="m564.09375,55.09375c.7194,4.27854 1.21358,8.09657.1875,12.65625-3.54515,15.75408-22.48436,24.34441-23,43.75-.004.16093.004.30817 0,.46875 17.37829,4.19075 37.42043,6.59375 58.75,6.59375 15.26669,0 29.8287-1.25899 43.25-3.5-.0367-1.27932-.0515-2.4762-.0937-3.78125-.62209-19.19825-19.58451-27.88747-23.125-43.53125-.8982-3.96872-.62213-7.37153-.0625-11-6.49375.47246-13.1577.71875-19.96875.71875-12.52294,0-24.58513-.84455-35.9375-2.375z" fill="url(#radialGradient5342)" opacity=".9581"/>
<path d="m631.67549,140.69817c-10.96245,6.58035-22.20468-2.21524-26.36032-8.72104-4.2995-8.50605-1.32753-18.26933-5.78578-26.82255-4.56705-12.92778-13.40417-24.74039-17.43808-37.77462 .16075-8.45646 14.95323-9.61423 23.27379-7.4318 31.65437,11.95187 43.42781,63.63926 26.31039,80.75002z" fill="url(#radialGradient5344)" opacity=".493"/>
<path d="m609.21744,87.5556c-1.65961-4.7844-.85986-10.1204-2.98684-14.7734-.73416-.99308-.63214-2.21943-.15685-3.28877 .21241-1.06694 1.18381-2.74605 2.45061-1.88952 1.31966,1.05903 2.00456,2.68921 2.69526,4.19155 1.31663,3.34262 2.23439,6.86836 2.55163,10.45192 .0609,1.76116.20106,3.67622-.69488,5.26511-.66506,1.17235-2.23801,1.04549-3.23246.40767-.21325-.11375-.42074-.23785-.62647-.36456z" fill="url(#radialGradient5346)" opacity=".6558"/>
<path d="m621.68215,128.01374c-5.68599,2.67289-10.74555-2.18515-12.45425-5.572-1.67975-4.37188.25781-8.99747-1.49721-13.40029-1.59107-6.54687-5.32506-12.7605-6.6502-19.33295 .49833-4.12625 7.7876-3.95802 11.74706-2.47807 14.88206,7.41427 18.07234,33.26778 8.8546,40.78331z" fill="url(#radialGradient5348)"/>
<path d="m592.1875-42.15625c-6.54143,0-12.48376.67892-16.78125,1.78125-3.22312.82675-5.51858,1.90299-6.46875,3.09375-.31673.39692-.5.79764-.5,1.21875 .0534.86731-.24118,1.82187-.34375,2.5625 0,1.09991.65323,2.16227 1.78125,3.125-1.89183,5.45966-3.64953,10.05374-2.4375,15.125 .11001.46029.38142.82237.71875,1.15625 6.93961,2.18788 15.15857,3.46875 23.96875,3.46875 8.8384,0 17.07764-1.2992 24.03125-3.5 .3287-.32818.61095-.67389.71875-1.125 1.21348-5.0782-.51775-9.68404-2.40625-15.15625 1.12026-.95752 1.78125-1.99892 1.78125-3.09375-.16366-.93712-.29676-1.74622-.375-2.5625 0-3.36888-10.60465-6.09375-23.6875-6.09375z" fill="url(#radialGradient5350)" opacity=".9581"/>
<path d="m586.19153,41.55304c0,19.72148-1.26633,35.70889-2.82843,35.70889s-2.82843-15.98742-2.82843-35.70889 1.26633-35.70889 2.82843-35.70889 2.82843,15.98742 2.82843,35.70889z" fill="url(#radialGradient5189)" opacity=".493" transform="matrix(.93919,-.00372,-.05388,.70331,33.74782,-9.23048)"/>
<path d="m608.87213,93.73416c-2.71982-7.84084-1.40916-16.58565-4.89493-24.21114-1.20316-1.6275-1.03597-3.63728-.25705-5.38975 .34811-1.74854 1.94007-4.50031 4.01614-3.0966 2.1627,1.73557 3.28514,4.40716 4.41708,6.86925 2.15774,5.478 3.6618,11.2561 4.1817,17.12896 .0998,2.88625.3295,6.02471-1.13879,8.62863-1.08993,1.92129-3.66773,1.71339-5.29747.66811-.34948-.18642-.68952-.38979-1.02668-.59745z" fill="url(#radialGradient5354)"/>
<path d="m606.75-32.76282c0,1.17361-6.77169,2.125-15.125,2.125s-15.125-.95139-15.125-2.125 6.77169-2.125 15.125-2.125 15.125.95139 15.125,2.125z" fill="url(#radialGradient5141)" opacity=".493" transform="matrix(.05656,.3251,-.70073,.05945,548.62259,-213.6259)"/>
<path d="m587.77874,41.55304c0,19.72148-1.97695,35.70889-4.41564,35.70889s-4.41564-15.98742-4.41564-35.70889 1.97695-35.70889 4.41564-35.70889 4.41564,15.98742 4.41564,35.70889z" fill="url(#radialGradient5189)" opacity=".493" transform="matrix(.99954,-.01686,.08246,.91104,19.17251,.81807)"/>
<path d="m587.77874,41.55304c0,19.72148-1.97695,35.70889-4.41564,35.70889s-4.41564-15.98742-4.41564-35.70889 1.97695-35.70889 4.41564-35.70889 4.41564,15.98742 4.41564,35.70889z" fill="url(#radialGradient5189)" transform="matrix(.53335,-.009,.044,.48613,294.72684,15.88696)"/>
<path d="m586.19153,41.55304c0,19.72148-1.26633,35.70889-2.82843,35.70889s-2.82843-15.98742-2.82843-35.70889 1.26633-35.70889 2.82843-35.70889 2.82843,15.98742 2.82843,35.70889z" fill="url(#radialGradient5189)" transform="matrix(.52764,-.00209,-.03027,.39513,272.84693,2.62463)"/>
<path d="m606.75-32.76282c0,1.17361-6.77169,2.125-15.125,2.125s-15.125-.95139-15.125-2.125 6.77169-2.125 15.125-2.125 15.125.95139 15.125,2.125z" fill="url(#radialGradient5141)" opacity=".493" transform="matrix(.46432,.06586,-.09913,.69889,324.15872,-54.95108)"/>
<path d="m606.75-32.76282c0,1.17361-6.77169,2.125-15.125,2.125s-15.125-.95139-15.125-2.125 6.77169-2.125 15.125-2.125 15.125.95139 15.125,2.125z" fill="url(#radialGradient5141)" transform="matrix(.39942,.05665,-.08527,.60119,363.01232,-52.70516)"/>
</g>
<g transform="translate(-134.15625,-226.8437)">
<path d="m374.75,343.58475c-26.35228,0-47.81009,3.56166-48.75,8.03125-.0437-.028-.0812-.0659-.125-.0937-1.72744,16.19491-2.71875,33.47833-2.71875,51.5 0,70.83888 35.66537,102.62016 24.625,153.125-2.29949,10.51916-15.83438,20.03048-17.96875,26.84375-.004.0124-.0274.0188-.0312.0312-2.44809,2.21743-3.8125,4.63073-3.8125,7.1875 0,10.27376 21.83101,18.625 48.78125,18.625s48.8125-8.35124 48.8125-18.625c0-2.55677-1.36441-4.97007-3.8125-7.1875l-.0312-.0312c-2.13026-6.81327-15.64243-16.32956-17.9375-26.84375-11.02473-50.50656 24.59375-82.28612 24.59375-153.125 0-18.02167-.99131-35.30509-2.71875-51.5-.0438.0279-.0813.0658-.125.0937-.93991-4.46959-22.42897-8.03125-48.78125-8.03125z" fill="url(#radialGradient5131)"/>
<path d="m374.75344,343.58475c-20.5754,0-37.32927,3.56166-38.06314,8.03125-.0341-.028-.0634-.0659-.0976-.0937-1.34874,16.19491-2.12275,33.47833-2.12275,51.5 0,70.83888 27.84689,102.62016 19.22676,153.125-1.79539,10.51916-12.3632,20.03048-14.02967,26.84375-.004.0124-.0214.0188-.0244.0312-1.91143,2.21743-2.97673,4.63073-2.97673,7.1875 0,10.27376 17.04526,18.625 38.08752,18.625s38.11193-8.35124 38.11193-18.625c0-2.55677-1.0653-4.97007-2.97673-7.1875l-.0244-.0312c-1.66326-6.81327-12.21333-16.32956-14.00528-26.84375-8.60791-50.50656 19.20237-82.28612 19.20237-153.125 0-18.02167-.77401-35.30509-2.12275-51.5-.0342.0279-.0635.0658-.0976.0937-.73387-4.46959-17.51215-8.03125-38.08753-8.03125z" fill="url(#radialGradient5133)" opacity=".1379"/>
<path d="m374.4063,343.5625c-14.90855.21443-30.09717.56638-44.4819,4.88083-5.49589,1.16916-4.36765,6.94613-4.85563,11.10611-.41665,5.94545-1.16894,11.94768-1.08536,17.87926 1.90643,3.58598 6.59215,3.92382 10.1139,4.90132 17.77281,3.63904 36.05285,3.66273 54.11082,3.06204 10.92916-.51436 21.98348-1.44777 32.4942-4.63642 3.48812-.39695 5.64184-5.06911 1.29584-6.0646-8.13824-3.48293-17.1343-3.94585-25.83729-4.81738-19.89208-1.47354-40.01792-1.23694-59.73058,2.00535-3.88267.67497-7.79285,1.65596-11.2115,3.68349 5.73446-3.76533 12.8309-4.13598 19.41877-5.19127 21.04283-2.42733 42.39655-2.27046 63.40783.38898 5.39402.83723 11.08139,1.67175 15.8354,4.44363 3.48494,4.22928.80679-5.44312 1.23961-7.48025-.39204-5.51996-.87738-11.03339-1.46411-16.53609-.8642,2.37183-.42368,1.4734-.94365-.2669-3.16689-3.29064-8.08563-3.5296-12.27594-4.60733-11.87415-2.18462-23.98202-2.67623-36.03041-2.75077z" fill="url(#radialGradient5135)"/>
<path d="m407.0625,566.15625c-.32952.15363-.63694.35094-.96875.5-2.40772,1.08163-4.85431,2.04229-7.375,2.875s-5.09857,1.52428-7.71875,2.09375-5.29383.98935-8,1.28125-5.44007.46875-8.21875.46875-5.54383-.17685-8.25-.46875-5.37982-.71178-8-1.28125-5.19806-1.26104-7.71875-2.09375-4.96728-1.79337-7.375-2.875c-.33181-.14906-.63923-.34637-.96875-.5-4.85229,6.45238-11.23102,12.29419-12.65625,16.84375-.004.0124-.0274.0189-.0312.0312-2.44809,2.21743-3.8125,4.63073-3.8125,7.1875 0,10.27376 21.83101,18.625 48.78125,18.625s48.8125-8.35124 48.8125-18.625c0-2.55677-1.36441-4.97007-3.8125-7.1875l-.0312-.0312c-1.42361-4.55317-7.81109-10.38516-12.65625-16.84375z" fill="url(#radialGradient5137)"/>
<path d="m330.26701,581.71815c-.77286,1.26913-1.57723,2.4944-2.39322,3.73318 .22088.14103.44208.29417.67178.4148 3.41723,1.79463 6.87702,3.38854 10.45457,4.77016s7.23965,2.52908 10.95842,3.47393 7.49548,1.64152 11.33628,2.12584 7.77044.77775 11.71417.77775 7.83138-.29344 11.67217-.77775 7.61753-1.18097 11.33629-2.12584 7.38085-2.0923 10.95841-3.47393 7.03735-2.97553 10.45457-4.77016c.47094-.24733.91787-.5747 1.38555-.8296-5.95084,1.59452-5.33603.25423-1.76342-3.31838-.44273.2549-.85577.58228-1.30158.82959-3.23491,1.79463-6.52205,3.38856-9.90875,4.77017s-6.85023,2.52908-10.3706,3.47393-7.11259,1.64153-10.74848,2.12585-7.30906.77774-11.04238.77774-7.44847-.29343-11.08437-.77774-7.22811-1.18099-10.74848-2.12585-6.98391-2.0923-10.3706-3.47393-6.67385-2.97554-9.90876-4.77017c-.44581-.24731-.85884-.57469-1.30157-.82959z" fill="url(#radialGradient5139)"/>
<g transform="matrix(-.21982,1.94953,1.70582,.25122,551.2047,-804.3768)">
<path d="m606.75-32.76282c0,1.17361-6.77169,2.125-15.125,2.125s-15.125-.95139-15.125-2.125 6.77169-2.125 15.125-2.125 15.125.95139 15.125,2.125z" fill="url(#radialGradient5141)" opacity=".493" transform="matrix(.46432,.06586,-.09913,.69889,324.37317,-56.61528)"/>
<path d="m606.75-32.76282c0,1.17361-6.77169,2.125-15.125,2.125s-15.125-.95139-15.125-2.125 6.77169-2.125 15.125-2.125 15.125.95139 15.125,2.125z" fill="url(#radialGradient5141)" transform="matrix(.39942,.05665,-.08527,.60119,363.22677,-54.36935)"/>
<path d="m606.75-32.76282c0,1.17361-6.77169,2.125-15.125,2.125s-15.125-.95139-15.125-2.125 6.77169-2.125 15.125-2.125 15.125.95139 15.125,2.125z" fill="url(#radialGradient5141)" opacity=".493" transform="matrix(.46432,.06586,-.09913,.69889,324.15872,-54.95108)"/>
<path d="m606.75-32.76282c0,1.17361-6.77169,2.125-15.125,2.125s-15.125-.95139-15.125-2.125 6.77169-2.125 15.125-2.125 15.125.95139 15.125,2.125z" fill="url(#radialGradient5141)" transform="matrix(.39942,.05665,-.08527,.60119,363.01232,-52.70516)"/>
</g>
<g transform="matrix(-.22554,2.58097,1.75027,.33259,551.96082,-1175.1448)">
<path d="m606.75-32.76282c0,1.17361-6.77169,2.125-15.125,2.125s-15.125-.95139-15.125-2.125 6.77169-2.125 15.125-2.125 15.125.95139 15.125,2.125z" fill="url(#radialGradient5141)" opacity=".493" transform="matrix(.46432,.06586,-.09913,.69889,324.37317,-56.61528)"/>
<path d="m606.75-32.76282c0,1.17361-6.77169,2.125-15.125,2.125s-15.125-.95139-15.125-2.125 6.77169-2.125 15.125-2.125 15.125.95139 15.125,2.125z" fill="url(#radialGradient5141)" transform="matrix(.39942,.05665,-.08527,.60119,363.22677,-54.36935)"/>
<path d="m606.75-32.76282c0,1.17361-6.77169,2.125-15.125,2.125s-15.125-.95139-15.125-2.125 6.77169-2.125 15.125-2.125 15.125.95139 15.125,2.125z" fill="url(#radialGradient5141)" opacity=".493" transform="matrix(.46432,.06586,-.09913,.69889,324.15872,-54.95108)"/>
<path d="m606.75-32.76282c0,1.17361-6.77169,2.125-15.125,2.125s-15.125-.95139-15.125-2.125 6.77169-2.125 15.125-2.125 15.125.95139 15.125,2.125z" fill="url(#radialGradient5141)" transform="matrix(.39942,.05665,-.08527,.60119,363.01232,-52.70516)"/>
</g>
<path d="m606.75-32.76282c0,1.17361-6.77169,2.125-15.125,2.125s-15.125-.95139-15.125-2.125 6.77169-2.125 15.125-2.125 15.125.95139 15.125,2.125z" fill="url(#radialGradient5141)" opacity=".493" transform="matrix(1.29299,-.19067,-.27605,-2.02336,-424.53051,397.43837)"/>
<path d="m606.75-32.76282c0,1.17361-6.77169,2.125-15.125,2.125s-15.125-.95139-15.125-2.125 6.77169-2.125 15.125-2.125 15.125.95139 15.125,2.125z" fill="url(#radialGradient5141)" transform="matrix(1.13107,-.0636,.05106,-1.74887,-318.01718,331.25292)"/>
<path d="m311.12698,85.74721c0,8.20101-19.9447,14.84924-44.54773,14.84924s-44.54772-6.64823-44.54772-14.84924 19.94469-14.84924 44.54772-14.84924 44.54773,6.64823 44.54773,14.84924z" fill="url(#radialGradient5466)" stroke="url(#radialGradient5474)" stroke-width="2.50273" transform="matrix(1.13577,0,0,.56227,71.99379,329.1687)"/>
<g opacity=".6977" transform="matrix(-.87905,1.71635,6.82163,.22117,1141.1022,-654.64949)">
<path d="m606.75-32.76282c0,1.17361-6.77169,2.125-15.125,2.125s-15.125-.95139-15.125-2.125 6.77169-2.125 15.125-2.125 15.125.95139 15.125,2.125z" fill="url(#radialGradient5141)" opacity=".493" transform="matrix(.46432,.06586,-.09913,.69889,324.37317,-56.61528)"/>
<path d="m606.75-32.76282c0,1.17361-6.77169,2.125-15.125,2.125s-15.125-.95139-15.125-2.125 6.77169-2.125 15.125-2.125 15.125.95139 15.125,2.125z" fill="url(#radialGradient5141)" transform="matrix(.39942,.05665,-.08527,.60119,363.22677,-54.36935)"/>
<path d="m606.75-32.76282c0,1.17361-6.77169,2.125-15.125,2.125s-15.125-.95139-15.125-2.125 6.77169-2.125 15.125-2.125 15.125.95139 15.125,2.125z" fill="url(#radialGradient5141)" opacity=".493" transform="matrix(.46432,.06586,-.09913,.69889,324.15872,-54.95108)"/>
<path d="m606.75-32.76282c0,1.17361-6.77169,2.125-15.125,2.125s-15.125-.95139-15.125-2.125 6.77169-2.125 15.125-2.125 15.125.95139 15.125,2.125z" fill="url(#radialGradient5141)" transform="matrix(.39942,.05665,-.08527,.60119,363.01232,-52.70516)"/>
</g>
<g transform="matrix(.40959,1.33376,-1.85955,.40636,75.0825,-201.32183)">
<path d="m606.75-32.76282c0,1.17361-6.77169,2.125-15.125,2.125s-15.125-.95139-15.125-2.125 6.77169-2.125 15.125-2.125 15.125.95139 15.125,2.125z" fill="url(#radialGradient5141)" opacity=".493" transform="matrix(.46432,.06586,-.09913,.69889,324.37317,-56.61528)"/>
<path d="m606.75-32.76282c0,1.17361-6.77169,2.125-15.125,2.125s-15.125-.95139-15.125-2.125 6.77169-2.125 15.125-2.125 15.125.95139 15.125,2.125z" fill="url(#radialGradient5141)" transform="matrix(.39942,.05665,-.08527,.60119,363.22677,-54.36935)"/>
<path d="m606.75-32.76282c0,1.17361-6.77169,2.125-15.125,2.125s-15.125-.95139-15.125-2.125 6.77169-2.125 15.125-2.125 15.125.95139 15.125,2.125z" fill="url(#radialGradient5141)" opacity=".493" transform="matrix(.46432,.06586,-.09913,.69889,324.15872,-54.95108)"/>
<path d="m606.75-32.76282c0,1.17361-6.77169,2.125-15.125,2.125s-15.125-.95139-15.125-2.125 6.77169-2.125 15.125-2.125 15.125.95139 15.125,2.125z" fill="url(#radialGradient5141)" transform="matrix(.39942,.05665,-.08527,.60119,363.01232,-52.70516)"/>
</g>
<g transform="matrix(.47006,1.77461,-1.90159,.46928,42.4521,-460.53086)">
<path d="m606.75-32.76282c0,1.17361-6.77169,2.125-15.125,2.125s-15.125-.95139-15.125-2.125 6.77169-2.125 15.125-2.125 15.125.95139 15.125,2.125z" fill="url(#radialGradient5141)" opacity=".493" transform="matrix(.46432,.06586,-.09913,.69889,324.37317,-56.61528)"/>
<path d="m606.75-32.76282c0,1.17361-6.77169,2.125-15.125,2.125s-15.125-.95139-15.125-2.125 6.77169-2.125 15.125-2.125 15.125.95139 15.125,2.125z" fill="url(#radialGradient5141)" transform="matrix(.39942,.05665,-.08527,.60119,363.22677,-54.36935)"/>
<path d="m606.75-32.76282c0,1.17361-6.77169,2.125-15.125,2.125s-15.125-.95139-15.125-2.125 6.77169-2.125 15.125-2.125 15.125.95139 15.125,2.125z" fill="url(#radialGradient5141)" opacity=".493" transform="matrix(.46432,.06586,-.09913,.69889,324.15872,-54.95108)"/>
<path d="m606.75-32.76282c0,1.17361-6.77169,2.125-15.125,2.125s-15.125-.95139-15.125-2.125 6.77169-2.125 15.125-2.125 15.125.95139 15.125,2.125z" fill="url(#radialGradient5141)" transform="matrix(.39942,.05665,-.08527,.60119,363.01232,-52.70516)"/>
</g>
<path d="m342.46875,566.15625c-.57523.76491-1.17392,1.50338-1.78125,2.25 .1644.085.32904.1773.5.25 2.54341,1.08163 5.11851,2.04229 7.78125,2.875s5.38841,1.52428 8.15625,2.09375 5.57882.98935 8.4375,1.28125 5.78347.46875 8.71875.46875 5.82883-.17685 8.6875-.46875 5.66966-.71178 8.4375-1.28125 5.4935-1.26104 8.15625-2.09375 5.23784-1.79337 7.78125-2.875c.35051-.14906.68316-.34637 1.03125-.5 2.18934,2.7627 4.65861,5.3614 6.90625,7.84375-2.49957-3.03459-5.58622-6.33459-8.21875-9.84375-.32952.15363-.63694.35094-.96875.5-2.40772,1.08163-4.85431,2.04229-7.375,2.875s-5.09857,1.52428-7.71875,2.09375-5.29383.98935-8,1.28125-5.44007.46875-8.21875.46875-5.54383-.17685-8.25-.46875-5.37982-.71178-8-1.28125-5.19806-1.26104-7.71875-2.09375-4.96728-1.79337-7.375-2.875c-.33181-.14906-.63923-.34637-.96875-.5z" fill="url(#radialGradient5187)"/>
<g opacity=".2326">
<path d="m587.77874,41.55304c0,19.72148-1.97695,35.70889-4.41564,35.70889s-4.41564-15.98742-4.41564-35.70889 1.97695-35.70889 4.41564-35.70889 4.41564,15.98742 4.41564,35.70889z" fill="url(#radialGradient5189)" opacity=".493" transform="matrix(-1.00168,.04279,-.07319,1.1748,975.97644,447.52941)"/>
<path d="m587.77874,41.55304c0,19.72148-1.97695,35.70889-4.41564,35.70889s-4.41564-15.98742-4.41564-35.70889 1.97695-35.70889 4.41564-35.70889 4.41564,15.98742 4.41564,35.70889z" fill="url(#radialGradient5189)" transform="matrix(-.53449,.02283,-.03906,.62687,700.0373,484.63631)"/>
</g>
<path d="m311.12698,85.74721c0,8.20101-19.9447,14.84924-44.54773,14.84924s-44.54772-6.64823-44.54772-14.84924 19.94469-14.84924 44.54772-14.84924 44.54773,6.64823 44.54773,14.84924z" fill="none" stroke="url(#radialGradient5169)" stroke-width="2.54842" transform="matrix(1.0954,0,0,.56227,82.75383,303.71286)"/>
</g>
</svg>
