<?xml version="1.0" encoding="UTF-8" standalone="no"?>
<!-- Created with Inkscape (http://www.inkscape.org/) -->

<svg
   xmlns:dc="http://purl.org/dc/elements/1.1/"
   xmlns:cc="http://creativecommons.org/ns#"
   xmlns:rdf="http://www.w3.org/1999/02/22-rdf-syntax-ns#"
   xmlns:svg="http://www.w3.org/2000/svg"
   xmlns="http://www.w3.org/2000/svg"
   xmlns:sodipodi="http://sodipodi.sourceforge.net/DTD/sodipodi-0.dtd"
   xmlns:inkscape="http://www.inkscape.org/namespaces/inkscape"
   width="423.33334mm"
   height="79.375mm"
   viewBox="0 0 1500 281.25"
   id="svg4329"
   version="1.1"
   inkscape:version="0.92.1 r15371"
   sodipodi:docname="lata.roxo.svg">
  <defs
     id="defs4331" />
  <sodipodi:namedview
     id="base"
     pagecolor="#ffffff"
     bordercolor="#666666"
     borderopacity="1.0"
     inkscape:pageopacity="0.0"
     inkscape:pageshadow="2"
     inkscape:zoom="0.71899471"
     inkscape:cx="691.2404"
     inkscape:cy="62.246532"
     inkscape:document-units="px"
     inkscape:current-layer="layer1"
     showgrid="false"
     inkscape:window-width="1440"
     inkscape:window-height="800"
     inkscape:window-x="0"
     inkscape:window-y="35"
     inkscape:window-maximized="1" />
  <metadata
     id="metadata4334">
    <rdf:RDF>
      <cc:Work
         rdf:about="">
        <dc:format>image/svg+xml</dc:format>
        <dc:type
           rdf:resource="http://purl.org/dc/dcmitype/StillImage" />
        <dc:title />
      </cc:Work>
    </rdf:RDF>
  </metadata>
  <g
     inkscape:label="Camada 1"
     inkscape:groupmode="layer"
     id="layer1"
     transform="translate(-3.1428571,-506.82648)">
    <rect
       style="fill:#65d965;fill-opacity:1;stroke:none;stroke-width:1.09706914;stroke-miterlimit:4;stroke-dasharray:none"
       id="rect4901"
       width="1500"
       height="281.25"
       x="3.1428571"
       y="506.82648" />
    <g
       aria-label="ROXO RESÃDUOS  RADIOATIVOS"
       style="font-style:normal;font-weight:normal;line-height:0%;font-family:sans-serif;letter-spacing:0px;word-spacing:0px;fill:#800080;fill-opacity:1;stroke:none;stroke-width:1px;stroke-linecap:butt;stroke-linejoin:miter;stroke-opacity:1"
       id="text4922"
       transform="matrix(0.80099714,0,0,0.71770124,323.46331,201.93784)">
      <path
         d="m 558.40173,545.43005 -19.95849,-32.6538 h -21.11817 v 32.6538 H 499.3197 v -85.99853 h 42.96875 q 15.38086,0 23.74268,6.65283 8.36181,6.5918 8.36181,18.98193 0,9.03321 -5.12695,15.625 -5.12695,6.53077 -13.85498,8.60596 l 23.2544,36.13281 z m -2.13623,-59.63134 q 0,-12.39014 -15.86914,-12.39014 h -23.07129 v 25.39062 h 23.55957 q 7.56836,0 11.47461,-3.41796 3.90625,-3.41797 3.90625,-9.58252 z"
         style="font-style:normal;font-variant:normal;font-weight:bold;font-stretch:normal;font-size:125px;line-height:1.25;font-family:'Liberation Sans';-inkscape-font-specification:'Liberation Sans Bold';text-align:center;text-anchor:middle;fill:#800080;fill-opacity:1;stroke:none"
         id="path4501"
         inkscape:connector-curvature="0" />
      <path
         d="m 673.2699,502.03406 q 0,13.42773 -5.31006,23.6206 -5.31006,10.19287 -15.19776,15.625 -9.88769,5.3711 -23.07128,5.3711 -20.26368,0 -31.79932,-11.90186 -11.47461,-11.96289 -11.47461,-32.71484 0,-20.69092 11.47461,-32.2876 11.47461,-11.59668 31.92139,-11.59668 20.44677,0 31.92138,11.71875 11.53565,11.71875 11.53565,32.16553 z m -18.37158,0 q 0,-13.91602 -6.5918,-21.78955 -6.5918,-7.93457 -18.49365,-7.93457 -12.08496,0 -18.67676,7.87353 -6.5918,7.8125 -6.5918,21.85059 0,14.16015 6.71387,22.33886 6.7749,8.11768 18.43262,8.11768 12.08496,0 18.61572,-7.93457 6.5918,-7.93457 6.5918,-22.52197 z"
         style="font-style:normal;font-variant:normal;font-weight:bold;font-stretch:normal;font-size:125px;line-height:1.25;font-family:'Liberation Sans';-inkscape-font-specification:'Liberation Sans Bold';text-align:center;text-anchor:middle;fill:#800080;fill-opacity:1;stroke:none"
         id="path4503"
         inkscape:connector-curvature="0" />
      <path
         d="m 741.81238,545.43005 -21.60645,-34.24072 -21.60644,34.24072 H 679.55652 L 709.34167,500.203 682.05896,459.43152 h 19.04297 l 19.104,30.39551 19.10401,-30.39551 h 18.92089 l -26.12304,40.77148 28.62549,45.22705 z"
         style="font-style:normal;font-variant:normal;font-weight:bold;font-stretch:normal;font-size:125px;line-height:1.25;font-family:'Liberation Sans';-inkscape-font-specification:'Liberation Sans Bold';text-align:center;text-anchor:middle;fill:#800080;fill-opacity:1;stroke:none"
         id="path4505"
         inkscape:connector-curvature="0" />
      <path
         d="m 853.93396,502.03406 q 0,13.42773 -5.31006,23.6206 -5.31006,10.19287 -15.19775,15.625 -9.8877,5.3711 -23.07129,5.3711 -20.26367,0 -31.79932,-11.90186 -11.47461,-11.96289 -11.47461,-32.71484 0,-20.69092 11.47461,-32.2876 11.47461,-11.59668 31.92139,-11.59668 20.44678,0 31.92139,11.71875 11.53564,11.71875 11.53564,32.16553 z m -18.37158,0 q 0,-13.91602 -6.5918,-21.78955 -6.5918,-7.93457 -18.49365,-7.93457 -12.08496,0 -18.67676,7.87353 -6.5918,7.8125 -6.5918,21.85059 0,14.16015 6.71387,22.33886 6.7749,8.11768 18.43262,8.11768 12.08496,0 18.61572,-7.93457 6.5918,-7.93457 6.5918,-22.52197 z"
         style="font-style:normal;font-variant:normal;font-weight:bold;font-stretch:normal;font-size:125px;line-height:1.25;font-family:'Liberation Sans';-inkscape-font-specification:'Liberation Sans Bold';text-align:center;text-anchor:middle;fill:#800080;fill-opacity:1;stroke:none"
         id="path4507"
         inkscape:connector-curvature="0" />
      <path
         d="m 488.40417,670.15365 -14.37011,-23.51074 h -15.20508 v 23.51074 H 445.86511 V 608.2347 h 30.9375 q 11.07422,0 17.09473,4.79004 6.02051,4.7461 6.02051,13.66699 0,6.50391 -3.69141,11.25 -3.69141,4.70215 -9.97559,6.19629 l 16.74317,26.01563 z m -1.53808,-42.93457 q 0,-8.9209 -11.42578,-8.9209 h -16.61133 v 18.28125 h 16.96289 q 5.44922,0 8.26172,-2.46094 2.8125,-2.46093 2.8125,-6.89941 z"
         style="font-style:normal;font-variant:normal;font-weight:bold;font-stretch:normal;font-size:90px;line-height:1.25;font-family:'Liberation Sans';-inkscape-font-specification:'Liberation Sans Bold';text-align:center;text-anchor:middle;fill:#800080;fill-opacity:1;stroke:none"
         id="path4509"
         inkscape:connector-curvature="0" />
      <path
         d="M 510.90417,670.15365 V 608.2347 h 48.69141 v 10.01953 h -35.72754 v 15.55665 h 33.04688 v 10.01953 h -33.04688 v 16.30371 h 37.5293 v 10.01953 z"
         style="font-style:normal;font-variant:normal;font-weight:bold;font-stretch:normal;font-size:90px;line-height:1.25;font-family:'Liberation Sans';-inkscape-font-specification:'Liberation Sans Bold';text-align:center;text-anchor:middle;fill:#800080;fill-opacity:1;stroke:none"
         id="path4511"
         inkscape:connector-curvature="0" />
      <path
         d="m 621.51453,652.31185 q 0,9.09668 -6.76758,13.93067 -6.72363,4.79004 -19.77539,4.79004 -11.90918,0 -18.67676,-4.21875 -6.76758,-4.21875 -8.70117,-12.78809 l 12.52441,-2.06543 q 1.27442,4.92187 4.96582,7.16309 3.69141,2.19726 10.23926,2.19726 13.5791,0 13.5791,-8.26172 0,-2.63672 -1.58203,-4.35058 -1.53809,-1.71387 -4.39453,-2.85645 -2.8125,-1.14258 -10.85449,-2.76855 -6.94336,-1.62598 -9.66797,-2.59278 -2.72461,-1.01074 -4.92188,-2.3291 -2.19726,-1.3623 -3.73535,-3.25195 -1.53808,-1.88965 -2.41699,-4.43848 -0.83496,-2.54883 -0.83496,-5.84472 0,-8.39356 6.28418,-12.83204 6.32812,-4.48242 18.36914,-4.48242 11.51367,0 17.27051,3.60352 5.80078,3.60351 7.4707,11.90918 l -12.56836,1.71386 q -0.9668,-3.99902 -3.95508,-6.0205 -2.94433,-2.02149 -8.48144,-2.02149 -11.77735,0 -11.77735,7.38281 0,2.417 1.23047,3.95508 1.27442,1.53809 3.73535,2.63672 2.46094,1.05469 9.97559,2.68067 8.9209,1.88964 12.74414,3.51562 3.86719,1.58203 6.1084,3.73535 2.24121,2.10938 3.42773,5.09766 1.18653,2.94433 1.18653,6.81152 z"
         style="font-style:normal;font-variant:normal;font-weight:bold;font-stretch:normal;font-size:90px;line-height:1.25;font-family:'Liberation Sans';-inkscape-font-specification:'Liberation Sans Bold';text-align:center;text-anchor:middle;fill:#800080;fill-opacity:1;stroke:none"
         id="path4513"
         inkscape:connector-curvature="0" />
      <path
         d="M 631.13855,670.15365 V 608.2347 h 12.96387 v 61.91895 z m -1.4502,-67.23633 v -1.3623 l 11.07422,-11.16211 h 11.33789 v 1.88965 l -14.9414,10.63476 z"
         style="font-style:normal;font-variant:normal;font-weight:bold;font-stretch:normal;font-size:90px;line-height:1.25;font-family:'Liberation Sans';-inkscape-font-specification:'Liberation Sans Bold';text-align:center;text-anchor:middle;fill:#800080;fill-opacity:1;stroke:none"
         id="path4515"
         inkscape:connector-curvature="0" />
      <path
         d="m 711.2948,638.73275 q 0,9.58008 -3.7793,16.74316 -3.73535,7.11915 -10.63476,10.89844 -6.85547,3.7793 -15.73242,3.7793 H 656.09949 V 608.2347 h 22.41211 q 15.64453,0 24.21386,7.91016 8.56934,7.86621 8.56934,22.58789 z m -13.05176,0 q 0,-9.97559 -5.18554,-15.20508 -5.18555,-5.27344 -14.80958,-5.27344 h -9.18457 v 41.87989 h 10.98633 q 8.34961,0 13.27149,-5.75684 4.92187,-5.75683 4.92187,-15.64453 z"
         style="font-style:normal;font-variant:normal;font-weight:bold;font-stretch:normal;font-size:90px;line-height:1.25;font-family:'Liberation Sans';-inkscape-font-specification:'Liberation Sans Bold';text-align:center;text-anchor:middle;fill:#800080;fill-opacity:1;stroke:none"
         id="path4517"
         inkscape:connector-curvature="0" />
      <path
         d="m 746.8905,671.03256 q -12.78808,0 -19.59961,-6.24024 -6.76757,-6.24023 -6.76757,-17.8418 V 608.2347 h 12.96386 v 37.70508 q 0,7.33887 3.47168,11.16211 3.51563,3.7793 10.28321,3.7793 6.94335,0 10.67871,-3.95508 3.73535,-3.99902 3.73535,-11.42578 V 608.2347 H 774.62 v 38.05664 q 0,11.77735 -7.29493,18.28125 -7.25097,6.45997 -20.43457,6.45997 z"
         style="font-style:normal;font-variant:normal;font-weight:bold;font-stretch:normal;font-size:90px;line-height:1.25;font-family:'Liberation Sans';-inkscape-font-specification:'Liberation Sans Bold';text-align:center;text-anchor:middle;fill:#800080;fill-opacity:1;stroke:none"
         id="path4519"
         inkscape:connector-curvature="0" />
      <path
         d="m 846.38269,638.90853 q 0,9.66797 -3.82324,17.00684 -3.82324,7.33886 -10.94238,11.25 -7.11915,3.86719 -16.61133,3.86719 -14.58985,0 -22.89551,-8.56934 -8.26172,-8.61328 -8.26172,-23.55469 0,-14.89746 8.26172,-23.24707 8.26172,-8.34961 22.9834,-8.34961 14.72168,0 22.9834,8.4375 8.30566,8.4375 8.30566,23.15918 z m -13.22754,0 q 0,-10.01953 -4.74609,-15.68847 -4.7461,-5.7129 -13.31543,-5.7129 -8.70117,0 -13.44727,5.66895 -4.74609,5.625 -4.74609,15.73242 0,10.19531 4.83398,16.08399 4.87793,5.84472 13.27149,5.84472 8.70117,0 13.40332,-5.71289 4.74609,-5.71289 4.74609,-16.21582 z"
         style="font-style:normal;font-variant:normal;font-weight:bold;font-stretch:normal;font-size:90px;line-height:1.25;font-family:'Liberation Sans';-inkscape-font-specification:'Liberation Sans Bold';text-align:center;text-anchor:middle;fill:#800080;fill-opacity:1;stroke:none"
         id="path4521"
         inkscape:connector-curvature="0" />
      <path
         d="m 906.63171,652.31185 q 0,9.09668 -6.76757,13.93067 -6.72364,4.79004 -19.77539,4.79004 -11.90918,0 -18.67676,-4.21875 -6.76758,-4.21875 -8.70117,-12.78809 l 12.52441,-2.06543 q 1.27441,4.92187 4.96582,7.16309 3.69141,2.19726 10.23926,2.19726 13.5791,0 13.5791,-8.26172 0,-2.63672 -1.58203,-4.35058 -1.53809,-1.71387 -4.39453,-2.85645 -2.8125,-1.14258 -10.8545,-2.76855 -6.94335,-1.62598 -9.66796,-2.59278 -2.72461,-1.01074 -4.92188,-2.3291 -2.19726,-1.3623 -3.73535,-3.25195 -1.53809,-1.88965 -2.41699,-4.43848 -0.83496,-2.54883 -0.83496,-5.84472 0,-8.39356 6.28418,-12.83204 6.32812,-4.48242 18.36914,-4.48242 11.51367,0 17.2705,3.60352 5.80079,3.60351 7.47071,11.90918 l -12.56836,1.71386 q -0.9668,-3.99902 -3.95508,-6.0205 -2.94434,-2.02149 -8.48145,-2.02149 -11.77734,0 -11.77734,7.38281 0,2.417 1.23047,3.95508 1.27441,1.53809 3.73535,2.63672 2.46094,1.05469 9.97559,2.68067 8.9209,1.88964 12.74414,3.51562 3.86719,1.58203 6.1084,3.73535 2.24121,2.10938 3.42773,5.09766 1.18652,2.94433 1.18652,6.81152 z"
         style="font-style:normal;font-variant:normal;font-weight:bold;font-stretch:normal;font-size:90px;line-height:1.25;font-family:'Liberation Sans';-inkscape-font-specification:'Liberation Sans Bold';text-align:center;text-anchor:middle;fill:#800080;fill-opacity:1;stroke:none"
         id="path4523"
         inkscape:connector-curvature="0" />
      <path
         d="m 414.31238,782.65365 -14.37012,-23.51074 h -15.20508 v 23.51074 H 371.77332 V 720.7347 h 30.9375 q 11.07421,0 17.09472,4.79004 6.02051,4.7461 6.02051,13.66699 0,6.50391 -3.69141,11.25 -3.6914,4.70215 -9.97558,6.19629 l 16.74316,26.01563 z m -1.53809,-42.93457 q 0,-8.9209 -11.42578,-8.9209 h -16.61133 v 18.28125 h 16.96289 q 5.44922,0 8.26172,-2.46094 2.8125,-2.46093 2.8125,-6.89941 z"
         style="font-style:normal;font-variant:normal;font-weight:bold;font-stretch:normal;font-size:90px;line-height:1.25;font-family:'Liberation Sans';-inkscape-font-specification:'Liberation Sans Bold';text-align:center;text-anchor:middle;fill:#800080;fill-opacity:1;stroke:none"
         id="path4525"
         inkscape:connector-curvature="0" />
      <path
         d="m 480.58191,782.65365 -5.49316,-15.82031 h -23.59864 l -5.49316,15.82031 h -12.96387 l 22.58789,-61.91895 h 15.29297 l 22.5,61.91895 z m -17.31445,-52.38281 -0.26368,0.96679 q -0.43945,1.58203 -1.05468,3.60352 -0.61524,2.02148 -7.5586,22.23633 h 17.79785 l -6.10839,-17.79785 -1.88965,-5.97657 z"
         style="font-style:normal;font-variant:normal;font-weight:bold;font-stretch:normal;font-size:90px;line-height:1.25;font-family:'Liberation Sans';-inkscape-font-specification:'Liberation Sans Bold';text-align:center;text-anchor:middle;fill:#800080;fill-opacity:1;stroke:none"
         id="path4527"
         inkscape:connector-curvature="0" />
      <path
         d="m 557.04675,751.23275 q 0,9.58008 -3.77929,16.74316 -3.73536,7.11915 -10.63477,10.89844 -6.85547,3.7793 -15.73242,3.7793 H 501.85144 V 720.7347 h 22.41211 q 15.64453,0 24.21387,7.91016 8.56933,7.86621 8.56933,22.58789 z m -13.05175,0 q 0,-9.97559 -5.18555,-15.20508 -5.18555,-5.27344 -14.80957,-5.27344 h -9.18457 v 41.87989 h 10.98633 q 8.34961,0 13.27148,-5.75684 4.92188,-5.75683 4.92188,-15.64453 z"
         style="font-style:normal;font-variant:normal;font-weight:bold;font-stretch:normal;font-size:90px;line-height:1.25;font-family:'Liberation Sans';-inkscape-font-specification:'Liberation Sans Bold';text-align:center;text-anchor:middle;fill:#800080;fill-opacity:1;stroke:none"
         id="path4529"
         inkscape:connector-curvature="0" />
      <path
         d="M 566.8905,782.65365 V 720.7347 h 12.96387 v 61.91895 z"
         style="font-style:normal;font-variant:normal;font-weight:bold;font-stretch:normal;font-size:90px;line-height:1.25;font-family:'Liberation Sans';-inkscape-font-specification:'Liberation Sans Bold';text-align:center;text-anchor:middle;fill:#800080;fill-opacity:1;stroke:none"
         id="path4531"
         inkscape:connector-curvature="0" />
      <path
         d="m 652.05652,751.40853 q 0,9.66797 -3.82324,17.00684 -3.82325,7.33886 -10.94239,11.25 -7.11914,3.86719 -16.61132,3.86719 -14.58985,0 -22.89551,-8.56934 -8.26172,-8.61328 -8.26172,-23.55469 0,-14.89746 8.26172,-23.24707 8.26172,-8.34961 22.9834,-8.34961 14.72168,0 22.98339,8.4375 8.30567,8.4375 8.30567,23.15918 z m -13.22754,0 q 0,-10.01953 -4.74609,-15.68847 -4.7461,-5.7129 -13.31543,-5.7129 -8.70118,0 -13.44727,5.66895 -4.74609,5.625 -4.74609,15.73242 0,10.19531 4.83398,16.08399 4.87793,5.84472 13.27149,5.84472 8.70117,0 13.40332,-5.71289 4.74609,-5.71289 4.74609,-16.21582 z"
         style="font-style:normal;font-variant:normal;font-weight:bold;font-stretch:normal;font-size:90px;line-height:1.25;font-family:'Liberation Sans';-inkscape-font-specification:'Liberation Sans Bold';text-align:center;text-anchor:middle;fill:#800080;fill-opacity:1;stroke:none"
         id="path4533"
         inkscape:connector-curvature="0" />
      <path
         d="m 705.58191,782.65365 -5.49316,-15.82031 h -23.59864 l -5.49316,15.82031 h -12.96387 l 22.58789,-61.91895 h 15.29297 l 22.5,61.91895 z m -17.31445,-52.38281 -0.26368,0.96679 q -0.43945,1.58203 -1.05468,3.60352 -0.61524,2.02148 -7.5586,22.23633 h 17.79785 l -6.10839,-17.79785 -1.88965,-5.97657 z"
         style="font-style:normal;font-variant:normal;font-weight:bold;font-stretch:normal;font-size:90px;line-height:1.25;font-family:'Liberation Sans';-inkscape-font-specification:'Liberation Sans Bold';text-align:center;text-anchor:middle;fill:#800080;fill-opacity:1;stroke:none"
         id="path4535"
         inkscape:connector-curvature="0" />
      <path
         d="m 748.12097,730.75423 v 51.89942 H 735.1571 V 730.75423 H 715.16199 V 720.7347 h 52.99804 v 10.01953 z"
         style="font-style:normal;font-variant:normal;font-weight:bold;font-stretch:normal;font-size:90px;line-height:1.25;font-family:'Liberation Sans';-inkscape-font-specification:'Liberation Sans Bold';text-align:center;text-anchor:middle;fill:#800080;fill-opacity:1;stroke:none"
         id="path4537"
         inkscape:connector-curvature="0" />
      <path
         d="M 775.19128,782.65365 V 720.7347 h 12.96387 v 61.91895 z"
         style="font-style:normal;font-variant:normal;font-weight:bold;font-stretch:normal;font-size:90px;line-height:1.25;font-family:'Liberation Sans';-inkscape-font-specification:'Liberation Sans Bold';text-align:center;text-anchor:middle;fill:#800080;fill-opacity:1;stroke:none"
         id="path4539"
         inkscape:connector-curvature="0" />
      <path
         d="M 830.7821,782.65365 H 817.64246 L 794.74695,720.7347 h 13.53515 l 12.74415,39.77051 q 1.18652,3.86719 3.25195,11.68945 l 0.92285,-3.77929 2.24121,-7.91016 12.7002,-39.77051 h 13.40332 z"
         style="font-style:normal;font-variant:normal;font-weight:bold;font-stretch:normal;font-size:90px;line-height:1.25;font-family:'Liberation Sans';-inkscape-font-specification:'Liberation Sans Bold';text-align:center;text-anchor:middle;fill:#800080;fill-opacity:1;stroke:none"
         id="path4541"
         inkscape:connector-curvature="0" />
      <path
         d="m 920.47449,751.40853 q 0,9.66797 -3.82324,17.00684 -3.82325,7.33886 -10.94239,11.25 -7.11914,3.86719 -16.61133,3.86719 -14.58984,0 -22.8955,-8.56934 -8.26172,-8.61328 -8.26172,-23.55469 0,-14.89746 8.26172,-23.24707 8.26172,-8.34961 22.98339,-8.34961 14.72168,0 22.9834,8.4375 8.30567,8.4375 8.30567,23.15918 z m -13.22754,0 q 0,-10.01953 -4.7461,-15.68847 -4.74609,-5.7129 -13.31543,-5.7129 -8.70117,0 -13.44726,5.66895 -4.74609,5.625 -4.74609,15.73242 0,10.19531 4.83398,16.08399 4.87793,5.84472 13.27148,5.84472 8.70118,0 13.40332,-5.71289 4.7461,-5.71289 4.7461,-16.21582 z"
         style="font-style:normal;font-variant:normal;font-weight:bold;font-stretch:normal;font-size:90px;line-height:1.25;font-family:'Liberation Sans';-inkscape-font-specification:'Liberation Sans Bold';text-align:center;text-anchor:middle;fill:#800080;fill-opacity:1;stroke:none"
         id="path4543"
         inkscape:connector-curvature="0" />
      <path
         d="m 980.72351,764.81185 q 0,9.09668 -6.76758,13.93067 -6.72363,4.79004 -19.77539,4.79004 -11.90918,0 -18.67676,-4.21875 -6.76757,-4.21875 -8.70117,-12.78809 l 12.52442,-2.06543 q 1.27441,4.92187 4.96582,7.16309 3.6914,2.19726 10.23925,2.19726 13.57911,0 13.57911,-8.26172 0,-2.63672 -1.58204,-4.35058 -1.53808,-1.71387 -4.39453,-2.85645 -2.8125,-1.14258 -10.85449,-2.76855 -6.94336,-1.62598 -9.66797,-2.59278 -2.72461,-1.01074 -4.92187,-2.3291 -2.19727,-1.3623 -3.73535,-3.25195 -1.53809,-1.88965 -2.417,-4.43848 -0.83496,-2.54883 -0.83496,-5.84472 0,-8.39356 6.28418,-12.83204 6.32813,-4.48242 18.36914,-4.48242 11.51368,0 17.27051,3.60352 5.80078,3.60351 7.4707,11.90918 l -12.56836,1.71386 q -0.96679,-3.99902 -3.95507,-6.0205 -2.94434,-2.02149 -8.48145,-2.02149 -11.77734,0 -11.77734,7.38281 0,2.417 1.23047,3.95508 1.27441,1.53809 3.73535,2.63672 2.46094,1.05469 9.97558,2.68067 8.9209,1.88964 12.74414,3.51562 3.86719,1.58203 6.1084,3.73535 2.24121,2.10938 3.42774,5.09766 1.18652,2.94433 1.18652,6.81152 z"
         style="font-style:normal;font-variant:normal;font-weight:bold;font-stretch:normal;font-size:90px;line-height:1.25;font-family:'Liberation Sans';-inkscape-font-specification:'Liberation Sans Bold';text-align:center;text-anchor:middle;fill:#800080;fill-opacity:1;stroke:none"
         id="path4545"
         inkscape:connector-curvature="0" />
    </g>
    <path
       style="fill:#800080;fill-opacity:1;fill-rule:evenodd;stroke:#0000ff;stroke-width:0.75820619px;stroke-linecap:butt;stroke-linejoin:miter;stroke-opacity:0.23529412"
       d="m 425.73756,617.67193 -58.37096,-27.48594 27.70148,131.29987 c 1.05184,5.36122 3.86898,7.194 6.41453,9.87848 l 42.96185,27.65977 z"
       id="path4205"
       inkscape:connector-curvature="0"
       sodipodi:nodetypes="cccccc" />
    <path
       style="fill:#800080;fill-opacity:1;fill-rule:evenodd;stroke:#0000ff;stroke-width:0.75820619px;stroke-linecap:butt;stroke-linejoin:miter;stroke-opacity:0.23529412"
       d="m 573.12821,597.05862 -150.57687,19.24083 21.72077,142.80128 c 3.30793,0.93274 7.37465,0.40658 10.65168,-0.18393 38.64886,-6.96433 62.59394,-13.75956 98.95239,-21.8966 4.41728,-1.71504 5.52708,-4.91185 6.03551,-9.32101 z"
       id="path4203"
       inkscape:connector-curvature="0"
       sodipodi:nodetypes="cccsccc" />
    <path
       style="fill:#800080;fill-opacity:1;fill-rule:evenodd;stroke:#0000ff;stroke-width:0.75820619px;stroke-linecap:butt;stroke-linejoin:miter;stroke-opacity:0.23529412"
       d="m 366.71004,562.06329 c -2.95967,0.0518 -5.37243,1.27977 -6.91012,3.09576 0.43188,7.99741 0.86377,15.9948 1.29565,23.9922 1.50877,2.6595 3.12691,3.0648 5.18259,4.45018 l 50.09839,23.02477 c 6.78943,2.24913 15.43839,2.34208 23.32166,1.16092 l 132.58796,-18.7681 c 3.57575,-0.66581 5.8389,-1.82166 7.77389,-4.64365 l -1.94347,-21.4769 c -0.65698,-4.02149 -4.81421,-5.20072 -8.20577,-6.77199 l -62.62298,-17.60719 c -4.78811,-0.98008 -9.35746,-0.78406 -14.03619,0 z"
       id="path4243"
       inkscape:connector-curvature="0"
       sodipodi:nodetypes="ccccccccccccc" />
    <path
       style="fill:#800080;fill-opacity:1;fill-rule:evenodd;stroke:#0000ff;stroke-width:0.75820619px;stroke-linecap:butt;stroke-linejoin:miter;stroke-opacity:0.23529412"
       d="m 378.27082,565.52748 c 13.6454,5.90937 27.29079,10.81784 40.93619,16.22676 7.30325,2.7946 14.32722,2.96184 21.49084,2.19074 l 111.82551,-12.73251 c 4.40539,-0.0869 10.38437,-2.61106 5.22488,-4.01163 l -51.04966,-15.69611 c -3.5737,-0.55279 -7.63611,-0.54257 -11.76834,0.21832 l -112.69786,11.269 c -1.72034,0.38451 -3.91779,1.1183 -3.96156,2.53543 z"
       id="path4245"
       inkscape:connector-curvature="0"
       sodipodi:nodetypes="ccccccccc" />
    <path
       style="fill:none;fill-opacity:1;fill-rule:evenodd;stroke:#0000ff;stroke-width:0.75820619px;stroke-linecap:butt;stroke-linejoin:miter;stroke-opacity:0.23529412"
       d="m 359.77319,565.23377 52.85982,20.88444 c 9.29555,4.91032 17.75867,3.1078 26.63801,1.86468 l 138.60096,-16.4092"
       id="path4253"
       inkscape:connector-curvature="0"
       sodipodi:nodetypes="cccc" />
    <path
       style="fill:#800080;fill-opacity:1;fill-rule:evenodd;stroke:#0000ff;stroke-width:0.75820619px;stroke-linecap:butt;stroke-linejoin:miter;stroke-opacity:0.23529412"
       d="m 500.87145,551.43512 0.20811,25.17321"
       id="path4255"
       inkscape:connector-curvature="0"
       sodipodi:nodetypes="cc" />
    <ellipse
       style="opacity:0;fill:#ffffff;fill-opacity:0.84615383;stroke:#0000ff;stroke-width:0.5115571;stroke-opacity:0.23529412"
       id="path4147"
       cx="420.6792"
       cy="726.91101"
       rx="21.164507"
       ry="20.423672"
       transform="matrix(0.99172493,-0.12838092,0.13379091,0.99100958,0,0)" />
    <ellipse
       style="opacity:1;fill:none;fill-opacity:0.84615383;stroke:#ffffff;stroke-width:3.43254805;stroke-miterlimit:4;stroke-dasharray:none;stroke-opacity:1"
       id="path4151"
       cx="410.52594"
       cy="729.24512"
       rx="46.189671"
       ry="37.462486"
       transform="matrix(0.99172493,-0.12838092,0.13379091,0.99100958,0,0)" />
    <ellipse
       style="opacity:1;fill:#ffffff;fill-opacity:1;stroke:#0000ff;stroke-width:0.35119376;stroke-miterlimit:4;stroke-dasharray:none;stroke-opacity:0.23529412"
       id="path4153"
       cx="410.52597"
       cy="729.24512"
       rx="8.2399511"
       ry="6.4913039"
       transform="matrix(0.99172493,-0.12838092,0.13379091,0.99100958,0,0)" />
    <path
       style="fill:#ffffff;fill-rule:evenodd;stroke:#0000ff;stroke-width:0.51155329px;stroke-linecap:butt;stroke-linejoin:miter;stroke-opacity:0.23529412"
       d="m 497.63239,662.37793 c -2.61091,2.13124 -4.83357,5.62682 -4.45994,8.70309 -9.64761,1.26316 -19.2952,2.52637 -28.94281,3.78953 -0.0557,-10.90489 3.81238,-23.73232 16.67466,-30.40146 5.57603,5.96961 11.15206,11.93922 16.72809,17.90884 z"
       id="path4155"
       inkscape:connector-curvature="0"
       sodipodi:nodetypes="ccccc" />
    <path
       style="fill:#ffffff;fill-rule:evenodd;stroke:#0000ff;stroke-width:0.51155329px;stroke-linecap:butt;stroke-linejoin:miter;stroke-opacity:0.23529412"
       d="m 509.45233,661.00029 c 2.97382,0.61357 6.73519,4.03759 6.90941,7.34349 9.58996,-1.26916 19.17992,-2.53835 28.76987,-3.80753 -2.26855,-9.49754 -7.44253,-20.86568 -24.18844,-25.74312 -3.83028,7.40239 -7.66056,14.80477 -11.49084,22.20716 z"
       id="path4157"
       inkscape:connector-curvature="0"
       sodipodi:nodetypes="ccccc" />
    <path
       style="fill:#ffffff;fill-rule:evenodd;stroke:#0000ff;stroke-width:0.51155329px;stroke-linecap:butt;stroke-linejoin:miter;stroke-opacity:0.23529412"
       d="m 500.20631,678.67307 c 4.82214,1.45605 8.56691,0.22237 11.53242,-1.4929 5.62597,6.15052 11.25194,12.30104 16.87791,18.45156 -8.85236,5.47295 -23.05189,10.63957 -40.01248,5.1797 3.86738,-7.37946 7.73477,-14.75891 11.60215,-22.13836 z"
       id="path4159"
       inkscape:connector-curvature="0"
       sodipodi:nodetypes="ccccc" />
  </g>
</svg>
