<?xml version="1.0" encoding="UTF-8" standalone="no"?>
<!-- Created with Inkscape (http://www.inkscape.org/) -->

<svg
   xmlns:dc="http://purl.org/dc/elements/1.1/"
   xmlns:cc="http://creativecommons.org/ns#"
   xmlns:rdf="http://www.w3.org/1999/02/22-rdf-syntax-ns#"
   xmlns:svg="http://www.w3.org/2000/svg"
   xmlns="http://www.w3.org/2000/svg"
   xmlns:sodipodi="http://sodipodi.sourceforge.net/DTD/sodipodi-0.dtd"
   xmlns:inkscape="http://www.inkscape.org/namespaces/inkscape"
   width="423.33334mm"
   height="79.375mm"
   viewBox="0 0 1500 281.25"
   id="svg4329"
   version="1.1"
   inkscape:version="0.92.1 r15371"
   sodipodi:docname="lata.preto.svg">
  <defs
     id="defs4331" />
  <sodipodi:namedview
     id="base"
     pagecolor="#ffffff"
     bordercolor="#666666"
     borderopacity="1.0"
     inkscape:pageopacity="0.0"
     inkscape:pageshadow="2"
     inkscape:zoom="0.71899471"
     inkscape:cx="933.32832"
     inkscape:cy="88.220247"
     inkscape:document-units="px"
     inkscape:current-layer="layer1"
     showgrid="false"
     inkscape:window-width="1440"
     inkscape:window-height="800"
     inkscape:window-x="0"
     inkscape:window-y="35"
     inkscape:window-maximized="1" />
  <metadata
     id="metadata4334">
    <rdf:RDF>
      <cc:Work
         rdf:about="">
        <dc:format>image/svg+xml</dc:format>
        <dc:type
           rdf:resource="http://purl.org/dc/dcmitype/StillImage" />
        <dc:title />
      </cc:Work>
    </rdf:RDF>
  </metadata>
  <g
     inkscape:label="Camada 1"
     inkscape:groupmode="layer"
     id="layer1"
     transform="translate(-3.1428571,-506.82648)">
    <rect
       style="fill:#65d965;fill-opacity:1;stroke:none;stroke-width:1.09706914;stroke-miterlimit:4;stroke-dasharray:none"
       id="rect4901"
       width="1500"
       height="281.25"
       x="3.1428571"
       y="506.82648" />
    <path
       sodipodi:nodetypes="cccccc"
       inkscape:connector-curvature="0"
       id="path4205"
       d="m 426.57339,607.67398 -59.11048,-30.31771 28.05243,144.82719 c 1.06518,5.91357 3.91799,7.93517 6.4958,10.89622 l 43.50615,30.50945 z"
       style="fill:#000000;fill-rule:evenodd;stroke:#333333;stroke-width:0.80133492px;stroke-linecap:butt;stroke-linejoin:miter;stroke-opacity:1" />
    <path
       sodipodi:nodetypes="cccsccc"
       inkscape:connector-curvature="0"
       id="path4203"
       d="M 575.83139,584.93697 423.3468,606.1601 445.34276,763.67364 c 3.34984,1.02883 7.46808,0.44846 10.78663,-0.20288 39.13853,-7.68184 63.38698,-15.17716 100.20606,-24.15252 4.47325,-1.89174 5.59711,-5.4179 6.11199,-10.28132 z"
       style="fill:#000000;fill-rule:evenodd;stroke:#333333;stroke-width:0.80133492px;stroke-linecap:butt;stroke-linejoin:miter;stroke-opacity:1" />
    <path
       sodipodi:nodetypes="ccccccccccccc"
       inkscape:connector-curvature="0"
       id="path4243"
       d="m 366.79802,546.33619 c -2.99716,0.0571 -5.4405,1.41164 -6.99767,3.41472 0.43736,8.82134 0.87472,17.64268 1.31208,26.46402 1.52787,2.93349 3.16652,3.38055 5.24825,4.90866 l 50.7331,25.39692 c 6.87545,2.48086 15.63399,2.58338 23.61714,1.28053 l 134.26778,-20.7017 c 3.62104,-0.73441 5.91286,-2.00934 7.87237,-5.12208 l -1.96809,-23.68957 c -0.6653,-4.43581 -4.87521,-5.73653 -8.30974,-7.46968 l -63.41638,-19.42119 c -4.84877,-1.08106 -9.47601,-0.86484 -14.21401,0 z"
       style="fill:#000000;fill-rule:evenodd;stroke:#333333;stroke-width:0.80133492px;stroke-linecap:butt;stroke-linejoin:miter;stroke-opacity:1" />
    <path
       sodipodi:nodetypes="ccccccccc"
       inkscape:connector-curvature="0"
       id="path4245"
       d="m 378.50527,550.1573 c 13.81828,6.51819 27.63656,11.93235 41.45483,17.89853 7.39577,3.08252 14.50874,3.26699 21.76312,2.41644 L 554.9655,556.42798 c 4.4612,-0.0958 10.51594,-2.88007 5.29107,-4.42494 l -51.69643,-17.31321 c -3.61897,-0.60974 -7.73285,-0.59847 -11.91744,0.24081 l -114.12568,12.43 c -1.74214,0.42413 -3.96743,1.23352 -4.01175,2.79666 z"
       style="fill:#000000;fill-rule:evenodd;stroke:#333333;stroke-width:0.80133492px;stroke-linecap:butt;stroke-linejoin:miter;stroke-opacity:1" />
    <path
       sodipodi:nodetypes="cccccccccccc"
       inkscape:connector-curvature="0"
       id="path4247"
       d="m 508.79585,690.22237 -20.04212,4.37934 c -10.71249,0.67029 -18.99568,-5.8709 -16.34701,-20.51266 l 6.82518,-14.79918 -5.06704,-2.24147 16.53077,-2.53784 9.31938,12.66613 -5.55939,-2.36712 -5.76185,11.57465 c -0.0784,1.74907 0.91328,1.40932 1.88688,1.1049 l 17.91153,-3.28786 z"
       style="fill:#ffffff;fill-rule:evenodd;stroke:#333333;stroke-width:0.80133492px;stroke-linecap:butt;stroke-linejoin:miter;stroke-opacity:1" />
    <path
       sodipodi:nodetypes="cccccccccccc"
       inkscape:connector-curvature="0"
       id="path4249"
       d="m 538.27232,641.9212 -13.94416,10.91857 8.59215,13.44301 c 1.17729,1.23543 1.435,2.35119 -1.40828,3.06344 l -9.91296,1.92687 -0.43733,-5.82088 -7.8649,16.01629 7.66246,11.85758 0.18869,-5.58304 14.7176,-3.6245 c 6.56667,-3.31 16.37241,-12.2509 12.71576,-25.63721 z"
       style="fill:#ffffff;fill-rule:evenodd;stroke:#333333;stroke-width:0.80133492px;stroke-linecap:butt;stroke-linejoin:miter;stroke-opacity:1" />
    <path
       sodipodi:nodetypes="cccccccccccc"
       inkscape:connector-curvature="0"
       id="path4251"
       d="m 486.24085,646.77623 c 10.56648,-19.88827 10.56648,-20.66515 10.56648,-20.66515 7.23501,-11.24134 20.84695,-11.4185 27.7783,-6.45871 l 7.86491,11.91128 4.83708,-3.59764 -7.82364,15.67966 -15.94601,2.93298 4.61102,-4.07816 -5.47193,-8.65508 c 0,0 -1.3562,-1.55663 -2.64162,0.18415 l -9.37441,18.87734 z"
       style="fill:#ffffff;fill-rule:evenodd;stroke:#333333;stroke-width:0.80133492px;stroke-linecap:butt;stroke-linejoin:miter;stroke-opacity:1" />
    <path
       sodipodi:nodetypes="cccc"
       inkscape:connector-curvature="0"
       id="path4253"
       d="m 359.77329,549.83332 53.52952,23.03608 c 9.41333,5.41622 17.98367,3.42799 26.9755,2.05679 l 140.35696,-18.09977"
       style="fill:none;fill-rule:evenodd;stroke:#333333;stroke-width:0.80133492px;stroke-linecap:butt;stroke-linejoin:miter;stroke-opacity:1" />
    <path
       sodipodi:nodetypes="cc"
       inkscape:connector-curvature="0"
       id="path4255"
       d="m 502.65919,534.61305 0.21074,27.7667"
       style="fill:#000000;fill-rule:evenodd;stroke:#333333;stroke-width:0.80133492px;stroke-linecap:butt;stroke-linejoin:miter;stroke-opacity:1" />
    <g
       aria-label="PRETO MADEIRA  "
       style="font-style:normal;font-weight:normal;line-height:0%;font-family:sans-serif;letter-spacing:0px;word-spacing:0px;fill:#000004;fill-opacity:1;stroke:#000000;stroke-width:1px;stroke-linecap:butt;stroke-linejoin:miter;stroke-opacity:1"
       id="text4922"
       transform="matrix(0.8111453,0,0,0.7916432,323.00337,149.10842)">
      <path
         d="m 544.99957,530.2865 q 0,8.30078 -3.78418,14.83154 -3.78418,6.53076 -10.86425,10.13184 -7.01905,3.54004 -16.72364,3.54004 h -21.3623 v 30.27343 h -18.00537 v -85.99853 h 38.63525 q 15.4419,0 23.74268,7.14111 8.36181,7.08008 8.36181,20.08057 z m -18.12744,0.30517 q 0,-13.5498 -15.99121,-13.5498 H 492.2652 v 27.89307 h 19.104 q 7.44629,0 11.47461,-3.66211 4.02832,-3.72315 4.02832,-10.68116 z"
         style="font-style:normal;font-variant:normal;font-weight:bold;font-stretch:normal;font-size:125px;line-height:1.25;font-family:'Liberation Sans';-inkscape-font-specification:'Liberation Sans Bold';text-align:center;text-anchor:middle;fill:#000004;fill-opacity:1;stroke:#000000"
         id="path4496"
         inkscape:connector-curvature="0" />
      <path
         d="m 616.83795,589.06335 -19.95849,-32.6538 h -21.11817 v 32.6538 h -18.00537 v -85.99853 h 42.96875 q 15.38086,0 23.74268,6.65283 8.36181,6.5918 8.36181,18.98193 0,9.03321 -5.12695,15.625 -5.12695,6.53077 -13.85498,8.60596 l 23.25439,36.13281 z m -2.13623,-59.63134 q 0,-12.39014 -15.86914,-12.39014 h -23.07129 v 25.39063 h 23.55957 q 7.56836,0 11.47461,-3.41797 3.90625,-3.41797 3.90625,-9.58252 z"
         style="font-style:normal;font-variant:normal;font-weight:bold;font-stretch:normal;font-size:125px;line-height:1.25;font-family:'Liberation Sans';-inkscape-font-specification:'Liberation Sans Bold';text-align:center;text-anchor:middle;fill:#000004;fill-opacity:1;stroke:#000000"
         id="path4498"
         inkscape:connector-curvature="0" />
      <path
         d="m 648.08795,589.06335 v -85.99853 h 67.62695 v 13.91601 h -49.62158 v 21.60645 h 45.89844 v 13.91602 h -45.89844 v 22.64404 h 52.12403 v 13.91601 z"
         style="font-style:normal;font-variant:normal;font-weight:bold;font-stretch:normal;font-size:125px;line-height:1.25;font-family:'Liberation Sans';-inkscape-font-specification:'Liberation Sans Bold';text-align:center;text-anchor:middle;fill:#000004;fill-opacity:1;stroke:#000000"
         id="path4500"
         inkscape:connector-curvature="0" />
      <path
         d="m 770.4024,516.98083 v 72.08252 h -18.00537 v -72.08252 h -27.77099 v -13.91601 h 73.6084 v 13.91601 z"
         style="font-style:normal;font-variant:normal;font-weight:bold;font-stretch:normal;font-size:125px;line-height:1.25;font-family:'Liberation Sans';-inkscape-font-specification:'Liberation Sans Bold';text-align:center;text-anchor:middle;fill:#000004;fill-opacity:1;stroke:#000000"
         id="path4502"
         inkscape:connector-curvature="0" />
      <path
         d="m 889.42096,545.66736 q 0,13.42773 -5.31006,23.6206 -5.31006,10.19287 -15.19775,15.625 -9.8877,5.3711 -23.07129,5.3711 -20.26367,0 -31.79932,-11.90186 -11.47461,-11.96289 -11.47461,-32.71484 0,-20.69092 11.47461,-32.2876 11.47461,-11.59668 31.92139,-11.59668 20.44678,0 31.92138,11.71875 11.53565,11.71875 11.53565,32.16553 z m -18.37158,0 q 0,-13.91602 -6.5918,-21.78955 -6.5918,-7.93457 -18.49365,-7.93457 -12.08496,0 -18.67676,7.87353 -6.5918,7.8125 -6.5918,21.85059 0,14.16015 6.71387,22.33887 6.7749,8.11767 18.43262,8.11767 12.08496,0 18.61572,-7.93457 6.5918,-7.93457 6.5918,-22.52197 z"
         style="font-style:normal;font-variant:normal;font-weight:bold;font-stretch:normal;font-size:125px;line-height:1.25;font-family:'Liberation Sans';-inkscape-font-specification:'Liberation Sans Bold';text-align:center;text-anchor:middle;fill:#000004;fill-opacity:1;stroke:#000000"
         id="path4504"
         inkscape:connector-curvature="0" />
      <path
         d="m 468.15631,745.31335 v -52.12402 q 0,-1.77002 0,-3.54004 0.061,-1.77002 0.61035,-15.19775 -4.33349,16.41846 -6.40869,22.88818 l -15.50293,47.97363 h -12.81738 l -15.50293,-47.97363 -6.53076,-22.88818 q 0.73242,14.16015 0.73242,18.73779 v 52.12402 h -15.99121 v -85.99853 h 24.10888 l 15.38086,48.0957 1.34278,4.63867 2.92969,11.53565 3.84521,-13.79395 15.80811,-50.47607 h 23.98681 v 85.99853 z"
         style="font-style:normal;font-variant:normal;font-weight:bold;font-stretch:normal;font-size:125px;line-height:1.25;font-family:'Liberation Sans';-inkscape-font-specification:'Liberation Sans Bold';text-align:center;text-anchor:middle;fill:#000004;fill-opacity:1;stroke:#000000"
         id="path4506"
         inkscape:connector-curvature="0" />
      <path
         d="m 561.78424,745.31335 -7.62939,-21.97265 h -32.77588 l -7.6294,21.97265 H 495.7442 l 31.37207,-85.99853 h 21.24024 l 31.25,85.99853 z m -24.04785,-72.7539 -0.36621,1.34277 q -0.61035,2.19727 -1.46485,5.00488 -0.85449,2.80762 -10.49804,30.88379 h 24.71924 l -8.48389,-24.71923 -2.62451,-8.30079 z"
         style="font-style:normal;font-variant:normal;font-weight:bold;font-stretch:normal;font-size:125px;line-height:1.25;font-family:'Liberation Sans';-inkscape-font-specification:'Liberation Sans Bold';text-align:center;text-anchor:middle;fill:#000004;fill-opacity:1;stroke:#000000"
         id="path4508"
         inkscape:connector-curvature="0" />
      <path
         d="m 667.98541,701.67322 q 0,13.30566 -5.24902,23.25439 -5.18799,9.8877 -14.77051,15.13672 -9.52148,5.24902 -21.85058,5.24902 h -34.79004 v -85.99853 h 31.12793 q 21.72851,0 33.63037,10.98633 11.90185,10.92529 11.90185,31.37207 z m -18.12744,0 q 0,-13.85498 -7.20215,-21.11817 -7.20215,-7.32422 -20.56884,-7.32422 h -12.75635 v 58.16651 h 15.25879 q 11.59668,0 18.43261,-7.99561 6.83594,-7.9956 6.83594,-21.72851 z"
         style="font-style:normal;font-variant:normal;font-weight:bold;font-stretch:normal;font-size:125px;line-height:1.25;font-family:'Liberation Sans';-inkscape-font-specification:'Liberation Sans Bold';text-align:center;text-anchor:middle;fill:#000004;fill-opacity:1;stroke:#000000"
         id="path4510"
         inkscape:connector-curvature="0" />
      <path
         d="m 681.65729,745.31335 v -85.99853 h 67.62695 v 13.91601 h -49.62158 v 21.60645 h 45.89844 v 13.91602 h -45.89844 v 22.64404 h 52.12402 v 13.91601 z"
         style="font-style:normal;font-variant:normal;font-weight:bold;font-stretch:normal;font-size:125px;line-height:1.25;font-family:'Liberation Sans';-inkscape-font-specification:'Liberation Sans Bold';text-align:center;text-anchor:middle;fill:#000004;fill-opacity:1;stroke:#000000"
         id="path4512"
         inkscape:connector-curvature="0" />
      <path
         d="m 765.15338,745.31335 v -85.99853 h 18.00537 v 85.99853 z"
         style="font-style:normal;font-variant:normal;font-weight:bold;font-stretch:normal;font-size:125px;line-height:1.25;font-family:'Liberation Sans';-inkscape-font-specification:'Liberation Sans Bold';text-align:center;text-anchor:middle;fill:#000004;fill-opacity:1;stroke:#000000"
         id="path4514"
         inkscape:connector-curvature="0" />
      <path
         d="m 858.90338,745.31335 -19.95849,-32.6538 h -21.11817 v 32.6538 h -18.00537 v -85.99853 h 42.96875 q 15.38086,0 23.74268,6.65283 8.36181,6.5918 8.36181,18.98193 0,9.03321 -5.12695,15.625 -5.12695,6.53077 -13.85498,8.60596 l 23.25439,36.13281 z m -2.13623,-59.63134 q 0,-12.39014 -15.86914,-12.39014 h -23.07129 v 25.39063 h 23.55957 q 7.56836,0 11.47461,-3.41797 3.90625,-3.41797 3.90625,-9.58252 z"
         style="font-style:normal;font-variant:normal;font-weight:bold;font-stretch:normal;font-size:125px;line-height:1.25;font-family:'Liberation Sans';-inkscape-font-specification:'Liberation Sans Bold';text-align:center;text-anchor:middle;fill:#000004;fill-opacity:1;stroke:#000000"
         id="path4516"
         inkscape:connector-curvature="0" />
      <path
         d="M 950.9444,745.31335 943.315,723.3407 h -32.77588 l -7.62939,21.97265 h -18.00537 l 31.37207,-85.99853 h 21.24023 l 31.25,85.99853 z m -24.04785,-72.7539 -0.36622,1.34277 q -0.61035,2.19727 -1.46484,5.00488 -0.85449,2.80762 -10.49805,30.88379 h 24.71924 l -8.48388,-24.71923 -2.62452,-8.30079 z"
         style="font-style:normal;font-variant:normal;font-weight:bold;font-stretch:normal;font-size:125px;line-height:1.25;font-family:'Liberation Sans';-inkscape-font-specification:'Liberation Sans Bold';text-align:center;text-anchor:middle;fill:#000004;fill-opacity:1;stroke:#000000"
         id="path4518"
         inkscape:connector-curvature="0" />
    </g>
  </g>
</svg>
