<?xml version="1.0" encoding="UTF-8" standalone="no"?>
<!-- Created with Inkscape (http://www.inkscape.org/) -->

<svg
   xmlns:dc="http://purl.org/dc/elements/1.1/"
   xmlns:cc="http://creativecommons.org/ns#"
   xmlns:rdf="http://www.w3.org/1999/02/22-rdf-syntax-ns#"
   xmlns:svg="http://www.w3.org/2000/svg"
   xmlns="http://www.w3.org/2000/svg"
   xmlns:sodipodi="http://sodipodi.sourceforge.net/DTD/sodipodi-0.dtd"
   xmlns:inkscape="http://www.inkscape.org/namespaces/inkscape"
   width="423.33334mm"
   height="79.375mm"
   viewBox="0 0 1500 281.25"
   id="svg4329"
   version="1.1"
   inkscape:version="0.92.1 r15371"
   sodipodi:docname="lata.vermelha.svg">
  <defs
     id="defs4331" />
  <sodipodi:namedview
     id="base"
     pagecolor="#ffffff"
     bordercolor="#666666"
     borderopacity="1.0"
     inkscape:pageopacity="0.0"
     inkscape:pageshadow="2"
     inkscape:zoom="0.50840604"
     inkscape:cx="456.23004"
     inkscape:cy="38.414777"
     inkscape:document-units="px"
     inkscape:current-layer="layer1"
     showgrid="false"
     inkscape:window-width="1440"
     inkscape:window-height="800"
     inkscape:window-x="0"
     inkscape:window-y="35"
     inkscape:window-maximized="1" />
  <metadata
     id="metadata4334">
    <rdf:RDF>
      <cc:Work
         rdf:about="">
        <dc:format>image/svg+xml</dc:format>
        <dc:type
           rdf:resource="http://purl.org/dc/dcmitype/StillImage" />
        <dc:title />
      </cc:Work>
    </rdf:RDF>
  </metadata>
  <g
     inkscape:label="Camada 1"
     inkscape:groupmode="layer"
     id="layer1"
     transform="translate(-3.1428571,-506.82648)">
    <rect
       style="fill:#65d965;fill-opacity:1;stroke:none;stroke-width:1.09706914;stroke-miterlimit:4;stroke-dasharray:none"
       id="rect4901"
       width="1500"
       height="281.25"
       x="3.1428571"
       y="506.82648" />
    <g
       id="g4522"
       transform="matrix(0.75897879,0,0,0.79134372,325.34808,149.34606)"
       style="stroke:#aa0000">
      <path
         style="fill:#ff0000;fill-rule:evenodd;stroke:#aa0000;stroke-width:1px;stroke-linecap:butt;stroke-linejoin:miter;stroke-opacity:1"
         d="m 127.68368,579.25788 -72.872867,-38.2972 34.58374,182.94502 c 1.31317,7.47 4.8302,10.02368 8.00818,13.76406 l 53.635457,38.53939 z"
         id="path4205"
         inkscape:connector-curvature="0"
         sodipodi:nodetypes="cccccc" />
      <path
         style="fill:#ff0000;fill-rule:evenodd;stroke:#aa0000;stroke-width:1px;stroke-linecap:butt;stroke-linejoin:miter;stroke-opacity:1"
         d="m 311.69264,550.53658 -187.98678,26.80896 27.11717,198.97037 c 4.12976,1.29962 9.20683,0.5665 13.29802,-0.25627 48.25094,-9.70367 78.14503,-19.17172 123.53651,-30.50936 5.51473,-2.38963 6.90025,-6.84386 7.535,-12.98731 z"
         id="path4203"
         inkscape:connector-curvature="0"
         sodipodi:nodetypes="cccsccc" />
      <path
         style="fill:#ff0000;fill-rule:evenodd;stroke:#aa0000;stroke-width:1px;stroke-linecap:butt;stroke-linejoin:miter;stroke-opacity:1"
         d="m 53.991133,501.77627 c -3.69499,0.0722 -6.70718,1.78316 -8.6269,4.31345 0.53918,11.14308 1.07837,22.28615 1.61755,33.42923 1.88361,3.70557 3.90377,4.27029 6.47017,6.20059 l 62.545027,32.08128 c 8.47623,3.1338 19.27397,3.26331 29.11579,1.61755 l 165.52864,-26.15029 c 4.46412,-0.9277 7.28953,-2.53819 9.70526,-6.47018 l -2.42631,-29.92456 c -0.8202,-5.60329 -6.01028,-7.24636 -10.24445,-9.43567 l -78.18128,-24.53275 c -5.97769,-1.36559 -11.68226,-1.09247 -17.52339,0 z"
         id="path4243"
         inkscape:connector-curvature="0"
         sodipodi:nodetypes="ccccccccccccc" />
      <path
         style="fill:#ff0000;fill-rule:evenodd;stroke:#aa0000;stroke-width:1px;stroke-linecap:butt;stroke-linejoin:miter;stroke-opacity:1"
         d="m 68.424113,506.60306 c 17.03552,8.23375 34.071027,15.0729 51.106537,22.60935 9.1177,3.89383 17.88674,4.12685 26.83011,3.05244 l 139.60788,-17.74068 c 5.49988,-0.12106 12.96431,-3.63809 6.52297,-5.58956 l -63.73264,-21.86997 c -4.46156,-0.77022 -9.53325,-0.75599 -14.69211,0.30419 L 73.369903,503.07035 c -2.14775,0.53576 -4.89114,1.55817 -4.94579,3.53271 z"
         id="path4245"
         inkscape:connector-curvature="0"
         sodipodi:nodetypes="ccccccccc" />
      <path
         style="fill:#ffffff;fill-rule:evenodd;stroke:#aa0000;stroke-width:1px;stroke-linecap:butt;stroke-linejoin:miter;stroke-opacity:1"
         d="m 229.04956,683.53261 -24.70841,5.53196 c -13.20663,0.84671 -23.41836,-7.41609 -20.15301,-25.91149 l 8.41426,-18.69426 -6.24678,-2.83142 20.37954,-3.20578 11.48917,15.99979 -6.85376,-2.99013 -7.10334,14.62104 c -0.0967,2.20942 1.12591,1.78025 2.32619,1.39571 l 22.08177,-4.15321 z"
         id="path4247"
         inkscape:connector-curvature="0"
         sodipodi:nodetypes="cccccccccccc" />
      <path
         style="fill:#ffffff;fill-rule:evenodd;stroke:#aa0000;stroke-width:1px;stroke-linecap:butt;stroke-linejoin:miter;stroke-opacity:1"
         d="m 265.38888,622.51879 -17.1907,13.7923 10.59261,16.98114 c 1.4514,1.56059 1.7691,2.97002 -1.73616,3.86972 l -12.22094,2.43402 -0.53915,-7.35291 -9.69605,20.2317 9.44647,14.97845 0.23262,-7.05247 18.14423,-4.57845 c 8.09555,-4.18119 20.18431,-15.47528 15.6763,-32.38482 z"
         id="path4249"
         inkscape:connector-curvature="0"
         sodipodi:nodetypes="cccccccccccc" />
      <path
         style="fill:#ffffff;fill-rule:evenodd;stroke:#aa0000;stroke-width:1px;stroke-linecap:butt;stroke-linejoin:miter;stroke-opacity:1"
         d="m 201.2432,628.65165 c 13.02662,-25.12277 13.02662,-26.10412 13.02662,-26.10412 8.9195,-14.20001 25.70063,-14.42379 34.24577,-8.15861 l 9.69605,15.04628 5.96329,-4.54453 -9.64518,19.80647 -19.65864,3.70493 5.68458,-5.15151 -6.74593,-10.93306 c 0,0 -1.67196,-1.96632 -3.25666,0.23261 l -11.557,23.84577 z"
         id="path4251"
         inkscape:connector-curvature="0"
         sodipodi:nodetypes="cccccccccccc" />
      <path
         style="fill:none;fill-rule:evenodd;stroke:#aa0000;stroke-width:1px;stroke-linecap:butt;stroke-linejoin:miter;stroke-opacity:1"
         d="m 45.330863,506.19382 65.992517,29.09907 c 11.60498,6.84174 22.17071,4.33022 33.25607,2.59813 l 173.03552,-22.86355"
         id="path4253"
         inkscape:connector-curvature="0"
         sodipodi:nodetypes="cccc" />
      <path
         style="fill:none;fill-rule:evenodd;stroke:#aa0000;stroke-width:1px;stroke-linecap:butt;stroke-linejoin:miter;stroke-opacity:1"
         d="m 221.48413,486.96765 0.25981,35.07477"
         id="path4255"
         inkscape:connector-curvature="0"
         sodipodi:nodetypes="cc" />
    </g>
    <g
       aria-label="VERMELHO PLÃSTICO"
       style="font-style:normal;font-weight:normal;line-height:0%;font-family:sans-serif;letter-spacing:0px;word-spacing:0px;fill:#ff0000;fill-opacity:1;stroke:none;stroke-width:1px;stroke-linecap:butt;stroke-linejoin:miter;stroke-opacity:1"
       id="text4922"
       transform="matrix(0.75897879,0,0,0.79134372,325.34808,149.34606)">
      <path
         d="m 379.59637,595.21936 h -18.24951 l -31.79931,-85.99853 h 18.79882 l 17.7002,55.23681 q 1.64795,5.3711 4.5166,16.23535 l 1.28174,-5.24902 3.11279,-10.98633 17.63916,-55.23681 h 18.61573 z"
         style="font-style:normal;font-variant:normal;font-weight:bold;font-stretch:normal;font-size:125px;line-height:1.25;font-family:'Liberation Sans';-inkscape-font-specification:'Liberation Sans Bold';text-align:center;text-anchor:middle;fill:#ff0000;fill-opacity:1;stroke:none"
         id="path4499"
         inkscape:connector-curvature="0" />
      <path
         d="m 420.55096,595.21936 v -85.99853 h 67.62696 v 13.91601 h -49.62158 v 21.60645 h 45.89843 v 13.91601 h -45.89843 v 22.64404 h 52.12402 v 13.91602 z"
         style="font-style:normal;font-variant:normal;font-weight:bold;font-stretch:normal;font-size:125px;line-height:1.25;font-family:'Liberation Sans';-inkscape-font-specification:'Liberation Sans Bold';text-align:center;text-anchor:middle;fill:#ff0000;fill-opacity:1;stroke:none"
         id="path4501"
         inkscape:connector-curvature="0" />
      <path
         d="m 563.12909,595.21936 -19.9585,-32.65381 h -21.11816 v 32.65381 h -18.00537 v -85.99853 h 42.96875 q 15.38086,0 23.74267,6.65283 8.36182,6.59179 8.36182,18.98193 0,9.0332 -5.12695,15.625 -5.12696,6.53076 -13.85498,8.60596 l 23.25439,36.13281 z m -2.13623,-59.63135 q 0,-12.39013 -15.86914,-12.39013 H 522.05243 V 548.5885 H 545.612 q 7.56836,0 11.47461,-3.41797 3.90625,-3.41797 3.90625,-9.58252 z"
         style="font-style:normal;font-variant:normal;font-weight:bold;font-stretch:normal;font-size:125px;line-height:1.25;font-family:'Liberation Sans';-inkscape-font-specification:'Liberation Sans Bold';text-align:center;text-anchor:middle;fill:#ff0000;fill-opacity:1;stroke:none"
         id="path4503"
         inkscape:connector-curvature="0" />
      <path
         d="m 665.79022,595.21936 v -52.12402 q 0,-1.77002 0,-3.54004 0.061,-1.77002 0.61035,-15.19776 -4.33349,16.41846 -6.40869,22.88819 l -15.50293,47.97363 h -12.81738 l -15.50293,-47.97363 -6.53076,-22.88819 q 0.73242,14.16016 0.73242,18.7378 v 52.12402 h -15.99121 v -85.99853 h 24.10889 l 15.38086,48.0957 1.34277,4.63867 2.92969,11.53564 3.84521,-13.79394 15.80811,-50.47607 h 23.98681 v 85.99853 z"
         style="font-style:normal;font-variant:normal;font-weight:bold;font-stretch:normal;font-size:125px;line-height:1.25;font-family:'Liberation Sans';-inkscape-font-specification:'Liberation Sans Bold';text-align:center;text-anchor:middle;fill:#ff0000;fill-opacity:1;stroke:none"
         id="path4505"
         inkscape:connector-curvature="0" />
      <path
         d="m 698.62714,595.21936 v -85.99853 h 67.62695 v 13.91601 h -49.62158 v 21.60645 h 45.89843 v 13.91601 h -45.89843 v 22.64404 h 52.12402 v 13.91602 z"
         style="font-style:normal;font-variant:normal;font-weight:bold;font-stretch:normal;font-size:125px;line-height:1.25;font-family:'Liberation Sans';-inkscape-font-specification:'Liberation Sans Bold';text-align:center;text-anchor:middle;fill:#ff0000;fill-opacity:1;stroke:none"
         id="path4507"
         inkscape:connector-curvature="0" />
      <path
         d="m 782.12323,595.21936 v -85.99853 h 18.00537 v 72.08251 h 46.14258 v 13.91602 z"
         style="font-style:normal;font-variant:normal;font-weight:bold;font-stretch:normal;font-size:125px;line-height:1.25;font-family:'Liberation Sans';-inkscape-font-specification:'Liberation Sans Bold';text-align:center;text-anchor:middle;fill:#ff0000;fill-opacity:1;stroke:none"
         id="path4509"
         inkscape:connector-curvature="0" />
      <path
         d="m 914.0202,595.21936 v -36.86523 h -37.47558 v 36.86523 h -18.00537 v -85.99853 h 18.00537 v 34.24072 h 37.47558 v -34.24072 h 18.00537 v 85.99853 z"
         style="font-style:normal;font-variant:normal;font-weight:bold;font-stretch:normal;font-size:125px;line-height:1.25;font-family:'Liberation Sans';-inkscape-font-specification:'Liberation Sans Bold';text-align:center;text-anchor:middle;fill:#ff0000;fill-opacity:1;stroke:none"
         id="path4511"
         inkscape:connector-curvature="0" />
      <path
         d="m 1032.4894,551.82336 q 0,13.42774 -5.31,23.62061 -5.3101,10.19287 -15.1978,15.625 -9.8877,5.37109 -23.07126,5.37109 -20.26367,0 -31.79932,-11.90185 -11.47461,-11.96289 -11.47461,-32.71485 0,-20.69091 11.47461,-32.28759 11.47461,-11.59668 31.92139,-11.59668 20.44679,0 31.92139,11.71875 11.5356,11.71875 11.5356,32.16552 z m -18.3715,0 q 0,-13.91601 -6.5918,-21.78955 -6.5918,-7.93457 -18.49369,-7.93457 -12.08496,0 -18.67676,7.87354 -6.5918,7.8125 -6.5918,21.85058 0,14.16016 6.71387,22.33887 6.7749,8.11768 18.43262,8.11768 12.08496,0 18.61576,-7.93457 6.5918,-7.93457 6.5918,-22.52198 z"
         style="font-style:normal;font-variant:normal;font-weight:bold;font-stretch:normal;font-size:125px;line-height:1.25;font-family:'Liberation Sans';-inkscape-font-specification:'Liberation Sans Bold';text-align:center;text-anchor:middle;fill:#ff0000;fill-opacity:1;stroke:none"
         id="path4513"
         inkscape:connector-curvature="0" />
      <path
         d="m 446.12469,692.6925 q 0,8.30079 -3.78417,14.83155 -3.78418,6.53076 -10.86426,10.13183 -7.01905,3.54004 -16.72364,3.54004 h -21.3623 v 30.27344 h -18.00537 v -85.99853 h 38.63525 q 15.4419,0 23.74268,7.14111 8.36181,7.08008 8.36181,20.08056 z m -18.12744,0.30518 q 0,-13.5498 -15.99121,-13.5498 h -18.61572 v 27.89306 h 19.104 q 7.44629,0 11.47461,-3.66211 4.02832,-3.72314 4.02832,-10.68115 z"
         style="font-style:normal;font-variant:normal;font-weight:bold;font-stretch:normal;font-size:125px;line-height:1.25;font-family:'Liberation Sans';-inkscape-font-specification:'Liberation Sans Bold';text-align:center;text-anchor:middle;fill:#ff0000;fill-opacity:1;stroke:none"
         id="path4515"
         inkscape:connector-curvature="0" />
      <path
         d="m 458.88104,751.46936 v -85.99853 h 18.00537 v 72.08251 h 46.14258 v 13.91602 z"
         style="font-style:normal;font-variant:normal;font-weight:bold;font-stretch:normal;font-size:125px;line-height:1.25;font-family:'Liberation Sans';-inkscape-font-specification:'Liberation Sans Bold';text-align:center;text-anchor:middle;fill:#ff0000;fill-opacity:1;stroke:none"
         id="path4517"
         inkscape:connector-curvature="0" />
      <path
         d="M 596.08807,751.46936 588.45868,729.4967 H 555.6828 l -7.62939,21.97266 h -18.00538 l 31.37207,-85.99853 h 21.24024 l 31.25,85.99853 z m -24.04785,-72.75391 -0.36621,1.34278 q -0.61035,2.19726 -1.46484,5.00488 -0.85449,2.80762 -10.49805,30.88379 h 24.71924 l -8.48389,-24.71924 -2.62451,-8.30078 z m -10.13183,-20.62988 v -1.89209 l 15.38086,-15.50293 h 15.74707 v 2.62451 l -20.75196,14.77051 z"
         style="font-style:normal;font-variant:normal;font-weight:bold;font-stretch:normal;font-size:125px;line-height:1.25;font-family:'Liberation Sans';-inkscape-font-specification:'Liberation Sans Bold';text-align:center;text-anchor:middle;fill:#ff0000;fill-opacity:1;stroke:none"
         id="path4519"
         inkscape:connector-curvature="0" />
      <path
         d="m 695.75848,726.68909 q 0,12.63427 -9.39941,19.34814 -9.33838,6.65283 -27.46582,6.65283 -16.54053,0 -25.93994,-5.85937 -9.39942,-5.85938 -12.08496,-17.76123 l 17.39502,-2.86865 q 1.77002,6.83593 6.89697,9.94873 5.12695,3.05175 14.22119,3.05175 18.85986,0 18.85986,-11.47461 0,-3.6621 -2.19726,-6.04248 -2.13623,-2.38037 -6.10352,-3.96728 -3.90625,-1.58692 -15.07568,-3.84522 -9.64356,-2.2583 -13.42774,-3.60107 -3.78417,-1.40381 -6.83593,-3.23486 -3.05176,-1.89209 -5.18799,-4.5166 -2.13623,-2.62452 -3.35693,-6.16456 -1.15967,-3.54003 -1.15967,-8.11767 0,-11.65772 8.72802,-17.82227 8.78907,-6.22558 25.5127,-6.22558 15.99121,0 23.98682,5.00488 8.05664,5.00488 10.37597,16.54053 l -17.45605,2.38037 q -1.34278,-5.5542 -5.49317,-8.36182 -4.08935,-2.80762 -11.77978,-2.80762 -16.35742,0 -16.35742,10.25391 0,3.35693 1.70898,5.49316 1.77002,2.13624 5.18799,3.66211 3.41797,1.46485 13.85498,3.72315 12.39014,2.62451 17.7002,4.88281 5.37109,2.19727 8.48388,5.18799 3.1128,2.92969 4.76074,7.08008 1.64795,4.08935 1.64795,9.46045 z"
         style="font-style:normal;font-variant:normal;font-weight:bold;font-stretch:normal;font-size:125px;line-height:1.25;font-family:'Liberation Sans';-inkscape-font-specification:'Liberation Sans Bold';text-align:center;text-anchor:middle;fill:#ff0000;fill-opacity:1;stroke:none"
         id="path4521"
         inkscape:connector-curvature="0" />
      <path
         d="m 747.94354,679.38684 v 72.08252 h -18.00537 v -72.08252 h -27.77099 v -13.91601 h 73.60839 v 13.91601 z"
         style="font-style:normal;font-variant:normal;font-weight:bold;font-stretch:normal;font-size:125px;line-height:1.25;font-family:'Liberation Sans';-inkscape-font-specification:'Liberation Sans Bold';text-align:center;text-anchor:middle;fill:#ff0000;fill-opacity:1;stroke:none"
         id="path4523"
         inkscape:connector-curvature="0" />
      <path
         d="m 785.5412,751.46936 v -85.99853 h 18.00537 v 85.99853 z"
         style="font-style:normal;font-variant:normal;font-weight:bold;font-stretch:normal;font-size:125px;line-height:1.25;font-family:'Liberation Sans';-inkscape-font-specification:'Liberation Sans Bold';text-align:center;text-anchor:middle;fill:#ff0000;fill-opacity:1;stroke:none"
         id="path4525"
         inkscape:connector-curvature="0" />
      <path
         d="m 860.3703,738.52991 q 16.29639,0 22.64404,-16.35742 l 15.68604,5.92041 q -5.06592,12.45117 -14.89258,18.55468 -9.76562,6.04248 -23.4375,6.04248 -20.75195,0 -32.10449,-11.71875 -11.29151,-11.77978 -11.29151,-32.89795 0,-21.17919 10.9253,-32.53173 10.92529,-11.35254 31.67724,-11.35254 15.13672,0 24.65821,6.10351 9.52148,6.04248 13.3667,17.82227 l -15.86915,4.33349 q -2.01416,-6.46972 -7.93457,-10.2539 -5.85937,-3.84522 -13.85498,-3.84522 -12.20703,0 -18.55468,7.56836 -6.28662,7.56836 -6.28662,22.15576 0,14.83155 6.46972,22.64405 6.53076,7.8125 18.79883,7.8125 z"
         style="font-style:normal;font-variant:normal;font-weight:bold;font-stretch:normal;font-size:125px;line-height:1.25;font-family:'Liberation Sans';-inkscape-font-specification:'Liberation Sans Bold';text-align:center;text-anchor:middle;fill:#ff0000;fill-opacity:1;stroke:none"
         id="path4527"
         inkscape:connector-curvature="0" />
      <path
         d="m 994.15936,708.07336 q 0,13.42774 -5.31006,23.62061 -5.31005,10.19287 -15.19775,15.625 -9.8877,5.37109 -23.07129,5.37109 -20.26367,0 -31.79932,-11.90185 -11.4746,-11.96289 -11.4746,-32.71485 0,-20.69091 11.4746,-32.28759 11.47461,-11.59668 31.92139,-11.59668 20.44678,0 31.92139,11.71875 11.53564,11.71875 11.53564,32.16552 z m -18.37158,0 q 0,-13.91601 -6.5918,-21.78955 -6.59179,-7.93457 -18.49365,-7.93457 -12.08496,0 -18.67676,7.87354 -6.59179,7.8125 -6.59179,21.85058 0,14.16016 6.71386,22.33887 6.77491,8.11768 18.43262,8.11768 12.08496,0 18.61572,-7.93457 6.5918,-7.93457 6.5918,-22.52198 z"
         style="font-style:normal;font-variant:normal;font-weight:bold;font-stretch:normal;font-size:125px;line-height:1.25;font-family:'Liberation Sans';-inkscape-font-specification:'Liberation Sans Bold';text-align:center;text-anchor:middle;fill:#ff0000;fill-opacity:1;stroke:none"
         id="path4529"
         inkscape:connector-curvature="0" />
    </g>
  </g>
</svg>
