<?xml version="1.0" encoding="UTF-8" standalone="no"?>
<svg viewBox="0 0 600 600" xmlns="http://www.w3.org/2000/svg" xmlns:xlink="http://www.w3.org/1999/xlink">
<defs>
<linearGradient id="linearGradient11719">
<stop offset="0" stop-opacity="0"/>
<stop offset=".6" stop-opacity="0"/>
<stop offset="1"/>
</linearGradient>
<linearGradient id="linearGradient1400">
<stop offset="0" stop-opacity=".67843"/>
<stop offset=".57" stop-opacity=".32941"/>
<stop offset="1" stop-opacity="0"/>
</linearGradient>
<linearGradient id="linearGradient865">
<stop offset="0" stop-color="#fff"/>
<stop offset="1" stop-color="#fff" stop-opacity="0"/>
</linearGradient>
<linearGradient gradientUnits="userSpaceOnUse" id="linearGradient2274" x1="556.8697" x2="576.31657" xlink:href="#linearGradient865"/>
<linearGradient gradientUnits="userSpaceOnUse" id="linearGradient2276" x1="556.45975" x2="578.49267" xlink:href="#linearGradient865"/>
<linearGradient gradientUnits="userSpaceOnUse" id="linearGradient2294" x1="608.7798" x2="628.22667" xlink:href="#linearGradient865"/>
<linearGradient gradientUnits="userSpaceOnUse" id="linearGradient2296" x1="608.36981" x2="630.40273" xlink:href="#linearGradient865"/>
<radialGradient cx="533.23236" cy="551.45532" gradientTransform="matrix(1.63083,-1.358136e-2,5.596831e-3,.67206,-290.3788,363.837)" gradientUnits="userSpaceOnUse" id="radialGradient2264" r="17.45313" xlink:href="#linearGradient11719"/>
<radialGradient cx="505.31256" cy="340.95706" gradientTransform="matrix(1.71685,-.46003,.39125,1.46014,-419.2653,437.0289)" gradientUnits="userSpaceOnUse" id="radialGradient2266" r="17.92188" xlink:href="#linearGradient11719"/>
<radialGradient cx="508.64053" cy="331.66568" gradientTransform="matrix(0,-.57157,.91257,0,279.648,981.6145)" gradientUnits="userSpaceOnUse" id="radialGradient2268" r="17.92188" xlink:href="#linearGradient1400"/>
<radialGradient cx="508.86108" cy="321.23935" gradientTransform="matrix(4.22759,-8.494266e-6,0,2.12162,-1568.93,-12.67105)" gradientUnits="userSpaceOnUse" id="radialGradient2270" r="17.92188" xlink:href="#linearGradient11719"/>
<radialGradient cx="582.32813" cy="515.87415" gradientTransform="matrix(.19089,0,0,8.239869e-2,471.1676,652.2954)" gradientUnits="userSpaceOnUse" id="radialGradient2272" r="17.45313" spreadMethod="repeat" xlink:href="#linearGradient11719"/>
<radialGradient cx="582.32813" cy="691.35938" gradientTransform="matrix(1.35632,0,0,.62496,-207.4948,259.2884)" gradientUnits="userSpaceOnUse" id="radialGradient2278" r="17.32813" xlink:href="#linearGradient11719"/>
<radialGradient cx="591.31714" cy="672.06891" gradientTransform="matrix(1.38869,0,0,1.3146,-227.5852,-211.2685)" gradientUnits="userSpaceOnUse" id="radialGradient2280" r="15.76602" xlink:href="#linearGradient11719"/>
<radialGradient cx="591.26024" cy="672.81862" gradientUnits="userSpaceOnUse" id="radialGradient2282" r=".57223" spreadMethod="repeat" xlink:href="#linearGradient11719"/>
<radialGradient cx="533.23236" cy="551.45532" gradientTransform="matrix(1.63083,-1.358136e-2,5.596831e-3,.67206,-238.4687,361.837)" gradientUnits="userSpaceOnUse" id="radialGradient2284" r="17.45313" xlink:href="#linearGradient11719"/>
<radialGradient cx="505.31256" cy="340.95706" gradientTransform="matrix(1.71685,-.46003,.39125,1.46014,-367.3552,435.0289)" gradientUnits="userSpaceOnUse" id="radialGradient2286" r="17.92188" xlink:href="#linearGradient11719"/>
<radialGradient cx="508.64053" cy="331.66568" gradientTransform="matrix(0,-.57157,.91257,0,331.5581,979.6145)" gradientUnits="userSpaceOnUse" id="radialGradient2288" r="17.92188" xlink:href="#linearGradient1400"/>
<radialGradient cx="508.86108" cy="321.23935" gradientTransform="matrix(4.22759,-8.494266e-6,0,2.12162,-1517.02,-14.67105)" gradientUnits="userSpaceOnUse" id="radialGradient2290" r="17.92188" xlink:href="#linearGradient11719"/>
<radialGradient cx="582.32813" cy="515.87415" gradientTransform="matrix(.19089,0,0,8.239869e-2,523.0777,650.2954)" gradientUnits="userSpaceOnUse" id="radialGradient2292" r="17.45313" spreadMethod="repeat" xlink:href="#linearGradient11719"/>
<radialGradient cx="582.32813" cy="691.35938" gradientTransform="matrix(1.35632,0,0,.62496,-155.5847,257.2884)" gradientUnits="userSpaceOnUse" id="radialGradient2298" r="17.32813" xlink:href="#linearGradient11719"/>
<radialGradient cx="591.31714" cy="672.06891" gradientTransform="matrix(1.38869,0,0,1.3146,-175.6751,-213.2685)" gradientUnits="userSpaceOnUse" id="radialGradient2300" r="15.76602" xlink:href="#linearGradient11719"/>
</defs>
<g transform="matrix(6.19223,0,0,6.19223,-3428.45606,-4045.02553)">
<path d="m595.50005,655.03125c-.654.00658-1.26576.32423-1.64739.85537l-1.10882,1.52067-.06336-.09504c-.57557-.61037-1.4645-.80933-2.24535-.50257s-1.29665,1.05759-1.30287,1.89651v.25345l-1.6157-.41185c-.75099-.19465-1.54758.05045-2.05924.63361l-.91873,1.04546-.47521-.25345c-.51955-.27663-1.13281-.31707-1.68419-.11106s-.98788.63866-1.19874,1.1882l-.69697,1.83747h-.31681c-.75939.01307-1.44958.44413-1.79454,1.12077s-.28835,1.48841.14715,2.11065l.47521.66529-2.7562,1.26722c-.77542.36003-1.24675,1.16272-1.18332,2.01529s.6483,1.5767 1.46844,1.81805l1.74243.47521-.76033,1.45731c-.3138.623-.28993,1.3627.06336,1.96419l.60193,1.04546-.31681,3.76998c-.0402.47039.08286.94029.34849,1.33058h-.03168c.40378-.04123.39263-.04329-.03168,0-.54267.05525-1.13636.09204-1.77411.19009 .6108-.09479.59926-.09782-.03168,0-.64835.10033-1.19678.24754-1.67907.34848 .83084-.17526.81851-.17916-.03168,0-.52731.11096-1.08707.2003-1.64739.34849s-1.09441.34301-1.58403.50689c-.02006.00626-.01092-.00697-.03168,0-.53282.17907-1.01958.35958-1.4573.53857-.02073.00801-.0103-.00877-.03168,0 .2269-.09316.20603-.09473-.09504.03168-.48279.20271-.90226.42037-1.26722.60193-.46972.23372-.87824.46251-1.26723.69697-.17847.10761-.39474.24269-.60193.38016-.19472.12847-.36613.28917-.50688.47521l-.50689.38017c-.35123.28268-.35685.3265-.03168.06336-.11215.09077-.32281.21884-.60193.47521-.16844.15432-.22859.22693-.19009.19008-.24271.23409-.47069.49511-.69697.76033s-.46241.55157-.66529.85538c-.20441.30617-.36469.59806-.50689.88705-.06106.12414-.15082.33779-.25344.60193-.10793.26834-.22793.55157-.31681.91874-.08369.35995-.09143.47006-.06336.3168 .10042-.53053.07299-.50052-.03168.12673-8e-005,.01056-8e-005,.02111 0,.03168-.10745.66554-.09078.66847 0,.06336 .00798-.05314-.00582.05707-.03168.28512-.02614.16582-.06334.29508-.06336.57025-.00467.13659 0,.13243 0,.12672v2.56613 .12672 30.28659 .12672 .03168c-.00033.02112-.00033.04225 0,.06336 .0086.35693.04425.50497.06336.60193-.03577.19499-.06336.33793-.06336.66529v.6653c0,.4601.04531.89948.12672,1.2989-.15687-.7955-.16734-.79103 0,.03168h.03168c.07521.35709.17685.77923.34849,1.20386 .00417.01033-.00426.02132 0,.03168 .00749.0194-.00817.01178 0,.03168 .3367.80743.83264,1.46381 1.33058,2.05923 .0232.02774.04006.06762.06336.09505 .0007.00139-2e-005,.03166 0,.03168 .55373.64784 1.21475,1.25375 1.96419,1.80579 .39272.28927.78406.55801 1.17218.79201h.03168c.01395.00656.0477.04113.09505.06336 .31863.1927.67524.40214 1.1405.63361 1.34763.67321 2.83991,1.23937 4.46695,1.67907 2.15979.58367 4.55319.95022 7.06476,1.07714 .65973.03334 1.28777.03168 1.90083.03168s1.24096.00165 1.90083-.03168c2.5126-.12692 4.90313-.49396 7.06476-1.07714 3.77223-1.01768 6.90696-2.64656 8.90223-4.97384 2e-005-2e-005-.00072-.03023 0-.03168s.05325-.07441.06336-.09505c.80791-.97087 1.41825-2.09283 1.67907-3.32645h.03168c.16863-.82498.15713-.82848 0-.03168 .08213-.40135.12672-.83986.12672-1.2989v-.6653c1e-005-.35171-.0593-.50238-.09504-.69697 .03034-.11226.07361-.1708.09504-.50689 .00033-.02111.00033-.04224 0-.06336s.00033-.04224 0-.06336v-.03168c-.00012-.05058 0-.14024 0-.12672v-32.97944c0,.02369.00818-.04877 0-.22176-.01971-.41738-.08479-.75238-.12672-.9821 .03036.16282.02469.05332-.06336-.3168-.093-.39106-.21047-.74762-.34848-1.07714-.2005-.47872-.50219-.90125-.79202-1.33058l1.10882-1.23554 .60193.22176c.70946.25492 1.50157.10068 2.06355-.40181s.80354-1.27245.6293-2.00591l-.31681-1.2989 3.07301-2.69285c.39912-.34737.64879-.83535.69697-1.36226 .70193.19113 1.4526-.0033 1.97348-.51117s.73426-1.25337.56097-1.95991l-.60193-2.37604 .06336-.03168c.64845-.22037 1.1444-.74944 1.32245-1.41075s.01476-1.36788-.4354-1.88403l-1.58402-1.80579-2.02756-3.35813c-.30002-.49448-.79462-.83954-1.36226-.95042l-.85538-2.18596c-.14498-.35494-.38641-.66222-.69697-.88705l-1.23554-.91874-.44353-2.47108c-.15517-.93241-.92668-1.63853-1.86915-1.71075l-.44352-.03168-4.08679-2.21764c-.30103-.16525-.63869-.25239-.9821-.25344z"/>
<path d="m582.34375,683.375c-.61184,0-1.21658.00053-1.8125.03125-.57495.02905-1.13028.10005-1.6875.15625h-.03125c-.5567.05668-1.1201.10508-1.65625.1875h-.03125c-.5354.08285-1.05047.20533-1.5625.3125h-.03125c-1.03238.21723-2.01764.47338-2.9375.78125h-.03125c-.45443.15273-.88982.32717-1.3125.5h-.03125c-.43076.17686-.82406.36615-1.21875.5625-.39529.19669-.76873.41026-1.125.625-.16954.10222-.33936.20591-.5.3125-.03134.06239-.06567.12449-.09375.1875l-.03125.03125c-.2521.17279-.492.34926-.71875.53125l-.03125.03125c-.16794.13594-.3468.26554-.5.40625l-.15625.15625c-.20004.19293-.39109.39283-.5625.59375-.18281.21432-.35135.43364-.5.65625s-.26294.42852-.375.65625c-.06773.13769-.13306.26613-.1875.40625-.08759.21776-.16474.43312-.21875.65625-.01643.07066-.01822.14761-.03125.21875-.00621.03281-.02576.06085-.03125.09375-.00325.02013.00305.04217 0,.0625-.02327.17548-.06249.34861-.0625.53125-.00142.04152 0,.08393 0,.125v32.53125 .125c1e-005,.18266.03923.35576.0625.53125 .00305.02033-.00325.04237 0,.0625s.02303.04093.03125.0625c-.04319.23443-.09375.44562-.09375.6875v.65625c2e-005,4.80798 7.82148,8.6875 17.4375,8.6875s17.46881-3.87951 17.46875-8.6875v-.65625c1e-005-.24933-.05272-.47272-.09375-.71875 .03713-.20511.08382-.41486.09375-.625 .00195-.0413 0-.08404 0-.125v-32.53125c0-.04095.00195-.0837 0-.125-.0109-.23071-.05294-.4639-.09375-.6875-.01359-.07288-.01403-.14636-.03125-.21875-.06035-.25376-.14657-.50306-.25-.75-.20289-.48442-.48723-.95423-.84375-1.40625-.13356-.16935-.28391-.33597-.4375-.5s-.30097-.31417-.46875-.46875c-.15355-.14127-.30055-.26986-.46875-.40625-.09227-.07525-.18458-.14502-.28125-.21875-.08159-.06209-.1654-.12654-.25-.1875-.07061-.05098-.14602-.10606-.21875-.15625-.01836-.04225-.04266-.08303-.0625-.125-.19549-.13526-.38014-.27781-.59375-.40625-.35531-.21475-.73064-.4283-1.125-.625-.90322-.44826-1.91869-.84568-3-1.1875-.69669-.22024-1.42894-.3923-2.1875-.5625-2.18074-.48929-4.58457-.77899-7.125-.78125z" fill="#7f5327"/>
<path d="m565.20943,724.5453c-.21404.54054-.34375,1.0859-.34375,1.65625v.65625c0,4.80797 7.82148,8.6875 17.4375,8.6875s17.46881-3.87951 17.46875-8.6875v-.65625c0-.56276-.10522-1.12153-.3125-1.65625-1.58435,3.99561-8.69693,6.99998-17.15625,7-8.45371,0-15.5089-3.0084-17.09375-7z" fill="url(#radialGradient2264)"/>
<path d="m582.34375,683.375c-.61184,0-1.21658.00053-1.8125.03125-.57495.02905-1.13028.10005-1.6875.15625h-.03125c-.5567.05668-1.1201.10508-1.65625.1875h-.03125c-.5354.08285-1.05047.20533-1.5625.3125h-.03125c-1.03238.21723-2.01764.47338-2.9375.78125h-.03125c-.45443.15273-.88982.32717-1.3125.5h-.03125c-.43076.17686-.82406.36615-1.21875.5625-.39529.19669-.76873.41026-1.125.625-.16954.10222-.33936.20591-.5.3125-.03134.06239-.06567.12449-.09375.1875l-.03125.03125c-.2521.17279-.492.34926-.71875.53125l-.03125.03125c-.16794.13594-.3468.26554-.5.40625l-.15625.15625c-.20004.19293-.39109.39283-.5625.59375-.18281.21432-.35135.43364-.5.65625s-.26294.42852-.375.65625c-.06773.13769-.13306.26613-.1875.40625-.08759.21776-.16474.43312-.21875.65625-.01643.07066-.01822.14761-.03125.21875-.00621.03281-.02576.06085-.03125.09375-.00325.02013.00305.04217 0,.0625-.02327.17548-.06249.34861-.0625.53125-.00142.04152 0,.08393 0,.125v2.53125 .125c1e-005,.18266.03923.35576.0625.53125 .00305.02033-.00325.04237 0,.0625 .00549.0329.02504.06096.03125.09375 .01303.07114.01482.14811.03125.21875 .05401.22313.13116.43851.21875.65625 .05444.14012.11977.26858.1875.40625 .11206.22773.22785.43586.375.65625s.31719.44195.5.65625c.17141.20092.36246.40084.5625.59375 .05079.04861.10376.10818.15625.15625 .1532.14071.33206.27033.5.40625l.03125.03125c.22675.18199.46665.35848.71875.53125l.03125.03125c.02697.06052.06377.12755.09375.1875 .16064.10659.33046.21028.5.3125 .35627.21476.72971.42831 1.125.625 .39469.19637.78799.38564 1.21875.5625h.03125c.42268.17285.85807.34727 1.3125.5h.03125c.91986.30789 1.90512.56402 2.9375.78125h.03125c.51203.10719 1.0271.22965 1.5625.3125h.03125c.53615.08244 1.09955.13082 1.65625.1875h.03125c.55722.05622 1.11255.1272 1.6875.15625 .59592.03074 1.20066.03125 1.8125.03125 2.54043-.00224 4.94426-.29196 7.125-.78125 .75856-.17018 1.49081-.34226 2.1875-.5625 1.08131-.3418 2.09678-.73924 3-1.1875 .39436-.19668.76969-.41025 1.125-.625 .21152-.12718.40001-.24113.59375-.375 .02312-.04832.04133-.10756.0625-.15625l.21875-.15625 .25-.1875c.09667-.07373.18898-.14348.28125-.21875 .1682-.13639.3152-.26496.46875-.40625 .16778-.15458.31945-.30874.46875-.46875s.30394-.33063.4375-.5c.35652-.45202.64086-.92181.84375-1.40625 .10343-.24694.18965-.49622.25-.75 .01722-.07239.01766-.14585.03125-.21875 .04081-.2236.08285-.45677.09375-.6875 .00195-.0413 0-.08404 0-.125v-2.53125c0-.04095.00195-.0837 0-.125-.0109-.23071-.05294-.4639-.09375-.6875-.01359-.07288-.01403-.14636-.03125-.21875-.06035-.25376-.14657-.50306-.25-.75-.20289-.48442-.48723-.95423-.84375-1.40625-.13356-.16935-.28391-.33597-.4375-.5s-.30097-.31417-.46875-.46875c-.15355-.14127-.30055-.26986-.46875-.40625-.09227-.07525-.18458-.14502-.28125-.21875-.08159-.06209-.1654-.12654-.25-.1875-.07061-.05098-.14602-.10606-.21875-.15625-.01836-.04225-.04266-.08303-.0625-.125-.19549-.13526-.38014-.27781-.59375-.40625-.35531-.21475-.73064-.4283-1.125-.625-.90322-.44826-1.91869-.84568-3-1.1875-.69669-.22024-1.42894-.3923-2.1875-.5625-2.18074-.48929-4.58457-.77899-7.125-.78125z" fill="url(#radialGradient2266)"/>
<path d="m564.99068,691.1703c-.01645.07065-.01822.14761-.03125.21875-.00623.0328-.02576.06085-.03125.09375-.03767.23321-.0625.48082-.0625.71875v2.65625c0,.13907.01751.27224.03125.40625 1.52291,3.83611 8.7718,6.71871 17.4375,6.71875s15.88881-2.88264 17.40625-6.71875c.01377-.13401.03125-.26718.03125-.40625v-2.65625c0-.26974-.04564-.54888-.09375-.8125-.01361-.07289-.01403-.14636-.03125-.21875-1.63732,4.68374-8.75498,8.18753-17.3125,8.1875s-15.70082-3.5036-17.34375-8.1875z" fill="url(#radialGradient2268)"/>
<path d="m564.875,695.52598v29.34375c0-.23793.02485-.48553.0625-.71875 .00549-.0329.02504-.06094.03125-.09375 .01303-.07114.01482-.14809.03125-.21875 1.64293,4.6839 8.78598,8.18751 17.34375,8.1875s15.6752-3.50375 17.3125-8.1875c.01722.07239.01766.14587.03125.21875 .04811.26362.09377.54277.09375.8125v-29.34375c0,.13907-.01746.27225-.03125.40625-1.51744,3.83611-8.74052,6.71875-17.40625,6.71875s-15.91457-2.88263-17.4375-6.71875c-.01374-.13401-.03123-.26717-.03125-.40625z" fill="#900"/>
<path d="m582.34375,683.375c-.61184,0-1.21658.00053-1.8125.03125-.57495.02905-1.13028.10005-1.6875.15625h-.03125c-.5567.05668-1.1201.10508-1.65625.1875h-.03125c-.5354.08285-1.05047.20533-1.5625.3125h-.03125c-1.03238.21723-2.01764.47338-2.9375.78125h-.03125c-.45443.15273-.88982.32717-1.3125.5h-.03125c-.43076.17686-.82406.36615-1.21875.5625-.39529.19669-.76873.41026-1.125.625-.16954.10222-.33936.20591-.5.3125-.03134.06239-.06567.12449-.09375.1875l-.03125.03125c-.2521.17279-.492.34926-.71875.53125l-.03125.03125c-.16794.13594-.3468.26554-.5.40625l-.15625.15625c-.20004.19293-.39109.39283-.5625.59375-.18281.21432-.35135.43364-.5.65625s-.26294.42852-.375.65625c-.06773.13769-.13306.26613-.1875.40625-.08759.21776-.16474.43312-.21875.65625 1.64293,4.6839 8.78598,8.18751 17.34375,8.1875s15.6752-3.50375 17.3125-8.1875c-.06035-.25376-.14657-.50306-.25-.75-.20289-.48442-.48723-.95423-.84375-1.40625-.13356-.16935-.28391-.33597-.4375-.5s-.30097-.31417-.46875-.46875c-.15355-.14127-.30055-.26986-.46875-.40625-.09227-.07525-.18458-.14502-.28125-.21875-.08159-.06209-.1654-.12654-.25-.1875-.07061-.05098-.14602-.10606-.21875-.15625-.01836-.04225-.04266-.08303-.0625-.125-.19549-.13526-.38014-.27781-.59375-.40625-.35531-.21475-.73064-.4283-1.125-.625-.90322-.44826-1.91869-.84568-3-1.1875-.69669-.22024-1.42894-.3923-2.1875-.5625-2.18074-.48929-4.58457-.77899-7.125-.78125z" fill="url(#radialGradient2270)"/>
<path d="m564.875,695.52598v29.34375c0-.23793.02485-.48553.0625-.71875 .00549-.0329.02504-.06094.03125-.09375 .01303-.07114.01482-.14809.03125-.21875 1.64293,4.6839 8.78598,8.18751 17.34375,8.1875s15.6752-3.50375 17.3125-8.1875c.01722.07239.01766.14587.03125.21875 .04811.26362.09377.54277.09375.8125v-29.34375c0,.13907-.01746.27225-.03125.40625-1.51744,3.83611-8.74052,6.71875-17.40625,6.71875s-15.91457-2.88263-17.4375-6.71875c-.01374-.13401-.03123-.26717-.03125-.40625z" fill="url(#radialGradient2272)" opacity=".15"/>
<path d="m567.91689,696.50189v31.56659c.93363.73923 2.09009,1.38157 3.42018,1.92309v-31.56659c-.12603-.05283-.26278-.09239-.38615-.14569h-.02758c-.3802-.16491-.72736-.34139-1.07571-.52448s-.67852-.38252-.99295-.58275c-.33197-.21143-.64581-.43967-.93779-.67017z" fill="url(#linearGradient2274)" opacity=".61187"/>
<path d="m568.97589,696.92576v32.8571c1.05779.76765 2.36804,1.43469 3.875,1.99703v-32.8571l-.4375-.15129h-.03125c-.43076-.17125-.82408-.35452-1.21875-.54465-.39529-.19044-.76875-.39722-1.125-.60515-.37611-.21956-.73169-.45657-1.0625-.69594z" fill="url(#linearGradient2276)" opacity=".61187"/>
<path d="m582.34375,683.375c-.61184,0-1.21658.00053-1.8125.03125-.57495.02905-1.13028.10005-1.6875.15625h-.03125c-.5567.05668-1.1201.10508-1.65625.1875h-.03125c-.5354.08285-1.05047.20533-1.5625.3125h-.03125c-1.03238.21723-2.01764.47338-2.9375.78125h-.03125c-.45443.15273-.88982.32717-1.3125.5h-.03125l-.09375.03125 2.34375.03125 .9375-.25 4.53125.25 1.9375-1.5625 1.28125,1.15625 3.21875-1.46875c-.98836-.09126-1.99117-.15532-3.03125-.15625zm3.0625.15625 1.125,1.40625 1.46875-.78125 3.96875,1.375 1.375-.1875c-.54225-.21833-1.09871-.43887-1.6875-.625-.69669-.22024-1.42894-.3923-2.1875-.5625-1.27859-.28687-2.64797-.49305-4.0625-.625zm8.40625,2-1.6875,1.25 4.90625,1.0625-.0625.84375 2.03125,1.21875-1.59375.96875 1.625.8125-2.03125,1.65625 .03125.28125-4.90625,1.21875 2.15625,1.40625-2.3125-.8125-3.96875,2.375-1.46875-.75-1.125,1.71875-3.25-1.0625-1.28125-.0625-1.96875-.125-4.5-.15625-.9375-.59375-3.375-.28125c3.18052,1.76435 7.49568,2.84376 12.25,2.84375 8.55752,3e-005 15.6752-3.50375 17.3125-8.1875-.06035-.25376-.14657-.50306-.25-.75-.20289-.48442-.48723-.95423-.84375-1.40625-.13356-.16935-.28391-.33597-.4375-.5s-.30097-.31417-.46875-.46875c-.15355-.14127-.30055-.26986-.46875-.40625-.09227-.07525-.18458-.14502-.28125-.21875-.08159-.06209-.1654-.12654-.25-.1875-.07061-.05098-.14602-.10606-.21875-.15625-.01836-.04225-.04266-.08303-.0625-.125-.19549-.13526-.38014-.27781-.59375-.40625-.35531-.21475-.73064-.4283-1.125-.625-.26601-.13202-.55945-.25192-.84375-.375zm-24.125.5625c-.27482.14697-.55706.28354-.8125.4375-.16954.10222-.33936.20591-.5.3125-.03134.06239-.06567.12449-.09375.1875l-.03125.03125-.0625.03125 2.03125.34375-.53125-1.34375zm-2.34375,1.65625c-.11802.09216-.23813.18424-.34375.28125l-.15625.15625c-.20004.19293-.39109.39283-.5625.59375-.18281.21432-.35135.43364-.5.65625s-.26294.42852-.375.65625c-.06773.13769-.13306.26613-.1875.40625-.08759.21776-.16474.43312-.21875.65625 .66744,1.90283 2.25975,3.61128 4.46875,4.96875l.75-2.09375-3,.15625 .28125-1.0625-.25-.5625-.15625-1.6875 .15625-1.53125 .21875-.875-.125-.71875z" fill="#7f5327"/>
<path d="m582.34375,683.375c-.61184,0-1.21658.00053-1.8125.03125-.57495.02905-1.13028.10005-1.6875.15625h-.03125c-.5567.05668-1.1201.10508-1.65625.1875h-.03125c-.5354.08285-1.05047.20533-1.5625.3125h-.03125c-1.03238.21723-2.01764.47338-2.9375.78125h-.03125c-.45443.15273-.88982.32717-1.3125.5h-.03125l-.09375.03125 2.34375.03125 .9375-.25 4.53125.25 1.9375-1.5625 1.28125,1.15625 3.21875-1.46875c-.98836-.09126-1.99117-.15532-3.03125-.15625zm3.0625.15625 1.125,1.40625 1.46875-.78125 3.96875,1.375 1.375-.1875c-.54225-.21833-1.09871-.43887-1.6875-.625-.69669-.22024-1.42894-.3923-2.1875-.5625-1.27859-.28687-2.64797-.49305-4.0625-.625zm8.40625,2-1.6875,1.25 4.90625,1.0625-.0625.84375 2.03125,1.21875-1.59375.96875 1.625.8125-2.03125,1.65625 .03125.28125-4.90625,1.21875 2.15625,1.40625-2.3125-.8125-3.96875,2.375-1.46875-.75-1.125,1.71875-3.25-1.0625-1.28125-.0625-1.96875-.125-4.5-.15625-.9375-.59375-3.375-.28125c3.18052,1.76435 7.49568,2.84376 12.25,2.84375 8.55752,3e-005 15.6752-3.50375 17.3125-8.1875-.06035-.25376-.14657-.50306-.25-.75-.20289-.48442-.48723-.95423-.84375-1.40625-.13356-.16935-.28391-.33597-.4375-.5s-.30097-.31417-.46875-.46875c-.15355-.14127-.30055-.26986-.46875-.40625-.09227-.07525-.18458-.14502-.28125-.21875-.08159-.06209-.1654-.12654-.25-.1875-.07061-.05098-.14602-.10606-.21875-.15625-.01836-.04225-.04266-.08303-.0625-.125-.19549-.13526-.38014-.27781-.59375-.40625-.35531-.21475-.73064-.4283-1.125-.625-.26601-.13202-.55945-.25192-.84375-.375zm-24.125.5625c-.27482.14697-.55706.28354-.8125.4375-.16954.10222-.33936.20591-.5.3125-.03134.06239-.06567.12449-.09375.1875l-.03125.03125-.0625.03125 2.03125.34375-.53125-1.34375zm-2.34375,1.65625c-.11802.09216-.23813.18424-.34375.28125l-.15625.15625c-.20004.19293-.39109.39283-.5625.59375-.18281.21432-.35135.43364-.5.65625s-.26294.42852-.375.65625c-.06773.13769-.13306.26613-.1875.40625-.08759.21776-.16474.43312-.21875.65625 .66744,1.90283 2.25975,3.61128 4.46875,4.96875l.75-2.09375-3,.15625 .28125-1.0625-.25-.5625-.15625-1.6875 .15625-1.53125 .21875-.875-.125-.71875z" fill="url(#radialGradient2278)"/>
<path d="m606.22474,679.47784-3.95637,3.45875 .60305,2.47478-1.88307-.67887-1.97318,2.22907-1.26672.23718-3.03209.1832-1.59191-.43794-2.49064.41877-1.43328-2.39248-2.65283-.15267-1.93102-1.82979-1.90777-.76369-1.35117-1.78625-1.00314-.04193 .33386-4.31696-.91025-1.57263 1.86508-3.62606-4.08116-1.1701 4.8961-2.24175-1.80209-2.67147 1.61332-.05536 1.20951-3.04283 1.88313,1.0113 1.97316-2.22906 4.10721,1.04698 .02974-2.85314 1.75377,1.82372 2.49064-3.42118 4.43569,2.39249 .84019.05585 .57936,3.21079 1.90785,1.42857 1.30168,3.30863 1.00315.04194 2.10811,3.54111 1.68196,1.87942-1.86507.62368 1.07876,4.1725-2.553-.82923-.01056,2.57466z" fill="#7f5327"/>
<path d="m606.22474,679.47784-3.95637,3.45875 .60305,2.47478-1.88307-.67887-1.97318,2.22907-1.26672.23718-3.03209.1832-1.59191-.43794-2.49064.41877-1.43328-2.39248-2.65283-.15267-1.93102-1.82979-1.90777-.76369-1.35117-1.78625-1.00314-.04193 .33386-4.31696-.91025-1.57263 1.86508-3.62606-4.08116-1.1701 4.8961-2.24175-1.80209-2.67147 1.61332-.05536 1.20951-3.04283 1.88313,1.0113 1.97316-2.22906 4.10721,1.04698 .02974-2.85314 1.75377,1.82372 2.49064-3.42118 4.43569,2.39249 .84019.05585 .57936,3.21079 1.90785,1.42857 1.30168,3.30863 1.00315.04194 2.10811,3.54111 1.68196,1.87942-1.86507.62368 1.07876,4.1725-2.553-.82923-.01056,2.57466z" fill="url(#radialGradient2280)"/>
<path d="m595.01242,672.8186a3.75223,3.75223 0 1,1 -7.50446,0 3.75223,3.75223 0 1,1 7.50446,0z" fill="url(#radialGradient2282)" opacity=".15525" transform="matrix(2.66854,0,0,2.66854,-984.2899,-1122.451)"/>
<path d="m595.01242,672.8186a3.75223,3.75223 0 1,1 -7.50446,0 3.75223,3.75223 0 1,1 7.50446,0z" fill="#7f5327" transform="matrix(1.01524,0,0,1.01524,-6.75859,-10.07941)"/>
</g>
<g transform="matrix(6.19223,0,0,6.19223,-3561.19878,-3972.89786)">
<path d="m647.41012,653.03125c-.654.00658-1.26576.32423-1.64739.85537l-1.10882,1.52067-.06336-.09504c-.57557-.61037-1.4645-.80933-2.24535-.50257s-1.29665,1.05759-1.30287,1.89651v.25345l-1.6157-.41185c-.75099-.19465-1.54758.05045-2.05924.63361l-.91873,1.04546-.47521-.25345c-.51955-.27663-1.13281-.31707-1.68419-.11106s-.98788.63866-1.19874,1.1882l-.69697,1.83747h-.31681c-.75939.01307-1.44958.44413-1.79454,1.12077s-.28835,1.48841.14715,2.11065l.47521.66529-2.7562,1.26722c-.77542.36003-1.24675,1.16272-1.18332,2.01529s.6483,1.5767 1.46844,1.81805l1.74243.47521-.76033,1.45731c-.3138.623-.28993,1.3627.06336,1.96419l.60193,1.04546-.31681,3.76998c-.0402.47039.08286.94029.34849,1.33058h-.03168c.40378-.04123.39263-.04329-.03168,0-.54267.05525-1.13636.09204-1.77411.19009 .6108-.09479.59926-.09782-.03168,0-.64835.10033-1.19678.24754-1.67907.34848 .83084-.17526.81851-.17916-.03168,0-.52731.11096-1.08707.2003-1.64739.34849s-1.09441.34301-1.58403.50689c-.02006.00626-.01092-.00697-.03168,0-.53282.17907-1.01958.35958-1.4573.53857-.02073.00801-.0103-.00877-.03168,0 .2269-.09316.20603-.09473-.09504.03168-.48279.20271-.90226.42037-1.26722.60193-.46972.23372-.87824.46251-1.26723.69697-.17847.10761-.39474.24269-.60193.38016-.19472.12847-.36613.28917-.50688.47521l-.50689.38017c-.35123.28268-.35685.3265-.03168.06336-.11215.09077-.32281.21884-.60193.47521-.16844.15432-.22859.22693-.19009.19008-.24271.23409-.47069.49511-.69697.76033s-.46241.55157-.66529.85538c-.20441.30617-.36469.59806-.50689.88705-.06106.12414-.15082.33779-.25344.60193-.10793.26834-.22793.55157-.31681.91874-.08369.35995-.09143.47006-.06336.3168 .10042-.53053.07299-.50052-.03168.12673-8e-005,.01056-8e-005,.02111 0,.03168-.10745.66554-.09078.66847 0,.06336 .00798-.05314-.00582.05707-.03168.28512-.02614.16582-.06334.29508-.06336.57025-.00467.13659 0,.13243 0,.12672v2.56613 .12672 30.28659 .12672 .03168c-.00033.02112-.00033.04225 0,.06336 .0086.35693.04425.50497.06336.60193-.03577.19499-.06336.33793-.06336.66529v.6653c0,.4601.04531.89948.12672,1.2989-.15687-.7955-.16734-.79103 0,.03168h.03168c.07521.35709.17685.77923.34849,1.20386 .00417.01033-.00426.02132 0,.03168 .00749.0194-.00817.01178 0,.03168 .3367.80743.83264,1.46381 1.33058,2.05923 .0232.02774.04006.06762.06336.09505 .0007.00139-2e-005,.03166 0,.03168 .55373.64784 1.21475,1.25375 1.96419,1.80579 .39272.28927.78406.55801 1.17218.79201h.03168c.01395.00656.0477.04113.09505.06336 .31863.1927.67524.40214 1.1405.63361 1.34763.67321 2.83991,1.23937 4.46695,1.67907 2.15979.58367 4.55319.95022 7.06476,1.07714 .65973.03334 1.28777.03168 1.90083.03168s1.24096.00165 1.90083-.03168c2.5126-.12692 4.90313-.49396 7.06476-1.07714 3.77223-1.01768 6.90696-2.64656 8.90223-4.97384 2e-005-2e-005-.00072-.03023 0-.03168s.05325-.07441.06336-.09505c.80791-.97087 1.41825-2.09283 1.67907-3.32645h.03168c.16863-.82498.15713-.82848 0-.03168 .08213-.40135.12672-.83986.12672-1.2989v-.6653c1e-005-.35171-.0593-.50238-.09504-.69697 .03034-.11226.07361-.1708.09504-.50689 .00033-.02111.00033-.04224 0-.06336s.00033-.04224 0-.06336v-.03168c-.00012-.05058 0-.14024 0-.12672v-32.97944c0,.02369.00818-.04877 0-.22176-.01971-.41738-.08479-.75238-.12672-.9821 .03036.16282.02469.05332-.06336-.3168-.093-.39106-.21047-.74762-.34848-1.07714-.2005-.47872-.50219-.90125-.79202-1.33058l1.10882-1.23554 .60193.22176c.70946.25492 1.50157.10068 2.06355-.40181s.80354-1.27245.6293-2.00591l-.31681-1.2989 3.07301-2.69285c.39912-.34737.64879-.83535.69697-1.36226 .70193.19113 1.4526-.0033 1.97348-.51117s.73426-1.25337.56097-1.95991l-.60193-2.37604 .06336-.03168c.64845-.22037 1.1444-.74944 1.32245-1.41075s.01476-1.36788-.4354-1.88403l-1.58402-1.80579-2.02756-3.35813c-.30002-.49448-.79462-.83954-1.36226-.95042l-.85538-2.18596c-.14498-.35494-.38641-.66222-.69697-.88705l-1.23554-.91874-.44353-2.47108c-.15517-.93241-.92668-1.63853-1.86915-1.71075l-.44352-.03168-4.08679-2.21764c-.30103-.16525-.63869-.25239-.9821-.25344z"/>
<path d="m634.25382,681.375c-.61184,0-1.21658.00053-1.8125.03125-.57495.02905-1.13028.10005-1.6875.15625h-.03125c-.5567.05668-1.1201.10508-1.65625.1875h-.03125c-.5354.08285-1.05047.20533-1.5625.3125h-.03125c-1.03238.21723-2.01764.47338-2.9375.78125h-.03125c-.45443.15273-.88982.32717-1.3125.5h-.03125c-.43076.17686-.82406.36615-1.21875.5625-.39529.19669-.76873.41026-1.125.625-.16954.10222-.33936.20591-.5.3125-.03134.06239-.06567.12449-.09375.1875l-.03125.03125c-.2521.17279-.492.34926-.71875.53125l-.03125.03125c-.16794.13594-.3468.26554-.5.40625l-.15625.15625c-.20004.19293-.39109.39283-.5625.59375-.18281.21432-.35135.43364-.5.65625s-.26294.42852-.375.65625c-.06773.13769-.13306.26613-.1875.40625-.08759.21776-.16474.43312-.21875.65625-.01643.07066-.01822.14761-.03125.21875-.00621.03281-.02576.06085-.03125.09375-.00325.02013.00305.04217 0,.0625-.02327.17548-.06249.34861-.0625.53125-.00142.04152 0,.08393 0,.125v32.53125 .125c1e-005,.18266.03923.35576.0625.53125 .00305.02033-.00325.04237 0,.0625s.02303.04093.03125.0625c-.04319.23443-.09375.44562-.09375.6875v.65625c2e-005,4.80798 7.82148,8.6875 17.4375,8.6875s17.46881-3.87951 17.46875-8.6875v-.65625c1e-005-.24933-.05272-.47272-.09375-.71875 .03713-.20511.08382-.41486.09375-.625 .00195-.0413 0-.08404 0-.125v-32.53125c0-.04095.00195-.0837 0-.125-.0109-.23071-.05294-.4639-.09375-.6875-.01359-.07288-.01403-.14636-.03125-.21875-.06035-.25376-.14657-.50306-.25-.75-.20289-.48442-.48723-.95423-.84375-1.40625-.13356-.16935-.28391-.33597-.4375-.5s-.30097-.31417-.46875-.46875c-.15355-.14127-.30055-.26986-.46875-.40625-.09227-.07525-.18458-.14502-.28125-.21875-.08159-.06209-.1654-.12654-.25-.1875-.07061-.05098-.14602-.10606-.21875-.15625-.01836-.04225-.04266-.08303-.0625-.125-.19549-.13526-.38014-.27781-.59375-.40625-.35531-.21475-.73064-.4283-1.125-.625-.90322-.44826-1.91869-.84568-3-1.1875-.69669-.22024-1.42894-.3923-2.1875-.5625-2.18074-.48929-4.58457-.77899-7.125-.78125z" fill="#d3d3d3"/>
<path d="m617.1195,722.5453c-.21404.54054-.34375,1.0859-.34375,1.65625v.65625c0,4.80797 7.82148,8.6875 17.4375,8.6875s17.46881-3.87951 17.46875-8.6875v-.65625c0-.56276-.10522-1.12153-.3125-1.65625-1.58435,3.99561-8.69693,6.99998-17.15625,7-8.45371,0-15.5089-3.0084-17.09375-7z" fill="url(#radialGradient2284)"/>
<path d="m634.25382,681.375c-.61184,0-1.21658.00053-1.8125.03125-.57495.02905-1.13028.10005-1.6875.15625h-.03125c-.5567.05668-1.1201.10508-1.65625.1875h-.03125c-.5354.08285-1.05047.20533-1.5625.3125h-.03125c-1.03238.21723-2.01764.47338-2.9375.78125h-.03125c-.45443.15273-.88982.32717-1.3125.5h-.03125c-.43076.17686-.82406.36615-1.21875.5625-.39529.19669-.76873.41026-1.125.625-.16954.10222-.33936.20591-.5.3125-.03134.06239-.06567.12449-.09375.1875l-.03125.03125c-.2521.17279-.492.34926-.71875.53125l-.03125.03125c-.16794.13594-.3468.26554-.5.40625l-.15625.15625c-.20004.19293-.39109.39283-.5625.59375-.18281.21432-.35135.43364-.5.65625s-.26294.42852-.375.65625c-.06773.13769-.13306.26613-.1875.40625-.08759.21776-.16474.43312-.21875.65625-.01643.07066-.01822.14761-.03125.21875-.00621.03281-.02576.06085-.03125.09375-.00325.02013.00305.04217 0,.0625-.02327.17548-.06249.34861-.0625.53125-.00142.04152 0,.08393 0,.125v2.53125 .125c1e-005,.18266.03923.35576.0625.53125 .00305.02033-.00325.04237 0,.0625 .00549.0329.02504.06096.03125.09375 .01303.07114.01482.14811.03125.21875 .05401.22313.13116.43851.21875.65625 .05444.14012.11977.26858.1875.40625 .11206.22773.22785.43586.375.65625s.31719.44195.5.65625c.17141.20092.36246.40084.5625.59375 .05079.04861.10376.10818.15625.15625 .1532.14071.33206.27033.5.40625l.03125.03125c.22675.18199.46665.35848.71875.53125l.03125.03125c.02697.06052.06377.12755.09375.1875 .16064.10659.33046.21028.5.3125 .35627.21476.72971.42831 1.125.625 .39469.19637.78799.38564 1.21875.5625h.03125c.42268.17285.85807.34727 1.3125.5h.03125c.91986.30789 1.90512.56402 2.9375.78125h.03125c.51203.10719 1.0271.22965 1.5625.3125h.03125c.53615.08244 1.09955.13082 1.65625.1875h.03125c.55722.05622 1.11255.1272 1.6875.15625 .59592.03074 1.20066.03125 1.8125.03125 2.54043-.00224 4.94426-.29196 7.125-.78125 .75856-.17018 1.49081-.34226 2.1875-.5625 1.08131-.3418 2.09678-.73924 3-1.1875 .39436-.19668.76969-.41025 1.125-.625 .21152-.12718.40001-.24113.59375-.375 .02312-.04832.04133-.10756.0625-.15625l.21875-.15625 .25-.1875c.09667-.07373.18898-.14348.28125-.21875 .1682-.13639.3152-.26496.46875-.40625 .16778-.15458.31945-.30874.46875-.46875s.30394-.33063.4375-.5c.35652-.45202.64086-.92181.84375-1.40625 .10343-.24694.18965-.49622.25-.75 .01722-.07239.01766-.14585.03125-.21875 .04081-.2236.08285-.45677.09375-.6875 .00195-.0413 0-.08404 0-.125v-2.53125c0-.04095.00195-.0837 0-.125-.0109-.23071-.05294-.4639-.09375-.6875-.01359-.07288-.01403-.14636-.03125-.21875-.06035-.25376-.14657-.50306-.25-.75-.20289-.48442-.48723-.95423-.84375-1.40625-.13356-.16935-.28391-.33597-.4375-.5s-.30097-.31417-.46875-.46875c-.15355-.14127-.30055-.26986-.46875-.40625-.09227-.07525-.18458-.14502-.28125-.21875-.08159-.06209-.1654-.12654-.25-.1875-.07061-.05098-.14602-.10606-.21875-.15625-.01836-.04225-.04266-.08303-.0625-.125-.19549-.13526-.38014-.27781-.59375-.40625-.35531-.21475-.73064-.4283-1.125-.625-.90322-.44826-1.91869-.84568-3-1.1875-.69669-.22024-1.42894-.3923-2.1875-.5625-2.18074-.48929-4.58457-.77899-7.125-.78125z" fill="url(#radialGradient2286)"/>
<path d="m616.90075,689.1703c-.01645.07065-.01822.14761-.03125.21875-.00623.0328-.02576.06085-.03125.09375-.03767.23321-.0625.48082-.0625.71875v2.65625c0,.13907.01751.27224.03125.40625 1.52291,3.83611 8.7718,6.71871 17.4375,6.71875s15.88881-2.88264 17.40625-6.71875c.01377-.13401.03125-.26718.03125-.40625v-2.65625c0-.26974-.04564-.54888-.09375-.8125-.01361-.07289-.01403-.14636-.03125-.21875-1.63732,4.68374-8.75498,8.18753-17.3125,8.1875s-15.70082-3.5036-17.34375-8.1875z" fill="url(#radialGradient2288)"/>
<path d="m616.78507,693.52598v29.34375c0-.23793.02485-.48553.0625-.71875 .00549-.0329.02504-.06094.03125-.09375 .01303-.07114.01482-.14809.03125-.21875 1.64293,4.6839 8.78598,8.18751 17.34375,8.1875s15.6752-3.50375 17.3125-8.1875c.01722.07239.01766.14587.03125.21875 .04811.26362.09377.54277.09375.8125v-29.34375c0,.13907-.01746.27225-.03125.40625-1.51744,3.83611-8.74052,6.71875-17.40625,6.71875s-15.91457-2.88263-17.4375-6.71875c-.01374-.13401-.03123-.26717-.03125-.40625z" fill="#900"/>
<path d="m634.25382,681.375c-.61184,0-1.21658.00053-1.8125.03125-.57495.02905-1.13028.10005-1.6875.15625h-.03125c-.5567.05668-1.1201.10508-1.65625.1875h-.03125c-.5354.08285-1.05047.20533-1.5625.3125h-.03125c-1.03238.21723-2.01764.47338-2.9375.78125h-.03125c-.45443.15273-.88982.32717-1.3125.5h-.03125c-.43076.17686-.82406.36615-1.21875.5625-.39529.19669-.76873.41026-1.125.625-.16954.10222-.33936.20591-.5.3125-.03134.06239-.06567.12449-.09375.1875l-.03125.03125c-.2521.17279-.492.34926-.71875.53125l-.03125.03125c-.16794.13594-.3468.26554-.5.40625l-.15625.15625c-.20004.19293-.39109.39283-.5625.59375-.18281.21432-.35135.43364-.5.65625s-.26294.42852-.375.65625c-.06773.13769-.13306.26613-.1875.40625-.08759.21776-.16474.43312-.21875.65625 1.64293,4.6839 8.78598,8.18751 17.34375,8.1875s15.6752-3.50375 17.3125-8.1875c-.06035-.25376-.14657-.50306-.25-.75-.20289-.48442-.48723-.95423-.84375-1.40625-.13356-.16935-.28391-.33597-.4375-.5s-.30097-.31417-.46875-.46875c-.15355-.14127-.30055-.26986-.46875-.40625-.09227-.07525-.18458-.14502-.28125-.21875-.08159-.06209-.1654-.12654-.25-.1875-.07061-.05098-.14602-.10606-.21875-.15625-.01836-.04225-.04266-.08303-.0625-.125-.19549-.13526-.38014-.27781-.59375-.40625-.35531-.21475-.73064-.4283-1.125-.625-.90322-.44826-1.91869-.84568-3-1.1875-.69669-.22024-1.42894-.3923-2.1875-.5625-2.18074-.48929-4.58457-.77899-7.125-.78125z" fill="url(#radialGradient2290)"/>
<path d="m616.78507,693.52598v29.34375c0-.23793.02485-.48553.0625-.71875 .00549-.0329.02504-.06094.03125-.09375 .01303-.07114.01482-.14809.03125-.21875 1.64293,4.6839 8.78598,8.18751 17.34375,8.1875s15.6752-3.50375 17.3125-8.1875c.01722.07239.01766.14587.03125.21875 .04811.26362.09377.54277.09375.8125v-29.34375c0,.13907-.01746.27225-.03125.40625-1.51744,3.83611-8.74052,6.71875-17.40625,6.71875s-15.91457-2.88263-17.4375-6.71875c-.01374-.13401-.03123-.26717-.03125-.40625z" fill="url(#radialGradient2292)" opacity=".15"/>
<path d="m619.82696,694.50189v31.56659c.93363.73923 2.09009,1.38157 3.42018,1.92309v-31.56659c-.12603-.05283-.26278-.09239-.38615-.14569h-.02758c-.3802-.16491-.72736-.34139-1.07571-.52448s-.67852-.38252-.99295-.58275c-.33197-.21143-.64581-.43967-.93779-.67017z" fill="url(#linearGradient2294)" opacity=".61187"/>
<path d="m620.88596,694.92576v32.8571c1.05779.76765 2.36804,1.43469 3.875,1.99703v-32.8571l-.4375-.15129h-.03125c-.43076-.17125-.82408-.35452-1.21875-.54465-.39529-.19044-.76875-.39722-1.125-.60515-.37611-.21956-.73169-.45657-1.0625-.69594z" fill="url(#linearGradient2296)" opacity=".61187"/>
<path d="m634.25382,681.375c-.61184,0-1.21658.00053-1.8125.03125-.57495.02905-1.13028.10005-1.6875.15625h-.03125c-.5567.05668-1.1201.10508-1.65625.1875h-.03125c-.5354.08285-1.05047.20533-1.5625.3125h-.03125c-1.03238.21723-2.01764.47338-2.9375.78125h-.03125c-.45443.15273-.88982.32717-1.3125.5h-.03125l-.09375.03125 2.34375.03125 .9375-.25 4.53125.25 1.9375-1.5625 1.28125,1.15625 3.21875-1.46875c-.98836-.09126-1.99117-.15532-3.03125-.15625zm3.0625.15625 1.125,1.40625 1.46875-.78125 3.96875,1.375 1.375-.1875c-.54225-.21833-1.09871-.43887-1.6875-.625-.69669-.22024-1.42894-.3923-2.1875-.5625-1.27859-.28687-2.64797-.49305-4.0625-.625zm8.40625,2-1.6875,1.25 4.90625,1.0625-.0625.84375 2.03125,1.21875-1.59375.96875 1.625.8125-2.03125,1.65625 .03125.28125-4.90625,1.21875 2.15625,1.40625-2.3125-.8125-3.96875,2.375-1.46875-.75-1.125,1.71875-3.25-1.0625-1.28125-.0625-1.96875-.125-4.5-.15625-.9375-.59375-3.375-.28125c3.18052,1.76435 7.49568,2.84376 12.25,2.84375 8.55752,3e-005 15.6752-3.50375 17.3125-8.1875-.06035-.25376-.14657-.50306-.25-.75-.20289-.48442-.48723-.95423-.84375-1.40625-.13356-.16935-.28391-.33597-.4375-.5s-.30097-.31417-.46875-.46875c-.15355-.14127-.30055-.26986-.46875-.40625-.09227-.07525-.18458-.14502-.28125-.21875-.08159-.06209-.1654-.12654-.25-.1875-.07061-.05098-.14602-.10606-.21875-.15625-.01836-.04225-.04266-.08303-.0625-.125-.19549-.13526-.38014-.27781-.59375-.40625-.35531-.21475-.73064-.4283-1.125-.625-.26601-.13202-.55945-.25192-.84375-.375zm-24.125.5625c-.27482.14697-.55706.28354-.8125.4375-.16954.10222-.33936.20591-.5.3125-.03134.06239-.06567.12449-.09375.1875l-.03125.03125-.0625.03125 2.03125.34375-.53125-1.34375zm-2.34375,1.65625c-.11802.09216-.23813.18424-.34375.28125l-.15625.15625c-.20004.19293-.39109.39283-.5625.59375-.18281.21432-.35135.43364-.5.65625s-.26294.42852-.375.65625c-.06773.13769-.13306.26613-.1875.40625-.08759.21776-.16474.43312-.21875.65625 .66744,1.90283 2.25975,3.61128 4.46875,4.96875l.75-2.09375-3,.15625 .28125-1.0625-.25-.5625-.15625-1.6875 .15625-1.53125 .21875-.875-.125-.71875z" fill="#b1b1b1"/>
<path d="m634.25382,681.375c-.61184,0-1.21658.00053-1.8125.03125-.57495.02905-1.13028.10005-1.6875.15625h-.03125c-.5567.05668-1.1201.10508-1.65625.1875h-.03125c-.5354.08285-1.05047.20533-1.5625.3125h-.03125c-1.03238.21723-2.01764.47338-2.9375.78125h-.03125c-.45443.15273-.88982.32717-1.3125.5h-.03125l-.09375.03125 2.34375.03125 .9375-.25 4.53125.25 1.9375-1.5625 1.28125,1.15625 3.21875-1.46875c-.98836-.09126-1.99117-.15532-3.03125-.15625zm3.0625.15625 1.125,1.40625 1.46875-.78125 3.96875,1.375 1.375-.1875c-.54225-.21833-1.09871-.43887-1.6875-.625-.69669-.22024-1.42894-.3923-2.1875-.5625-1.27859-.28687-2.64797-.49305-4.0625-.625zm8.40625,2-1.6875,1.25 4.90625,1.0625-.0625.84375 2.03125,1.21875-1.59375.96875 1.625.8125-2.03125,1.65625 .03125.28125-4.90625,1.21875 2.15625,1.40625-2.3125-.8125-3.96875,2.375-1.46875-.75-1.125,1.71875-3.25-1.0625-1.28125-.0625-1.96875-.125-4.5-.15625-.9375-.59375-3.375-.28125c3.18052,1.76435 7.49568,2.84376 12.25,2.84375 8.55752,3e-005 15.6752-3.50375 17.3125-8.1875-.06035-.25376-.14657-.50306-.25-.75-.20289-.48442-.48723-.95423-.84375-1.40625-.13356-.16935-.28391-.33597-.4375-.5s-.30097-.31417-.46875-.46875c-.15355-.14127-.30055-.26986-.46875-.40625-.09227-.07525-.18458-.14502-.28125-.21875-.08159-.06209-.1654-.12654-.25-.1875-.07061-.05098-.14602-.10606-.21875-.15625-.01836-.04225-.04266-.08303-.0625-.125-.19549-.13526-.38014-.27781-.59375-.40625-.35531-.21475-.73064-.4283-1.125-.625-.26601-.13202-.55945-.25192-.84375-.375zm-24.125.5625c-.27482.14697-.55706.28354-.8125.4375-.16954.10222-.33936.20591-.5.3125-.03134.06239-.06567.12449-.09375.1875l-.03125.03125-.0625.03125 2.03125.34375-.53125-1.34375zm-2.34375,1.65625c-.11802.09216-.23813.18424-.34375.28125l-.15625.15625c-.20004.19293-.39109.39283-.5625.59375-.18281.21432-.35135.43364-.5.65625s-.26294.42852-.375.65625c-.06773.13769-.13306.26613-.1875.40625-.08759.21776-.16474.43312-.21875.65625 .66744,1.90283 2.25975,3.61128 4.46875,4.96875l.75-2.09375-3,.15625 .28125-1.0625-.25-.5625-.15625-1.6875 .15625-1.53125 .21875-.875-.125-.71875z" fill="url(#radialGradient2298)"/>
<path d="m658.13481,677.47784-3.95637,3.45875 .60305,2.47478-1.88307-.67887-1.97318,2.22907-1.26672.23718-3.03209.1832-1.59191-.43794-2.49064.41877-1.43328-2.39248-2.65283-.15267-1.93102-1.82979-1.90777-.76369-1.35117-1.78625-1.00314-.04193 .33386-4.31696-.91025-1.57263 1.86508-3.62606-4.08116-1.1701 4.8961-2.24175-1.80209-2.67147 1.61332-.05536 1.20951-3.04283 1.88313,1.0113 1.97316-2.22906 4.10721,1.04698 .02974-2.85314 1.75377,1.82372 2.49064-3.42118 4.43569,2.39249 .84019.05585 .57936,3.21079 1.90785,1.42857 1.30168,3.30863 1.00315.04194 2.10811,3.54111 1.68196,1.87942-1.86507.62368 1.07876,4.1725-2.553-.82923-.01056,2.57466z" fill="#d3d3d3"/>
<path d="m658.13481,677.47784-3.95637,3.45875 .60305,2.47478-1.88307-.67887-1.97318,2.22907-1.26672.23718-3.03209.1832-1.59191-.43794-2.49064.41877-1.43328-2.39248-2.65283-.15267-1.93102-1.82979-1.90777-.76369-1.35117-1.78625-1.00314-.04193 .33386-4.31696-.91025-1.57263 1.86508-3.62606-4.08116-1.1701 4.8961-2.24175-1.80209-2.67147 1.61332-.05536 1.20951-3.04283 1.88313,1.0113 1.97316-2.22906 4.10721,1.04698 .02974-2.85314 1.75377,1.82372 2.49064-3.42118 4.43569,2.39249 .84019.05585 .57936,3.21079 1.90785,1.42857 1.30168,3.30863 1.00315.04194 2.10811,3.54111 1.68196,1.87942-1.86507.62368 1.07876,4.1725-2.553-.82923-.01056,2.57466z" fill="url(#radialGradient2300)"/>
<path d="m595.01242,672.8186a3.75223,3.75223 0 1,1 -7.50446,0 3.75223,3.75223 0 1,1 7.50446,0z" fill="url(#radialGradient2282)" opacity=".15525" transform="matrix(2.66854,0,0,2.66854,-932.3798,-1124.451)"/>
<path d="m595.01242,672.8186a3.75223,3.75223 0 1,1 -7.50446,0 3.75223,3.75223 0 1,1 7.50446,0z" fill="#fff" transform="matrix(1.01524,0,0,1.01524,45.15148,-12.07941)"/>
</g>
</svg>
