<?xml version="1.0" encoding="UTF-8" standalone="no"?>
<!-- Created with Inkscape (http://www.inkscape.org/) -->

<svg
   xmlns:dc="http://purl.org/dc/elements/1.1/"
   xmlns:cc="http://creativecommons.org/ns#"
   xmlns:rdf="http://www.w3.org/1999/02/22-rdf-syntax-ns#"
   xmlns:svg="http://www.w3.org/2000/svg"
   xmlns="http://www.w3.org/2000/svg"
   xmlns:sodipodi="http://sodipodi.sourceforge.net/DTD/sodipodi-0.dtd"
   xmlns:inkscape="http://www.inkscape.org/namespaces/inkscape"
   width="423.33334mm"
   height="79.375mm"
   viewBox="0 0 1500 281.25"
   id="svg4329"
   version="1.1"
   inkscape:version="0.92.1 r15371"
   sodipodi:docname="lata.azul.svg">
  <defs
     id="defs4331" />
  <sodipodi:namedview
     id="base"
     pagecolor="#ffffff"
     bordercolor="#666666"
     borderopacity="1.0"
     inkscape:pageopacity="0.0"
     inkscape:pageshadow="2"
     inkscape:zoom="1.0168121"
     inkscape:cx="849.12053"
     inkscape:cy="107.48449"
     inkscape:document-units="px"
     inkscape:current-layer="layer1"
     showgrid="false"
     inkscape:window-width="1440"
     inkscape:window-height="800"
     inkscape:window-x="0"
     inkscape:window-y="35"
     inkscape:window-maximized="1" />
  <metadata
     id="metadata4334">
    <rdf:RDF>
      <cc:Work
         rdf:about="">
        <dc:format>image/svg+xml</dc:format>
        <dc:type
           rdf:resource="http://purl.org/dc/dcmitype/StillImage" />
        <dc:title />
      </cc:Work>
    </rdf:RDF>
  </metadata>
  <g
     inkscape:label="Camada 1"
     inkscape:groupmode="layer"
     id="layer1"
     transform="translate(-3.1428571,-506.82648)">
    <rect
       style="fill:#65d965;fill-opacity:1;stroke:none;stroke-width:1.09706914;stroke-miterlimit:4;stroke-dasharray:none"
       id="rect4901"
       width="1500"
       height="281.25"
       x="3.1428571"
       y="506.82648" />
    <path
       sodipodi:nodetypes="cccccc"
       inkscape:connector-curvature="0"
       id="path4205"
       d="m 433.77194,607.68089 -65.46279,-30.31239 31.0671,144.80172 c 1.17964,5.91254 4.33903,7.93378 7.19386,10.89432 l 48.18154,30.50409 z"
       style="fill:#0000ff;fill-rule:evenodd;stroke:#000080;stroke-width:0.84322006px;stroke-linecap:butt;stroke-linejoin:miter;stroke-opacity:1" />
    <path
       sodipodi:nodetypes="cccsccc"
       inkscape:connector-curvature="0"
       id="path4203"
       d="m 599.06997,584.94787 -168.87136,21.2194 24.35976,157.48586 c 3.70982,1.02865 8.27063,0.44838 11.94581,-0.20284 43.34455,-7.6805 70.19886,-15.1745 110.97472,-24.14828 4.95395,-1.89141 6.19859,-5.41695 6.76879,-10.27952 z"
       style="fill:#0000ff;fill-rule:evenodd;stroke:#000080;stroke-width:0.84322006px;stroke-linecap:butt;stroke-linejoin:miter;stroke-opacity:1" />
    <path
       sodipodi:nodetypes="ccccccccccccc"
       inkscape:connector-curvature="0"
       id="path4243"
       d="m 367.57282,546.35387 c -3.31926,0.0571 -6.02516,1.41139 -7.74968,3.41412 0.48436,8.81979 0.96872,17.63958 1.45307,26.45937 1.69208,2.93298 3.50682,3.37996 5.81225,4.90779 l 56.18514,25.39247 c 7.61433,2.48042 17.31411,2.58293 26.15516,1.2803 l 148.69687,-20.69805 c 4.01018,-0.73429 6.5483,-2.009 8.71839,-5.12118 l -2.1796,-23.68542 c -0.7368,-4.43503 -5.39912,-5.73553 -9.20274,-7.46838 l -70.23143,-19.41776 c -5.36984,-1.08087 -10.49435,-0.8647 -15.74152,0 z"
       style="fill:#0000ff;fill-rule:evenodd;stroke:#000080;stroke-width:0.84322006px;stroke-linecap:butt;stroke-linejoin:miter;stroke-opacity:1" />
    <path
       sodipodi:nodetypes="ccccccccc"
       inkscape:connector-curvature="0"
       id="path4245"
       d="m 380.53818,550.1743 c 15.30326,6.51704 30.60652,11.93025 45.90977,17.89539 8.19057,3.08199 16.06793,3.26643 24.1019,2.41602 l 125.41186,-14.04183 c 4.94062,-0.0958 11.64603,-2.87955 5.85968,-4.42415 L 524.5694,534.70956 c -4.00789,-0.60963 -8.56386,-0.59837 -13.19814,0.24076 l -126.3902,12.42783 c -1.92935,0.42405 -4.39378,1.23329 -4.44288,2.79615 z"
       style="fill:#0000ff;fill-rule:evenodd;stroke:#000080;stroke-width:0.84322006px;stroke-linecap:butt;stroke-linejoin:miter;stroke-opacity:1" />
    <path
       sodipodi:nodetypes="cccccccccccc"
       inkscape:connector-curvature="0"
       id="path4247"
       d="m 524.83044,690.21476 -22.19593,4.37856 c -11.86372,0.67017 -21.03707,-5.86985 -18.10375,-20.50904 l 7.55865,-14.79659 -5.61158,-2.24108 18.30725,-2.53738 10.3209,12.6639 -6.15684,-2.3667 -6.38104,11.57261 c -0.0869,1.74876 1.01142,1.40907 2.08966,1.10472 l 19.83639,-3.28729 z"
       style="fill:#ffffff;fill-rule:evenodd;stroke:#000080;stroke-width:0.84322006px;stroke-linecap:butt;stroke-linejoin:miter;stroke-opacity:1" />
    <path
       sodipodi:nodetypes="cccccccccccc"
       inkscape:connector-curvature="0"
       id="path4249"
       d="m 557.47461,641.92208 -15.44267,10.91666 9.51549,13.44064 c 1.30382,1.23521 1.58922,2.35079 -1.55962,3.0629 l -10.97824,1.92654 -0.48434,-5.81987 -8.7101,16.01348 8.4859,11.8555 0.20897,-5.58205 16.29924,-3.62387 c 7.27235,-3.30943 18.13187,-12.24875 14.08226,-25.63271 z"
       style="fill:#ffffff;fill-rule:evenodd;stroke:#000080;stroke-width:0.84322006px;stroke-linecap:butt;stroke-linejoin:miter;stroke-opacity:1" />
    <path
       sodipodi:nodetypes="cccccccccccc"
       inkscape:connector-curvature="0"
       id="path4251"
       d="m 499.85157,646.77626 c 11.70201,-19.88478 11.70201,-20.66151 11.70201,-20.66151 8.01252,-11.23937 23.08726,-11.41649 30.7635,-6.45757 l 8.7101,11.90918 5.35691,-3.59701 -8.66441,15.67689 -17.65966,2.93247 5.10655,-4.07743 -6.05997,-8.65357 c 0,0 -1.50195,-1.55635 -2.9255,0.18411 l -10.38184,18.87403 z"
       style="fill:#ffffff;fill-rule:evenodd;stroke:#000080;stroke-width:0.84322006px;stroke-linecap:butt;stroke-linejoin:miter;stroke-opacity:1" />
    <path
       sodipodi:nodetypes="cccc"
       inkscape:connector-curvature="0"
       id="path4253"
       d="m 359.79316,549.85038 59.28209,23.03204 c 10.42492,5.41527 19.91628,3.42739 29.87442,2.05643 l 155.44042,-18.0966"
       style="fill:none;fill-rule:evenodd;stroke:#000080;stroke-width:0.84322006px;stroke-linecap:butt;stroke-linejoin:miter;stroke-opacity:1" />
    <path
       sodipodi:nodetypes="cc"
       inkscape:connector-curvature="0"
       id="path4255"
       d="m 518.0343,534.63279 0.23339,27.76182"
       style="fill:#0000ff;fill-rule:evenodd;stroke:#000080;stroke-width:0.84322006px;stroke-linecap:butt;stroke-linejoin:miter;stroke-opacity:1" />
    <g
       aria-label="AZUL PAPEL  "
       style="font-style:normal;font-weight:normal;line-height:0%;font-family:sans-serif;letter-spacing:0px;word-spacing:0px;fill:#0000b4;fill-opacity:1;stroke:none;stroke-width:1px;stroke-linecap:butt;stroke-linejoin:miter;stroke-opacity:0.97254902"
       id="text4922"
       transform="matrix(0.89831506,0,0,0.79150407,319.07177,149.19591)">
      <path
         d="m 581.61316,590.45416 -7.6294,-21.97265 h -32.77587 l -7.6294,21.97265 h -18.00537 l 31.37207,-85.99853 h 21.24023 l 31.25,85.99853 z m -24.04785,-72.7539 -0.36621,1.34277 q -0.61035,2.19727 -1.46485,5.00488 -0.85449,2.80762 -10.49804,30.88379 h 24.71923 l -8.48388,-24.71924 -2.62451,-8.30078 z"
         style="font-style:normal;font-variant:normal;font-weight:bold;font-stretch:normal;font-size:125px;line-height:1.25;font-family:'Liberation Sans';-inkscape-font-specification:'Liberation Sans Bold';text-align:center;text-anchor:middle;fill:#0000b4;fill-opacity:1;stroke:none;stroke-opacity:0.97254902"
         id="path4496"
         inkscape:connector-curvature="0" />
      <path
         d="M 675.54626,590.45416 H 606.5155 v -12.75635 l 46.50879,-59.14306 h -41.87012 v -14.09912 h 61.88965 v 12.5122 l -46.50879,59.38721 h 49.01123 z"
         style="font-style:normal;font-variant:normal;font-weight:bold;font-stretch:normal;font-size:125px;line-height:1.25;font-family:'Liberation Sans';-inkscape-font-specification:'Liberation Sans Bold';text-align:center;text-anchor:middle;fill:#0000b4;fill-opacity:1;stroke:none;stroke-opacity:0.97254902"
         id="path4498"
         inkscape:connector-curvature="0" />
      <path
         d="m 723.33679,591.67487 q -17.76123,0 -27.22168,-8.667 -9.39941,-8.66699 -9.39941,-24.78027 v -53.77197 h 18.00537 v 52.36816 q 0,10.19287 4.82178,15.50293 4.88281,5.24902 14.28222,5.24902 9.64356,0 14.83155,-5.49316 5.18798,-5.5542 5.18798,-15.86914 v -51.75781 h 18.00538 v 52.85644 q 0,16.35742 -10.13184,25.39063 -10.0708,8.97217 -28.38135,8.97217 z"
         style="font-style:normal;font-variant:normal;font-weight:bold;font-stretch:normal;font-size:125px;line-height:1.25;font-family:'Liberation Sans';-inkscape-font-specification:'Liberation Sans Bold';text-align:center;text-anchor:middle;fill:#0000b4;fill-opacity:1;stroke:none;stroke-opacity:0.97254902"
         id="path4500"
         inkscape:connector-curvature="0" />
      <path
         d="m 777.90222,590.45416 v -85.99853 h 18.00537 v 72.08252 h 46.14258 v 13.91601 z"
         style="font-style:normal;font-variant:normal;font-weight:bold;font-stretch:normal;font-size:125px;line-height:1.25;font-family:'Liberation Sans';-inkscape-font-specification:'Liberation Sans Bold';text-align:center;text-anchor:middle;fill:#0000b4;fill-opacity:1;stroke:none;stroke-opacity:0.97254902"
         id="path4502"
         inkscape:connector-curvature="0" />
      <path
         d="m 554.33044,687.92731 q 0,8.30078 -3.78418,14.83154 -3.78418,6.53076 -10.86425,10.13184 -7.01905,3.54004 -16.72364,3.54004 h -21.3623 v 30.27343 H 483.5907 v -85.99853 h 38.63525 q 15.4419,0 23.74268,7.14111 8.36181,7.08008 8.36181,20.08057 z m -18.12744,0.30517 q 0,-13.5498 -15.99121,-13.5498 h -18.61572 v 27.89306 h 19.104 q 7.44629,0 11.47461,-3.6621 4.02832,-3.72315 4.02832,-10.68116 z"
         style="font-style:normal;font-variant:normal;font-weight:bold;font-stretch:normal;font-size:125px;line-height:1.25;font-family:'Liberation Sans';-inkscape-font-specification:'Liberation Sans Bold';text-align:center;text-anchor:middle;fill:#0000b4;fill-opacity:1;stroke:none;stroke-opacity:0.97254902"
         id="path4504"
         inkscape:connector-curvature="0" />
      <path
         d="m 618.60046,746.70416 -7.62939,-21.97265 h -32.77588 l -7.62939,21.97265 h -18.00538 l 31.37208,-85.99853 h 21.24023 l 31.25,85.99853 z m -24.04785,-72.7539 -0.36621,1.34277 q -0.61035,2.19727 -1.46484,5.00488 -0.85449,2.80762 -10.49805,30.88379 h 24.71924 l -8.48389,-24.71924 -2.62451,-8.30078 z"
         style="font-style:normal;font-variant:normal;font-weight:bold;font-stretch:normal;font-size:125px;line-height:1.25;font-family:'Liberation Sans';-inkscape-font-specification:'Liberation Sans Bold';text-align:center;text-anchor:middle;fill:#0000b4;fill-opacity:1;stroke:none;stroke-opacity:0.97254902"
         id="path4506"
         inkscape:connector-curvature="0" />
      <path
         d="m 718.88123,687.92731 q 0,8.30078 -3.78418,14.83154 -3.78418,6.53076 -10.86426,10.13184 -7.01904,3.54004 -16.72363,3.54004 h -21.36231 v 30.27343 h -18.00537 v -85.99853 h 38.63525 q 15.4419,0 23.74268,7.14111 8.36182,7.08008 8.36182,20.08057 z m -18.12745,0.30517 q 0,-13.5498 -15.99121,-13.5498 h -18.61572 v 27.89306 h 19.104 q 7.44629,0 11.47461,-3.6621 4.02832,-3.72315 4.02832,-10.68116 z"
         style="font-style:normal;font-variant:normal;font-weight:bold;font-stretch:normal;font-size:125px;line-height:1.25;font-family:'Liberation Sans';-inkscape-font-specification:'Liberation Sans Bold';text-align:center;text-anchor:middle;fill:#0000b4;fill-opacity:1;stroke:none;stroke-opacity:0.97254902"
         id="path4508"
         inkscape:connector-curvature="0" />
      <path
         d="m 731.63757,746.70416 v -85.99853 h 67.62696 v 13.91601 h -49.62159 v 21.60645 h 45.89844 v 13.91601 h -45.89844 v 22.64405 h 52.12403 v 13.91601 z"
         style="font-style:normal;font-variant:normal;font-weight:bold;font-stretch:normal;font-size:125px;line-height:1.25;font-family:'Liberation Sans';-inkscape-font-specification:'Liberation Sans Bold';text-align:center;text-anchor:middle;fill:#0000b4;fill-opacity:1;stroke:none;stroke-opacity:0.97254902"
         id="path4510"
         inkscape:connector-curvature="0" />
      <path
         d="m 815.13367,746.70416 v -85.99853 h 18.00537 v 72.08252 h 46.14258 v 13.91601 z"
         style="font-style:normal;font-variant:normal;font-weight:bold;font-stretch:normal;font-size:125px;line-height:1.25;font-family:'Liberation Sans';-inkscape-font-specification:'Liberation Sans Bold';text-align:center;text-anchor:middle;fill:#0000b4;fill-opacity:1;stroke:none;stroke-opacity:0.97254902"
         id="path4512"
         inkscape:connector-curvature="0" />
    </g>
  </g>
</svg>
