<?xml version="1.0" encoding="UTF-8" standalone="no"?>
<!-- Created with Inkscape (http://www.inkscape.org/) -->

<svg
   xmlns:dc="http://purl.org/dc/elements/1.1/"
   xmlns:cc="http://creativecommons.org/ns#"
   xmlns:rdf="http://www.w3.org/1999/02/22-rdf-syntax-ns#"
   xmlns:svg="http://www.w3.org/2000/svg"
   xmlns="http://www.w3.org/2000/svg"
   xmlns:sodipodi="http://sodipodi.sourceforge.net/DTD/sodipodi-0.dtd"
   xmlns:inkscape="http://www.inkscape.org/namespaces/inkscape"
   width="423.33334mm"
   height="79.375mm"
   viewBox="0 0 1500 281.25"
   id="svg4329"
   version="1.1"
   inkscape:version="0.92.1 r15371"
   sodipodi:docname="lata.branco.svg">
  <defs
     id="defs4331" />
  <sodipodi:namedview
     id="base"
     pagecolor="#ffffff"
     bordercolor="#666666"
     borderopacity="1.0"
     inkscape:pageopacity="0.0"
     inkscape:pageshadow="2"
     inkscape:zoom="1.0168121"
     inkscape:cx="547.47258"
     inkscape:cy="162.34434"
     inkscape:document-units="px"
     inkscape:current-layer="layer1"
     showgrid="false"
     inkscape:window-width="1440"
     inkscape:window-height="800"
     inkscape:window-x="0"
     inkscape:window-y="35"
     inkscape:window-maximized="1" />
  <metadata
     id="metadata4334">
    <rdf:RDF>
      <cc:Work
         rdf:about="">
        <dc:format>image/svg+xml</dc:format>
        <dc:type
           rdf:resource="http://purl.org/dc/dcmitype/StillImage" />
        <dc:title />
      </cc:Work>
    </rdf:RDF>
  </metadata>
  <g
     inkscape:label="Camada 1"
     inkscape:groupmode="layer"
     id="layer1"
     transform="translate(-3.1428571,-506.82648)">
    <rect
       style="opacity:1;fill:#65d965;fill-opacity:1;stroke:none;stroke-width:1.09706914;stroke-miterlimit:4;stroke-dasharray:none"
       id="rect4901"
       width="1500"
       height="281.25"
       x="3.1428571"
       y="506.82648" />
    <g
       aria-label="BRANCO RESÍDUOS  AMBULÁTORIAIS"
       style="font-style:normal;font-weight:normal;line-height:0%;font-family:sans-serif;letter-spacing:0px;word-spacing:0px;fill:#ffffff;fill-opacity:1;stroke:none;stroke-width:1px;stroke-linecap:butt;stroke-linejoin:miter;stroke-opacity:1"
       id="text4922"
       transform="matrix(0.7544738,0,0,0.71770112,325.55016,199.32256)">
      <path
         d="m 475.48474,524.53802 q 0,11.71875 -8.78906,18.12745 -8.78906,6.40869 -24.41406,6.40869 h -43.02979 v -85.99854 h 39.36768 q 15.74707,0 23.80371,5.49317 8.11767,5.43213 8.11767,16.11328 0,7.32422 -4.08935,12.39013 -4.02832,5.00489 -12.3291,6.77491 10.43701,1.2207 15.86914,6.59179 5.49316,5.31006 5.49316,14.09912 z m -23.07129,-37.41455 q 0,-5.79834 -3.72314,-8.23974 -3.66211,-2.44141 -10.9253,-2.44141 H 417.2572 v 21.30127 h 20.62988 q 7.6294,0 11.04737,-2.62451 3.479,-2.68555 3.479,-7.99561 z m 5.00488,36.01075 q 0,-12.08496 -17.33398,-12.08496 H 417.2572 v 24.6582 h 23.49854 q 8.66699,0 12.63427,-3.11279 4.02832,-3.17383 4.02832,-9.46045 z"
         style="font-style:normal;font-variant:normal;font-weight:bold;font-stretch:normal;font-size:125px;line-height:1.25;font-family:'Liberation Sans';-inkscape-font-specification:'Liberation Sans Bold';text-align:center;text-anchor:middle;fill:#ffffff;fill-opacity:1;stroke:none"
         id="path4505"
         inkscape:connector-curvature="0" />
      <path
         d="M 548.66589,549.07416 528.7074,516.42035 h -21.11817 v 32.65381 h -18.00537 v -85.99854 h 42.96875 q 15.38086,0 23.74268,6.65283 8.36181,6.5918 8.36181,18.98194 0,9.0332 -5.12695,15.625 -5.12695,6.53076 -13.85498,8.60596 l 23.2544,36.13281 z m -2.13623,-59.63135 q 0,-12.39014 -15.86914,-12.39014 h -23.07129 v 25.39063 h 23.55957 q 7.56836,0 11.47461,-3.41797 3.90625,-3.41797 3.90625,-9.58252 z"
         style="font-style:normal;font-variant:normal;font-weight:bold;font-stretch:normal;font-size:125px;line-height:1.25;font-family:'Liberation Sans';-inkscape-font-specification:'Liberation Sans Bold';text-align:center;text-anchor:middle;fill:#ffffff;fill-opacity:1;stroke:none"
         id="path4507"
         inkscape:connector-curvature="0" />
      <path
         d="m 640.70691,549.07416 -7.6294,-21.97266 h -32.77587 l -7.6294,21.97266 h -18.00537 l 31.37207,-85.99854 h 21.24023 l 31.25,85.99854 z m -24.04785,-72.75391 -0.36621,1.34277 q -0.61035,2.19727 -1.46485,5.00489 -0.85449,2.80761 -10.49804,30.88379 h 24.71923 l -8.48388,-24.71924 -2.62451,-8.30078 z"
         style="font-style:normal;font-variant:normal;font-weight:bold;font-stretch:normal;font-size:125px;line-height:1.25;font-family:'Liberation Sans';-inkscape-font-specification:'Liberation Sans Bold';text-align:center;text-anchor:middle;fill:#ffffff;fill-opacity:1;stroke:none"
         id="path4509"
         inkscape:connector-curvature="0" />
      <path
         d="M 722.61609,549.07416 685.1405,482.85101 q 1.09864,9.64356 1.09864,15.50293 v 50.72022 h -15.99122 v -85.99854 h 20.56885 l 38.0249,66.77246 q -1.09863,-9.21631 -1.09863,-16.78466 v -49.9878 h 15.99121 v 85.99854 z"
         style="font-style:normal;font-variant:normal;font-weight:bold;font-stretch:normal;font-size:125px;line-height:1.25;font-family:'Liberation Sans';-inkscape-font-specification:'Liberation Sans Bold';text-align:center;text-anchor:middle;fill:#ffffff;fill-opacity:1;stroke:none"
         id="path4511"
         inkscape:connector-curvature="0" />
      <path
         d="m 800.74109,536.1347 q 16.29639,0 22.64404,-16.35742 l 15.68604,5.92041 q -5.06592,12.45117 -14.89258,18.55469 -9.76563,6.04248 -23.4375,6.04248 -20.75195,0 -32.10449,-11.71875 -11.29151,-11.77978 -11.29151,-32.89795 0,-21.1792 10.9253,-32.53174 10.92529,-11.35254 31.67724,-11.35254 15.13672,0 24.6582,6.10352 9.52149,6.04248 13.3667,17.82227 l -15.86914,4.33349 q -2.01416,-6.46972 -7.93457,-10.2539 -5.85937,-3.84522 -13.85498,-3.84522 -12.20703,0 -18.55468,7.56836 -6.28663,7.56836 -6.28663,22.15576 0,14.83154 6.46973,22.64404 6.53076,7.8125 18.79883,7.8125 z"
         style="font-style:normal;font-variant:normal;font-weight:bold;font-stretch:normal;font-size:125px;line-height:1.25;font-family:'Liberation Sans';-inkscape-font-specification:'Liberation Sans Bold';text-align:center;text-anchor:middle;fill:#ffffff;fill-opacity:1;stroke:none"
         id="path4513"
         inkscape:connector-curvature="0" />
      <path
         d="m 934.53015,505.67816 q 0,13.42774 -5.31006,23.62061 -5.31006,10.19287 -15.19775,15.625 -9.8877,5.37109 -23.07129,5.37109 -20.26367,0 -31.79932,-11.90185 -11.47461,-11.9629 -11.47461,-32.71485 0,-20.69092 11.47461,-32.2876 11.47461,-11.59668 31.92139,-11.59668 20.44678,0 31.92139,11.71875 11.53564,11.71875 11.53564,32.16553 z m -18.37158,0 q 0,-13.91601 -6.5918,-21.78955 -6.59179,-7.93457 -18.49365,-7.93457 -12.08496,0 -18.67676,7.87354 -6.59179,7.8125 -6.59179,21.85058 0,14.16016 6.71386,22.33887 6.7749,8.11767 18.43262,8.11767 12.08496,0 18.61572,-7.93457 6.5918,-7.93457 6.5918,-22.52197 z"
         style="font-style:normal;font-variant:normal;font-weight:bold;font-stretch:normal;font-size:125px;line-height:1.25;font-family:'Liberation Sans';-inkscape-font-specification:'Liberation Sans Bold';text-align:center;text-anchor:middle;fill:#ffffff;fill-opacity:1;stroke:none"
         id="path4515"
         inkscape:connector-curvature="0" />
      <path
         d="m 478.66833,673.79775 -14.37011,-23.51074 h -15.20508 v 23.51074 h -12.96387 v -61.91894 h 30.9375 q 11.07422,0 17.09473,4.79004 6.02051,4.74609 6.02051,13.66699 0,6.50391 -3.69141,11.25 -3.69141,4.70215 -9.97559,6.19629 l 16.74317,26.01562 z m -1.53808,-42.93457 q 0,-8.9209 -11.42578,-8.9209 h -16.61133 v 18.28125 h 16.96289 q 5.44922,0 8.26172,-2.46093 2.8125,-2.46094 2.8125,-6.89942 z"
         style="font-style:normal;font-variant:normal;font-weight:bold;font-stretch:normal;font-size:90px;line-height:1.25;font-family:'Liberation Sans';-inkscape-font-specification:'Liberation Sans Bold';text-align:center;text-anchor:middle;fill:#ffffff;fill-opacity:1;stroke:none"
         id="path4517"
         inkscape:connector-curvature="0" />
      <path
         d="m 501.16833,673.79775 v -61.91894 h 48.69141 v 10.01953 H 514.1322 v 15.55664 h 33.04688 v 10.01953 H 514.1322 v 16.30371 h 37.5293 v 10.01953 z"
         style="font-style:normal;font-variant:normal;font-weight:bold;font-stretch:normal;font-size:90px;line-height:1.25;font-family:'Liberation Sans';-inkscape-font-specification:'Liberation Sans Bold';text-align:center;text-anchor:middle;fill:#ffffff;fill-opacity:1;stroke:none"
         id="path4519"
         inkscape:connector-curvature="0" />
      <path
         d="m 611.77869,655.95596 q 0,9.09668 -6.76758,13.93066 -6.72363,4.79004 -19.77539,4.79004 -11.90918,0 -18.67676,-4.21875 -6.76758,-4.21875 -8.70117,-12.78809 l 12.52441,-2.06543 q 1.27442,4.92188 4.96582,7.16309 3.69141,2.19727 10.23926,2.19727 13.5791,0 13.5791,-8.26172 0,-2.63672 -1.58203,-4.35059 -1.53809,-1.71387 -4.39453,-2.85644 -2.8125,-1.14258 -10.85449,-2.76856 -6.94336,-1.62598 -9.66797,-2.59277 -2.72461,-1.01075 -4.92188,-2.3291 -2.19726,-1.36231 -3.73535,-3.25196 -1.53808,-1.88965 -2.41699,-4.43847 -0.83496,-2.54883 -0.83496,-5.84473 0,-8.39356 6.28418,-12.83203 6.32812,-4.48242 18.36914,-4.48242 11.51367,0 17.27051,3.60351 5.80078,3.60352 7.4707,11.90918 l -12.56836,1.71387 q -0.9668,-3.99902 -3.95508,-6.02051 -2.94433,-2.02148 -8.48144,-2.02148 -11.77735,0 -11.77735,7.38281 0,2.41699 1.23047,3.95508 1.27442,1.53808 3.73535,2.63672 2.46094,1.05468 9.97559,2.68066 8.9209,1.88965 12.74414,3.51562 3.86719,1.58204 6.1084,3.73536 2.24121,2.10937 3.42773,5.09765 1.18653,2.94434 1.18653,6.81153 z"
         style="font-style:normal;font-variant:normal;font-weight:bold;font-stretch:normal;font-size:90px;line-height:1.25;font-family:'Liberation Sans';-inkscape-font-specification:'Liberation Sans Bold';text-align:center;text-anchor:middle;fill:#ffffff;fill-opacity:1;stroke:none"
         id="path4521"
         inkscape:connector-curvature="0" />
      <path
         d="m 621.40271,673.79775 v -61.91894 h 12.96387 v 61.91894 z m -1.4502,-67.23633 v -1.3623 l 11.07422,-11.16211 h 11.33789 v 1.88965 l -14.9414,10.63476 z"
         style="font-style:normal;font-variant:normal;font-weight:bold;font-stretch:normal;font-size:90px;line-height:1.25;font-family:'Liberation Sans';-inkscape-font-specification:'Liberation Sans Bold';text-align:center;text-anchor:middle;fill:#ffffff;fill-opacity:1;stroke:none"
         id="path4523"
         inkscape:connector-curvature="0" />
      <path
         d="m 701.55896,642.37685 q 0,9.58008 -3.7793,16.74317 -3.73535,7.11914 -10.63476,10.89844 -6.85547,3.77929 -15.73242,3.77929 h -25.04883 v -61.91894 h 22.41211 q 15.64453,0 24.21386,7.91015 8.56934,7.86621 8.56934,22.58789 z m -13.05176,0 q 0,-9.97558 -5.18554,-15.20507 -5.18555,-5.27344 -14.80958,-5.27344 h -9.18457 v 41.87988 h 10.98633 q 8.34961,0 13.27149,-5.75683 4.92187,-5.75684 4.92187,-15.64454 z"
         style="font-style:normal;font-variant:normal;font-weight:bold;font-stretch:normal;font-size:90px;line-height:1.25;font-family:'Liberation Sans';-inkscape-font-specification:'Liberation Sans Bold';text-align:center;text-anchor:middle;fill:#ffffff;fill-opacity:1;stroke:none"
         id="path4525"
         inkscape:connector-curvature="0" />
      <path
         d="m 737.15466,674.67666 q -12.78808,0 -19.59961,-6.24024 -6.76757,-6.24023 -6.76757,-17.84179 v -38.71582 h 12.96386 v 37.70508 q 0,7.33886 3.47168,11.16211 3.51563,3.77929 10.28321,3.77929 6.94335,0 10.67871,-3.95508 3.73535,-3.99902 3.73535,-11.42578 v -37.26562 h 12.96387 v 38.05664 q 0,11.77734 -7.29493,18.28125 -7.25097,6.45996 -20.43457,6.45996 z"
         style="font-style:normal;font-variant:normal;font-weight:bold;font-stretch:normal;font-size:90px;line-height:1.25;font-family:'Liberation Sans';-inkscape-font-specification:'Liberation Sans Bold';text-align:center;text-anchor:middle;fill:#ffffff;fill-opacity:1;stroke:none"
         id="path4527"
         inkscape:connector-curvature="0" />
      <path
         d="m 836.64685,642.55264 q 0,9.66796 -3.82324,17.00683 -3.82324,7.33887 -10.94238,11.25 -7.11915,3.86719 -16.61133,3.86719 -14.58985,0 -22.89551,-8.56934 -8.26172,-8.61328 -8.26172,-23.55468 0,-14.89747 8.26172,-23.24707 8.26172,-8.34961 22.9834,-8.34961 14.72168,0 22.9834,8.4375 8.30566,8.4375 8.30566,23.15918 z m -13.22754,0 q 0,-10.01954 -4.74609,-15.68848 -4.7461,-5.71289 -13.31543,-5.71289 -8.70117,0 -13.44727,5.66894 -4.74609,5.625 -4.74609,15.73243 0,10.19531 4.83398,16.08398 4.87793,5.84473 13.27149,5.84473 8.70117,0 13.40332,-5.71289 4.74609,-5.71289 4.74609,-16.21582 z"
         style="font-style:normal;font-variant:normal;font-weight:bold;font-stretch:normal;font-size:90px;line-height:1.25;font-family:'Liberation Sans';-inkscape-font-specification:'Liberation Sans Bold';text-align:center;text-anchor:middle;fill:#ffffff;fill-opacity:1;stroke:none"
         id="path4529"
         inkscape:connector-curvature="0" />
      <path
         d="m 896.89587,655.95596 q 0,9.09668 -6.76757,13.93066 -6.72364,4.79004 -19.77539,4.79004 -11.90918,0 -18.67676,-4.21875 -6.76758,-4.21875 -8.70117,-12.78809 l 12.52441,-2.06543 q 1.27441,4.92188 4.96582,7.16309 3.69141,2.19727 10.23926,2.19727 13.5791,0 13.5791,-8.26172 0,-2.63672 -1.58203,-4.35059 -1.53809,-1.71387 -4.39453,-2.85644 -2.8125,-1.14258 -10.8545,-2.76856 -6.94335,-1.62598 -9.66796,-2.59277 -2.72461,-1.01075 -4.92188,-2.3291 -2.19726,-1.36231 -3.73535,-3.25196 -1.53809,-1.88965 -2.41699,-4.43847 -0.83496,-2.54883 -0.83496,-5.84473 0,-8.39356 6.28418,-12.83203 6.32812,-4.48242 18.36914,-4.48242 11.51367,0 17.2705,3.60351 5.80079,3.60352 7.47071,11.90918 l -12.56836,1.71387 q -0.9668,-3.99902 -3.95508,-6.02051 -2.94434,-2.02148 -8.48145,-2.02148 -11.77734,0 -11.77734,7.38281 0,2.41699 1.23047,3.95508 1.27441,1.53808 3.73535,2.63672 2.46094,1.05468 9.97559,2.68066 8.9209,1.88965 12.74414,3.51562 3.86719,1.58204 6.1084,3.73536 2.24121,2.10937 3.42773,5.09765 1.18652,2.94434 1.18652,6.81153 z"
         style="font-style:normal;font-variant:normal;font-weight:bold;font-stretch:normal;font-size:90px;line-height:1.25;font-family:'Liberation Sans';-inkscape-font-specification:'Liberation Sans Bold';text-align:center;text-anchor:middle;fill:#ffffff;fill-opacity:1;stroke:none"
         id="path4531"
         inkscape:connector-curvature="0" />
      <path
         d="m 338.21912,786.29775 -5.49317,-15.82031 h -23.59863 l -5.49316,15.82031 h -12.96387 l 22.58789,-61.91894 h 15.29297 l 22.5,61.91894 z m -17.31446,-52.38281 -0.26367,0.9668 q -0.43945,1.58203 -1.05469,3.60351 -0.61523,2.02149 -7.55859,22.23633 h 17.79785 l -6.1084,-17.79785 -1.88965,-5.97656 z"
         style="font-style:normal;font-variant:normal;font-weight:bold;font-stretch:normal;font-size:90px;line-height:1.25;font-family:'Liberation Sans';-inkscape-font-specification:'Liberation Sans Bold';text-align:center;text-anchor:middle;fill:#ffffff;fill-opacity:1;stroke:none"
         id="path4533"
         inkscape:connector-curvature="0" />
      <path
         d="m 410.90466,786.29775 v -37.52929 q 0,-1.27442 0,-2.54883 0.0439,-1.27442 0.43946,-10.94238 -3.12012,11.82128 -4.61426,16.47949 l -11.16211,34.54101 h -9.22852 l -11.16211,-34.54101 -4.70214,-16.47949 q 0.52734,10.19531 0.52734,13.49121 v 37.52929 h -11.51367 v -61.91894 h 17.3584 l 11.07421,34.6289 0.9668,3.33985 2.10938,8.30566 2.76855,-9.93164 11.38184,-36.34277 h 17.2705 v 61.91894 z"
         style="font-style:normal;font-variant:normal;font-weight:bold;font-stretch:normal;font-size:90px;line-height:1.25;font-family:'Liberation Sans';-inkscape-font-specification:'Liberation Sans Bold';text-align:center;text-anchor:middle;fill:#ffffff;fill-opacity:1;stroke:none"
         id="path4535"
         inkscape:connector-curvature="0" />
      <path
         d="m 489.43494,768.63174 q 0,8.4375 -6.32813,13.05176 -6.32812,4.61425 -17.57812,4.61425 h -30.98145 v -61.91894 h 28.34473 q 11.33789,0 17.13867,3.95508 5.84473,3.91113 5.84473,11.60156 0,5.27344 -2.94434,8.9209 -2.90039,3.60351 -8.87695,4.87793 7.51465,0.8789 11.42578,4.74609 3.95508,3.82324 3.95508,10.15137 z m -16.61133,-26.93848 q 0,-4.1748 -2.68067,-5.93262 -2.63671,-1.75781 -7.86621,-1.75781 h -14.76562 v 15.33692 h 14.85351 q 5.49317,0 7.95411,-1.88965 2.50488,-1.9336 2.50488,-5.75684 z m 3.60351,25.92774 q 0,-8.70118 -12.48046,-8.70118 h -16.43555 v 17.75391 h 16.91894 q 6.24024,0 9.09668,-2.24121 2.90039,-2.28516 2.90039,-6.81152 z"
         style="font-style:normal;font-variant:normal;font-weight:bold;font-stretch:normal;font-size:90px;line-height:1.25;font-family:'Liberation Sans';-inkscape-font-specification:'Liberation Sans Bold';text-align:center;text-anchor:middle;fill:#ffffff;fill-opacity:1;stroke:none"
         id="path4537"
         inkscape:connector-curvature="0" />
      <path
         d="m 525.33826,787.17666 q -12.78809,0 -19.59961,-6.24024 -6.76758,-6.24023 -6.76758,-17.84179 v -38.71582 h 12.96387 v 37.70508 q 0,7.33886 3.47168,11.16211 3.51562,3.77929 10.2832,3.77929 6.94336,0 10.67871,-3.95508 3.73535,-3.99902 3.73535,-11.42578 v -37.26562 h 12.96387 v 38.05664 q 0,11.77734 -7.29492,18.28125 -7.25098,6.45996 -20.43457,6.45996 z"
         style="font-style:normal;font-variant:normal;font-weight:bold;font-stretch:normal;font-size:90px;line-height:1.25;font-family:'Liberation Sans';-inkscape-font-specification:'Liberation Sans Bold';text-align:center;text-anchor:middle;fill:#ffffff;fill-opacity:1;stroke:none"
         id="path4539"
         inkscape:connector-curvature="0" />
      <path
         d="m 564.62537,786.29775 v -61.91894 h 12.96386 v 51.89941 h 33.22266 v 10.01953 z"
         style="font-style:normal;font-variant:normal;font-weight:bold;font-stretch:normal;font-size:90px;line-height:1.25;font-family:'Liberation Sans';-inkscape-font-specification:'Liberation Sans Bold';text-align:center;text-anchor:middle;fill:#ffffff;fill-opacity:1;stroke:none"
         id="path4541"
         inkscape:connector-curvature="0" />
      <path
         d="m 663.41443,786.29775 -5.49317,-15.82031 h -23.59863 l -5.49316,15.82031 H 615.8656 l 22.58789,-61.91894 h 15.29297 l 22.5,61.91894 z m -17.31445,-52.38281 -0.26368,0.9668 q -0.43945,1.58203 -1.05468,3.60351 -0.61524,2.02149 -7.5586,22.23633 h 17.79785 l -6.10839,-17.79785 -1.88965,-5.97656 z m -7.29493,-14.85352 v -1.3623 l 11.07422,-11.16211 h 11.33789 v 1.88965 l -14.9414,10.63476 z"
         style="font-style:normal;font-variant:normal;font-weight:bold;font-stretch:normal;font-size:90px;line-height:1.25;font-family:'Liberation Sans';-inkscape-font-specification:'Liberation Sans Bold';text-align:center;text-anchor:middle;fill:#ffffff;fill-opacity:1;stroke:none"
         id="path4543"
         inkscape:connector-curvature="0" />
      <path
         d="m 712.63318,734.39834 v 51.89941 h -12.96387 v -51.89941 h -19.99512 v -10.01953 h 52.99805 v 10.01953 z"
         style="font-style:normal;font-variant:normal;font-weight:bold;font-stretch:normal;font-size:90px;line-height:1.25;font-family:'Liberation Sans';-inkscape-font-specification:'Liberation Sans Bold';text-align:center;text-anchor:middle;fill:#ffffff;fill-opacity:1;stroke:none"
         id="path4545"
         inkscape:connector-curvature="0" />
      <path
         d="m 798.32654,755.05264 q 0,9.66796 -3.82324,17.00683 -3.82325,7.33887 -10.94239,11.25 -7.11914,3.86719 -16.61133,3.86719 -14.58984,0 -22.8955,-8.56934 -8.26172,-8.61328 -8.26172,-23.55468 0,-14.89747 8.26172,-23.24707 8.26172,-8.34961 22.9834,-8.34961 14.72168,0 22.98339,8.4375 8.30567,8.4375 8.30567,23.15918 z m -13.22754,0 q 0,-10.01954 -4.74609,-15.68848 -4.7461,-5.71289 -13.31543,-5.71289 -8.70118,0 -13.44727,5.66894 -4.74609,5.625 -4.74609,15.73243 0,10.19531 4.83398,16.08398 4.87793,5.84473 13.27148,5.84473 8.70118,0 13.40333,-5.71289 4.74609,-5.71289 4.74609,-16.21582 z"
         style="font-style:normal;font-variant:normal;font-weight:bold;font-stretch:normal;font-size:90px;line-height:1.25;font-family:'Liberation Sans';-inkscape-font-specification:'Liberation Sans Bold';text-align:center;text-anchor:middle;fill:#ffffff;fill-opacity:1;stroke:none"
         id="path4547"
         inkscape:connector-curvature="0" />
      <path
         d="m 850.62146,786.29775 -14.37012,-23.51074 h -15.20508 v 23.51074 H 808.0824 v -61.91894 h 30.9375 q 11.07422,0 17.09472,4.79004 6.02051,4.74609 6.02051,13.66699 0,6.50391 -3.6914,11.25 -3.69141,4.70215 -9.97559,6.19629 l 16.74316,26.01562 z m -1.53809,-42.93457 q 0,-8.9209 -11.42578,-8.9209 h -16.61133 v 18.28125 h 16.9629 q 5.44921,0 8.26171,-2.46093 2.8125,-2.46094 2.8125,-6.89942 z"
         style="font-style:normal;font-variant:normal;font-weight:bold;font-stretch:normal;font-size:90px;line-height:1.25;font-family:'Liberation Sans';-inkscape-font-specification:'Liberation Sans Bold';text-align:center;text-anchor:middle;fill:#ffffff;fill-opacity:1;stroke:none"
         id="path4549"
         inkscape:connector-curvature="0" />
      <path
         d="m 873.12146,786.29775 v -61.91894 h 12.96387 v 61.91894 z"
         style="font-style:normal;font-variant:normal;font-weight:bold;font-stretch:normal;font-size:90px;line-height:1.25;font-family:'Liberation Sans';-inkscape-font-specification:'Liberation Sans Bold';text-align:center;text-anchor:middle;fill:#ffffff;fill-opacity:1;stroke:none"
         id="path4551"
         inkscape:connector-curvature="0" />
      <path
         d="m 941.85193,786.29775 -5.49317,-15.82031 h -23.59863 l -5.49316,15.82031 H 894.3031 l 22.58789,-61.91894 h 15.29297 l 22.5,61.91894 z m -17.31445,-52.38281 -0.26368,0.9668 q -0.43945,1.58203 -1.05468,3.60351 -0.61524,2.02149 -7.5586,22.23633 h 17.79785 l -6.10839,-17.79785 -1.88965,-5.97656 z"
         style="font-style:normal;font-variant:normal;font-weight:bold;font-stretch:normal;font-size:90px;line-height:1.25;font-family:'Liberation Sans';-inkscape-font-specification:'Liberation Sans Bold';text-align:center;text-anchor:middle;fill:#ffffff;fill-opacity:1;stroke:none"
         id="path4553"
         inkscape:connector-curvature="0" />
      <path
         d="m 963.12146,786.29775 v -61.91894 h 12.96387 v 61.91894 z"
         style="font-style:normal;font-variant:normal;font-weight:bold;font-stretch:normal;font-size:90px;line-height:1.25;font-family:'Liberation Sans';-inkscape-font-specification:'Liberation Sans Bold';text-align:center;text-anchor:middle;fill:#ffffff;fill-opacity:1;stroke:none"
         id="path4555"
         inkscape:connector-curvature="0" />
      <path
         d="m 1038.5756,768.45596 q 0,9.09668 -6.7676,13.93066 -6.7236,4.79004 -19.7754,4.79004 -11.9092,0 -18.67677,-4.21875 -6.76757,-4.21875 -8.70117,-12.78809 l 12.52442,-2.06543 q 1.27441,4.92188 4.96582,7.16309 3.6914,2.19727 10.2393,2.19727 13.5791,0 13.5791,-8.26172 0,-2.63672 -1.5821,-4.35059 -1.5381,-1.71387 -4.3945,-2.85644 -2.8125,-1.14258 -10.8545,-2.76856 -6.9434,-1.62598 -9.66797,-2.59277 -2.72461,-1.01075 -4.92187,-2.3291 -2.19727,-1.36231 -3.73535,-3.25196 -1.53809,-1.88965 -2.417,-4.43847 -0.83496,-2.54883 -0.83496,-5.84473 0,-8.39356 6.28418,-12.83203 6.32817,-4.48242 18.36917,-4.48242 11.5136,0 17.2705,3.60351 5.8008,3.60352 7.4707,11.90918 l -12.5684,1.71387 q -0.9668,-3.99902 -3.9551,-6.02051 -2.9443,-2.02148 -8.4814,-2.02148 -11.7773,0 -11.7773,7.38281 0,2.41699 1.2304,3.95508 1.2744,1.53808 3.7354,2.63672 2.4609,1.05468 9.9756,2.68066 8.9209,1.88965 12.7441,3.51562 3.8672,1.58204 6.1084,3.73536 2.2412,2.10937 3.4277,5.09765 1.1866,2.94434 1.1866,6.81153 z"
         style="font-style:normal;font-variant:normal;font-weight:bold;font-stretch:normal;font-size:90px;line-height:1.25;font-family:'Liberation Sans';-inkscape-font-specification:'Liberation Sans Bold';text-align:center;text-anchor:middle;fill:#ffffff;fill-opacity:1;stroke:none"
         id="path4557"
         inkscape:connector-curvature="0" />
    </g>
    <path
       sodipodi:nodetypes="ccccccccccccc"
       inkscape:connector-curvature="0"
       id="path4243"
       d="m 366.28506,562.13933 c -2.78778,0.0518 -5.0604,1.27978 -6.50877,3.09577 0.40679,7.9974 0.8136,15.99479 1.22039,23.99219 1.42114,2.6595 2.9453,3.0648 4.88158,4.45018 l 47.18858,23.02477 c 6.3951,2.24913 14.54171,2.34208 21.9671,1.16091 l 124.88703,-18.76809 c 3.36806,-0.66581 5.49975,-1.82166 7.32236,-4.64365 l -1.83059,-21.47689 c -0.61882,-4.02149 -4.5346,-5.20073 -7.72917,-6.772 l -58.98572,-17.60718 c -4.51001,-0.98008 -8.81396,-0.78407 -13.22094,0 z"
       style="fill:#ffffff;fill-opacity:1;fill-rule:evenodd;stroke:#cccccc;stroke-width:0.73585778px;stroke-linecap:butt;stroke-linejoin:miter;stroke-opacity:1" />
    <path
       sodipodi:nodetypes="cccc"
       inkscape:connector-curvature="0"
       id="path4253"
       d="m 359.75111,565.30981 49.78962,20.88444 c 8.75566,4.91032 16.72722,3.1078 25.09084,1.86468 l 130.55076,-16.4092"
       style="fill:none;fill-opacity:1;fill-rule:evenodd;stroke:#cccccc;stroke-width:0.73585778px;stroke-linecap:butt;stroke-linejoin:miter;stroke-opacity:1" />
    <g
       style="stroke:#cccccc"
       id="g5434"
       transform="matrix(0.7544738,0,0,0.71770112,325.55016,202.01394)">
      <path
         style="fill:#ffffff;fill-opacity:1;fill-rule:evenodd;stroke:#cccccc;stroke-width:1px;stroke-linecap:butt;stroke-linejoin:miter;stroke-opacity:1"
         d="m 127.68368,579.25788 -72.872867,-38.2972 34.58374,182.94502 c 1.31317,7.47 4.8302,10.02368 8.00818,13.76406 l 53.635457,38.53939 z"
         id="path4205"
         inkscape:connector-curvature="0"
         sodipodi:nodetypes="cccccc" />
      <path
         style="fill:#ffffff;fill-opacity:1;fill-rule:evenodd;stroke:#cccccc;stroke-width:1px;stroke-linecap:butt;stroke-linejoin:miter;stroke-opacity:1"
         d="m 311.69264,550.53658 -187.98678,26.80896 27.11717,198.97037 c 4.12976,1.29962 9.20683,0.5665 13.29802,-0.25627 48.25094,-9.70367 78.14503,-19.17172 123.53651,-30.50936 5.51473,-2.38963 6.90025,-6.84386 7.535,-12.98731 z"
         id="path4203"
         inkscape:connector-curvature="0"
         sodipodi:nodetypes="cccsccc" />
      <path
         style="fill:#ffffff;fill-opacity:1;fill-rule:evenodd;stroke:#cccccc;stroke-width:1px;stroke-linecap:butt;stroke-linejoin:miter;stroke-opacity:1"
         d="m 68.424113,506.60306 c 17.03552,8.23375 34.071027,15.0729 51.106537,22.60935 9.1177,3.89383 17.88674,4.12685 26.83011,3.05244 l 139.60788,-17.74068 c 5.49988,-0.12106 12.96431,-3.63809 6.52297,-5.58956 l -63.73264,-21.86997 c -4.46156,-0.77022 -9.53325,-0.75599 -14.69211,0.30419 L 73.369903,503.07035 c -2.14775,0.53576 -4.89114,1.55817 -4.94579,3.53271 z"
         id="path4245"
         inkscape:connector-curvature="0"
         sodipodi:nodetypes="ccccccccc" />
      <path
         style="fill:#ffffff;fill-opacity:1;fill-rule:evenodd;stroke:#cccccc;stroke-width:1px;stroke-linecap:butt;stroke-linejoin:miter;stroke-opacity:1"
         d="m 221.48413,486.96765 0.25981,35.07477"
         id="path4255"
         inkscape:connector-curvature="0"
         sodipodi:nodetypes="cc" />
    </g>
    <g
       style="stroke:#000000"
       transform="matrix(0.53635218,-0.06377677,0.10071937,0.43491357,313.41606,455.57129)"
       id="g4811">
      <ellipse
         ry="81.063965"
         rx="81.569054"
         cy="526.50275"
         cx="228.77177"
         id="path4151-8"
         style="opacity:1;fill:none;fill-opacity:0.84615383;stroke:#000000;stroke-width:6.71010065;stroke-miterlimit:4;stroke-dasharray:none" />
      <ellipse
         ry="32.407856"
         rx="32.912945"
         cy="526.43689"
         cx="228.97862"
         id="path4151-80"
         style="opacity:1;fill:none;fill-opacity:0.84615383;stroke:#000000;stroke-width:6.67396879;stroke-miterlimit:4;stroke-dasharray:none" />
      <path
         sodipodi:nodetypes="cccccccc"
         inkscape:connector-curvature="0"
         id="path4184"
         d="m 159.26882,542.89653 c 0.91176,-15.40875 13.85877,-35.46749 37.19986,-34.73808 -6.92938,-13.67642 -7.56762,-37.47338 11.21466,-50.05569 -13.62948,9.12599 -20.09461,53.40155 19.69404,56.62037 0.0912,2.00587 0.18235,4.01175 0.27352,6.01762 -2.66165,0.58103 -5.22659,2.80607 -4.50349,7.83561 -1.61447,0.82059 -3.22893,1.64118 -4.8434,2.46176 -18.46718,-28.88624 -56.48242,-11.70641 -59.03519,11.85841 z"
         style="fill:#000000;fill-rule:evenodd;stroke:#000000;stroke-width:1px;stroke-linecap:butt;stroke-linejoin:miter;stroke-opacity:1" />
      <path
         sodipodi:nodetypes="cccccccc"
         inkscape:connector-curvature="0"
         id="path4184-1"
         d="m 298.92243,542.78378 c -0.91176,-15.40875 -13.85877,-35.46749 -37.19987,-34.73808 6.92938,-13.67642 7.56762,-37.47338 -11.21466,-50.05569 13.62948,9.12599 20.09461,53.40155 -19.69403,56.62037 -0.0912,2.00587 -0.18235,4.01175 -0.27352,6.01762 2.66165,0.58103 5.22659,2.80607 4.50349,7.83561 1.61447,0.82059 3.22893,1.64118 4.8434,2.46176 18.46717,-28.88624 56.48242,-11.70641 59.03519,11.85841 z"
         style="fill:#000000;fill-rule:evenodd;stroke:#000000;stroke-width:1px;stroke-linecap:butt;stroke-linejoin:miter;stroke-opacity:1" />
      <path
         sodipodi:nodetypes="cccccccc"
         inkscape:connector-curvature="0"
         id="path4184-1-0"
         d="m 179.98837,578.45131 c 13.79707,6.92112 37.64249,5.74902 48.69081,-14.82458 8.37353,12.84309 28.65743,25.30363 48.94978,15.33819 -14.72141,7.23371 -56.29012,-9.32423 -39.16678,-45.38374 -1.69103,-1.0827 -3.3821,-2.16535 -5.07317,-3.24801 -1.83493,2.01368 -5.04485,3.121 -9.03755,-0.0218 -1.51835,0.98717 -3.03668,1.97435 -4.55503,2.96154 15.76863,30.44341 -18.12835,54.76006 -39.80806,45.17844 z"
         style="fill:#000000;fill-rule:evenodd;stroke:#000000;stroke-width:1px;stroke-linecap:butt;stroke-linejoin:miter;stroke-opacity:1" />
    </g>
  </g>
</svg>
