<?xml version="1.0" encoding="UTF-8" standalone="no"?>
<!-- Created with Inkscape (http://www.inkscape.org/) -->

<svg
   xmlns:dc="http://purl.org/dc/elements/1.1/"
   xmlns:cc="http://creativecommons.org/ns#"
   xmlns:rdf="http://www.w3.org/1999/02/22-rdf-syntax-ns#"
   xmlns:svg="http://www.w3.org/2000/svg"
   xmlns="http://www.w3.org/2000/svg"
   xmlns:sodipodi="http://sodipodi.sourceforge.net/DTD/sodipodi-0.dtd"
   xmlns:inkscape="http://www.inkscape.org/namespaces/inkscape"
   width="423.33334mm"
   height="79.375mm"
   viewBox="0 0 1500 281.25"
   id="svg4329"
   version="1.1"
   inkscape:version="0.92.1 r15371"
   sodipodi:docname="lata.cinza.svg">
  <defs
     id="defs4331" />
  <sodipodi:namedview
     id="base"
     pagecolor="#ffffff"
     bordercolor="#666666"
     borderopacity="1.0"
     inkscape:pageopacity="0.0"
     inkscape:pageshadow="2"
     inkscape:zoom="0.71899471"
     inkscape:cx="652.72434"
     inkscape:cy="63.80942"
     inkscape:document-units="px"
     inkscape:current-layer="layer1"
     showgrid="false"
     inkscape:window-width="1440"
     inkscape:window-height="800"
     inkscape:window-x="0"
     inkscape:window-y="35"
     inkscape:window-maximized="1" />
  <metadata
     id="metadata4334">
    <rdf:RDF>
      <cc:Work
         rdf:about="">
        <dc:format>image/svg+xml</dc:format>
        <dc:type
           rdf:resource="http://purl.org/dc/dcmitype/StillImage" />
        <dc:title />
      </cc:Work>
    </rdf:RDF>
  </metadata>
  <g
     inkscape:label="Camada 1"
     inkscape:groupmode="layer"
     id="layer1"
     transform="translate(-8.7058678,-508.21732)">
    <rect
       style="fill:#65d965;fill-opacity:1;stroke:none;stroke-width:1.09706926;stroke-miterlimit:4;stroke-dasharray:none"
       id="rect4901"
       width="1500"
       height="281.25"
       x="8.7058678"
       y="508.21732" />
    <path
       sodipodi:nodetypes="cccccc"
       inkscape:connector-curvature="0"
       id="path4205"
       d="m 428.5108,611.93915 -55.91612,-29.4507 26.53648,140.68547 c 1.0076,5.74446 3.70626,7.70825 6.14476,10.58462 l 41.15506,29.63695 z"
       style="fill:#808080;fill-rule:evenodd;stroke:#999999;stroke-width:0.76815689px;stroke-linecap:butt;stroke-linejoin:miter;stroke-opacity:1" />
    <path
       sodipodi:nodetypes="cccsccc"
       inkscape:connector-curvature="0"
       id="path4203"
       d="m 569.70285,589.85236 -144.24427,20.61619 20.80729,153.00904 c 3.16881,0.99941 7.06451,0.43563 10.20372,-0.19707 37.02345,-7.46217 59.96152,-14.74315 94.79089,-23.46184 4.2315,-1.83763 5.29463,-5.26294 5.78168,-9.98729 z"
       style="fill:#808080;fill-rule:evenodd;stroke:#999999;stroke-width:0.76815689px;stroke-linecap:butt;stroke-linejoin:miter;stroke-opacity:1" />
    <path
       sodipodi:nodetypes="ccccccccccccc"
       inkscape:connector-curvature="0"
       id="path4243"
       d="m 371.96573,552.35549 c -2.8352,0.0555 -5.14649,1.37124 -6.61951,3.31706 0.41372,8.56906 0.82745,17.13814 1.24116,25.70721 1.44532,2.84961 2.99541,3.28388 4.96464,4.76827 l 47.99146,24.67065 c 6.5039,2.4099 14.78912,2.50949 22.34086,1.24389 l 127.01189,-20.10968 c 3.42537,-0.7134 5.59334,-1.95187 7.44695,-4.97559 l -1.86172,-23.01211 c -0.62936,-4.30895 -4.61177,-5.57248 -7.86069,-7.25606 l -59.98933,-18.86579 c -4.58675,-1.05014 -8.96393,-0.84012 -13.44589,0 z"
       style="fill:#808080;fill-rule:evenodd;stroke:#999999;stroke-width:0.76815689px;stroke-linecap:butt;stroke-linejoin:miter;stroke-opacity:1" />
    <path
       sodipodi:nodetypes="ccccccccc"
       inkscape:connector-curvature="0"
       id="path4245"
       d="m 383.04031,556.06731 c 13.07154,6.33178 26.14307,11.59111 39.21459,17.38668 6.99611,2.99437 13.72469,3.17356 20.58703,2.34733 l 107.12261,-13.64264 c 4.22013,-0.0931 9.94767,-2.79772 5.00514,-4.2984 l -48.90272,-16.8181 c -3.4234,-0.5923 -7.31498,-0.58136 -11.27342,0.23392 l -107.95827,12.07453 c -1.64799,0.412 -3.75302,1.19825 -3.79496,2.71668 z"
       style="fill:#808080;fill-rule:evenodd;stroke:#999999;stroke-width:0.76815689px;stroke-linecap:butt;stroke-linejoin:miter;stroke-opacity:1" />
    <path
       sodipodi:nodetypes="cccccccccccc"
       inkscape:connector-curvature="0"
       id="path4247"
       d="m 506.28993,692.12685 -18.95902,4.2541 c -10.1336,0.65112 -17.96916,-5.703 -15.46363,-19.92604 l 6.45635,-14.37596 -4.79321,-2.17737 15.63743,-2.46526 8.81576,12.3039 -5.25896,-2.29942 -5.45046,11.24363 c -0.0742,1.69906 0.86391,1.36903 1.78491,1.07331 l 16.94357,-3.19383 z"
       style="fill:#ffffff;fill-rule:evenodd;stroke:#999999;stroke-width:0.76815689px;stroke-linecap:butt;stroke-linejoin:miter;stroke-opacity:1" />
    <path
       sodipodi:nodetypes="cccccccccccc"
       inkscape:connector-curvature="0"
       id="path4249"
       d="m 534.17348,645.20697 -13.19061,10.60634 8.12783,13.05857 c 1.11366,1.2001 1.35744,2.28396 -1.33218,2.97582 l -9.37727,1.87177 -0.41368,-5.65441 -7.43989,15.55826 7.24838,11.51848 0.17849,-5.42338 13.92226,-3.52084 c 6.2118,-3.21535 15.48763,-11.90056 12.02859,-24.90406 z"
       style="fill:#ffffff;fill-rule:evenodd;stroke:#999999;stroke-width:0.76815689px;stroke-linecap:butt;stroke-linejoin:miter;stroke-opacity:1" />
    <path
       sodipodi:nodetypes="cccccccccccc"
       inkscape:connector-curvature="0"
       id="path4251"
       d="m 484.95381,649.92317 c 9.99546,-19.31952 9.99546,-20.07418 9.99546,-20.07418 6.84403,-10.91986 19.72037,-11.09195 26.27716,-6.274 l 7.43988,11.57065 4.57569,-3.49476 -7.40085,15.23125 -15.08428,2.84911 4.36183,-3.96153 -5.17621,-8.40757 c 0,0 -1.28293,-1.51211 -2.49888,0.17889 l -8.86781,18.33748 z"
       style="fill:#ffffff;fill-rule:evenodd;stroke:#999999;stroke-width:0.76815689px;stroke-linecap:butt;stroke-linejoin:miter;stroke-opacity:1" />
    <path
       sodipodi:nodetypes="cccc"
       inkscape:connector-curvature="0"
       id="path4253"
       d="m 365.32062,555.7526 50.63676,22.3773 c 8.90462,5.26133 17.01182,3.32996 25.51773,1.99798 l 132.77201,-17.58217"
       style="fill:none;fill-rule:evenodd;stroke:#999999;stroke-width:0.76815689px;stroke-linecap:butt;stroke-linejoin:miter;stroke-opacity:1" />
    <path
       sodipodi:nodetypes="cc"
       inkscape:connector-curvature="0"
       id="path4255"
       d="m 500.48489,540.9676 0.19936,26.97263"
       style="fill:#808080;fill-rule:evenodd;stroke:#999999;stroke-width:0.76815689px;stroke-linecap:butt;stroke-linejoin:miter;stroke-opacity:1" />
    <g
       aria-label="CINZA  RESÍDUO GERAL  NÃO RECICLÁVEL"
       style="font-style:normal;font-weight:normal;line-height:0%;font-family:sans-serif;letter-spacing:0px;word-spacing:0px;fill:#808080;fill-opacity:1;stroke:none;stroke-width:1px;stroke-linecap:butt;stroke-linejoin:miter;stroke-opacity:1"
       id="text4922"
       transform="matrix(0.76731067,0,0,0.76900403,330.53776,166.48751)">
      <path
         d="m 528.31622,549.69806 q 16.29639,0 22.64405,-16.35742 l 15.68603,5.92041 q -5.06592,12.45117 -14.89258,18.55468 -9.76562,6.04249 -23.4375,6.04249 -20.75195,0 -32.10449,-11.71875 -11.2915,-11.77979 -11.2915,-32.89795 0,-21.1792 10.92529,-32.53174 10.92529,-11.35254 31.67725,-11.35254 15.13671,0 24.6582,6.10351 9.52148,6.04248 13.3667,17.82227 l -15.86914,4.3335 q -2.01416,-6.46973 -7.93457,-10.25391 -5.85938,-3.84521 -13.85498,-3.84521 -12.20703,0 -18.55469,7.56835 -6.28662,7.56836 -6.28662,22.15577 0,14.83154 6.46973,22.64404 6.53076,7.8125 18.79882,7.8125 z"
         style="font-style:normal;font-variant:normal;font-weight:bold;font-stretch:normal;font-size:125px;line-height:1.25;font-family:'Liberation Sans';-inkscape-font-specification:'Liberation Sans Bold';text-align:center;text-anchor:middle;fill:#808080;fill-opacity:1;stroke:none"
         id="path4496"
         inkscape:connector-curvature="0" />
      <path
         d="m 578.48712,562.63751 v -85.99853 h 18.00537 v 85.99853 z"
         style="font-style:normal;font-variant:normal;font-weight:bold;font-stretch:normal;font-size:125px;line-height:1.25;font-family:'Liberation Sans';-inkscape-font-specification:'Liberation Sans Bold';text-align:center;text-anchor:middle;fill:#808080;fill-opacity:1;stroke:none"
         id="path4498"
         inkscape:connector-curvature="0" />
      <path
         d="m 665.52325,562.63751 -37.47558,-66.22314 q 1.09863,9.64355 1.09863,15.50293 v 50.72021 h -15.99121 v -85.99853 h 20.56885 l 38.0249,66.77246 q -1.09863,-9.21631 -1.09863,-16.78467 v -49.98779 h 15.99121 v 85.99853 z"
         style="font-style:normal;font-variant:normal;font-weight:bold;font-stretch:normal;font-size:125px;line-height:1.25;font-family:'Liberation Sans';-inkscape-font-specification:'Liberation Sans Bold';text-align:center;text-anchor:middle;fill:#808080;fill-opacity:1;stroke:none"
         id="path4500"
         inkscape:connector-curvature="0" />
      <path
         d="m 767.87921,562.63751 h -69.03076 v -12.75635 l 46.50879,-59.14306 h -41.87012 v -14.09912 h 61.88965 v 12.5122 l -46.50879,59.38721 h 49.01123 z"
         style="font-style:normal;font-variant:normal;font-weight:bold;font-stretch:normal;font-size:125px;line-height:1.25;font-family:'Liberation Sans';-inkscape-font-specification:'Liberation Sans Bold';text-align:center;text-anchor:middle;fill:#808080;fill-opacity:1;stroke:none"
         id="path4502"
         inkscape:connector-curvature="0" />
      <path
         d="m 840.69415,562.63751 -7.62939,-21.97265 h -32.77588 l -7.6294,21.97265 h -18.00537 l 31.37207,-85.99853 h 21.24024 l 31.25,85.99853 z m -24.04785,-72.7539 -0.36621,1.34277 q -0.61035,2.19727 -1.46484,5.00488 -0.8545,2.80762 -10.49805,30.88379 h 24.71924 l -8.48389,-24.71924 -2.62451,-8.30078 z"
         style="font-style:normal;font-variant:normal;font-weight:bold;font-stretch:normal;font-size:125px;line-height:1.25;font-family:'Liberation Sans';-inkscape-font-specification:'Liberation Sans Bold';text-align:center;text-anchor:middle;fill:#808080;fill-opacity:1;stroke:none"
         id="path4504"
         inkscape:connector-curvature="0" />
      <path
         d="M 378.86554,678.35356 366.0921,657.45513 h -13.51562 v 20.89843 H 341.05304 V 623.3145 h 27.5 q 9.84375,0 15.19531,4.25781 5.35156,4.21875 5.35156,12.14844 0,5.78125 -3.28125,10 -3.28125,4.17969 -8.86718,5.50781 l 14.88281,23.125 z m -1.36719,-38.16406 q 0,-7.92969 -10.15625,-7.92969 h -14.76562 v 16.25 h 15.07812 q 4.84375,0 7.34375,-2.1875 2.5,-2.1875 2.5,-6.13281 z"
         style="font-style:normal;font-variant:normal;font-weight:bold;font-stretch:normal;font-size:80px;line-height:1.25;font-family:'Liberation Sans';-inkscape-font-specification:'Liberation Sans Bold';text-align:center;text-anchor:middle;fill:#808080;fill-opacity:1;stroke:none"
         id="path4506"
         inkscape:connector-curvature="0" />
      <path
         d="M 398.86554,678.35356 V 623.3145 h 43.28125 v 8.90625 h -31.75781 v 13.82813 h 29.375 v 8.90625 h -29.375 v 14.49218 h 33.35937 v 8.90625 z"
         style="font-style:normal;font-variant:normal;font-weight:bold;font-stretch:normal;font-size:80px;line-height:1.25;font-family:'Liberation Sans';-inkscape-font-specification:'Liberation Sans Bold';text-align:center;text-anchor:middle;fill:#808080;fill-opacity:1;stroke:none"
         id="path4508"
         inkscape:connector-curvature="0" />
      <path
         d="m 497.18585,662.49419 q 0,8.08594 -6.01562,12.38281 -5.97657,4.25781 -17.57813,4.25781 -10.58594,0 -16.60156,-3.75 -6.01563,-3.75 -7.73438,-11.36718 l 11.13282,-1.83594 q 1.13281,4.375 4.41406,6.36719 3.28125,1.95312 9.10156,1.95312 12.07031,0 12.07031,-7.34375 0,-2.34375 -1.40625,-3.86719 -1.36718,-1.52343 -3.90625,-2.53906 -2.5,-1.01562 -9.64843,-2.46094 -6.17188,-1.44531 -8.59375,-2.30468 -2.42188,-0.89844 -4.375,-2.07032 -1.95313,-1.21093 -3.32032,-2.89062 -1.36718,-1.67969 -2.14843,-3.94531 -0.74219,-2.26563 -0.74219,-5.19532 0,-7.46093 5.58594,-11.40625 5.625,-3.98437 16.32812,-3.98437 10.23438,0 15.35156,3.20312 5.15625,3.20313 6.64063,10.58594 l -11.17188,1.52344 q -0.85937,-3.55469 -3.51562,-5.35156 -2.61719,-1.79688 -7.53906,-1.79688 -10.46875,0 -10.46875,6.5625 0,2.14844 1.09375,3.51563 1.13281,1.36718 3.32031,2.34375 2.1875,0.9375 8.86719,2.38281 7.92968,1.67969 11.32812,3.125 3.4375,1.40625 5.42969,3.32031 1.99219,1.875 3.04687,4.53125 1.05469,2.61719 1.05469,6.05469 z"
         style="font-style:normal;font-variant:normal;font-weight:bold;font-stretch:normal;font-size:80px;line-height:1.25;font-family:'Liberation Sans';-inkscape-font-specification:'Liberation Sans Bold';text-align:center;text-anchor:middle;fill:#808080;fill-opacity:1;stroke:none"
         id="path4510"
         inkscape:connector-curvature="0" />
      <path
         d="M 505.74054,678.35356 V 623.3145 h 11.52344 v 55.03906 z m -1.28906,-59.76562 V 617.377 l 9.84375,-9.92187 h 10.07812 v 1.67968 l -13.28125,9.45313 z"
         style="font-style:normal;font-variant:normal;font-weight:bold;font-stretch:normal;font-size:80px;line-height:1.25;font-family:'Liberation Sans';-inkscape-font-specification:'Liberation Sans Bold';text-align:center;text-anchor:middle;fill:#808080;fill-opacity:1;stroke:none"
         id="path4512"
         inkscape:connector-curvature="0" />
      <path
         d="m 576.99054,650.42388 q 0,8.51562 -3.35938,14.88281 -3.32031,6.32812 -9.45312,9.6875 -6.09375,3.35937 -13.98438,3.35937 H 527.92804 V 623.3145 h 19.92187 q 13.90625,0 21.52344,7.03125 7.61719,6.99219 7.61719,20.07813 z m -11.60156,0 q 0,-8.86719 -4.60938,-13.51563 -4.60937,-4.6875 -13.16406,-4.6875 h -8.16406 v 37.22656 h 9.76562 q 7.42188,0 11.79688,-5.11718 4.375,-5.11719 4.375,-13.90625 z"
         style="font-style:normal;font-variant:normal;font-weight:bold;font-stretch:normal;font-size:80px;line-height:1.25;font-family:'Liberation Sans';-inkscape-font-specification:'Liberation Sans Bold';text-align:center;text-anchor:middle;fill:#808080;fill-opacity:1;stroke:none"
         id="path4514"
         inkscape:connector-curvature="0" />
      <path
         d="m 608.63116,679.13481 q -11.36718,0 -17.42187,-5.54687 -6.01563,-5.54688 -6.01563,-15.85938 V 623.3145 h 11.52344 v 33.51563 q 0,6.52343 3.08594,9.92187 3.125,3.35938 9.14062,3.35938 6.17188,0 9.49219,-3.51563 3.32031,-3.55469 3.32031,-10.15625 v -33.125 h 11.52344 v 33.82813 q 0,10.46875 -6.48437,16.25 -6.44532,5.74218 -18.16407,5.74218 z"
         style="font-style:normal;font-variant:normal;font-weight:bold;font-stretch:normal;font-size:80px;line-height:1.25;font-family:'Liberation Sans';-inkscape-font-specification:'Liberation Sans Bold';text-align:center;text-anchor:middle;fill:#808080;fill-opacity:1;stroke:none"
         id="path4516"
         inkscape:connector-curvature="0" />
      <path
         d="m 697.06866,650.58013 q 0,8.59375 -3.39843,15.11718 -3.39844,6.52344 -9.72657,10 -6.32812,3.4375 -14.76562,3.4375 -12.96875,0 -20.35156,-7.61718 -7.34375,-7.65625 -7.34375,-20.9375 0,-13.24219 7.34375,-20.66407 7.34375,-7.42187 20.42968,-7.42187 13.08594,0 20.42969,7.5 7.38281,7.5 7.38281,20.58594 z m -11.75781,0 q 0,-8.90625 -4.21875,-13.94532 -4.21875,-5.07812 -11.83594,-5.07812 -7.73437,0 -11.95312,5.03906 -4.21875,5 -4.21875,13.98438 0,9.0625 4.29687,14.29687 4.33594,5.19531 11.79688,5.19531 7.73437,0 11.91406,-5.07812 4.21875,-5.07813 4.21875,-14.41406 z"
         style="font-style:normal;font-variant:normal;font-weight:bold;font-stretch:normal;font-size:80px;line-height:1.25;font-family:'Liberation Sans';-inkscape-font-specification:'Liberation Sans Bold';text-align:center;text-anchor:middle;fill:#808080;fill-opacity:1;stroke:none"
         id="path4518"
         inkscape:connector-curvature="0" />
      <path
         d="m 754.06085,670.11138 q 4.49219,0 8.71094,-1.28907 4.21875,-1.32812 6.52344,-3.35937 v -7.61719 h -13.4375 v -8.51562 h 23.98437 v 20.23437 q -4.375,4.49219 -11.40625,7.03125 -6.99219,2.53906 -14.6875,2.53906 -13.4375,0 -20.66406,-7.42187 -7.22656,-7.46094 -7.22656,-21.13281 0,-13.59375 7.26562,-20.82032 7.26563,-7.26562 20.89844,-7.26562 19.375,0 24.64844,14.33594 l -10.625,3.20312 q -1.71875,-4.17969 -5.39063,-6.32812 -3.67187,-2.14844 -8.63281,-2.14844 -8.125,0 -12.34375,4.92187 -4.21875,4.92188 -4.21875,14.10157 0,9.33593 4.33594,14.45312 4.375,5.07813 12.26562,5.07813 z"
         style="font-style:normal;font-variant:normal;font-weight:bold;font-stretch:normal;font-size:80px;line-height:1.25;font-family:'Liberation Sans';-inkscape-font-specification:'Liberation Sans Bold';text-align:center;text-anchor:middle;fill:#808080;fill-opacity:1;stroke:none"
         id="path4520"
         inkscape:connector-curvature="0" />
      <path
         d="M 790.11554,678.35356 V 623.3145 h 43.28125 v 8.90625 h -31.75781 v 13.82813 h 29.375 v 8.90625 h -29.375 v 14.49218 h 33.35937 v 8.90625 z"
         style="font-style:normal;font-variant:normal;font-weight:bold;font-stretch:normal;font-size:80px;line-height:1.25;font-family:'Liberation Sans';-inkscape-font-specification:'Liberation Sans Bold';text-align:center;text-anchor:middle;fill:#808080;fill-opacity:1;stroke:none"
         id="path4522"
         inkscape:connector-curvature="0" />
      <path
         d="M 881.36554,678.35356 868.5921,657.45513 h -13.51562 v 20.89843 H 843.55304 V 623.3145 h 27.5 q 9.84375,0 15.19531,4.25781 5.35156,4.21875 5.35156,12.14844 0,5.78125 -3.28125,10 -3.28125,4.17969 -8.86718,5.50781 l 14.88281,23.125 z m -1.36719,-38.16406 q 0,-7.92969 -10.15625,-7.92969 h -14.76562 v 16.25 h 15.07812 q 4.84375,0 7.34375,-2.1875 2.5,-2.1875 2.5,-6.13281 z"
         style="font-style:normal;font-variant:normal;font-weight:bold;font-stretch:normal;font-size:80px;line-height:1.25;font-family:'Liberation Sans';-inkscape-font-specification:'Liberation Sans Bold';text-align:center;text-anchor:middle;fill:#808080;fill-opacity:1;stroke:none"
         id="path4524"
         inkscape:connector-curvature="0" />
      <path
         d="m 940.27179,678.35356 -4.88281,-14.0625 h -20.97657 l -4.88281,14.0625 h -11.52344 l 20.07813,-55.03906 h 13.59375 l 20,55.03906 z m -15.39063,-46.5625 -0.23437,0.85938 q -0.39063,1.40625 -0.9375,3.20312 -0.54688,1.79688 -6.71875,19.76563 h 15.82031 l -5.42969,-15.82031 -1.67968,-5.3125 z"
         style="font-style:normal;font-variant:normal;font-weight:bold;font-stretch:normal;font-size:80px;line-height:1.25;font-family:'Liberation Sans';-inkscape-font-specification:'Liberation Sans Bold';text-align:center;text-anchor:middle;fill:#808080;fill-opacity:1;stroke:none"
         id="path4526"
         inkscape:connector-curvature="0" />
      <path
         d="M 959.17804,678.35356 V 623.3145 h 11.52344 v 46.13281 h 29.53122 v 8.90625 z"
         style="font-style:normal;font-variant:normal;font-weight:bold;font-stretch:normal;font-size:80px;line-height:1.25;font-family:'Liberation Sans';-inkscape-font-specification:'Liberation Sans Bold';text-align:center;text-anchor:middle;fill:#808080;fill-opacity:1;stroke:none"
         id="path4528"
         inkscape:connector-curvature="0" />
      <path
         d="m 351.59991,778.35356 -23.98437,-42.38281 q 0.70312,6.17188 0.70312,9.92188 v 32.46093 H 318.08429 V 723.3145 h 13.16406 l 24.33594,42.73438 q -0.70313,-5.89844 -0.70313,-10.74219 V 723.3145 h 10.23438 v 55.03906 z"
         style="font-style:normal;font-variant:normal;font-weight:bold;font-stretch:normal;font-size:80px;line-height:1.25;font-family:'Liberation Sans';-inkscape-font-specification:'Liberation Sans Bold';text-align:center;text-anchor:middle;fill:#808080;fill-opacity:1;stroke:none"
         id="path4530"
         inkscape:connector-curvature="0" />
      <path
         d="m 414.80304,778.35356 -4.88281,-14.0625 h -20.97657 l -4.88281,14.0625 h -11.52344 l 20.07813,-55.03906 h 13.59375 l 20,55.03906 z m -15.39063,-46.5625 -0.23437,0.85938 q -0.39063,1.40625 -0.9375,3.20312 -0.54688,1.79688 -6.71875,19.76563 h 15.82031 l -5.42969,-15.82031 -1.67968,-5.3125 z m 6.48438,-13.20312 q -1.71875,0 -3.47656,-0.74219 -1.71875,-0.74219 -3.35938,-1.64062 -1.64062,-0.9375 -3.125,-1.67969 -1.44531,-0.74219 -2.61719,-0.74219 -1.60156,0 -2.46093,0.89844 -0.82032,0.89844 -1.36719,3.90625 h -5.35156 q 0.3125,-4.41406 1.25,-6.60156 0.97656,-2.22657 2.77343,-3.51563 1.79688,-1.32812 4.76563,-1.32812 1.75781,0 3.51562,0.74218 1.75782,0.74219 3.39844,1.67969 1.64063,0.89844 3.04688,1.64063 1.44531,0.74218 2.57812,0.74218 1.5625,0 2.42188,-0.9375 0.89843,-0.97656 1.44531,-3.86718 h 5.27344 q -0.27344,6.13281 -2.5,8.78906 -2.1875,2.65625 -6.21094,2.65625 z"
         style="font-style:normal;font-variant:normal;font-weight:bold;font-stretch:normal;font-size:80px;line-height:1.25;font-family:'Liberation Sans';-inkscape-font-specification:'Liberation Sans Bold';text-align:center;text-anchor:middle;fill:#808080;fill-opacity:1;stroke:none"
         id="path4532"
         inkscape:connector-curvature="0" />
      <path
         d="m 487.22491,750.58013 q 0,8.59375 -3.39843,15.11718 -3.39844,6.52344 -9.72657,10 -6.32812,3.4375 -14.76562,3.4375 -12.96875,0 -20.35156,-7.61718 -7.34375,-7.65625 -7.34375,-20.9375 0,-13.24219 7.34375,-20.66407 7.34375,-7.42187 20.42968,-7.42187 13.08594,0 20.42969,7.5 7.38281,7.5 7.38281,20.58594 z m -11.75781,0 q 0,-8.90625 -4.21875,-13.94532 -4.21875,-5.07812 -11.83594,-5.07812 -7.73437,0 -11.95312,5.03906 -4.21875,5 -4.21875,13.98438 0,9.0625 4.29687,14.29687 4.33594,5.19531 11.79688,5.19531 7.73437,0 11.91406,-5.07812 4.21875,-5.07813 4.21875,-14.41406 z"
         style="font-style:normal;font-variant:normal;font-weight:bold;font-stretch:normal;font-size:80px;line-height:1.25;font-family:'Liberation Sans';-inkscape-font-specification:'Liberation Sans Bold';text-align:center;text-anchor:middle;fill:#808080;fill-opacity:1;stroke:none"
         id="path4534"
         inkscape:connector-curvature="0" />
      <path
         d="m 555.89679,778.35356 -12.77344,-20.89843 h -13.51562 v 20.89843 H 518.08429 V 723.3145 h 27.5 q 9.84375,0 15.19531,4.25781 5.35156,4.21875 5.35156,12.14844 0,5.78125 -3.28125,10 -3.28125,4.17969 -8.86718,5.50781 l 14.88281,23.125 z M 554.5296,740.1895 q 0,-7.92969 -10.15625,-7.92969 h -14.76562 v 16.25 h 15.07812 q 4.84375,0 7.34375,-2.1875 2.5,-2.1875 2.5,-6.13281 z"
         style="font-style:normal;font-variant:normal;font-weight:bold;font-stretch:normal;font-size:80px;line-height:1.25;font-family:'Liberation Sans';-inkscape-font-specification:'Liberation Sans Bold';text-align:center;text-anchor:middle;fill:#808080;fill-opacity:1;stroke:none"
         id="path4536"
         inkscape:connector-curvature="0" />
      <path
         d="M 575.89679,778.35356 V 723.3145 h 43.28125 v 8.90625 h -31.75781 v 13.82813 h 29.375 v 8.90625 h -29.375 v 14.49218 h 33.35937 v 8.90625 z"
         style="font-style:normal;font-variant:normal;font-weight:bold;font-stretch:normal;font-size:80px;line-height:1.25;font-family:'Liberation Sans';-inkscape-font-specification:'Liberation Sans Bold';text-align:center;text-anchor:middle;fill:#808080;fill-opacity:1;stroke:none"
         id="path4538"
         inkscape:connector-curvature="0" />
      <path
         d="m 655.03741,770.07231 q 10.42969,0 14.49219,-10.46875 l 10.03906,3.78907 q -3.24218,7.96875 -9.53125,11.875 -6.25,3.86718 -15,3.86718 -13.28125,0 -20.54687,-7.5 -7.22656,-7.53906 -7.22656,-21.05468 0,-13.55469 6.99218,-20.82032 6.99219,-7.26562 20.27344,-7.26562 9.6875,0 15.78125,3.90625 6.09375,3.86719 8.55469,11.40625 l -10.15625,2.77344 q -1.28906,-4.14063 -5.07813,-6.5625 -3.75,-2.46094 -8.86718,-2.46094 -7.8125,0 -11.875,4.84375 -4.02344,4.84375 -4.02344,14.17969 0,9.49218 4.14062,14.49218 4.17969,5 12.03125,5 z"
         style="font-style:normal;font-variant:normal;font-weight:bold;font-stretch:normal;font-size:80px;line-height:1.25;font-family:'Liberation Sans';-inkscape-font-specification:'Liberation Sans Bold';text-align:center;text-anchor:middle;fill:#808080;fill-opacity:1;stroke:none"
         id="path4540"
         inkscape:connector-curvature="0" />
      <path
         d="M 687.14679,778.35356 V 723.3145 h 11.52344 v 55.03906 z"
         style="font-style:normal;font-variant:normal;font-weight:bold;font-stretch:normal;font-size:80px;line-height:1.25;font-family:'Liberation Sans';-inkscape-font-specification:'Liberation Sans Bold';text-align:center;text-anchor:middle;fill:#808080;fill-opacity:1;stroke:none"
         id="path4542"
         inkscape:connector-curvature="0" />
      <path
         d="m 735.03741,770.07231 q 10.42969,0 14.49219,-10.46875 l 10.03906,3.78907 q -3.24218,7.96875 -9.53125,11.875 -6.25,3.86718 -15,3.86718 -13.28125,0 -20.54687,-7.5 -7.22656,-7.53906 -7.22656,-21.05468 0,-13.55469 6.99218,-20.82032 6.99219,-7.26562 20.27344,-7.26562 9.6875,0 15.78125,3.90625 6.09375,3.86719 8.55469,11.40625 l -10.15625,2.77344 q -1.28906,-4.14063 -5.07813,-6.5625 -3.75,-2.46094 -8.86718,-2.46094 -7.8125,0 -11.875,4.84375 -4.02344,4.84375 -4.02344,14.17969 0,9.49218 4.14062,14.49218 4.17969,5 12.03125,5 z"
         style="font-style:normal;font-variant:normal;font-weight:bold;font-stretch:normal;font-size:80px;line-height:1.25;font-family:'Liberation Sans';-inkscape-font-specification:'Liberation Sans Bold';text-align:center;text-anchor:middle;fill:#808080;fill-opacity:1;stroke:none"
         id="path4544"
         inkscape:connector-curvature="0" />
      <path
         d="M 767.14679,778.35356 V 723.3145 h 11.52344 v 46.13281 h 29.53125 v 8.90625 z"
         style="font-style:normal;font-variant:normal;font-weight:bold;font-stretch:normal;font-size:80px;line-height:1.25;font-family:'Liberation Sans';-inkscape-font-specification:'Liberation Sans Bold';text-align:center;text-anchor:middle;fill:#808080;fill-opacity:1;stroke:none"
         id="path4546"
         inkscape:connector-curvature="0" />
      <path
         d="m 854.95929,778.35356 -4.88281,-14.0625 h -20.97657 l -4.88281,14.0625 h -11.52344 l 20.07813,-55.03906 h 13.59375 l 20,55.03906 z m -15.39063,-46.5625 -0.23437,0.85938 q -0.39063,1.40625 -0.9375,3.20312 -0.54688,1.79688 -6.71875,19.76563 h 15.82031 l -5.42969,-15.82031 -1.67968,-5.3125 z m -6.48437,-13.20312 V 717.377 l 9.84375,-9.92187 h 10.07812 v 1.67968 l -13.28125,9.45313 z"
         style="font-style:normal;font-variant:normal;font-weight:bold;font-stretch:normal;font-size:80px;line-height:1.25;font-family:'Liberation Sans';-inkscape-font-specification:'Liberation Sans Bold';text-align:center;text-anchor:middle;fill:#808080;fill-opacity:1;stroke:none"
         id="path4548"
         inkscape:connector-curvature="0" />
      <path
         d="M 901.0921,778.35356 H 889.41241 L 869.06085,723.3145 h 12.03125 l 11.32813,35.35156 q 1.05468,3.4375 2.89062,10.39063 l 0.82031,-3.35938 1.99219,-7.03125 11.28906,-35.35156 h 11.91407 z"
         style="font-style:normal;font-variant:normal;font-weight:bold;font-stretch:normal;font-size:80px;line-height:1.25;font-family:'Liberation Sans';-inkscape-font-specification:'Liberation Sans Bold';text-align:center;text-anchor:middle;fill:#808080;fill-opacity:1;stroke:none"
         id="path4550"
         inkscape:connector-curvature="0" />
      <path
         d="M 927.30304,778.35356 V 723.3145 h 43.28125 v 8.90625 h -31.75781 v 13.82813 h 29.375 v 8.90625 h -29.375 v 14.49218 h 33.35937 v 8.90625 z"
         style="font-style:normal;font-variant:normal;font-weight:bold;font-stretch:normal;font-size:80px;line-height:1.25;font-family:'Liberation Sans';-inkscape-font-specification:'Liberation Sans Bold';text-align:center;text-anchor:middle;fill:#808080;fill-opacity:1;stroke:none"
         id="path4552"
         inkscape:connector-curvature="0" />
      <path
         d="M 980.74054,778.35356 V 723.3145 h 11.52344 v 46.13281 h 29.53122 v 8.90625 z"
         style="font-style:normal;font-variant:normal;font-weight:bold;font-stretch:normal;font-size:80px;line-height:1.25;font-family:'Liberation Sans';-inkscape-font-specification:'Liberation Sans Bold';text-align:center;text-anchor:middle;fill:#808080;fill-opacity:1;stroke:none"
         id="path4554"
         inkscape:connector-curvature="0" />
    </g>
  </g>
</svg>
