<?xml version="1.0" encoding="UTF-8" standalone="no"?>
<!-- Created with Inkscape (http://www.inkscape.org/) -->

<svg
   xmlns:dc="http://purl.org/dc/elements/1.1/"
   xmlns:cc="http://creativecommons.org/ns#"
   xmlns:rdf="http://www.w3.org/1999/02/22-rdf-syntax-ns#"
   xmlns:svg="http://www.w3.org/2000/svg"
   xmlns="http://www.w3.org/2000/svg"
   xmlns:sodipodi="http://sodipodi.sourceforge.net/DTD/sodipodi-0.dtd"
   xmlns:inkscape="http://www.inkscape.org/namespaces/inkscape"
   width="423.33334mm"
   height="79.375mm"
   viewBox="0 0 1500 281.25"
   id="svg4329"
   version="1.1"
   inkscape:version="0.92.1 r15371"
   sodipodi:docname="lata.amarela.svg">
  <defs
     id="defs4331" />
  <sodipodi:namedview
     id="base"
     pagecolor="#ffffff"
     bordercolor="#666666"
     borderopacity="1.0"
     inkscape:pageopacity="0.0"
     inkscape:pageshadow="2"
     inkscape:zoom="0.9586067"
     inkscape:cx="575.75932"
     inkscape:cy="81.203596"
     inkscape:document-units="px"
     inkscape:current-layer="layer1"
     showgrid="false"
     inkscape:window-width="1440"
     inkscape:window-height="800"
     inkscape:window-x="0"
     inkscape:window-y="35"
     inkscape:window-maximized="1" />
  <metadata
     id="metadata4334">
    <rdf:RDF>
      <cc:Work
         rdf:about="">
        <dc:format>image/svg+xml</dc:format>
        <dc:type
           rdf:resource="http://purl.org/dc/dcmitype/StillImage" />
        <dc:title />
      </cc:Work>
    </rdf:RDF>
  </metadata>
  <g
     inkscape:label="Camada 1"
     inkscape:groupmode="layer"
     id="layer1"
     transform="translate(248.4518,-374.28391)">
    <rect
       style="fill:#65d965;fill-opacity:0.95686275;stroke:none;stroke-width:1.09665394;stroke-miterlimit:4;stroke-dasharray:none"
       id="rect4901"
       width="1500"
       height="281.25"
       x="-248.4518"
       y="374.28391" />
    <g
       id="g6248"
       transform="matrix(0.80005579,0,0,0.79165841,71.910872,16.558807)"
       style="stroke:#008000">
      <path
         style="fill:#ffff00;fill-rule:evenodd;stroke:#008000;stroke-width:1px;stroke-linecap:butt;stroke-linejoin:miter;stroke-opacity:1"
         d="m 127.68368,579.25788 -72.872867,-38.2972 34.58374,182.94502 c 1.31317,7.47 4.8302,10.02368 8.00818,13.76406 l 53.635457,38.53939 z"
         id="path4205"
         inkscape:connector-curvature="0"
         sodipodi:nodetypes="cccccc" />
      <path
         style="fill:#ffff00;fill-rule:evenodd;stroke:#008000;stroke-width:1px;stroke-linecap:butt;stroke-linejoin:miter;stroke-opacity:1"
         d="m 311.69264,550.53658 -187.98678,26.80896 27.11717,198.97037 c 4.12976,1.29962 9.20683,0.5665 13.29802,-0.25627 48.25094,-9.70367 78.14503,-19.17172 123.53651,-30.50936 5.51473,-2.38963 6.90025,-6.84386 7.535,-12.98731 z"
         id="path4203"
         inkscape:connector-curvature="0"
         sodipodi:nodetypes="cccsccc" />
      <path
         style="fill:#ffff00;fill-rule:evenodd;stroke:#008000;stroke-width:1px;stroke-linecap:butt;stroke-linejoin:miter;stroke-opacity:1"
         d="m 53.991133,501.77627 c -3.69499,0.0722 -6.70718,1.78316 -8.6269,4.31345 0.53918,11.14308 1.07837,22.28615 1.61755,33.42923 1.88361,3.70557 3.90377,4.27029 6.47017,6.20059 l 62.545027,32.08128 c 8.47623,3.1338 19.27397,3.26331 29.11579,1.61755 l 165.52864,-26.15029 c 4.46412,-0.9277 7.28953,-2.53819 9.70526,-6.47018 l -2.42631,-29.92456 c -0.8202,-5.60329 -6.01028,-7.24636 -10.24445,-9.43567 l -78.18128,-24.53275 c -5.97769,-1.36559 -11.68226,-1.09247 -17.52339,0 z"
         id="path4243"
         inkscape:connector-curvature="0"
         sodipodi:nodetypes="ccccccccccccc" />
      <path
         style="fill:#ffff00;fill-rule:evenodd;stroke:#008000;stroke-width:1px;stroke-linecap:butt;stroke-linejoin:miter;stroke-opacity:1"
         d="m 68.424113,506.60306 c 17.03552,8.23375 34.071027,15.0729 51.106537,22.60935 9.1177,3.89383 17.88674,4.12685 26.83011,3.05244 l 139.60788,-17.74068 c 5.49988,-0.12106 12.96431,-3.63809 6.52297,-5.58956 l -63.73264,-21.86997 c -4.46156,-0.77022 -9.53325,-0.75599 -14.69211,0.30419 L 73.369903,503.07035 c -2.14775,0.53576 -4.89114,1.55817 -4.94579,3.53271 z"
         id="path4245"
         inkscape:connector-curvature="0"
         sodipodi:nodetypes="ccccccccc" />
      <path
         style="fill:#ffffff;fill-rule:evenodd;stroke:#008000;stroke-width:1px;stroke-linecap:butt;stroke-linejoin:miter;stroke-opacity:1"
         d="m 229.04956,683.53261 -24.70841,5.53196 c -13.20663,0.84671 -23.41836,-7.41609 -20.15301,-25.91149 l 8.41426,-18.69426 -6.24678,-2.83142 20.37954,-3.20578 11.48917,15.99979 -6.85376,-2.99013 -7.10334,14.62104 c -0.0967,2.20942 1.12591,1.78025 2.32619,1.39571 l 22.08177,-4.15321 z"
         id="path4247"
         inkscape:connector-curvature="0"
         sodipodi:nodetypes="cccccccccccc" />
      <path
         style="fill:#ffffff;fill-rule:evenodd;stroke:#008000;stroke-width:1px;stroke-linecap:butt;stroke-linejoin:miter;stroke-opacity:1"
         d="m 265.38888,622.51879 -17.1907,13.7923 10.59261,16.98114 c 1.4514,1.56059 1.7691,2.97002 -1.73616,3.86972 l -12.22094,2.43402 -0.53915,-7.35291 -9.69605,20.2317 9.44647,14.97845 0.23262,-7.05247 18.14423,-4.57845 c 8.09555,-4.18119 20.18431,-15.47528 15.6763,-32.38482 z"
         id="path4249"
         inkscape:connector-curvature="0"
         sodipodi:nodetypes="cccccccccccc" />
      <path
         style="fill:#ffffff;fill-rule:evenodd;stroke:#008000;stroke-width:1px;stroke-linecap:butt;stroke-linejoin:miter;stroke-opacity:1"
         d="m 201.2432,628.65165 c 13.02662,-25.12277 13.02662,-26.10412 13.02662,-26.10412 8.9195,-14.20001 25.70063,-14.42379 34.24577,-8.15861 l 9.69605,15.04628 5.96329,-4.54453 -9.64518,19.80647 -19.65864,3.70493 5.68458,-5.15151 -6.74593,-10.93306 c 0,0 -1.67196,-1.96632 -3.25666,0.23261 l -11.557,23.84577 z"
         id="path4251"
         inkscape:connector-curvature="0"
         sodipodi:nodetypes="cccccccccccc" />
      <path
         style="fill:none;fill-rule:evenodd;stroke:#008000;stroke-width:1px;stroke-linecap:butt;stroke-linejoin:miter;stroke-opacity:1"
         d="m 45.330863,506.19382 65.992517,29.09907 c 11.60498,6.84174 22.17071,4.33022 33.25607,2.59813 l 173.03552,-22.86355"
         id="path4253"
         inkscape:connector-curvature="0"
         sodipodi:nodetypes="cccc" />
      <path
         style="fill:#ffff00;fill-rule:evenodd;stroke:#008000;stroke-width:1px;stroke-linecap:butt;stroke-linejoin:miter;stroke-opacity:1"
         d="m 221.48413,486.96765 0.25981,35.07477"
         id="path4255"
         inkscape:connector-curvature="0"
         sodipodi:nodetypes="cc" />
    </g>
    <g
       aria-label="METAL AMARELO"
       style="font-style:normal;font-weight:normal;line-height:0%;font-family:sans-serif;letter-spacing:0px;word-spacing:0px;fill:#ffff00;fill-opacity:1;stroke:none;stroke-width:1px;stroke-linecap:butt;stroke-linejoin:miter;stroke-opacity:1"
       id="text4922"
       transform="matrix(0.80005579,0,0,0.79165841,71.910872,16.558807)">
      <path
         d="m 539.82642,592.36218 v -52.12402 q 0,-1.77002 0,-3.54004 0.061,-1.77002 0.61035,-15.19775 -4.3335,16.41845 -6.40869,22.88818 l -15.50293,47.97363 h -12.81739 l -15.50293,-47.97363 -6.53076,-22.88818 q 0.73242,14.16015 0.73242,18.73779 v 52.12402 h -15.99121 v -85.99853 h 24.10889 l 15.38086,48.0957 1.34277,4.63867 2.92969,11.53565 3.84522,-13.79395 15.8081,-50.47607 h 23.98682 v 85.99853 z"
         style="font-style:normal;font-variant:normal;font-weight:bold;font-stretch:normal;font-size:125px;line-height:1.25;font-family:'Liberation Sans';-inkscape-font-specification:'Liberation Sans Bold';text-align:center;text-anchor:middle;fill:#ffff00;fill-opacity:1;stroke:none;stroke-opacity:1"
         id="path4496"
         inkscape:connector-curvature="0" />
      <path
         d="m 572.66333,592.36218 v -85.99853 h 67.62695 v 13.91601 H 590.6687 v 21.60645 h 45.89844 v 13.91601 H 590.6687 v 22.64405 h 52.12402 v 13.91601 z"
         style="font-style:normal;font-variant:normal;font-weight:bold;font-stretch:normal;font-size:125px;line-height:1.25;font-family:'Liberation Sans';-inkscape-font-specification:'Liberation Sans Bold';text-align:center;text-anchor:middle;fill:#ffff00;fill-opacity:1;stroke:none;stroke-opacity:1"
         id="path4498"
         inkscape:connector-curvature="0" />
      <path
         d="m 694.97778,520.27966 v 72.08252 h -18.00537 v -72.08252 h -27.77099 v -13.91601 h 73.60839 v 13.91601 z"
         style="font-style:normal;font-variant:normal;font-weight:bold;font-stretch:normal;font-size:125px;line-height:1.25;font-family:'Liberation Sans';-inkscape-font-specification:'Liberation Sans Bold';text-align:center;text-anchor:middle;fill:#ffff00;fill-opacity:1;stroke:none;stroke-opacity:1"
         id="path4500"
         inkscape:connector-curvature="0" />
      <path
         d="m 784.08911,592.36218 -7.62939,-21.97265 h -32.77588 l -7.6294,21.97265 h -18.00537 l 31.37207,-85.99853 h 21.24024 l 31.25,85.99853 z m -24.04785,-72.7539 -0.36621,1.34277 q -0.61035,2.19727 -1.46484,5.00488 -0.8545,2.80762 -10.49805,30.88379 h 24.71924 l -8.48389,-24.71924 -2.62451,-8.30078 z"
         style="font-style:normal;font-variant:normal;font-weight:bold;font-stretch:normal;font-size:125px;line-height:1.25;font-family:'Liberation Sans';-inkscape-font-specification:'Liberation Sans Bold';text-align:center;text-anchor:middle;fill:#ffff00;fill-opacity:1;stroke:none;stroke-opacity:1"
         id="path4502"
         inkscape:connector-curvature="0" />
      <path
         d="m 813.63013,592.36218 v -85.99853 h 18.00537 v 72.08252 h 46.14258 v 13.91601 z"
         style="font-style:normal;font-variant:normal;font-weight:bold;font-stretch:normal;font-size:125px;line-height:1.25;font-family:'Liberation Sans';-inkscape-font-specification:'Liberation Sans Bold';text-align:center;text-anchor:middle;fill:#ffff00;fill-opacity:1;stroke:none;stroke-opacity:1"
         id="path4504"
         inkscape:connector-curvature="0" />
      <path
         d="m 423.85962,748.61218 -7.6294,-21.97265 h -32.77587 l -7.6294,21.97265 h -18.00537 l 31.37207,-85.99853 h 21.24023 l 31.25,85.99853 z m -24.04785,-72.7539 -0.36621,1.34277 q -0.61035,2.19727 -1.46485,5.00488 -0.85449,2.80762 -10.49804,30.88379 h 24.71923 l -8.48388,-24.71924 -2.62451,-8.30078 z"
         style="font-style:normal;font-variant:normal;font-weight:bold;font-stretch:normal;font-size:125px;line-height:1.25;font-family:'Liberation Sans';-inkscape-font-specification:'Liberation Sans Bold';text-align:center;text-anchor:middle;fill:#ffff00;fill-opacity:1;stroke:none;stroke-opacity:1"
         id="path4506"
         inkscape:connector-curvature="0" />
      <path
         d="m 524.81177,748.61218 v -52.12402 q 0,-1.77002 0,-3.54004 0.061,-1.77002 0.61035,-15.19775 -4.3335,16.41845 -6.40869,22.88818 l -15.50293,47.97363 h -12.81738 l -15.50293,-47.97363 -6.53077,-22.88818 q 0.73243,14.16015 0.73243,18.73779 v 52.12402 h -15.99122 v -85.99853 h 24.10889 l 15.38086,48.0957 1.34277,4.63867 2.92969,11.53565 3.84522,-13.79395 15.8081,-50.47607 h 23.98682 v 85.99853 z"
         style="font-style:normal;font-variant:normal;font-weight:bold;font-stretch:normal;font-size:125px;line-height:1.25;font-family:'Liberation Sans';-inkscape-font-specification:'Liberation Sans Bold';text-align:center;text-anchor:middle;fill:#ffff00;fill-opacity:1;stroke:none;stroke-opacity:1"
         id="path4508"
         inkscape:connector-curvature="0" />
      <path
         d="m 618.4397,748.61218 -7.6294,-21.97265 h -32.77588 l -7.62939,21.97265 h -18.00537 l 31.37207,-85.99853 h 21.24023 l 31.25,85.99853 z m -24.04785,-72.7539 -0.36622,1.34277 q -0.61035,2.19727 -1.46484,5.00488 -0.85449,2.80762 -10.49805,30.88379 h 24.71924 l -8.48388,-24.71924 -2.62452,-8.30078 z"
         style="font-style:normal;font-variant:normal;font-weight:bold;font-stretch:normal;font-size:125px;line-height:1.25;font-family:'Liberation Sans';-inkscape-font-specification:'Liberation Sans Bold';text-align:center;text-anchor:middle;fill:#ffff00;fill-opacity:1;stroke:none;stroke-opacity:1"
         id="path4510"
         inkscape:connector-curvature="0" />
      <path
         d="m 707.06274,748.61218 -19.95849,-32.65381 h -21.11817 v 32.65381 h -18.00537 v -85.99853 h 42.96875 q 15.38086,0 23.74268,6.65283 8.36182,6.5918 8.36182,18.98193 0,9.03321 -5.12696,15.625 -5.12695,6.53076 -13.85498,8.60596 l 23.2544,36.13281 z m -2.13623,-59.63135 q 0,-12.39013 -15.86914,-12.39013 h -23.07129 v 25.39062 h 23.55957 q 7.56836,0 11.47461,-3.41797 3.90625,-3.41796 3.90625,-9.58252 z"
         style="font-style:normal;font-variant:normal;font-weight:bold;font-stretch:normal;font-size:125px;line-height:1.25;font-family:'Liberation Sans';-inkscape-font-specification:'Liberation Sans Bold';text-align:center;text-anchor:middle;fill:#ffff00;fill-opacity:1;stroke:none;stroke-opacity:1"
         id="path4512"
         inkscape:connector-curvature="0" />
      <path
         d="m 738.31274,748.61218 v -85.99853 h 67.62696 v 13.91601 h -49.62158 v 21.60645 h 45.89843 v 13.91601 h -45.89843 v 22.64405 h 52.12402 v 13.91601 z"
         style="font-style:normal;font-variant:normal;font-weight:bold;font-stretch:normal;font-size:125px;line-height:1.25;font-family:'Liberation Sans';-inkscape-font-specification:'Liberation Sans Bold';text-align:center;text-anchor:middle;fill:#ffff00;fill-opacity:1;stroke:none;stroke-opacity:1"
         id="path4514"
         inkscape:connector-curvature="0" />
      <path
         d="m 821.80884,748.61218 v -85.99853 h 18.00537 v 72.08252 h 46.14258 v 13.91601 z"
         style="font-style:normal;font-variant:normal;font-weight:bold;font-stretch:normal;font-size:125px;line-height:1.25;font-family:'Liberation Sans';-inkscape-font-specification:'Liberation Sans Bold';text-align:center;text-anchor:middle;fill:#ffff00;fill-opacity:1;stroke:none;stroke-opacity:1"
         id="path4516"
         inkscape:connector-curvature="0" />
      <path
         d="m 981.84302,705.21619 q 0,13.42773 -5.31006,23.6206 -5.31006,10.19287 -15.19775,15.625 -9.8877,5.3711 -23.07129,5.3711 -20.26368,0 -31.79932,-11.90186 -11.47461,-11.96289 -11.47461,-32.71484 0,-20.69092 11.47461,-32.2876 11.47461,-11.59668 31.92139,-11.59668 20.44677,0 31.92138,11.71875 11.53565,11.71875 11.53565,32.16553 z m -18.37158,0 q 0,-13.91602 -6.5918,-21.78955 -6.5918,-7.93457 -18.49365,-7.93457 -12.08496,0 -18.67676,7.87353 -6.5918,7.8125 -6.5918,21.85059 0,14.16015 6.71387,22.33886 6.7749,8.11768 18.43262,8.11768 12.08496,0 18.61572,-7.93457 6.5918,-7.93457 6.5918,-22.52197 z"
         style="font-style:normal;font-variant:normal;font-weight:bold;font-stretch:normal;font-size:125px;line-height:1.25;font-family:'Liberation Sans';-inkscape-font-specification:'Liberation Sans Bold';text-align:center;text-anchor:middle;fill:#ffff00;fill-opacity:1;stroke:none;stroke-opacity:1"
         id="path4518"
         inkscape:connector-curvature="0" />
    </g>
  </g>
</svg>
