<?xml version="1.0" encoding="UTF-8" standalone="no"?>
<!-- Created with Inkscape (http://www.inkscape.org/) -->

<svg
   xmlns:dc="http://purl.org/dc/elements/1.1/"
   xmlns:cc="http://creativecommons.org/ns#"
   xmlns:rdf="http://www.w3.org/1999/02/22-rdf-syntax-ns#"
   xmlns:svg="http://www.w3.org/2000/svg"
   xmlns="http://www.w3.org/2000/svg"
   xmlns:sodipodi="http://sodipodi.sourceforge.net/DTD/sodipodi-0.dtd"
   xmlns:inkscape="http://www.inkscape.org/namespaces/inkscape"
   width="423.33334mm"
   height="79.375mm"
   viewBox="0 0 1500 281.25"
   id="svg4329"
   version="1.1"
   inkscape:version="0.92.1 r15371"
   sodipodi:docname="lata.verde.svg">
  <defs
     id="defs4331" />
  <sodipodi:namedview
     id="base"
     pagecolor="#ffffff"
     bordercolor="#666666"
     borderopacity="1.0"
     inkscape:pageopacity="0.0"
     inkscape:pageshadow="2"
     inkscape:zoom="0.71899471"
     inkscape:cx="840.15867"
     inkscape:cy="62.32586"
     inkscape:document-units="px"
     inkscape:current-layer="layer1"
     showgrid="false"
     inkscape:window-width="1440"
     inkscape:window-height="800"
     inkscape:window-x="0"
     inkscape:window-y="35"
     inkscape:window-maximized="1" />
  <metadata
     id="metadata4334">
    <rdf:RDF>
      <cc:Work
         rdf:about="">
        <dc:format>image/svg+xml</dc:format>
        <dc:type
           rdf:resource="http://purl.org/dc/dcmitype/StillImage" />
        <dc:title />
      </cc:Work>
    </rdf:RDF>
  </metadata>
  <g
     inkscape:label="Camada 1"
     inkscape:groupmode="layer"
     id="layer1"
     transform="translate(-3.1428571,-506.82648)">
    <rect
       style="fill:#65d965;fill-opacity:1;stroke:none;stroke-width:1.09706914;stroke-miterlimit:4;stroke-dasharray:none"
       id="rect4901"
       width="1500"
       height="281.25"
       x="3.1428571"
       y="506.82648" />
    <path
       sodipodi:nodetypes="cccccc"
       inkscape:connector-curvature="0"
       id="path4205"
       d="m 432.49228,607.68017 -64.33351,-30.31322 30.53116,144.80571 c 1.1593,5.91269 4.26419,7.934 7.06977,10.8946 l 47.35037,30.50493 z"
       style="fill:#008000;fill-rule:evenodd;stroke:#808000;stroke-width:0.83592671px;stroke-linecap:butt;stroke-linejoin:miter;stroke-opacity:1" />
    <path
       sodipodi:nodetypes="cccsccc"
       inkscape:connector-curvature="0"
       id="path4203"
       d="m 594.93877,584.94651 -165.95818,21.21999 23.93953,157.49019 c 3.64583,1.02869 8.12796,0.4484 11.73974,-0.20284 42.59681,-7.68071 68.98786,-15.17491 109.0603,-24.14895 4.8685,-1.89146 6.09166,-5.41709 6.65204,-10.27979 z"
       style="fill:#008000;fill-rule:evenodd;stroke:#808000;stroke-width:0.83592671px;stroke-linecap:butt;stroke-linejoin:miter;stroke-opacity:1" />
    <path
       sodipodi:nodetypes="ccccccccccccc"
       inkscape:connector-curvature="0"
       id="path4243"
       d="m 367.43515,546.35147 c -3.26201,0.0571 -5.92123,1.41142 -7.61599,3.41421 0.476,8.82004 0.952,17.64006 1.428,26.4601 1.66289,2.93305 3.44632,3.38004 5.71199,4.90792 l 55.2159,25.39317 c 7.48296,2.48048 17.01541,2.58299 25.70395,1.28033 l 146.13172,-20.69863 c 3.941,-0.7343 6.43533,-2.00905 8.56798,-5.12131 l -2.14199,-23.68607 c -0.72409,-4.43515 -5.30598,-5.73568 -9.04398,-7.46858 l -69.01988,-19.4183 c -5.27721,-1.0809 -10.31331,-0.86472 -15.46996,0 z"
       style="fill:#008000;fill-rule:evenodd;stroke:#808000;stroke-width:0.83592671px;stroke-linecap:butt;stroke-linejoin:miter;stroke-opacity:1" />
    <path
       sodipodi:nodetypes="ccccccccc"
       inkscape:connector-curvature="0"
       id="path4245"
       d="m 380.17685,550.172 c 15.03927,6.51723 30.07852,11.93059 45.11778,17.89588 8.04928,3.08207 15.79075,3.26651 23.68612,2.41609 l 123.2484,-14.04221 c 4.8554,-0.0958 11.44513,-2.87964 5.75859,-4.42428 L 521.7234,534.70684 c -3.93875,-0.60965 -8.41613,-0.59839 -12.97046,0.24077 l -124.20986,12.42816 c -1.89607,0.42407 -4.31799,1.23333 -4.36623,2.79623 z"
       style="fill:#008000;fill-rule:evenodd;stroke:#808000;stroke-width:0.83592671px;stroke-linecap:butt;stroke-linejoin:miter;stroke-opacity:1" />
    <path
       sodipodi:nodetypes="cccccccccccc"
       inkscape:connector-curvature="0"
       id="path4247"
       d="M 521.97994,690.21632 500.1669,694.595 c -11.65906,0.6702 -20.67416,-5.87002 -17.79145,-20.50961 l 7.42827,-14.797 -5.51478,-2.24114 17.99143,-2.53745 10.14286,12.66424 -6.05063,-2.36676 -6.27096,11.57293 c -0.0853,1.74882 0.99398,1.40912 2.05361,1.10474 l 19.49419,-3.28737 z"
       style="fill:#ffffff;fill-rule:evenodd;stroke:#808000;stroke-width:0.83592671px;stroke-linecap:butt;stroke-linejoin:miter;stroke-opacity:1" />
    <path
       sodipodi:nodetypes="cccccccccccc"
       inkscape:connector-curvature="0"
       id="path4249"
       d="m 554.06095,641.92229 -15.17626,10.91697 9.35135,13.44101 c 1.28132,1.23525 1.5618,2.35085 -1.53271,3.06298 l -10.78887,1.92659 -0.47597,-5.82002 -8.55985,16.01392 8.33951,11.85583 0.20537,-5.58222 16.01805,-3.62396 c 7.14691,-3.30952 17.81908,-12.24908 13.83933,-25.63342 z"
       style="fill:#ffffff;fill-rule:evenodd;stroke:#808000;stroke-width:0.83592671px;stroke-linecap:butt;stroke-linejoin:miter;stroke-opacity:1" />
    <path
       sodipodi:nodetypes="cccccccccccc"
       inkscape:connector-curvature="0"
       id="path4251"
       d="m 497.43197,646.77661 c 11.50014,-19.88532 11.50014,-20.66208 11.50014,-20.66208 7.8743,-11.23968 22.68899,-11.41681 30.2328,-6.45775 l 8.55985,11.90951 5.2645,-3.59711 -8.51494,15.67734 -17.35501,2.93254 5.01845,-4.07755 -5.95543,-8.65379 c 0,0 -1.47603,-1.5564 -2.87504,0.18411 l -10.20273,18.87455 z"
       style="fill:#ffffff;fill-rule:evenodd;stroke:#808000;stroke-width:0.83592671px;stroke-linecap:butt;stroke-linejoin:miter;stroke-opacity:1" />
    <path
       sodipodi:nodetypes="cccc"
       inkscape:connector-curvature="0"
       id="path4253"
       d="m 359.7897,549.84808 58.25941,23.03266 c 10.24509,5.41542 19.57271,3.42748 29.35907,2.05649 L 600.1671,556.84014"
       style="fill:none;fill-rule:evenodd;stroke:#808000;stroke-width:0.83592671px;stroke-linecap:butt;stroke-linejoin:miter;stroke-opacity:1" />
    <path
       sodipodi:nodetypes="cc"
       inkscape:connector-curvature="0"
       id="path4255"
       d="m 515.30104,534.63007 0.22937,27.76258"
       style="fill:#008000;fill-rule:evenodd;stroke:#808000;stroke-width:0.83592671px;stroke-linecap:butt;stroke-linejoin:miter;stroke-opacity:1" />
    <g
       aria-label="VERDE VIDRO  "
       style="font-style:normal;font-weight:normal;line-height:0%;font-family:sans-serif;letter-spacing:0px;word-spacing:0px;fill:#008000;fill-opacity:1;stroke:none;stroke-width:1px;stroke-linecap:butt;stroke-linejoin:miter;stroke-opacity:1"
       id="text4922"
       transform="matrix(0.88281836,0,0,0.79152587,319.77078,149.18258)">
      <path
         d="m 518.71204,590.45416 h -18.24952 l -31.79931,-85.99853 h 18.79883 l 17.70019,55.23681 q 1.64795,5.3711 4.5166,16.23536 l 1.28174,-5.24903 3.11279,-10.98633 17.63916,-55.23681 h 18.61573 z"
         style="font-style:normal;font-variant:normal;font-weight:bold;font-stretch:normal;font-size:125px;line-height:1.25;font-family:'Liberation Sans';-inkscape-font-specification:'Liberation Sans Bold';text-align:center;text-anchor:middle;fill:#008000;fill-opacity:1;stroke:none"
         id="path4496"
         inkscape:connector-curvature="0" />
      <path
         d="m 559.66663,590.45416 v -85.99853 h 67.62695 v 13.91601 H 577.672 v 21.60645 h 45.89843 V 553.8941 H 577.672 v 22.64405 h 52.12402 v 13.91601 z"
         style="font-style:normal;font-variant:normal;font-weight:bold;font-stretch:normal;font-size:125px;line-height:1.25;font-family:'Liberation Sans';-inkscape-font-specification:'Liberation Sans Bold';text-align:center;text-anchor:middle;fill:#008000;fill-opacity:1;stroke:none"
         id="path4498"
         inkscape:connector-curvature="0" />
      <path
         d="m 702.24475,590.45416 -19.9585,-32.65381 h -21.11816 v 32.65381 h -18.00537 v -85.99853 h 42.96875 q 15.38086,0 23.74268,6.65283 8.36181,6.5918 8.36181,18.98193 0,9.03321 -5.12695,15.625 -5.12695,6.53076 -13.85498,8.60596 l 23.25439,36.13281 z m -2.13623,-59.63135 q 0,-12.39013 -15.86914,-12.39013 h -23.07129 v 25.39062 h 23.55957 q 7.56836,0 11.47461,-3.41797 3.90625,-3.41796 3.90625,-9.58252 z"
         style="font-style:normal;font-variant:normal;font-weight:bold;font-stretch:normal;font-size:125px;line-height:1.25;font-family:'Liberation Sans';-inkscape-font-specification:'Liberation Sans Bold';text-align:center;text-anchor:middle;fill:#008000;fill-opacity:1;stroke:none"
         id="path4500"
         inkscape:connector-curvature="0" />
      <path
         d="m 810.15491,546.81403 q 0,13.30566 -5.24903,23.25439 -5.18798,9.8877 -14.7705,15.13672 -9.52149,5.24902 -21.85059,5.24902 h -34.79004 v -85.99853 h 31.12793 q 21.72852,0 33.63037,10.98633 11.90186,10.92529 11.90186,31.37207 z m -18.12744,0 q 0,-13.85498 -7.20215,-21.11817 -7.20215,-7.32422 -20.56885,-7.32422 h -12.75635 v 58.16651 h 15.25879 q 11.59668,0 18.43262,-7.99561 6.83594,-7.9956 6.83594,-21.72851 z"
         style="font-style:normal;font-variant:normal;font-weight:bold;font-stretch:normal;font-size:125px;line-height:1.25;font-family:'Liberation Sans';-inkscape-font-specification:'Liberation Sans Bold';text-align:center;text-anchor:middle;fill:#008000;fill-opacity:1;stroke:none"
         id="path4502"
         inkscape:connector-curvature="0" />
      <path
         d="m 823.82678,590.45416 v -85.99853 h 67.62696 v 13.91601 h -49.62159 v 21.60645 h 45.89844 v 13.91601 h -45.89844 v 22.64405 h 52.12403 v 13.91601 z"
         style="font-style:normal;font-variant:normal;font-weight:bold;font-stretch:normal;font-size:125px;line-height:1.25;font-family:'Liberation Sans';-inkscape-font-specification:'Liberation Sans Bold';text-align:center;text-anchor:middle;fill:#008000;fill-opacity:1;stroke:none"
         id="path4504"
         inkscape:connector-curvature="0" />
      <path
         d="m 536.29016,746.70416 h -18.24951 l -31.79932,-85.99853 h 18.79883 l 17.7002,55.23681 q 1.64795,5.3711 4.5166,16.23536 l 1.28174,-5.24903 3.11279,-10.98633 17.63916,-55.23681 h 18.61572 z"
         style="font-style:normal;font-variant:normal;font-weight:bold;font-stretch:normal;font-size:125px;line-height:1.25;font-family:'Liberation Sans';-inkscape-font-specification:'Liberation Sans Bold';text-align:center;text-anchor:middle;fill:#008000;fill-opacity:1;stroke:none"
         id="path4506"
         inkscape:connector-curvature="0" />
      <path
         d="m 577.24475,746.70416 v -85.99853 h 18.00537 v 85.99853 z"
         style="font-style:normal;font-variant:normal;font-weight:bold;font-stretch:normal;font-size:125px;line-height:1.25;font-family:'Liberation Sans';-inkscape-font-specification:'Liberation Sans Bold';text-align:center;text-anchor:middle;fill:#008000;fill-opacity:1;stroke:none"
         id="path4508"
         inkscape:connector-curvature="0" />
      <path
         d="m 688.57288,703.06403 q 0,13.30566 -5.24903,23.25439 -5.18799,9.8877 -14.77051,15.13672 -9.52148,5.24902 -21.85058,5.24902 h -34.79004 v -85.99853 h 31.12793 q 21.72852,0 33.63037,10.98633 11.90186,10.92529 11.90186,31.37207 z m -18.12745,0 q 0,-13.85498 -7.20214,-21.11817 -7.20215,-7.32422 -20.56885,-7.32422 h -12.75635 v 58.16651 h 15.25879 q 11.59668,0 18.43262,-7.99561 6.83593,-7.9956 6.83593,-21.72851 z"
         style="font-style:normal;font-variant:normal;font-weight:bold;font-stretch:normal;font-size:125px;line-height:1.25;font-family:'Liberation Sans';-inkscape-font-specification:'Liberation Sans Bold';text-align:center;text-anchor:middle;fill:#008000;fill-opacity:1;stroke:none"
         id="path4510"
         inkscape:connector-curvature="0" />
      <path
         d="m 761.32678,746.70416 -19.95849,-32.65381 h -21.11817 v 32.65381 h -18.00537 v -85.99853 h 42.96875 q 15.38086,0 23.74268,6.65283 8.36181,6.5918 8.36181,18.98193 0,9.03321 -5.12695,15.625 -5.12695,6.53076 -13.85498,8.60596 l 23.25439,36.13281 z m -2.13623,-59.63135 q 0,-12.39013 -15.86914,-12.39013 h -23.07129 v 25.39062 h 23.55957 q 7.56836,0 11.47461,-3.41797 3.90625,-3.41796 3.90625,-9.58252 z"
         style="font-style:normal;font-variant:normal;font-weight:bold;font-stretch:normal;font-size:125px;line-height:1.25;font-family:'Liberation Sans';-inkscape-font-specification:'Liberation Sans Bold';text-align:center;text-anchor:middle;fill:#008000;fill-opacity:1;stroke:none"
         id="path4512"
         inkscape:connector-curvature="0" />
      <path
         d="m 876.19495,703.30817 q 0,13.42773 -5.31006,23.6206 -5.31006,10.19287 -15.19776,15.625 -9.88769,5.3711 -23.07129,5.3711 -20.26367,0 -31.79931,-11.90186 -11.47461,-11.96289 -11.47461,-32.71484 0,-20.69092 11.47461,-32.2876 11.47461,-11.59668 31.92139,-11.59668 20.44677,0 31.92138,11.71875 11.53565,11.71875 11.53565,32.16553 z m -18.37159,0 q 0,-13.91602 -6.59179,-21.78955 -6.5918,-7.93457 -18.49365,-7.93457 -12.08497,0 -18.67676,7.87353 -6.5918,7.8125 -6.5918,21.85059 0,14.16015 6.71387,22.33886 6.7749,8.11768 18.43261,8.11768 12.08497,0 18.61573,-7.93457 6.59179,-7.93457 6.59179,-22.52197 z"
         style="font-style:normal;font-variant:normal;font-weight:bold;font-stretch:normal;font-size:125px;line-height:1.25;font-family:'Liberation Sans';-inkscape-font-specification:'Liberation Sans Bold';text-align:center;text-anchor:middle;fill:#008000;fill-opacity:1;stroke:none"
         id="path4514"
         inkscape:connector-curvature="0" />
    </g>
  </g>
</svg>
