<?xml version="1.0" encoding="UTF-8" standalone="no"?>
<!-- Created with Inkscape (http://www.inkscape.org/) -->

<svg
   xmlns:dc="http://purl.org/dc/elements/1.1/"
   xmlns:cc="http://creativecommons.org/ns#"
   xmlns:rdf="http://www.w3.org/1999/02/22-rdf-syntax-ns#"
   xmlns:svg="http://www.w3.org/2000/svg"
   xmlns="http://www.w3.org/2000/svg"
   xmlns:sodipodi="http://sodipodi.sourceforge.net/DTD/sodipodi-0.dtd"
   xmlns:inkscape="http://www.inkscape.org/namespaces/inkscape"
   width="423.33334mm"
   height="79.375mm"
   viewBox="0 0 1500 281.25"
   id="svg4329"
   version="1.1"
   inkscape:version="0.92.1 r15371"
   sodipodi:docname="lata.laranja.svg">
  <defs
     id="defs4331" />
  <sodipodi:namedview
     id="base"
     pagecolor="#ffffff"
     bordercolor="#666666"
     borderopacity="1.0"
     inkscape:pageopacity="0.0"
     inkscape:pageshadow="2"
     inkscape:zoom="0.71899471"
     inkscape:cx="658.23711"
     inkscape:cy="62.32586"
     inkscape:document-units="px"
     inkscape:current-layer="layer1"
     showgrid="false"
     inkscape:window-width="1440"
     inkscape:window-height="800"
     inkscape:window-x="0"
     inkscape:window-y="35"
     inkscape:window-maximized="1"
     showguides="true"
     inkscape:guide-bbox="true" />
  <metadata
     id="metadata4334">
    <rdf:RDF>
      <cc:Work
         rdf:about="">
        <dc:format>image/svg+xml</dc:format>
        <dc:type
           rdf:resource="http://purl.org/dc/dcmitype/StillImage" />
        <dc:title />
      </cc:Work>
    </rdf:RDF>
  </metadata>
  <g
     inkscape:label="Camada 1"
     inkscape:groupmode="layer"
     id="layer1"
     transform="translate(-3.1428571,-506.82648)">
    <rect
       style="fill:#65d965;fill-opacity:1;stroke:none;stroke-width:1.09706914;stroke-miterlimit:4;stroke-dasharray:none"
       id="rect4901"
       width="1500"
       height="281.25"
       x="3.1428571"
       y="506.82648" />
    <g
       aria-label="LARANJA RESÃDUOS  PERIGOSOS"
       style="font-style:normal;font-weight:normal;line-height:0%;font-family:sans-serif;letter-spacing:0px;word-spacing:0px;fill:#ff6400;fill-opacity:1;stroke:none;stroke-width:1px;stroke-linecap:butt;stroke-linejoin:miter;stroke-opacity:1"
       id="text4922"
       transform="matrix(0.80271666,0,0,0.72053437,323.38617,198.2755)">
      <path
         d="m 392.57361,547.43005 v -85.99853 h 18.00537 v 72.08252 h 46.14258 v 13.91601 z"
         style="font-style:normal;font-variant:normal;font-weight:bold;font-stretch:normal;font-size:125px;line-height:1.25;font-family:'Liberation Sans';-inkscape-font-specification:'Liberation Sans Bold';text-align:center;text-anchor:middle;fill:#ff6400;fill-opacity:1;stroke:none"
         id="path4500"
         inkscape:connector-curvature="0" />
      <path
         d="m 529.78064,547.43005 -7.62939,-21.97265 h -32.77588 l -7.6294,21.97265 H 463.7406 l 31.37207,-85.99853 h 21.24024 l 31.25,85.99853 z m -24.04785,-72.7539 -0.36621,1.34277 q -0.61035,2.19727 -1.46485,5.00488 -0.85449,2.80762 -10.49804,30.88379 h 24.71923 l -8.48388,-24.71924 -2.62451,-8.30078 z"
         style="font-style:normal;font-variant:normal;font-weight:bold;font-stretch:normal;font-size:125px;line-height:1.25;font-family:'Liberation Sans';-inkscape-font-specification:'Liberation Sans Bold';text-align:center;text-anchor:middle;fill:#ff6400;fill-opacity:1;stroke:none"
         id="path4502"
         inkscape:connector-curvature="0" />
      <path
         d="m 618.40369,547.43005 -19.9585,-32.6538 h -21.11816 v 32.6538 h -18.00537 v -85.99853 h 42.96875 q 15.38085,0 23.74267,6.65283 8.36182,6.5918 8.36182,18.98193 0,9.03321 -5.12696,15.625 -5.12695,6.53077 -13.85498,8.60596 l 23.2544,36.13281 z m -2.13623,-59.63134 q 0,-12.39014 -15.86914,-12.39014 h -23.07129 v 25.39062 h 23.55957 q 7.56836,0 11.47461,-3.41796 3.90625,-3.41797 3.90625,-9.58252 z"
         style="font-style:normal;font-variant:normal;font-weight:bold;font-stretch:normal;font-size:125px;line-height:1.25;font-family:'Liberation Sans';-inkscape-font-specification:'Liberation Sans Bold';text-align:center;text-anchor:middle;fill:#ff6400;fill-opacity:1;stroke:none"
         id="path4504"
         inkscape:connector-curvature="0" />
      <path
         d="m 710.4447,547.43005 -7.62939,-21.97265 h -32.77588 l -7.6294,21.97265 h -18.00537 l 31.37207,-85.99853 h 21.24024 l 31.25,85.99853 z m -24.04785,-72.7539 -0.36621,1.34277 q -0.61035,2.19727 -1.46484,5.00488 -0.8545,2.80762 -10.49805,30.88379 h 24.71924 l -8.48389,-24.71924 -2.62451,-8.30078 z"
         style="font-style:normal;font-variant:normal;font-weight:bold;font-stretch:normal;font-size:125px;line-height:1.25;font-family:'Liberation Sans';-inkscape-font-specification:'Liberation Sans Bold';text-align:center;text-anchor:middle;fill:#ff6400;fill-opacity:1;stroke:none"
         id="path4506"
         inkscape:connector-curvature="0" />
      <path
         d="M 792.35388,547.43005 754.8783,481.20691 q 1.09863,9.64355 1.09863,15.50293 v 50.72021 h -15.99121 v -85.99853 h 20.56885 l 38.0249,66.77246 q -1.09864,-9.21631 -1.09864,-16.78467 v -49.98779 h 15.99122 v 85.99853 z"
         style="font-style:normal;font-variant:normal;font-weight:bold;font-stretch:normal;font-size:125px;line-height:1.25;font-family:'Liberation Sans';-inkscape-font-specification:'Liberation Sans Bold';text-align:center;text-anchor:middle;fill:#ff6400;fill-opacity:1;stroke:none"
         id="path4508"
         inkscape:connector-curvature="0" />
      <path
         d="m 853.93835,548.65076 q -13.36669,0 -20.56884,-5.79834 -7.14112,-5.79834 -9.52149,-18.7378 l 17.8833,-2.62451 q 1.09864,6.65283 4.08936,9.8877 2.99072,3.17383 8.23974,3.17383 5.3711,0 8.11768,-3.60108 2.80762,-3.60107 2.80762,-10.31494 v -45.10498 h -17.15088 v -14.09912 h 35.09521 v 58.77685 q 0,13.42774 -7.62939,20.93506 -7.6294,7.50733 -21.36231,7.50733 z"
         style="font-style:normal;font-variant:normal;font-weight:bold;font-stretch:normal;font-size:125px;line-height:1.25;font-family:'Liberation Sans';-inkscape-font-specification:'Liberation Sans Bold';text-align:center;text-anchor:middle;fill:#ff6400;fill-opacity:1;stroke:none"
         id="path4510"
         inkscape:connector-curvature="0" />
      <path
         d="m 960.68884,547.43005 -7.62939,-21.97265 h -32.77588 l -7.6294,21.97265 H 894.6488 l 31.37207,-85.99853 h 21.24024 l 31.25,85.99853 z m -24.04785,-72.7539 -0.36621,1.34277 q -0.61035,2.19727 -1.46484,5.00488 -0.8545,2.80762 -10.49805,30.88379 h 24.71924 l -8.48389,-24.71924 -2.62451,-8.30078 z"
         style="font-style:normal;font-variant:normal;font-weight:bold;font-stretch:normal;font-size:125px;line-height:1.25;font-family:'Liberation Sans';-inkscape-font-specification:'Liberation Sans Bold';text-align:center;text-anchor:middle;fill:#ff6400;fill-opacity:1;stroke:none"
         id="path4512"
         inkscape:connector-curvature="0" />
      <path
         d="m 496.40417,672.15365 -14.37011,-23.51074 h -15.20508 v 23.51074 H 453.86511 V 610.2347 h 30.9375 q 11.07422,0 17.09473,4.79004 6.02051,4.7461 6.02051,13.66699 0,6.50391 -3.69141,11.25 -3.69141,4.70215 -9.97559,6.19629 l 16.74317,26.01563 z m -1.53808,-42.93457 q 0,-8.9209 -11.42578,-8.9209 h -16.61133 v 18.28125 h 16.96289 q 5.44922,0 8.26172,-2.46094 2.8125,-2.46093 2.8125,-6.89941 z"
         style="font-style:normal;font-variant:normal;font-weight:bold;font-stretch:normal;font-size:90px;line-height:1.25;font-family:'Liberation Sans';-inkscape-font-specification:'Liberation Sans Bold';text-align:center;text-anchor:middle;fill:#ff6400;fill-opacity:1;stroke:none"
         id="path4514"
         inkscape:connector-curvature="0" />
      <path
         d="M 518.90417,672.15365 V 610.2347 h 48.69141 v 10.01953 h -35.72754 v 15.55665 h 33.04688 v 10.01953 h -33.04688 v 16.30371 h 37.5293 v 10.01953 z"
         style="font-style:normal;font-variant:normal;font-weight:bold;font-stretch:normal;font-size:90px;line-height:1.25;font-family:'Liberation Sans';-inkscape-font-specification:'Liberation Sans Bold';text-align:center;text-anchor:middle;fill:#ff6400;fill-opacity:1;stroke:none"
         id="path4516"
         inkscape:connector-curvature="0" />
      <path
         d="m 629.51453,654.31185 q 0,9.09668 -6.76758,13.93067 -6.72363,4.79004 -19.77539,4.79004 -11.90918,0 -18.67676,-4.21875 -6.76758,-4.21875 -8.70117,-12.78809 l 12.52441,-2.06543 q 1.27442,4.92187 4.96582,7.16309 3.69141,2.19726 10.23926,2.19726 13.5791,0 13.5791,-8.26172 0,-2.63672 -1.58203,-4.35058 -1.53809,-1.71387 -4.39453,-2.85645 -2.8125,-1.14258 -10.85449,-2.76855 -6.94336,-1.62598 -9.66797,-2.59278 -2.72461,-1.01074 -4.92188,-2.3291 -2.19726,-1.3623 -3.73535,-3.25195 -1.53808,-1.88965 -2.41699,-4.43848 -0.83496,-2.54883 -0.83496,-5.84472 0,-8.39356 6.28418,-12.83204 6.32812,-4.48242 18.36914,-4.48242 11.51367,0 17.27051,3.60352 5.80078,3.60351 7.4707,11.90918 l -12.56836,1.71386 q -0.9668,-3.99902 -3.95508,-6.0205 -2.94433,-2.02149 -8.48144,-2.02149 -11.77735,0 -11.77735,7.38281 0,2.417 1.23047,3.95508 1.27442,1.53809 3.73535,2.63672 2.46094,1.05469 9.97559,2.68067 8.9209,1.88964 12.74414,3.51562 3.86719,1.58203 6.1084,3.73535 2.24121,2.10938 3.42773,5.09766 1.18653,2.94433 1.18653,6.81152 z"
         style="font-style:normal;font-variant:normal;font-weight:bold;font-stretch:normal;font-size:90px;line-height:1.25;font-family:'Liberation Sans';-inkscape-font-specification:'Liberation Sans Bold';text-align:center;text-anchor:middle;fill:#ff6400;fill-opacity:1;stroke:none"
         id="path4518"
         inkscape:connector-curvature="0" />
      <path
         d="M 639.13855,672.15365 V 610.2347 h 12.96387 v 61.91895 z m -1.4502,-67.23633 v -1.3623 l 11.07422,-11.16211 h 11.33789 v 1.88965 l -14.9414,10.63476 z"
         style="font-style:normal;font-variant:normal;font-weight:bold;font-stretch:normal;font-size:90px;line-height:1.25;font-family:'Liberation Sans';-inkscape-font-specification:'Liberation Sans Bold';text-align:center;text-anchor:middle;fill:#ff6400;fill-opacity:1;stroke:none"
         id="path4520"
         inkscape:connector-curvature="0" />
      <path
         d="m 719.2948,640.73275 q 0,9.58008 -3.7793,16.74316 -3.73535,7.11915 -10.63476,10.89844 -6.85547,3.7793 -15.73242,3.7793 H 664.09949 V 610.2347 h 22.41211 q 15.64453,0 24.21386,7.91016 8.56934,7.86621 8.56934,22.58789 z m -13.05176,0 q 0,-9.97559 -5.18554,-15.20508 -5.18555,-5.27344 -14.80958,-5.27344 h -9.18457 v 41.87989 h 10.98633 q 8.34961,0 13.27149,-5.75684 4.92187,-5.75683 4.92187,-15.64453 z"
         style="font-style:normal;font-variant:normal;font-weight:bold;font-stretch:normal;font-size:90px;line-height:1.25;font-family:'Liberation Sans';-inkscape-font-specification:'Liberation Sans Bold';text-align:center;text-anchor:middle;fill:#ff6400;fill-opacity:1;stroke:none"
         id="path4522"
         inkscape:connector-curvature="0" />
      <path
         d="m 754.8905,673.03256 q -12.78808,0 -19.59961,-6.24024 -6.76757,-6.24023 -6.76757,-17.8418 V 610.2347 h 12.96386 v 37.70508 q 0,7.33887 3.47168,11.16211 3.51563,3.7793 10.28321,3.7793 6.94335,0 10.67871,-3.95508 3.73535,-3.99902 3.73535,-11.42578 V 610.2347 H 782.62 v 38.05664 q 0,11.77735 -7.29493,18.28125 -7.25097,6.45997 -20.43457,6.45997 z"
         style="font-style:normal;font-variant:normal;font-weight:bold;font-stretch:normal;font-size:90px;line-height:1.25;font-family:'Liberation Sans';-inkscape-font-specification:'Liberation Sans Bold';text-align:center;text-anchor:middle;fill:#ff6400;fill-opacity:1;stroke:none"
         id="path4524"
         inkscape:connector-curvature="0" />
      <path
         d="m 854.38269,640.90853 q 0,9.66797 -3.82324,17.00684 -3.82324,7.33886 -10.94238,11.25 -7.11915,3.86719 -16.61133,3.86719 -14.58985,0 -22.89551,-8.56934 -8.26172,-8.61328 -8.26172,-23.55469 0,-14.89746 8.26172,-23.24707 8.26172,-8.34961 22.9834,-8.34961 14.72168,0 22.9834,8.4375 8.30566,8.4375 8.30566,23.15918 z m -13.22754,0 q 0,-10.01953 -4.74609,-15.68847 -4.7461,-5.7129 -13.31543,-5.7129 -8.70117,0 -13.44727,5.66895 -4.74609,5.625 -4.74609,15.73242 0,10.19531 4.83398,16.08399 4.87793,5.84472 13.27149,5.84472 8.70117,0 13.40332,-5.71289 4.74609,-5.71289 4.74609,-16.21582 z"
         style="font-style:normal;font-variant:normal;font-weight:bold;font-stretch:normal;font-size:90px;line-height:1.25;font-family:'Liberation Sans';-inkscape-font-specification:'Liberation Sans Bold';text-align:center;text-anchor:middle;fill:#ff6400;fill-opacity:1;stroke:none"
         id="path4526"
         inkscape:connector-curvature="0" />
      <path
         d="m 914.63171,654.31185 q 0,9.09668 -6.76757,13.93067 -6.72364,4.79004 -19.77539,4.79004 -11.90918,0 -18.67676,-4.21875 -6.76758,-4.21875 -8.70117,-12.78809 l 12.52441,-2.06543 q 1.27441,4.92187 4.96582,7.16309 3.69141,2.19726 10.23926,2.19726 13.5791,0 13.5791,-8.26172 0,-2.63672 -1.58203,-4.35058 -1.53809,-1.71387 -4.39453,-2.85645 -2.8125,-1.14258 -10.8545,-2.76855 -6.94335,-1.62598 -9.66796,-2.59278 -2.72461,-1.01074 -4.92188,-2.3291 -2.19726,-1.3623 -3.73535,-3.25195 -1.53809,-1.88965 -2.41699,-4.43848 -0.83496,-2.54883 -0.83496,-5.84472 0,-8.39356 6.28418,-12.83204 6.32812,-4.48242 18.36914,-4.48242 11.51367,0 17.2705,3.60352 5.80079,3.60351 7.47071,11.90918 l -12.56836,1.71386 q -0.9668,-3.99902 -3.95508,-6.0205 -2.94434,-2.02149 -8.48145,-2.02149 -11.77734,0 -11.77734,7.38281 0,2.417 1.23047,3.95508 1.27441,1.53809 3.73535,2.63672 2.46094,1.05469 9.97559,2.68067 8.9209,1.88964 12.74414,3.51562 3.86719,1.58203 6.1084,3.73535 2.24121,2.10938 3.42773,5.09766 1.18652,2.94433 1.18652,6.81152 z"
         style="font-style:normal;font-variant:normal;font-weight:bold;font-stretch:normal;font-size:90px;line-height:1.25;font-family:'Liberation Sans';-inkscape-font-specification:'Liberation Sans Bold';text-align:center;text-anchor:middle;fill:#ff6400;fill-opacity:1;stroke:none"
         id="path4528"
         inkscape:connector-curvature="0" />
      <path
         d="m 469.81726,742.33431 q 0,5.97657 -2.72461,10.67871 -2.72461,4.70215 -7.82226,7.29493 -5.05372,2.54882 -12.04102,2.54882 h -15.38086 v 21.79688 H 418.88464 V 722.7347 h 27.81739 q 11.11816,0 17.09472,5.14161 6.02051,5.09765 6.02051,14.458 z m -13.05176,0.21973 q 0,-9.75586 -11.51367,-9.75586 h -13.40332 v 20.08301 h 13.75488 q 5.36133,0 8.26172,-2.63672 2.90039,-2.68066 2.90039,-7.69043 z"
         style="font-style:normal;font-variant:normal;font-weight:bold;font-stretch:normal;font-size:90px;line-height:1.25;font-family:'Liberation Sans';-inkscape-font-specification:'Liberation Sans Bold';text-align:center;text-anchor:middle;fill:#ff6400;fill-opacity:1;stroke:none"
         id="path4530"
         inkscape:connector-curvature="0" />
      <path
         d="M 479.00183,784.65365 V 722.7347 h 48.69141 v 10.01953 H 491.9657 v 15.55665 h 33.04687 v 10.01953 H 491.9657 v 16.30371 h 37.5293 v 10.01953 z"
         style="font-style:normal;font-variant:normal;font-weight:bold;font-stretch:normal;font-size:90px;line-height:1.25;font-family:'Liberation Sans';-inkscape-font-specification:'Liberation Sans Bold';text-align:center;text-anchor:middle;fill:#ff6400;fill-opacity:1;stroke:none"
         id="path4532"
         inkscape:connector-curvature="0" />
      <path
         d="m 581.65808,784.65365 -14.37012,-23.51074 h -15.20507 v 23.51074 H 539.11902 V 722.7347 h 30.9375 q 11.07422,0 17.09473,4.79004 6.0205,4.7461 6.0205,13.66699 0,6.50391 -3.6914,11.25 -3.69141,4.70215 -9.97559,6.19629 l 16.74316,26.01563 z M 580.12,741.71908 q 0,-8.9209 -11.42579,-8.9209 h -16.61132 v 18.28125 h 16.96289 q 5.44922,0 8.26172,-2.46094 2.8125,-2.46093 2.8125,-6.89941 z"
         style="font-style:normal;font-variant:normal;font-weight:bold;font-stretch:normal;font-size:90px;line-height:1.25;font-family:'Liberation Sans';-inkscape-font-specification:'Liberation Sans Bold';text-align:center;text-anchor:middle;fill:#ff6400;fill-opacity:1;stroke:none"
         id="path4534"
         inkscape:connector-curvature="0" />
      <path
         d="M 604.15808,784.65365 V 722.7347 h 12.96387 v 61.91895 z"
         style="font-style:normal;font-variant:normal;font-weight:bold;font-stretch:normal;font-size:90px;line-height:1.25;font-family:'Liberation Sans';-inkscape-font-specification:'Liberation Sans Bold';text-align:center;text-anchor:middle;fill:#ff6400;fill-opacity:1;stroke:none"
         id="path4536"
         inkscape:connector-curvature="0" />
      <path
         d="m 658.51843,775.38119 q 5.05371,0 9.79981,-1.4502 4.74609,-1.49414 7.33886,-3.77929 v -8.56934 h -15.11718 v -9.58008 h 26.98242 v 22.76367 q -4.92188,5.05371 -12.83203,7.91016 -7.86621,2.85645 -16.52344,2.85645 -15.11719,0 -23.24707,-8.34961 -8.12988,-8.39356 -8.12988,-23.77442 0,-15.29297 8.17383,-23.42285 8.17382,-8.17383 23.51074,-8.17383 21.79687,0 27.72949,16.12793 l -11.95313,3.60352 q -1.93359,-4.70215 -6.06445,-7.11914 -4.13086,-2.417 -9.71191,-2.417 -9.14063,0 -13.88672,5.53711 -4.7461,5.53711 -4.7461,15.86426 0,10.50293 4.87793,16.25977 4.92188,5.71289 13.79883,5.71289 z"
         style="font-style:normal;font-variant:normal;font-weight:bold;font-stretch:normal;font-size:90px;line-height:1.25;font-family:'Liberation Sans';-inkscape-font-specification:'Liberation Sans Bold';text-align:center;text-anchor:middle;fill:#ff6400;fill-opacity:1;stroke:none"
         id="path4538"
         inkscape:connector-curvature="0" />
      <path
         d="m 759.28503,753.40853 q 0,9.66797 -3.82324,17.00684 -3.82324,7.33886 -10.94238,11.25 -7.11914,3.86719 -16.61133,3.86719 -14.58984,0 -22.89551,-8.56934 -8.26172,-8.61328 -8.26172,-23.55469 0,-14.89746 8.26172,-23.24707 8.26172,-8.34961 22.9834,-8.34961 14.72168,0 22.9834,8.4375 8.30566,8.4375 8.30566,23.15918 z m -13.22753,0 q 0,-10.01953 -4.7461,-15.68847 -4.74609,-5.7129 -13.31543,-5.7129 -8.70117,0 -13.44726,5.66895 -4.7461,5.625 -4.7461,15.73242 0,10.19531 4.83399,16.08399 4.87793,5.84472 13.27148,5.84472 8.70117,0 13.40332,-5.71289 4.7461,-5.71289 4.7461,-16.21582 z"
         style="font-style:normal;font-variant:normal;font-weight:bold;font-stretch:normal;font-size:90px;line-height:1.25;font-family:'Liberation Sans';-inkscape-font-specification:'Liberation Sans Bold';text-align:center;text-anchor:middle;fill:#ff6400;fill-opacity:1;stroke:none"
         id="path4540"
         inkscape:connector-curvature="0" />
      <path
         d="m 819.53406,766.81185 q 0,9.09668 -6.76758,13.93067 -6.72363,4.79004 -19.77539,4.79004 -11.90918,0 -18.67676,-4.21875 -6.76758,-4.21875 -8.70117,-12.78809 l 12.52441,-2.06543 q 1.27442,4.92187 4.96582,7.16309 3.69141,2.19726 10.23926,2.19726 13.5791,0 13.5791,-8.26172 0,-2.63672 -1.58203,-4.35058 -1.53808,-1.71387 -4.39453,-2.85645 -2.8125,-1.14258 -10.85449,-2.76855 -6.94336,-1.62598 -9.66797,-2.59278 -2.72461,-1.01074 -4.92188,-2.3291 -2.19726,-1.3623 -3.73535,-3.25195 -1.53808,-1.88965 -2.41699,-4.43848 -0.83496,-2.54883 -0.83496,-5.84472 0,-8.39356 6.28418,-12.83204 6.32812,-4.48242 18.36914,-4.48242 11.51367,0 17.27051,3.60352 5.80078,3.60351 7.4707,11.90918 l -12.56836,1.71386 q -0.9668,-3.99902 -3.95508,-6.0205 -2.94433,-2.02149 -8.48144,-2.02149 -11.77735,0 -11.77735,7.38281 0,2.417 1.23047,3.95508 1.27442,1.53809 3.73535,2.63672 2.46094,1.05469 9.97559,2.68067 8.9209,1.88964 12.74414,3.51562 3.86719,1.58203 6.1084,3.73535 2.24121,2.10938 3.42773,5.09766 1.18653,2.94433 1.18653,6.81152 z"
         style="font-style:normal;font-variant:normal;font-weight:bold;font-stretch:normal;font-size:90px;line-height:1.25;font-family:'Liberation Sans';-inkscape-font-specification:'Liberation Sans Bold';text-align:center;text-anchor:middle;fill:#ff6400;fill-opacity:1;stroke:none"
         id="path4542"
         inkscape:connector-curvature="0" />
      <path
         d="m 889.36316,753.40853 q 0,9.66797 -3.82324,17.00684 -3.82325,7.33886 -10.94239,11.25 -7.11914,3.86719 -16.61132,3.86719 -14.58985,0 -22.89551,-8.56934 -8.26172,-8.61328 -8.26172,-23.55469 0,-14.89746 8.26172,-23.24707 8.26172,-8.34961 22.9834,-8.34961 14.72168,0 22.9834,8.4375 8.30566,8.4375 8.30566,23.15918 z m -13.22754,0 q 0,-10.01953 -4.74609,-15.68847 -4.7461,-5.7129 -13.31543,-5.7129 -8.70118,0 -13.44727,5.66895 -4.74609,5.625 -4.74609,15.73242 0,10.19531 4.83398,16.08399 4.87793,5.84472 13.27149,5.84472 8.70117,0 13.40332,-5.71289 4.74609,-5.71289 4.74609,-16.21582 z"
         style="font-style:normal;font-variant:normal;font-weight:bold;font-stretch:normal;font-size:90px;line-height:1.25;font-family:'Liberation Sans';-inkscape-font-specification:'Liberation Sans Bold';text-align:center;text-anchor:middle;fill:#ff6400;fill-opacity:1;stroke:none"
         id="path4544"
         inkscape:connector-curvature="0" />
      <path
         d="m 949.61218,766.81185 q 0,9.09668 -6.76758,13.93067 -6.72363,4.79004 -19.77539,4.79004 -11.90918,0 -18.67675,-4.21875 -6.76758,-4.21875 -8.70118,-12.78809 l 12.52442,-2.06543 q 1.27441,4.92187 4.96582,7.16309 3.6914,2.19726 10.23926,2.19726 13.5791,0 13.5791,-8.26172 0,-2.63672 -1.58203,-4.35058 -1.53809,-1.71387 -4.39453,-2.85645 -2.8125,-1.14258 -10.8545,-2.76855 -6.94336,-1.62598 -9.66797,-2.59278 -2.7246,-1.01074 -4.92187,-2.3291 -2.19727,-1.3623 -3.73535,-3.25195 -1.53809,-1.88965 -2.41699,-4.43848 -0.83497,-2.54883 -0.83497,-5.84472 0,-8.39356 6.28418,-12.83204 6.32813,-4.48242 18.36915,-4.48242 11.51367,0 17.2705,3.60352 5.80078,3.60351 7.47071,11.90918 l -12.56836,1.71386 q -0.9668,-3.99902 -3.95508,-6.0205 -2.94434,-2.02149 -8.48145,-2.02149 -11.77734,0 -11.77734,7.38281 0,2.417 1.23047,3.95508 1.27441,1.53809 3.73535,2.63672 2.46094,1.05469 9.97559,2.68067 8.92089,1.88964 12.74414,3.51562 3.86718,1.58203 6.10839,3.73535 2.24122,2.10938 3.42774,5.09766 1.18652,2.94433 1.18652,6.81152 z"
         style="font-style:normal;font-variant:normal;font-weight:bold;font-stretch:normal;font-size:90px;line-height:1.25;font-family:'Liberation Sans';-inkscape-font-specification:'Liberation Sans Bold';text-align:center;text-anchor:middle;fill:#ff6400;fill-opacity:1;stroke:none"
         id="path4546"
         inkscape:connector-curvature="0" />
    </g>
    <path
       sodipodi:nodetypes="cccccc"
       inkscape:connector-curvature="0"
       id="path4205"
       d="m 425.87999,615.65071 -58.49627,-27.59445 27.76095,131.81818 c 1.0541,5.38239 3.87728,7.2224 6.4283,9.91748 l 43.05407,27.76895 z"
       style="fill:#ff6400;fill-opacity:1;fill-rule:evenodd;stroke:#ff9955;stroke-width:0.76051623px;stroke-linecap:butt;stroke-linejoin:miter;stroke-opacity:1" />
    <path
       sodipodi:nodetypes="cccsccc"
       inkscape:connector-curvature="0"
       id="path4203"
       d="m 573.58704,594.95603 -150.90012,19.31677 21.76741,143.365 c 3.31503,0.93642 7.39047,0.40818 10.67454,-0.18466 38.73183,-6.99182 62.72832,-13.81388 99.16482,-21.98304 4.42676,-1.72181 5.53894,-4.93124 6.04847,-9.3578 z"
       style="fill:#ff6400;fill-opacity:1;fill-rule:evenodd;stroke:#ff9955;stroke-width:0.76051623px;stroke-linecap:butt;stroke-linejoin:miter;stroke-opacity:1" />
    <path
       sodipodi:nodetypes="ccccccccccccc"
       inkscape:connector-curvature="0"
       id="path4243"
       d="m 366.72575,559.82255 c -2.96603,0.052 -5.38396,1.28483 -6.92495,3.10799 0.4328,8.02897 0.86562,16.05793 1.29843,24.08691 1.51201,2.66999 3.13362,3.07689 5.19371,4.46773 l 50.20594,23.11567 c 6.80401,2.25801 15.47154,2.35133 23.37173,1.1655 l 132.8726,-18.84218 c 3.58342,-0.66844 5.85142,-1.82886 7.79057,-4.66199 l -1.94764,-21.56167 c -0.65839,-4.03737 -4.82455,-5.22126 -8.22339,-6.79873 l -62.75742,-17.67669 c -4.79839,-0.98395 -9.37754,-0.78716 -14.06631,0 z"
       style="fill:#ff6400;fill-opacity:1;fill-rule:evenodd;stroke:#ff9955;stroke-width:0.76051623px;stroke-linecap:butt;stroke-linejoin:miter;stroke-opacity:1" />
    <path
       sodipodi:nodetypes="ccccccccc"
       inkscape:connector-curvature="0"
       id="path4245"
       d="m 378.31135,563.30042 c 13.67469,5.9327 27.34938,10.86054 41.02406,16.29081 7.31893,2.80564 14.35799,2.97354 21.53698,2.19939 l 112.06557,-12.78277 c 4.41485,-0.0872 10.40667,-2.62137 5.2361,-4.02747 l -51.15925,-15.75807 c -3.58137,-0.55497 -7.6525,-0.54471 -11.79361,0.21918 l -112.93979,11.31349 c -1.72403,0.38603 -3.9262,1.12271 -3.97006,2.54544 z"
       style="fill:#ff6400;fill-opacity:1;fill-rule:evenodd;stroke:#ff9955;stroke-width:0.76051623px;stroke-linecap:butt;stroke-linejoin:miter;stroke-opacity:1" />
    <path
       sodipodi:nodetypes="cccc"
       inkscape:connector-curvature="0"
       id="path4253"
       d="m 359.77401,563.00555 52.97329,20.96688 c 9.31551,4.9297 17.7968,3.12007 26.6952,1.87204 L 578.341,569.37049"
       style="fill:none;fill-opacity:1;fill-rule:evenodd;stroke:#ff9955;stroke-width:0.76051623px;stroke-linecap:butt;stroke-linejoin:miter;stroke-opacity:1" />
    <path
       sodipodi:nodetypes="cc"
       inkscape:connector-curvature="0"
       id="path4255"
       d="m 501.17517,549.15243 0.20855,25.27258"
       style="fill:#ff6400;fill-opacity:1;fill-rule:evenodd;stroke:#ff9955;stroke-width:0.76051623px;stroke-linecap:butt;stroke-linejoin:miter;stroke-opacity:1" />
    <ellipse
       transform="matrix(0.99169553,-0.12860781,0.13355522,0.99104137,0,0)"
       ry="20.503635"
       rx="21.210571"
       cy="725.74323"
       cx="420.75095"
       id="path4147"
       style="opacity:0;fill:#ffffff;fill-opacity:0.84615383;stroke:#ff9955;stroke-width:0.51311499" />
    <ellipse
       transform="matrix(0.99169553,-0.12860781,0.13355522,0.99104137,0,0)"
       ry="37.609161"
       rx="46.290199"
       cy="728.08649"
       cx="410.57562"
       id="path4151"
       style="opacity:1;fill:none;fill-opacity:0.84615383;stroke:#ffffff;stroke-width:3.44300199;stroke-miterlimit:4;stroke-dasharray:none;stroke-opacity:1" />
    <ellipse
       transform="matrix(0.99169553,-0.12860781,0.13355522,0.99104137,0,0)"
       ry="6.5167189"
       rx="8.257885"
       cy="728.08649"
       cx="410.57562"
       id="path4153"
       style="opacity:1;fill:#ffffff;fill-opacity:1;stroke:#ff9955;stroke-width:0.3522633;stroke-miterlimit:4;stroke-dasharray:none" />
    <path
       sodipodi:nodetypes="ccccc"
       inkscape:connector-curvature="0"
       id="path4155"
       d="m 497.32793,661.1232 c -2.61652,2.13966 -4.84395,5.64904 -4.46951,8.73746 -9.66832,1.26814 -19.33664,2.53633 -29.00496,3.80449 -0.0559,-10.94794 3.82057,-23.82601 16.71047,-30.52148 5.588,5.99318 11.176,11.98635 16.764,17.97953 z"
       style="fill:#ffffff;fill-rule:evenodd;stroke:#ff9955;stroke-width:0.51311183px;stroke-linecap:butt;stroke-linejoin:miter;stroke-opacity:1" />
    <path
       sodipodi:nodetypes="ccccc"
       inkscape:connector-curvature="0"
       id="path4157"
       d="m 509.17324,659.74013 c 2.98021,0.61599 6.74965,4.05353 6.92425,7.37248 9.61054,-1.27418 19.22108,-2.54838 28.83162,-3.82257 -2.27342,-9.53503 -7.4585,-20.94804 -24.24036,-25.84473 -3.83851,7.4316 -7.67701,14.86321 -11.51551,22.29482 z"
       style="fill:#ffffff;fill-rule:evenodd;stroke:#ff9955;stroke-width:0.51311183px;stroke-linecap:butt;stroke-linejoin:miter;stroke-opacity:1" />
    <path
       sodipodi:nodetypes="ccccc"
       inkscape:connector-curvature="0"
       id="path4159"
       d="m 499.90737,677.48267 c 4.83249,1.4618 8.5853,0.22325 11.55718,-1.49879 5.63805,6.1748 11.27609,12.34959 16.91414,18.52439 -8.87136,5.49456 -23.10137,10.68157 -40.09838,5.20015 3.87568,-7.40859 7.75137,-14.81717 11.62706,-22.22575 z"
       style="fill:#ffffff;fill-rule:evenodd;stroke:#ff9955;stroke-width:0.51311183px;stroke-linecap:butt;stroke-linejoin:miter;stroke-opacity:1" />
  </g>
</svg>
