<?xml version="1.0" encoding="UTF-8" standalone="no"?>
<svg
   xmlns:dc="http://purl.org/dc/elements/1.1/"
   xmlns:cc="http://creativecommons.org/ns#"
   xmlns:rdf="http://www.w3.org/1999/02/22-rdf-syntax-ns#"
   xmlns:svg="http://www.w3.org/2000/svg"
   xmlns="http://www.w3.org/2000/svg"
   xmlns:xlink="http://www.w3.org/1999/xlink"
   xmlns:sodipodi="http://sodipodi.sourceforge.net/DTD/sodipodi-0.dtd"
   xmlns:inkscape="http://www.inkscape.org/namespaces/inkscape"
   viewBox="0 0 877.99227 152.24357"
   version="1.1"
   id="svg54"
   sodipodi:docname="logo1.svg"
   width="877.99225"
   height="152.24358"
   inkscape:version="0.92.1 r15371">
  <metadata
     id="metadata58">
    <rdf:RDF>
      <cc:Work
         rdf:about="">
        <dc:format>image/svg+xml</dc:format>
        <dc:type
           rdf:resource="http://purl.org/dc/dcmitype/StillImage" />
        <dc:title />
      </cc:Work>
    </rdf:RDF>
  </metadata>
  <sodipodi:namedview
     pagecolor="#ffffff"
     bordercolor="#666666"
     borderopacity="1"
     objecttolerance="10"
     gridtolerance="10"
     guidetolerance="10"
     inkscape:pageopacity="0"
     inkscape:pageshadow="2"
     inkscape:window-width="1440"
     inkscape:window-height="800"
     id="namedview56"
     showgrid="false"
     inkscape:zoom="0.73729208"
     inkscape:cx="360.82294"
     inkscape:cy="29.602808"
     inkscape:window-x="0"
     inkscape:window-y="35"
     inkscape:window-maximized="1"
     inkscape:current-layer="svg54" />
  <defs
     id="defs30">
    <linearGradient
       id="k"
       x2="0"
       y1="31.854"
       y2="74.711998"
       gradientUnits="userSpaceOnUse"
       gradientTransform="matrix(2.0836,0,0,2.0835,126.47708,-40.391963)">
      <stop
         stop-color="#1f2259"
         offset="0"
         id="stop2" />
      <stop
         stop-color="#2fb5ea"
         offset="1"
         id="stop4" />
    </linearGradient>
    <linearGradient
       id="a">
      <stop
         stop-color="#9eed40"
         offset="0"
         id="stop7" />
      <stop
         stop-color="#52af34"
         offset="1"
         id="stop9" />
    </linearGradient>
    <linearGradient
       id="b">
      <stop
         stop-color="#fff"
         offset="0"
         id="stop12" />
      <stop
         stop-color="#fff"
         stop-opacity="0"
         offset="1"
         id="stop14" />
    </linearGradient>
    <linearGradient
       id="i"
       x1="-16.716999"
       x2="14.184"
       y1="-55.519001"
       y2="-75.891998"
       gradientTransform="matrix(-0.33495,0.98949,-0.90672,-0.30693,452.71708,-4.4779634)"
       gradientUnits="userSpaceOnUse"
       xlink:href="#a" />
    <linearGradient
       id="j"
       x1="-178.06"
       x2="-155.12"
       y1="28.476"
       y2="11.497"
       gradientTransform="matrix(-0.68945,-0.78482,0.71917,-0.63178,452.71708,-4.4779634)"
       gradientUnits="userSpaceOnUse"
       xlink:href="#a" />
    <linearGradient
       id="l"
       x1="182"
       x2="183.28"
       y1="36.387001"
       y2="53.875"
       gradientUnits="userSpaceOnUse"
       xlink:href="#b"
       gradientTransform="matrix(1.172,-0.20957,0.14765,0.82572,288.04708,39.247037)" />
    <linearGradient
       id="h"
       x1="21.739"
       x2="42.924999"
       y1="159.77"
       y2="141.78999"
       gradientTransform="matrix(1.2013,0,0,0.83241,452.71708,-4.4779634)"
       gradientUnits="userSpaceOnUse"
       xlink:href="#a" />
    <linearGradient
       id="g"
       x1="59.630001"
       x2="84.934998"
       y1="13.401"
       y2="80.245003"
       gradientTransform="matrix(1.153,0,0,0.86728,452.71708,-4.4779634)"
       gradientUnits="userSpaceOnUse"
       xlink:href="#a" />
    <linearGradient
       id="f"
       x1="32.348999"
       x2="7.6904998"
       y1="71.676003"
       y2="137.73"
       gradientTransform="matrix(1.153,0,0,0.86728,452.71708,-4.4779634)"
       gradientUnits="userSpaceOnUse"
       xlink:href="#a" />
    <linearGradient
       id="e"
       x1="69.567001"
       x2="123.33"
       y1="163.47"
       y2="118.52"
       gradientTransform="matrix(1.153,0,0,0.86728,452.71708,-4.4779634)"
       gradientUnits="userSpaceOnUse"
       xlink:href="#a" />
    <radialGradient
       id="c"
       cx="180.72"
       cy="38.594002"
       r="28.884001"
       gradientTransform="matrix(0.50143393,1.7055018,-1.9429531,0.57124553,500.72616,-315.28659)"
       gradientUnits="userSpaceOnUse">
      <stop
         stop-color="#fff"
         stop-opacity=".87451"
         offset="0"
         id="stop24" />
      <stop
         stop-color="#fff"
         stop-opacity="0"
         offset="1"
         id="stop26" />
    </radialGradient>
    <radialGradient
       id="d"
       cx="194.08"
       cy="26.292999"
       r="28.884001"
       gradientTransform="matrix(1.4486753,-0.63498638,0.53912622,1.2299329,251.16509,205.95498)"
       gradientUnits="userSpaceOnUse"
       xlink:href="#b" />
  </defs>
  <g
     id="g127"
     transform="translate(-454.26048,2)">
    <path
       style="fill:url(#i);fill-rule:evenodd;stroke:#3d7311;stroke-width:2"
       inkscape:connector-curvature="0"
       id="path32"
       d="m 541.78608,12.468037 c -7.1602,0.51734 -9.4486,-4.6690004 -17.203,5.2058 -7.6855,9.787 -11.104,19.77 -11.104,19.77 l -27.88,4.165 c 0,0 2.2587,-12.103 6.689,-17.588 5.1052,-8.5656 14.339,-16.8370004 25.642,-20.3630004 11.303,-3.52600008 30.888,8.3022004 23.855,8.8104004 z" />
    <path
       style="fill:#ffffff;stroke-width:0.27252349"
       inkscape:connector-curvature="0"
       id="path34"
       d="m 559.11779,135.30298 a 13.002935,4.7653648 0 1 0 -26.00587,0 13.002935,4.7653648 0 1 0 26.00587,0 z" />
    <path
       style="fill:url(#h);fill-rule:evenodd;stroke:#3d7311;stroke-width:2"
       inkscape:connector-curvature="0"
       id="path36"
       d="m 468.88808,98.352037 c 4.0281,5.942203 0.68086,10.517003 13.11,12.295003 12.318,1.7623 22.673,-0.26869 22.673,-0.26869 l 17.547,22.062 c 0,0 -11.611,4.09529 -18.576,3.0012 -9.9706,-0.13849 -21.75,-3.9994 -30.456,-12.025 -8.706,-8.0256 -8.254,-30.901003 -4.2975,-25.064003 z" />
    <path
       style="fill:url(#j);fill-rule:evenodd;stroke:#3d7311;stroke-width:2"
       inkscape:connector-curvature="0"
       id="path38"
       d="m 578.95708,118.06204 c 3.132,-6.4596 8.7678,-5.8483 4.093,-17.501 -4.633,-11.549003 -11.569,-19.501003 -11.569,-19.501003 l 10.333,-26.227 c 0,0 9.3519,8.0074 11.887,14.587 4.8654,8.704 7.4116,20.836 4.8137,32.389003 -2.5979,11.553 -22.634,22.598 -19.558,16.254 z" />
    <path
       style="fill:url(#k);stroke-width:2.08354998"
       inkscape:connector-curvature="0"
       id="path40"
       d="m 589.9739,77.296618 a 60.183745,60.180857 0 1 1 -120.36749,0 60.183745,60.180857 0 1 1 120.36749,0 z" />
    <path
       style="opacity:0.78365;fill:#ffffff"
       inkscape:connector-curvature="0"
       id="path42"
       d="m 524.43796,135.82216 c -3.68631,-0.41636 -8.02813,-1.27 -8.2451,-1.62106 -0.13162,-0.21297 0.46833,-0.52455 1.33324,-0.69239 2.06872,-0.40145 2.10431,-0.40155 5.26795,-0.0147 1.79898,0.22 2.83676,0.15174 3.05471,-0.20091 0.23263,-0.37639 0.89849,-0.30668 2.255,0.23609 1.72603,0.69062 3.07532,0.72287 5.31391,0.12701 0.42552,-0.11327 0.66941,0.0831 0.58688,0.47248 -0.0992,0.46835 0.11705,0.55728 0.72809,0.29933 0.4781,-0.20185 1.52455,-0.3316 2.32545,-0.28836 l 1.45616,0.0786 -1.16978,-0.82388 -1.16978,-0.82389 1.111,-0.41098 c 0.7088,-0.26221 1.35595,-0.20769 1.78764,0.15057 0.86845,0.72076 6.84027,0.20656 9.23846,-0.79547 0.95021,-0.39702 2.41087,-0.7296 3.2459,-0.73906 0.83503,-0.009 2.0643,-0.32936 2.73171,-0.71088 1.34903,-0.77117 2.42696,-0.92694 2.42696,-0.35071 0,0.43745 -4.75883,2.55715 -8.97971,3.99978 -5.73202,1.95911 -16.21851,2.90806 -23.29871,2.10837 z m 12.96515,-7.78945 c -1.74374,-0.71642 -2.71815,-2.44876 -1.92855,-3.42862 0.34488,-0.42798 0.29266,-0.60893 -0.17725,-0.61417 -0.46991,-0.005 -0.49994,-0.11345 -0.10702,-0.36405 0.30753,-0.19613 0.70723,-1.44874 0.88822,-2.78355 0.18099,-1.33481 0.61435,-3.40987 0.96303,-4.61121 0.34868,-1.20134 0.6306,-2.62111 0.62649,-3.15503 -0.008,-1.02838 0.41729,-4.26651 0.91334,-6.95555 0.39747,-2.15468 -0.56008,-3.82605 -2.86597,-5.00242 -1.02281,-0.5218 -1.97848,-1.321103 -2.12372,-1.776233 -0.72153,-2.26095 -2.39977,-5.64554 -3.73717,-7.53693 -1.30558,-1.84639 -0.4143,-5.79192 1.74357,-7.71847 1.30218,-1.16259 1.5247,-1.67091 1.39445,-3.1855 -0.0852,-0.9912 -0.33124,-1.91139 -0.54667,-2.04488 -0.21543,-0.13349 -0.41254,-0.46112 -0.43803,-0.72808 -0.0255,-0.26696 -0.31938,-0.48539 -0.65308,-0.48539 -0.3337,0 -0.55409,0.26719 -0.48973,0.59373 0.15179,0.77017 -2.75816,0.23218 -3.66859,-0.67824 -0.35397,-0.35397 -0.8464,-0.64358 -1.0943,-0.64358 -0.2479,0 -0.45071,-0.28957 -0.45071,-0.64348 0,-1.04006 -2.04957,-2.62189 -3.88312,-2.99694 -0.93438,-0.19113 -2.17762,-0.78691 -2.76277,-1.32398 -0.71321,-0.65459 -1.87521,-1.02024 -3.52522,-1.10927 -2.52895,-0.13646 -5.12983,-1.37454 -4.62011,-2.19929 0.15807,-0.25577 -0.36679,-0.46406 -1.16936,-0.46406 -1.81855,0 -2.37936,-0.81366 -1.19803,-1.73819 0.49393,-0.38656 0.66017,-0.64505 0.36945,-0.57444 -0.44063,0.10701 -2.3063,-1.78789 -3.69682,-3.75475 -0.18873,-0.26696 -1.00688,-1.24988 -1.8181,-2.18426 l -1.47494,-1.69886 0.76108,1.57751 c 0.4186,0.86764 0.95666,1.57752 1.1957,1.57752 0.23904,0 0.31735,0.30554 0.17404,0.67899 -0.14331,0.37345 -0.0272,0.82318 0.25793,0.99943 0.28516,0.17625 0.51848,0.66903 0.51848,1.0951 0,0.67467 -0.12531,0.66127 -0.97078,-0.10387 -0.53393,-0.4832 -0.97078,-1.17918 -0.97078,-1.54663 0,-0.36745 -0.33414,-0.79631 -0.74255,-0.95303 -0.45343,-0.17401 -0.63473,-0.62463 -0.46564,-1.1574 0.1523,-0.47984 0.0496,-1.01293 -0.22824,-1.18463 -0.27782,-0.1717 -0.50513,-0.70426 -0.50513,-1.18344 0,-0.47918 -0.5262,-1.43905 -1.16934,-2.133 -1.78398,-1.92495 -2.27473,-5.03374 -1.2093,-7.66062 0.97823,-2.41185 1.16747,-4.32491 0.42784,-4.32491 -0.27922,0 -0.36778,-0.50542 -0.20337,-1.16053 0.1602,-0.63829 0.0551,-1.30645 -0.23344,-1.48481 -0.28859,-0.17836 -0.52472,0.01373 -0.52472,0.43244 0,0.41871 -0.22669,0.75673 -0.50376,0.75673 -0.27707,0 -0.46153,-0.49145 -0.40991,-1.09213 0.17813,-2.07259 -0.06,-2.79099 -0.92527,-2.79099 -1.10222,0 -4.5262,1.73067 -5.02695,2.5409 -0.20875,0.33777 -0.55134,0.61678 -0.7613,0.62002 -0.20996,0.0032 -1.39148,0.70449 -2.62561,1.55836 -1.23413,0.85387 -2.37211,1.42422 -2.52887,1.26747 -0.15676,-0.15675 0.41462,-0.75648 1.26973,-1.33273 0.85511,-0.57625 1.62941,-1.4769 1.72068,-2.00144 0.0913,-0.52454 0.96649,-1.6631 1.94492,-2.53013 0.97843,-0.86703 1.36692,-1.43289 0.86331,-1.25747 -1.39433,0.48566 -0.73483,-0.91947 0.7779,-1.6574 0.6857,-0.3345 1.37732,-1.09899 1.53695,-1.69886 0.38372,-1.44205 3.73673,-3.75591 5.47383,-3.77739 0.75824,-0.0094 2.68916,-0.29552 4.29095,-0.63586 1.60179,-0.34034 3.71685,-0.56444 4.70016,-0.49798 1.4693,0.09932 1.77596,-0.03655 1.72126,-0.76262 -0.054,-0.71638 -0.22725,-0.78311 -0.9163,-0.35278 -0.46736,0.29188 -1.00003,0.38041 -1.18369,0.19674 -0.46399,-0.46398 0.73757,-1.81357 1.61463,-1.81357 0.4226,0 0.61135,-0.28465 0.45644,-0.68833 -0.17401,-0.45347 0.34653,-0.95718 1.52558,-1.47624 0.98435,-0.43335 1.35287,-0.6884 0.81895,-0.56678 -1.28116,0.29183 -4.15331,1.298 -5.21136,1.82564 -0.46356,0.23118 -1.28266,0.42032 -1.82021,0.42032 -0.53755,0 -0.97737,0.19254 -0.97737,0.42785 0,0.4218 -3.45978,1.81023 -5.82468,2.33749 -1.05091,0.23429 -0.98587,0.11409 0.48539,-0.89718 5.25593,-3.61266 9.92811,-5.60179 17.12969,-7.2928 3.69224,-0.86697 5.99063,-1.05228 13.20718,-1.06486 8.70703,-0.01517 15.23938,0.76678 13.80604,1.65263 -0.35978,0.22236 -0.83705,0.29126 -1.06059,0.15311 -0.22354,-0.13815 -2.6747,-0.31692 -5.44706,-0.39728 -4.23078,-0.12262 -4.99747,-0.03364 -4.77206,0.5538 0.14772,0.38495 0.54236,0.59485 0.87697,0.46645 0.83343,-0.31982 4.75348,1.7257 7.28934,3.80364 1.14998,0.94232 2.27459,1.71331 2.49915,1.71331 0.22456,0 0.69183,0.45401 1.03838,1.00892 0.55172,0.88345 0.51187,1.03983 -0.32047,1.25749 -1.24981,0.32683 -1.59084,2.29942 -0.78998,4.56932 0.35191,0.99743 0.53417,1.91919 0.40501,2.04835 -0.44379,0.44378 -3.3121,-1.30135 -5.18247,-3.15312 -1.02987,-1.01962 -2.10599,-1.70954 -2.39138,-1.53316 -0.28539,0.17638 -0.37904,0.09439 -0.20656,-0.18469 0.17248,-0.27908 -0.0228,-0.78356 -0.43247,-1.12355 -0.40965,-0.33999 -0.63254,-0.91079 -0.49528,-1.26846 0.14021,-0.36538 -0.0695,-0.65032 -0.47853,-0.65032 -0.40045,0 -0.85381,-0.32764 -1.00748,-0.72808 -0.15367,-0.40044 -0.51185,-0.72809 -0.79598,-0.72809 -0.28413,0 -0.87104,-0.32078 -1.30426,-0.71284 -0.58049,-0.52533 -1.16509,-0.60015 -2.22247,-0.28442 -0.78914,0.23564 -1.14463,0.44721 -0.79,0.47015 1.04643,0.06771 4.52154,3.87119 4.37135,4.78441 -0.0759,0.46162 0.006,1.06816 0.18188,1.34786 0.17595,0.2797 0.12217,0.82578 -0.11951,1.21348 -0.37347,0.59912 -0.7511,0.5408 -2.51627,-0.38857 -1.14227,-0.6014 -2.44621,-1.09286 -2.89764,-1.09212 -1.0997,0.0018 -1.60925,-0.90559 -0.70368,-1.25309 0.39673,-0.15224 0.84605,-0.60183 0.99849,-0.99909 0.208,-0.54206 0.0357,-0.64566 -0.69056,-0.41515 -0.71274,0.22621 -0.96773,0.08537 -0.96773,-0.53456 0,-0.46293 -0.14373,-0.69797 -0.31938,-0.52231 -0.17565,0.17566 -0.55791,0.1215 -0.84943,-0.12035 -0.36604,-0.30367 -0.52822,0.0847 -0.52411,1.25515 0.004,1.10821 0.30144,1.86026 0.85964,2.17264 0.46953,0.26277 0.75143,0.64323 0.62643,0.84548 -0.125,0.20225 0.36187,0.28217 1.08192,0.17758 0.8829,-0.12823 2.02041,0.29018 3.49344,1.28501 1.68386,1.13722 2.22021,1.3121 2.34119,0.76337 0.23926,-1.08512 0.69341,-0.8819 2.76101,1.23552 1.04582,1.07101 2.11401,1.87646 2.37377,1.78988 0.54765,-0.18255 1.81444,0.99926 2.98328,2.78313 0.81779,1.24809 2.00448,1.7806 1.42446,0.63919 -0.16957,-0.3337 0.14517,-0.09108 0.69943,0.53916 0.55426,0.63024 1.00441,1.50396 1.00033,1.94156 -0.006,0.69105 -0.0693,0.69993 -0.47796,0.06758 -0.41825,-0.64718 -0.47561,-0.64718 -0.51628,0 -0.0314,0.49969 -0.12256,0.53775 -0.29058,0.12135 -0.39138,-0.96995 -2.49508,-0.75879 -2.4156,0.24246 0.0427,0.53771 -0.33317,0.90617 -1.02471,1.00454 -0.60067,0.08544 -1.09213,0.38733 -1.09213,0.67088 0,0.32128 -0.73162,0.41741 -1.94156,0.25512 -1.58535,-0.21264 -1.94354,-0.11304 -1.95235,0.54283 -0.006,0.44178 -0.43793,1.3493 -0.95999,2.01672 -0.52206,0.66742 -0.95405,1.51325 -0.95999,1.87964 -0.009,0.56463 -0.13899,0.56463 -0.85184,0 -0.78026,-0.61802 -0.7788,-0.56869 0.0202,0.68236 0.94866,1.48544 0.78517,1.97617 -1.22072,3.66403 -1.36936,1.15223 -1.81594,3.14029 -0.84081,3.74295 0.71305,0.44069 1.49582,2.63125 1.1438,3.20083 -0.42087,0.68099 -1.69731,-0.52397 -2.44185,-2.30511 -0.46004,-1.10055 -1.05124,-1.59651 -2.16973,-1.82021 -2.3849,-0.47699 -3.35761,-0.3683 -3.35761,0.37516 0,0.43905 -0.33952,0.59386 -0.95142,0.43385 -1.09906,-0.28742 -4.05174,1.39455 -5.11631,2.91445 -0.93503,1.33493 -0.92282,2.93475 0.0379,4.95922 0.89382,1.88359 1.61778,2.25533 3.61454,1.85598 0.99933,-0.19987 1.54796,-0.65324 1.74617,-1.44298 0.15896,-0.63335 0.53837,-1.16826 0.84313,-1.18868 0.30476,-0.02042 0.9355,-0.11019 1.40162,-0.19947 1.26619,-0.24252 1.46919,0.51408 0.59271,2.20901 -0.43104,0.83355 -0.66029,1.63895 -0.50943,1.78981 0.15086,0.15086 0.0236,0.57631 -0.28276,0.94547 -0.46129,0.55581 -0.24205,0.63647 1.27545,0.46925 3.0056,-0.33121 3.59971,0.01455 3.57122,2.07839 -0.0481,3.48365 1.08355,4.9341 3.0348,3.88983 0.64333,-0.34431 1.22891,-0.34376 1.87449,0.0017 1.24882,0.66836 1.30671,0.65656 2.36767,-0.48226 0.50459,-0.5416 1.33219,-1.06885 1.83913,-1.17168 0.50694,-0.10283 1.33977,-0.35209 1.85075,-0.55393 0.65149,-0.25734 0.82421,-0.19731 0.5781,0.2009 -0.19304,0.31234 -0.11965,0.56788 0.16307,0.56788 0.28272,0 0.51403,-0.20547 0.51403,-0.45661 0,-0.25114 0.58501,-0.1531 1.30002,0.21786 0.71501,0.37096 1.51324,0.54267 1.77386,0.38161 0.26062,-0.16106 0.33333,-0.06551 0.16161,0.21235 -0.17172,0.27786 0.17677,0.63627 0.77443,0.79645 1.52743,0.40939 1.91472,0.37356 1.59279,-0.14735 -0.1536,-0.24851 -0.0235,-0.6099 0.28904,-0.80308 0.35493,-0.21936 0.43827,-0.14083 0.22197,0.20916 -0.32199,0.52099 0.35394,0.75254 2.01656,0.69079 0.3337,-0.01241 0.61067,0.33544 0.61548,0.77296 0.0122,1.11366 3.32039,3.72712 5.18345,4.09497 1.87786,0.37077 3.54481,1.70964 3.54481,2.84713 0,0.45884 0.23266,0.97805 0.51701,1.15379 0.3383,0.20908 0.2169,0.68039 -0.35116,1.36347 -0.4775,0.57416 -0.55981,0.77346 -0.18293,0.44289 0.55601,-0.48769 1.26624,-0.28169 3.76561,1.09213 1.69419,0.93124 3.47583,1.69317 3.95919,1.69317 0.48336,0 1.26086,0.42212 1.72776,0.93805 0.4669,0.51593 1.15604,0.82019 1.5314,0.67615 0.49366,-0.18945 0.68248,0.1443 0.68248,1.20658 0,1.03523 -0.63715,2.2149 -2.15963,3.99854 -1.18779,1.39154 -2.30753,3.211383 -2.4883,4.044093 -0.49847,2.29623 -2.67638,5.06833 -4.45312,5.66804 -0.86765,0.29287 -1.57753,0.83814 -1.57753,1.21173 0,0.37359 -0.60067,1.06543 -1.33481,1.53742 -0.73414,0.47199 -1.72875,1.34541 -2.21018,1.94093 -2.38375,2.9485 -4.98074,5.01653 -6.0612,4.82663 -0.83839,-0.14736 -1.07718,0.009 -0.97081,0.63724 0.15122,0.89263 -0.8944,2.43799 -1.64958,2.43799 -0.25209,0 -1.64515,1.0246 -3.09568,2.27691 -1.75192,1.51248 -2.44231,2.39743 -2.05643,2.63591 0.40779,0.25203 0.22702,0.65825 -0.60666,1.3632 -1.11336,0.94144 -1.13448,1.04545 -0.33811,1.66476 0.46719,0.36331 0.84943,0.77482 0.84943,0.91448 0,0.61559 -1.83379,0.63451 -3.29541,0.034 z m -1.95287,-83.485483 c -0.35039,-0.14021 -0.76903,-0.12297 -0.93033,0.03832 -0.1613,0.16129 0.12539,0.27601 0.63708,0.25494 0.56546,-0.02329 0.68047,-0.13831 0.29325,-0.29326 z m 3.28952,-2.20148 c 0.01,-0.19185 -0.31044,-0.22309 -0.71088,-0.06943 -0.42546,0.16327 -0.73117,0.0056 -0.73552,-0.37927 -0.006,-0.53668 -0.0876,-0.53209 -0.44005,0.02472 -0.26239,0.41446 -0.22403,1.14122 0.0975,1.84681 l 0.53009,1.16343 0.62085,-1.11873 c 0.34147,-0.6153 0.62859,-1.27569 0.63805,-1.46753 z m -15.51527,1.36491 c 0,-0.097 -0.49927,-0.5035 -1.10949,-0.90333 -0.99524,-0.65211 -1.21267,-0.64341 -2.11157,0.08447 -0.9746,0.78919 -0.94418,0.81395 1.10949,0.90333 1.16137,0.05055 2.11157,0.01253 2.11157,-0.08447 z m -1.1674,-2.4986 c -0.88078,-0.64405 -0.88291,-0.6905 -0.0463,-1.01154 0.48229,-0.18507 1.69654,-0.11772 2.69835,0.14968 1.54522,0.41244 1.77908,0.37575 1.54208,-0.24188 -0.18085,-0.47126 -0.0805,-0.6051 0.28465,-0.37946 0.31022,0.19173 0.948,0.12499 1.41731,-0.14831 0.77498,-0.45131 0.75863,-0.49825 -0.17817,-0.51166 -0.79065,-0.01132 -1.03146,-0.31755 -1.03146,-1.31173 0,-0.71333 -0.40954,-1.59644 -0.9101,-1.96246 -0.50056,-0.36602 -0.8555,-0.76529 -0.78876,-0.88729 0.33599,-0.61411 0.0417,-1.19258 -0.60673,-1.19258 -0.40045,0 -0.72808,-0.23663 -0.72808,-0.52584 0,-0.28921 -0.27303,-0.42794 -0.60674,-0.30829 -0.33371,0.11965 -0.99424,0.01815 -1.46786,-0.22558 -0.66861,-0.34407 -1.1397,-0.11208 -2.10715,1.03767 -0.68531,0.81444 -1.42165,1.37226 -1.63632,1.2396 -0.21467,-0.13266 -0.51452,0.08255 -0.66637,0.47827 -0.15185,0.39572 -0.12013,0.67103 0.0705,0.61182 0.19061,-0.05921 0.95696,0.50912 1.70298,1.26295 0.84869,0.85757 1.64646,1.25929 2.13129,1.07324 1.00108,-0.38414 2.6774,0.14465 2.31538,0.73039 -0.15311,0.24774 -0.60602,0.45044 -1.00647,0.45044 -0.42675,0 -0.58474,-0.23192 -0.38175,-0.56038 0.2163,-0.34999 0.13296,-0.42851 -0.22196,-0.20916 -0.31257,0.19318 -0.44264,0.55457 -0.28905,0.80308 0.15359,0.24851 0.0479,0.45186 -0.23478,0.45186 -0.28272,0 -0.51403,-0.21842 -0.51403,-0.48539 0,-0.85401 -1.81959,-0.51886 -2.05422,0.37838 -0.26676,1.02007 0.86373,2.31135 1.34368,1.53478 0.21539,-0.3485 0.49934,-0.3483 0.91975,6.1e-4 0.3345,0.27761 0.7519,0.36103 0.92757,0.18537 0.17567,-0.17566 0.31938,-0.02815 0.31938,0.3278 0,0.35595 0.16348,0.48371 0.36328,0.28391 0.1998,-0.1998 -0.0521,-0.66705 -0.5599,-1.03832 z m 3.59435,-2.61467 c 0,-0.25121 0.21592,-0.59019 0.47983,-0.75329 0.27514,-0.17006 0.35651,0.02478 0.19076,0.45674 -0.32268,0.8409 -0.67059,0.99475 -0.67059,0.29655 z m -6.09595,-1.22668 c -0.51822,-0.39196 -0.68704,-0.71959 -0.37517,-0.72808 0.92214,-0.0251 2.1026,0.54041 2.1026,1.00727 0,0.63614 -0.65784,0.52981 -1.72743,-0.27919 z m 16.28913,4.73419 c 0,-0.05734 -0.41391,-0.32579 -0.91981,-0.59653 -0.65579,-0.35097 -1.06192,-0.32104 -1.4149,0.10427 -0.37229,0.44858 -0.14416,0.59654 0.91981,0.59654 0.77819,0 1.4149,-0.04693 1.4149,-0.10428 z m -7.28084,-1.1092 c 0,-0.26696 -0.34054,-0.48539 -0.75674,-0.48539 -0.4162,0 -0.62173,0.21843 -0.45674,0.48539 0.16499,0.26696 0.50552,0.48539 0.75673,0.48539 0.25121,0 0.45675,-0.21842 0.45675,-0.48539 z m 1.69886,0 c -0.16499,-0.26696 -0.39631,-0.48539 -0.51404,-0.48539 -0.11773,0 -0.21404,0.21843 -0.21404,0.48539 0,0.26696 0.23131,0.48539 0.51403,0.48539 0.28272,0 0.37904,-0.21842 0.21405,-0.48539 z m -15.77517,-2.44312 c -0.61579,-0.41163 -0.52222,-0.6689 0.60674,-1.66815 0.73414,-0.64979 1.33482,-1.4521 1.33482,-1.7829 0,-0.3308 -0.30978,-0.17779 -0.6884,0.34 -0.37862,0.51779 -0.85187,0.77797 -1.05168,0.57816 -0.19981,-0.19981 -0.10845,-0.36328 0.203,-0.36328 0.31145,0 0.56629,-0.32763 0.56629,-0.72808 0,-0.94205 -0.91837,-0.94405 -1.27957,-0.0028 -0.15308,0.3989 -0.47743,0.60224 -0.72078,0.45184 -0.24335,-0.1504 -0.31677,-0.47678 -0.16318,-0.7253 0.15359,-0.24852 0.0608,-0.45185 -0.20613,-0.45185 -0.26696,0 -0.62258,0.22199 -0.79027,0.4933 -0.16769,0.27131 -0.53154,0.35323 -0.80855,0.18202 -0.32475,-0.2007 -0.26972,-0.45952 0.15489,-0.72856 0.53622,-0.33977 0.52332,-0.41547 -0.0695,-0.40751 -0.92157,0.01236 -3.37781,1.3911 -2.51965,1.41433 0.34946,0.0095 0.51297,0.21526 0.36337,0.45732 -0.1496,0.24206 0.21975,0.33759 0.82078,0.21228 l 1.0928,-0.22785 -1.11873,0.66847 -1.11872,0.66848 1.34844,0.61439 c 0.97271,0.4432 1.39901,0.46265 1.52997,0.06978 0.13096,-0.39287 0.37739,-0.38207 0.88539,0.03954 0.56727,0.47078 0.58166,0.66166 0.0741,0.98361 -0.41016,0.26018 -0.12201,0.39945 0.82646,0.39945 1.13387,0 1.29503,-0.10772 0.72808,-0.4867 z m -1.83935,-1.73365 c -0.69357,-0.75038 -0.2252,-0.89397 0.79904,-0.24499 0.36221,0.22951 0.47142,0.53088 0.2427,0.66971 -0.22872,0.13883 -0.6975,-0.0523 -1.04173,-0.42473 z m 19.05403,-0.119 c -0.2735,-0.28791 -1.19681,0.44177 -1.19681,0.94582 0,0.26174 0.3056,0.19424 0.67912,-0.14999 0.37352,-0.34423 0.60648,-0.70236 0.51769,-0.79583 z m -13.81695,0.70728 c 0,-0.10493 -0.33899,-0.32084 -0.7533,-0.47983 -0.43196,-0.16576 -0.62679,-0.08439 -0.45675,0.19076 0.28505,0.46122 1.21005,0.68219 1.21005,0.28908 z m -7.38496,-4.92512 c 0.41949,-0.36531 0.1793,-0.49508 -0.8698,-0.46992 -0.79712,0.01913 -1.83241,0.45737 -2.30062,0.97388 -0.8339,0.91992 -0.82995,0.92144 0.19265,0.07425 1.08574,-0.8995 1.97131,-0.40003 1.37566,0.77588 -0.16904,0.33371 -0.008,0.2791 0.35762,-0.12135 0.36573,-0.40045 0.92575,-0.95519 1.24449,-1.23275 z m 3.98723,0.71872 c 0,-0.28272 -0.21842,-0.37904 -0.48539,-0.21405 -0.26697,0.16499 -0.48539,0.39631 -0.48539,0.51404 0,0.11773 0.21842,0.21404 0.48539,0.21404 0.26697,0 0.48539,-0.23131 0.48539,-0.51403 z m -2.55753,-3.70546 c -0.47227,-0.12306 -1.12754,-0.11498 -1.45617,0.01799 -0.32863,0.13297 0.0578,0.23365 0.85867,0.22376 0.80089,-0.0099 1.06978,-0.11868 0.59751,-0.24174 z m 3.78385,-0.54066 c -0.14944,-0.14945 -0.5411,-3.1e-4 -0.87037,0.33141 -0.47581,0.47938 -0.42005,0.53514 0.27172,0.27172 0.4787,-0.18227 0.74809,-0.45369 0.59864,-0.60313 z m 5.56914,-0.60778 c 0,-0.25121 -0.18202,-0.45675 -0.40449,-0.45675 -0.22247,0 -0.4045,0.31803 -0.4045,0.70673 0,0.3887 0.18202,0.59424 0.4045,0.45675 0.22248,-0.13749 0.40449,-0.45552 0.40449,-0.70673 z m -1.94692,-0.95216 c -0.28871,-0.53945 -0.36368,-1.24933 -0.16661,-1.57752 0.2255,-0.37552 0.0494,-0.346 -0.47519,0.07963 -0.78101,0.63375 -0.78214,0.73309 -0.018,1.57752 1.06283,1.1744 1.31461,1.14402 0.65974,-0.07963 z m -2.46203,0.321 c -0.11124,-0.09593 -0.85753,-0.32099 -1.65842,-0.50013 -1.06344,-0.23788 -1.25981,-0.19285 -0.72808,0.16697 0.65546,0.44356 2.87358,0.7532 2.3865,0.33316 z m -4.32806,-1.32614 c 0.64718,-0.45769 0.64718,-0.49113 0,-0.30085 -0.40044,0.11773 -1.16494,-0.01062 -1.69886,-0.28521 -0.86781,-0.44631 -0.90013,-0.41361 -0.30461,0.30829 0.77572,0.94036 1.01891,0.97408 2.00347,0.27777 z m 2.42695,-0.66846 c 0,-0.451 -0.2824,-0.60449 -0.76879,-0.41784 -0.61898,0.23752 -0.64262,0.37498 -0.12135,0.70542 0.86211,0.54649 0.89014,0.53743 0.89014,-0.28758 z m 12.81428,-0.25793 c 1.90695,0 -0.0448,-1.06421 -2.1488,-1.17163 -1.26841,-0.06476 -2.28129,-0.41734 -2.65086,-0.92276 -0.86498,-1.18292 -1.21916,-1.0107 -1.21916,0.59278 0,1.15663 0.16941,1.36642 0.94054,1.16477 0.51729,-0.13528 1.43671,0.10157 2.04313,0.52633 0.72819,0.51004 1.2659,0.60899 1.58349,0.2914 0.26449,-0.26449 0.91775,-0.48089 1.45167,-0.48089 z m -10.87273,0 c 0,-0.26696 -0.23132,-0.4854 -0.51404,-0.4854 -0.28272,0 -0.37904,0.21843 -0.21405,0.4854 0.16499,0.26697 0.39631,0.48539 0.51404,0.48539 0.11773,0 0.21405,-0.21842 0.21405,-0.48539 z m 13.19653,-4.70008 c -0.35039,-0.14021 -0.76904,-0.12297 -0.93033,0.03832 -0.16129,0.16129 0.12539,0.27601 0.63707,0.25493 0.56546,-0.02328 0.68047,-0.13831 0.29326,-0.29325 z m 12.8659,106.321553 c -0.5176,-0.5176 0.14441,-1.14578 1.20746,-1.14578 0.83525,0 0.90122,0.12091 0.39731,0.72809 -0.65249,0.7862 -1.11569,0.90677 -1.60478,0.41769 z m -52.03081,-11.80715 c -1.33482,-1.55587 -2.51503,-2.74522 -2.62268,-2.64301 -0.10765,0.10221 -0.71378,-0.51636 -1.34698,-1.3746 -1.17737,-1.59585 -2.81309,-2.74716 -3.94658,-2.77785 -0.34945,-0.009 -0.50579,0.19248 -0.34742,0.44874 0.17203,0.27834 -0.2989,0.26135 -1.16963,-0.0422 -1.1374,-0.39649 -1.79345,-1.21858 -2.98642,-3.7423 -2.45853,-5.201003 -2.48791,-5.329053 -1.36087,-5.932223 0.56621,-0.30303 0.8791,-0.82841 0.72793,-1.22232 -0.1458,-0.37997 -0.0535,-0.69086 0.20505,-0.69086 0.25858,0 0.47016,-0.34137 0.47016,-0.75859 0,-0.5081 0.36064,-0.70846 1.09213,-0.60675 0.75761,0.10535 1.09402,-0.0978 1.09831,-0.66331 0.003,-0.44834 0.16723,-0.9762 0.36405,-1.17303 0.19682,-0.19683 0.35785,-0.12038 0.35785,0.16988 0,0.29026 0.65528,0.67164 1.45617,0.84755 0.80089,0.17591 1.45616,0.59506 1.45616,0.93143 0,0.33637 0.60067,0.91269 1.33483,1.28067 0.73416,0.36798 1.45521,0.73442 1.60236,0.81429 0.14715,0.0799 0.17785,-0.62301 0.0682,-1.56194 -0.24421,-2.09173 0.67105,-2.29675 1.12038,-0.25098 0.1759,0.8009 0.50395,1.45616 0.72901,1.45616 0.22506,0 0.67682,0.8191 1.00393,1.82021 0.32711,1.001113 1.05393,2.291103 1.61515,2.866623 1.46222,1.49947 2.23389,2.50102 2.23389,2.89936 0,0.19047 0.34416,0.72661 0.76481,1.1914 1.02184,1.12913 1.26365,4.76785 0.3989,6.00246 -0.37308,0.53264 -0.67832,1.35253 -0.67832,1.82196 0,0.51008 -0.49804,0.97854 -1.23768,1.16417 -1.22286,0.30692 -1.22577,0.31898 -0.24269,1.00755 0.97147,0.68045 1.35701,1.64561 0.63093,1.5795 -0.20022,-0.0182 -1.45616,-1.30613 -2.79099,-2.86199 z m 3.80792,-7.56168 c -0.15808,-0.41196 -0.39152,-0.64491 -0.51876,-0.51768 -0.12724,0.12723 -0.0874,0.4643 0.0886,0.74902 0.47863,0.77442 0.75837,0.62397 0.43015,-0.23134 z m 4.4709,9.53004 c -0.28875,-0.46721 3.43348,-2.46575 4.61591,-2.47839 0.5833,-0.006 0.57813,-0.0837 -0.0319,-0.47795 -0.57351,-0.37064 -0.5864,-0.47211 -0.0607,-0.47796 0.48194,-0.005 0.58648,-0.41207 0.37618,-1.4636 -0.16429,-0.82143 -0.0849,-1.45617 0.18202,-1.45617 0.26029,0 0.47325,0.21843 0.47325,0.48539 0,0.26696 0.45687,0.94226 1.01526,1.50066 l 1.01527,1.01527 -1.13662,0.80139 c -0.62513,0.44077 -1.24582,0.80334 -1.3793,0.8057 -0.13348,0.002 -0.9317,0.49542 -1.77379,1.09568 -1.60971,1.1474 -2.83842,1.38974 -3.29561,0.64998 z m 4.68108,-11.79043 c -0.32035,-0.32036 -0.58246,-0.75721 -0.58246,-0.97078 0,-0.71518 0.73107,-0.39823 1.34352,0.58247 0.66375,1.06283 0.16694,1.31631 -0.76106,0.38831 z m 76.35022,-0.50966 c 0.19485,-0.60068 0.55335,-3.49481 0.79665,-6.431413 0.26177,-3.16103 0.75167,-5.89416 1.20076,-6.69936 0.63865,-1.14507 0.66797,-1.73751 0.1858,-3.74771 -0.31853,-1.32761 -0.42609,-3.25586 -0.24236,-4.34325 0.29816,-1.76497 0.23151,-1.95562 -0.68315,-1.95562 -0.57719,0 -1.01336,-0.31338 -1.01336,-0.72808 0,-0.91753 -0.93229,-0.90988 -2.15878,0.01771 -0.51998,0.3932 -1.33085,0.59258 -1.8019,0.44306 -0.47105,-0.14952 -1.27834,-0.04614 -1.79379,0.22974 -1.21763,0.65161 -3.30788,-0.91691 -4.26063,-3.19705 -0.37122,-0.8885 -0.9454,-1.56172 -1.27599,-1.49602 -0.42947,0.08536 -0.601,-0.80218 -0.601,-3.11035 0,-1.77638 0.17191,-3.12367 0.38193,-2.99398 0.21002,0.12969 0.33606,-0.49195 0.27997,-1.38142 -0.0561,-0.88947 0.3157,-2.3817 0.82605,-3.31607 0.51035,-0.93437 0.93079,-2.0265 0.93418,-2.42695 0.003,-0.40045 0.22426,-0.69748 0.49084,-0.66009 0.66807,0.0937 3.27461,-1.80846 2.93856,-2.14446 -0.14942,-0.14944 0.0903,-0.67167 0.53269,-1.16053 0.44239,-0.48886 0.6346,-0.88882 0.42703,-0.88882 -0.20757,0 -0.0776,-0.38224 0.28883,-0.84943 0.60377,-0.76985 0.58662,-0.78703 -0.18325,-0.18325 -0.46719,0.36638 -0.87677,0.53021 -0.91014,0.36404 -0.0334,-0.16617 -0.0928,-0.57516 -0.13226,-0.90887 -0.0394,-0.33371 -0.48019,-0.53537 -0.97961,-0.44814 -0.80494,0.14059 -0.86781,-0.05235 -0.55287,-1.69886 0.19541,-1.02161 0.33653,-2.37081 0.31372,-2.99823 -0.0649,-1.77726 0.37951,-2.07094 1.92463,-1.27194 1.33009,0.68783 1.4286,0.67747 1.4286,-0.15018 0,-0.48892 -0.54599,-1.62909 -1.21349,-2.53372 -1.44425,-1.95765 -1.45047,-1.98562 -0.36396,-1.644 0.76855,0.24168 0.77553,0.20559 0.0732,-0.37928 -0.84189,-0.70103 -0.89477,-0.83422 -0.97895,-2.46657 -0.0423,-0.82185 -0.11124,-0.88191 -0.27827,-0.2427 -0.12208,0.46719 -0.5081,0.84943 -0.85783,0.84943 -0.89213,0 -1.3216,-1.93862 -0.49942,-2.25412 0.36293,-0.13924 0.54005,-0.56521 0.39366,-0.94659 -0.19325,-0.50354 -0.0289,-0.60238 0.60038,-0.36095 0.67937,0.26072 0.79702,0.15172 0.54495,-0.5051 -0.20258,-0.52785 -0.13169,-0.72034 0.19155,-0.52056 0.28204,0.17435 0.38998,0.63728 0.23981,1.02873 -0.15017,0.39145 0.26593,1.67721 0.92475,2.85727 0.65882,1.18006 1.08764,2.5305 0.95303,3.00096 -0.13904,0.48604 -0.003,0.39786 0.31532,-0.20423 0.46303,-0.87595 0.37188,-1.36418 -0.52572,-2.81653 -0.59718,-0.96629 -0.9914,-1.85131 -0.87602,-1.9667 0.28601,-0.28597 3.11682,3.77705 3.52273,5.05616 0.17967,0.56616 0.48575,1.02939 0.68003,1.02939 0.7431,0 5.89134,11.45962 5.89134,13.11379 0,0.42517 -0.35227,0.28202 -0.9897,-0.40213 -0.88902,-0.95432 -1.92265,-1.40983 -1.92265,-0.84736 0,0.33411 2.01503,3.66817 2.21695,3.66817 0.0988,0 0.0421,-0.35812 -0.12584,-0.79581 -0.25056,-0.65306 -0.14536,-0.70626 0.58671,-0.29657 0.49065,0.27459 0.93502,0.90573 0.98753,1.40255 0.0525,0.49682 0.23397,1.55859 0.40327,2.35948 0.1693,0.80089 0.62772,3.69096 1.01883,6.42237 0.76855,5.36825 0.39111,12.29073 -1.00497,18.43227 -0.3766,1.65665 -0.68598,3.73169 -0.68749,4.6112 -0.005,2.67712 -0.95067,5.325883 -2.0006,5.600433 -0.52591,0.13754 -1.49534,1.31396 -2.15426,2.61424 -1.24545,2.45778 -2.04086,3.1673 -1.42597,1.27203 z m 3.24558,-46.581253 c -0.34822,-0.34829 -0.57436,-0.37695 -0.57436,-0.07281 0,0.64789 0.57408,1.22192 0.89798,0.89798 0.13791,-0.13793 -0.008,-0.50925 -0.32362,-0.82517 z m -1.27862,-0.01618 c -0.40591,-1.85072 -2.06631,-4.72333 -2.73277,-4.72761 -0.88789,-0.0057 -2.11665,2.02155 -1.80039,2.97035 0.11812,0.35424 0.63498,0.66606 1.14854,0.69292 2.52265,0.13196 3.1136,0.24374 3.06063,0.57894 -0.0887,0.56202 0.0361,1.09213 0.25725,1.09213 0.10982,0 0.13989,-0.27303 0.0667,-0.60673 z m -68.22105,44.494073 c 0,-0.4227 0.25937,-0.68207 0.5764,-0.5764 0.90001,0.3 1.04929,1.34493 0.19213,1.34493 -0.4227,0 -0.76853,-0.34583 -0.76853,-0.76853 z m 1.70376,-0.67971 c -0.16768,-0.27133 0.0356,-0.49332 0.45184,-0.49332 0.85261,0 0.97814,0.29127 0.30488,0.70736 -0.24852,0.15359 -0.58904,0.0573 -0.75673,-0.21404 z m -10.15759,-1.29087 c -0.40635,-1.058953 0.13319,-1.551163 0.70654,-0.64456 0.57335,0.9066 0.58621,1.44211 0.033,1.44211 -0.23841,0 -0.57119,-0.3589 -0.73952,-0.79755 z m -4.16631,-5.011893 c 0,-0.25858 -0.32764,-0.34443 -0.72809,-0.19077 -0.88468,0.33949 -0.96471,-0.47999 -0.11568,-1.18462 0.4537,-0.37654 0.75633,-0.20326 1.1678,0.66865 0.30548,0.6473 0.35753,1.1769 0.11568,1.1769 -0.24185,0 -0.43971,-0.21157 -0.43971,-0.47016 z m -9.47548,-0.62451 c -0.52822,-0.29117 -1.24583,-0.92846 -1.59467,-1.41622 -0.67523,-0.94412 -2.03538,-1.21239 -2.03538,-0.40144 0,0.26696 -0.43685,0.48539 -0.97078,0.48539 -0.53393,0 -0.97078,-0.21842 -0.97078,-0.48539 0,-0.26697 -0.43685,-0.48539 -0.97078,-0.48539 -0.53393,0 -0.97078,-0.21842 -0.97078,-0.48538 0,-0.26696 0.22027,-0.4854 0.48951,-0.4854 0.95846,0 -0.66853,-1.84712 -2.32114,-2.63521 -1.10448,-0.52669 -1.56744,-1.02969 -1.38508,-1.5049 0.16274,-0.42408 -0.009,-0.71379 -0.42371,-0.71379 -0.42068,0 -0.5867,0.28903 -0.41823,0.72809 0.2033,0.52978 -0.0574,0.72808 -0.95737,0.72808 -0.68021,0 -1.37175,-0.21842 -1.53674,-0.48539 -0.16499,-0.26697 0.14975,-0.48538 0.69944,-0.48538 0.54969,0 1.02673,-0.21842 1.06011,-0.4854 0.0334,-0.26698 0.088,-0.68561 0.12134,-0.93033 0.0984,-0.72149 0.78876,-1.22749 0.78876,-0.57809 0,0.32722 0.19368,0.47523 0.43039,0.32894 0.23671,-0.14629 0.70031,0.05923 1.03021,0.45674 0.3299,0.39751 0.42018,0.72274 0.20062,0.72274 -0.21956,0 -0.14636,0.25286 0.16269,0.5619 0.42559,0.4256 0.73419,0.41891 1.2722,-0.02761 0.56999,-0.47306 1.17935,-0.35182 3.08474,0.61371 1.30594,0.66178 2.6605,1.5479 3.01012,1.96917 0.34962,0.42127 1.23747,0.76595 1.97299,0.76595 1.35122,0 2.68816,-1.03316 2.09914,-1.62218 -0.17566,-0.17565 -0.0774,-0.31938 0.21825,-0.31938 1.03522,0 1.12143,0.96726 0.1766,1.98141 -0.63916,0.68606 -1.27358,0.92152 -1.92547,0.71462 -1.69787,-0.53888 -1.80077,0.76455 -0.17504,2.21715 1.58817,1.41902 1.49133,2.18388 -0.16117,1.273 z m 5.77988,-1.42154 c -0.22575,-0.36526 -0.0855,-0.46085 0.40178,-0.27384 0.41171,0.15798 0.96895,0.06686 1.23832,-0.20251 0.32941,-0.3294 0.59652,-0.31699 0.81588,0.03793 0.17937,0.29023 0.25863,0.54392 0.17614,0.56376 -1.54028,0.37039 -2.34955,0.33185 -2.63211,-0.12534 z m -21.85201,-1.44167 c -0.23141,-0.37214 -1.01374,-1.05363 -1.7385,-1.51441 -1.85579,-1.17985 -2.55033,-2.58812 -1.47915,-2.99917 0.45416,-0.17428 0.66811,-0.15924 0.47544,0.03345 -0.49145,0.49144 1.12842,2.1726 1.73323,1.7988 0.27925,-0.17258 0.3482,-0.06787 0.15798,0.23992 -0.20419,0.33037 0.14973,0.66846 0.89578,0.8557 1.32994,0.3338 1.44792,0.57017 0.79721,1.59737 -0.35564,0.56141 -0.48677,0.55959 -0.84199,-0.01165 z m 1.57356,-0.13041 c 0.14575,-0.37981 0.60007,-0.81913 1.0096,-0.97628 0.53376,-0.20482 0.66058,-0.06677 0.44786,0.48756 -0.16321,0.42531 -0.29674,0.86464 -0.29674,0.97629 0,0.11165 -0.32079,0.20299 -0.71285,0.20299 -0.417,0 -0.60288,-0.28659 -0.44787,-0.69056 z m 18.63475,-0.28023 c -0.65463,-1.22319 -0.10759,-1.22319 1.45617,0 1.20064,0.93916 1.2021,0.94931 0.13842,0.95999 -0.59127,0.0059 -1.30885,-0.42605 -1.59459,-0.95999 z m -15.53247,-0.21404 c 0,-0.11773 0.21842,-0.34905 0.48539,-0.51404 0.26697,-0.16499 0.48539,-0.06867 0.48539,0.21405 0,0.28272 -0.21842,0.51403 -0.48539,0.51403 -0.26697,0 -0.48539,-0.09632 -0.48539,-0.21404 z m 1.73913,-0.69159 c -0.20909,-0.33832 -0.24909,-0.7462 -0.0889,-0.90642 0.43441,-0.43441 0.90806,0.2045 0.67343,0.90839 -0.16441,0.49324 -0.27875,0.49285 -0.58455,-0.002 z m -6.74753,-1.83761 c -0.18199,-0.18199 -0.35673,-1.33201 -0.38832,-2.55559 -0.0484,-1.87339 -0.10584,-1.9991 -0.36405,-0.79606 -0.16863,0.78575 -0.47042,1.38643 -0.67065,1.33483 -0.20023,-0.0516 -0.55816,-0.09383 -0.79542,-0.09383 -0.986,0 -1.04042,-3.31594 -0.0928,-5.65146 0.93189,-2.29661 1.06102,-2.25944 1.25482,0.36118 0.13778,1.86321 0.69959,2.49607 1.99584,2.24827 0.76039,-0.14536 1.15658,0.0053 1.15658,0.43968 0,0.36343 -0.49146,0.67462 -1.09213,0.69155 l -1.09213,0.03077 1.09213,0.43898 c 0.60067,0.24144 1.08878,0.71905 1.0847,1.06137 -0.006,0.47903 -0.10354,0.4707 -0.42472,-0.03619 -0.22951,-0.36221 -0.53939,-0.46099 -0.68863,-0.21952 -0.14924,0.24147 -0.0707,0.75625 0.17459,1.14395 0.24526,0.3877 0.43203,1.03255 0.41504,1.433 -0.0242,0.57024 -0.0879,0.58465 -0.29402,0.06643 -0.18528,-0.46588 -0.36327,-0.49963 -0.60158,-0.11405 -0.18614,0.30118 -0.48734,0.39871 -0.66933,0.21672 z m 48.28901,-1.62526 c 0.24432,-0.73297 1.02487,-0.8085 1.25392,-0.12135 0.11124,0.3337 -0.16179,0.60673 -0.60673,0.60673 -0.44494,0 -0.73618,-0.21842 -0.64718,-0.48538 z m -40.81533,-0.68764 c -0.0211,-0.51168 0.0936,-0.79836 0.25493,-0.63707 0.16129,0.16129 0.17853,0.57993 0.0383,0.93033 -0.15495,0.38721 -0.26997,0.27219 -0.29325,-0.29326 z m -11.96316,-2.83144 c -0.55602,-4.54908 -0.564,-4.7564 -0.19193,-4.98635 0.18929,-0.11698 0.49448,1.14821 0.67821,2.81154 0.18373,1.66333 0.45355,3.51571 0.59964,4.11637 0.14609,0.60066 0.0449,1.09213 -0.22476,1.09213 -0.2697,0 -0.65721,-1.36516 -0.86115,-3.03369 z m 7.52026,2.91234 c -0.36505,-1.22814 -0.35739,-2.54894 0.0185,-3.19317 0.3616,-0.6197 0.47689,-0.32411 0.48817,1.25161 0.008,1.1346 -0.0944,2.06291 -0.22793,2.06291 -0.13348,0 -0.25893,-0.0546 -0.27876,-0.12135 z m 21.87861,-4.01487 c 0,-0.40617 -0.54606,-0.98729 -1.21348,-1.29139 -1.056,-0.48114 -1.68104,-1.36786 -0.96419,-1.36786 0.44757,0 2.41157,1.20152 2.77697,1.69887 0.51731,0.70413 0.45061,1.69886 -0.11392,1.69886 -0.26696,0 -0.48539,-0.33232 -0.48539,-0.73849 z m -24.26949,-3.14463 c -0.35225,-0.65818 -0.35775,-0.97078 -0.0171,-0.97078 0.27636,0 0.50247,-0.34054 0.50247,-0.75674 0,-0.4162 0.21842,-0.62173 0.48539,-0.45674 0.62238,0.38466 0.63738,3.15504 0.0171,3.15504 -0.25757,0 -0.7021,-0.43686 -0.98785,-0.97078 z m -2.41953,-1.54887 c 0.004,-0.34945 0.21917,-0.96303 0.47797,-1.36347 0.38253,-0.59192 0.47191,-0.5292 0.47796,0.33539 0.004,0.58492 -0.211,1.19848 -0.47796,1.36348 -0.26697,0.16499 -0.48205,0.01407 -0.47797,-0.3354 z m -2.98241,-1.48482 c -0.1923,-4.84312 1.52441,-15.94661 2.52031,-16.30101 0.25007,-0.089 0.45467,-0.652 0.45467,-1.25115 0,-1.31506 2.25802,-7.06604 3.12867,-7.96845 0.51522,-0.53402 0.67368,-0.50891 0.92521,0.14656 0.19331,0.50377 0.11042,0.6716 -0.22832,0.46224 -0.35201,-0.21756 -0.42521,0.0072 -0.21653,0.66475 0.2113,0.66573 -0.001,1.28844 -0.64448,1.88764 -1.02142,0.9516 -1.99377,3.09892 -1.99377,4.40301 0,0.65931 0.11734,0.63412 0.71265,-0.15295 0.39195,-0.51821 0.71959,-1.54287 0.72808,-2.27702 0.008,-0.73415 0.23386,-1.33483 0.50083,-1.33483 0.87761,0 0.50694,3.32683 -0.60673,5.44569 -0.9353,1.77947 -1.1144,1.92103 -1.24723,0.98573 -0.0853,-0.60067 -0.33287,-1.09213 -0.55013,-1.09213 -0.94733,0 -1.41223,5.99406 -0.50825,6.55276 0.80741,0.49901 0.59329,2.32952 -0.23529,2.01157 -1.06933,-0.41035 -1.56692,0.99444 -1.60849,4.54119 -0.0562,4.79289 -0.0635,4.8539 -0.58317,4.8539 -0.26697,0 -0.51358,-0.70988 -0.54803,-1.57752 z m 4.54148,-0.07703 c 0.14913,-0.78016 0.0285,-1.09434 -0.36254,-0.94428 -0.76924,0.29519 -1.43777,-3.67158 -0.73691,-4.37245 0.34803,-0.34803 0.50372,-0.06936 0.50372,0.90163 0,0.85922 0.50032,1.92756 1.28748,2.74917 1.07524,1.12231 1.18546,1.46673 0.66865,2.08946 -0.92495,1.1145 -1.61344,0.90016 -1.3604,-0.42353 z m 57.06859,-8.15032 c 0.45303,-0.45303 0.71191,-0.45303 1.16494,0 0.45303,0.45303 0.3236,0.58247 -0.58247,0.58247 -0.90607,0 -1.03549,-0.12944 -0.58247,-0.58247 z m 3.00942,0.06942 c 0,-0.30887 0.30956,-0.44281 0.68791,-0.29762 0.37835,0.14519 0.81367,-0.0637 0.96736,-0.46422 0.16922,-0.44099 0.52009,-0.57839 0.8896,-0.34837 0.3356,0.2089 1.08076,0.31906 1.65593,0.2448 0.57517,-0.07426 1.18873,0.09628 1.36347,0.37902 0.17725,0.28679 -0.0705,0.5274 -0.56038,0.54424 -0.48294,0.0166 -1.80638,0.13673 -2.94099,0.26696 -1.37472,0.15779 -2.0629,0.04943 -2.0629,-0.32481 z m 6.69837,-0.06942 c 0.45303,-0.45303 0.71191,-0.45303 1.16494,0 0.45303,0.45303 0.3236,0.58247 -0.58247,0.58247 -0.90607,0 -1.03549,-0.12944 -0.58247,-0.58247 z m -11.19974,-2.61353 c -0.74048,-0.4016 -1.59332,-0.57753 -1.89521,-0.39096 -0.33596,0.20764 -0.41453,0.12185 -0.20254,-0.22116 0.22016,-0.35622 -0.0282,-0.56039 -0.68173,-0.56039 -0.56544,0 -0.92201,0.17162 -0.79237,0.38138 0.12964,0.20976 -0.18511,0.38138 -0.69943,0.38138 -1.29114,0 -1.17149,-0.67589 0.23294,-1.31578 0.9425,-0.42944 1.73928,-0.31073 4.12582,0.61467 2.90756,1.12743 3.78163,1.89876 2.1083,1.86048 -0.46719,-0.01069 -1.45528,-0.34802 -2.19577,-0.74962 z m 43.33258,-6.48314 c 0,-0.28272 0.21841,-0.51404 0.48538,-0.51404 0.26697,0 0.48537,0.09632 0.48537,0.21405 0,0.11773 -0.21841,0.34905 -0.48537,0.51404 -0.26696,0.16499 -0.48538,0.06866 -0.48538,-0.21405 z m 0.97075,-8.97971 c 0,-0.11773 0.21842,-0.34904 0.48538,-0.51403 0.26696,-0.16499 0.48537,-0.06867 0.48537,0.21404 0,0.28271 -0.21841,0.51404 -0.48537,0.51404 -0.26696,0 -0.48538,-0.09632 -0.48538,-0.21405 z m -96.10719,-2.39831 c 0,-0.40044 0.21842,-0.86307 0.48539,-1.02806 0.26696,-0.165 0.48539,0.02765 0.48539,0.4281 0,0.40045 -0.21843,0.86307 -0.48539,1.02807 -0.26696,0.16499 -0.48539,-0.02765 -0.48539,-0.4281 z m 1.94156,-0.02864 c 0,-0.11773 0.21842,-0.34905 0.48539,-0.51404 0.26697,-0.16499 0.4854,-0.06867 0.4854,0.21405 0,0.28272 -0.21843,0.51403 -0.4854,0.51403 -0.26697,0 -0.48539,-0.09632 -0.48539,-0.21404 z m 2.91234,-2.66965 c 0,-0.28271 0.21842,-0.51403 0.48538,-0.51403 0.26696,0 0.4854,0.09632 0.4854,0.21405 0,0.11773 -0.21843,0.34904 -0.4854,0.51403 -0.26697,0.16499 -0.48538,0.06867 -0.48538,-0.21405 z m 0.71704,-4.41501 c -0.16431,-0.26585 -0.55668,-0.32866 -0.87193,-0.13957 -0.32655,0.19585 -0.28653,-0.0096 0.093,-0.47748 0.69277,-0.85405 2.25483,-1.10724 2.67152,-0.43302 0.13197,0.21353 -0.17265,0.64591 -0.67693,0.96083 -0.59224,0.36986 -1.02265,0.40145 -1.21562,0.08923 z m 64.17436,-6.83297 c -0.4834,-0.28119 -1.20463,-0.38626 -1.60273,-0.2335 -0.40871,0.15684 -0.59472,0.06887 -0.42726,-0.20207 0.16311,-0.26391 0.0288,-0.47983 -0.29838,-0.47983 -1.07608,0 0.0222,-0.64259 1.33802,-0.78289 1.51156,-0.16116 4.21398,1.10134 3.79805,1.77434 -0.37387,0.60492 -1.69869,0.56904 -2.8077,-0.07605 z" />
    <path
       style="opacity:0.76923002;fill:url(#c);stroke:url(#l);stroke-width:0.86404216"
       inkscape:connector-curvature="0"
       id="path44"
       d="M 557.09864,39.26981 A 24.228812,34.389586 79.861841 1 1 489.39337,51.37646 24.228812,34.389586 79.861841 1 1 557.09864,39.26981 Z" />
    <path
       style="fill:url(#d);stroke-width:1.32847643"
       inkscape:connector-curvature="0"
       id="path46"
       d="M 500.09088,119.04606 A 32.805412,44.884037 66.332019 1 1 582.30772,83.008601 32.805412,44.884037 66.332019 1 1 500.09088,119.04606 Z" />
    <path
       style="fill:url(#g);fill-rule:evenodd;stroke:#3d7311;stroke-width:2"
       inkscape:connector-curvature="0"
       id="path48"
       d="m 510.09408,6.8650366 c 19.187,2.4649 33.934,20.7000004 36.872,28.3120004 -5.5212,3.2779 -11.367,5.343 -11.367,5.343 l 34.283,16.017 14.692,-33.628 -10.256,3.1458 c -9.2894,-14.738 -23.02,-21.0090004 -32.906,-24.0670004 -9.886,-3.058 -27.696,1.761 -31.318,4.8784 z" />
    <path
       style="fill:url(#e);fill-rule:evenodd;stroke:#3d7311;stroke-width:2"
       inkscape:connector-curvature="0"
       id="path50"
       d="m 599.65708,93.418037 c -11.728,15.384003 -34.894,19.038003 -42.955,17.776003 -0.0782,-6.4204 1.0564,-12.516003 1.0564,-12.516003 l -31.012,21.682003 21.777,29.53799 2.4035,-10.455 c 17.408,-0.67582 29.704,-9.43119 37.296,-16.46399 7.592,-7.0328 12.323,-24.866003 11.434,-29.561003 z" />
    <path
       style="fill:url(#f);fill-rule:evenodd;stroke:#3d7311;stroke-width:2"
       inkscape:connector-curvature="0"
       id="path52"
       d="m 479.88108,128.59204 c -7.4587,-17.849 0.95946,-39.738003 6.0827,-46.088003 5.5994,3.1425 10.311,7.1728 10.311,7.1728 l -3.2706,-37.698 -36.469,4.0905 7.8522,7.3088 c -8.1188,15.414 -6.6846,30.44 -4.3896,40.531003 2.295,10.091 15.373,23.105 19.884,24.683 z" />
  </g>
  <g
     aria-label="RECICLARE"
     transform="translate(391.1667,1.8571901)"
     style="font-style:normal;font-weight:normal;font-size:133.33332825px;line-height:1.25;font-family:sans-serif;letter-spacing:0px;word-spacing:0px;fill:#703800;fill-opacity:0.95294118;stroke:none"
     id="flowRoot60">
    <path
       d="m -193.77344,77.143877 q 4.23177,1.432292 8.20312,6.119792 4.03646,4.6875 8.07292,12.890624 l 13.34635,26.562497 h -14.1276 l -12.43489,-24.934893 q -4.81771,-9.765624 -9.375,-12.955728 -4.49219,-3.190104 -12.30469,-3.190104 h -14.32292 v 41.080725 h -13.15104 V 25.516275 h 29.6875 q 16.66667,0 24.86979,6.966146 8.20313,6.966145 8.20313,21.028645 0,9.179687 -4.29688,15.234374 -4.23177,6.054688 -12.36979,8.398437 z m -32.94271,-40.82031 v 34.505207 h 16.53646 q 9.50521,0 14.32292,-4.361979 4.88281,-4.427084 4.88281,-12.955729 0,-8.528646 -4.88281,-12.82552 -4.81771,-4.361979 -14.32292,-4.361979 z"
       style="font-size:133.33332825px;fill:#703800;fill-opacity:0.95294118"
       id="path148" />
    <path
       d="m -147.15886,25.516275 h 61.458331 v 11.067708 h -48.307291 v 28.776041 h 46.289062 v 11.067708 h -46.289062 v 35.221348 h 49.479166 v 11.06771 h -62.630206 z"
       style="font-size:133.33332825px;fill:#703800;fill-opacity:0.95294118"
       id="path150" />
    <path
       d="M 10.002596,33.003254 V 46.870441 Q 3.3619711,40.685546 -4.190112,37.62565 q -7.486979,-3.059896 -15.95052,-3.059896 -16.666666,0 -25.520833,10.221354 -8.854166,10.156249 -8.854166,29.427082 0,19.205728 8.854166,29.42708 8.854167,10.15625 25.520833,10.15625 8.463541,0 15.95052,-3.05989 7.5520831,-3.0599 14.192708,-9.2448 v 13.73698 q -6.9010416,4.6875 -14.6484371,7.03125 -7.6822919,2.34375 -16.2760409,2.34375 -22.070312,0 -34.765624,-13.47656 -12.695312,-13.541665 -12.695312,-36.91406 0,-23.437499 12.695312,-36.914061 12.695312,-13.541666 34.765624,-13.541666 8.723958,0 16.4062492,2.34375 7.7473955,2.278645 14.5182288,6.901041 z"
       style="font-size:133.33332825px;fill:#703800;fill-opacity:0.95294118"
       id="path152" />
    <path
       d="M 30.445312,25.516275 H 43.596353 V 122.71679 H 30.445312 Z"
       style="font-size:133.33332825px;fill:#703800;fill-opacity:0.95294118"
       id="path154" />
    <path
       d="m 142.55467,33.003254 v 13.867187 q -6.64062,-6.184895 -14.1927,-9.244791 -7.48698,-3.059896 -15.95052,-3.059896 -16.66667,0 -25.520836,10.221354 -8.854167,10.156249 -8.854167,29.427082 0,19.205728 8.854167,29.42708 8.854166,10.15625 25.520836,10.15625 8.46354,0 15.95052,-3.05989 7.55208,-3.0599 14.1927,-9.2448 v 13.73698 q -6.90104,4.6875 -14.64843,7.03125 -7.68229,2.34375 -16.27604,2.34375 -22.070316,0 -34.765628,-13.47656 Q 64.16926,97.586585 64.16926,74.21419 q 0,-23.437499 12.695312,-36.914061 12.695312,-13.541666 34.765628,-13.541666 8.72395,0 16.40625,2.34375 7.74739,2.278645 14.51822,6.901041 z"
       style="font-size:133.33332825px;fill:#703800;fill-opacity:0.95294118"
       id="path156" />
    <path
       d="m 162.99737,25.516275 h 13.15105 v 86.132805 h 47.33072 v 11.06771 h -60.48177 z"
       style="font-size:133.33332825px;fill:#703800;fill-opacity:0.95294118"
       id="path158" />
    <path
       d="m 272.8281,38.472004 -17.83854,48.372394 h 35.74219 z m -7.42187,-12.955729 h 14.90885 l 37.04427,97.200515 h -13.67187 l -8.85417,-24.934893 h -43.8151 l -8.85417,24.934893 h -13.86719 z"
       style="font-size:133.33332825px;fill:#703800;fill-opacity:0.95294118"
       id="path160" />
    <path
       d="m 377.58069,77.143877 q 4.23177,1.432292 8.20312,6.119792 4.03646,4.6875 8.07292,12.890624 l 13.34635,26.562497 h -14.1276 l -12.4349,-24.934893 q -4.81771,-9.765624 -9.375,-12.955728 -4.49219,-3.190104 -12.30468,-3.190104 H 344.63798 V 122.71679 H 331.48694 V 25.516275 h 29.6875 q 16.66666,0 24.86979,6.966146 8.20312,6.966145 8.20312,21.028645 0,9.179687 -4.29687,15.234374 -4.23177,6.054688 -12.36979,8.398437 z m -32.94271,-40.82031 v 34.505207 h 16.53646 q 9.5052,0 14.32291,-4.361979 4.88282,-4.427084 4.88282,-12.955729 0,-8.528646 -4.88282,-12.82552 -4.81771,-4.361979 -14.32291,-4.361979 z"
       style="font-size:133.33332825px;fill:#703800;fill-opacity:0.95294118"
       id="path162" />
    <path
       d="m 424.19531,25.516275 h 61.45833 v 11.067708 h -48.30729 v 28.776041 h 46.28906 v 11.067708 h -46.28906 v 35.221348 h 49.47917 v 11.06771 h -62.63021 z"
       style="font-size:133.33332825px;fill:#703800;fill-opacity:0.95294118"
       id="path164" />
  </g>
</svg>
