<?xml version="1.0" encoding="UTF-8" standalone="no"?>
<!-- Svg Vector Icons : http://www.onlinewebfonts.com/icon -->

<svg
   xmlns:dc="http://purl.org/dc/elements/1.1/"
   xmlns:cc="http://creativecommons.org/ns#"
   xmlns:rdf="http://www.w3.org/1999/02/22-rdf-syntax-ns#"
   xmlns:svg="http://www.w3.org/2000/svg"
   xmlns="http://www.w3.org/2000/svg"
   xmlns:sodipodi="http://sodipodi.sourceforge.net/DTD/sodipodi-0.dtd"
   xmlns:inkscape="http://www.inkscape.org/namespaces/inkscape"
   version="1.1"
   x="0px"
   y="0px"
   viewBox="0 0 1000 1000"
   enable-background="new 0 0 1000 1000"
   xml:space="preserve"
   id="svg4658"
   sodipodi:docname="menu.svg"
   inkscape:version="0.92.1 r15371"><defs
     id="defs4662" /><sodipodi:namedview
     pagecolor="#ffffff"
     bordercolor="#666666"
     borderopacity="1"
     objecttolerance="10"
     gridtolerance="10"
     guidetolerance="10"
     inkscape:pageopacity="0"
     inkscape:pageshadow="2"
     inkscape:window-width="1440"
     inkscape:window-height="800"
     id="namedview4660"
     showgrid="false"
     inkscape:zoom="0.236"
     inkscape:cx="501.22898"
     inkscape:cy="500.73005"
     inkscape:window-x="0"
     inkscape:window-y="35"
     inkscape:window-maximized="1"
     inkscape:current-layer="svg4658" /><metadata
     id="metadata4617"> Svg Vector Icons : http://www.onlinewebfonts.com/icon <rdf:RDF><cc:Work
     rdf:about=""><dc:format>image/svg+xml</dc:format><dc:type
       rdf:resource="http://purl.org/dc/dcmitype/StillImage" /><dc:title></dc:title></cc:Work></rdf:RDF></metadata><g
     id="g4656"><g
       id="g4624"><g
         id="_x33__1_"><g
           id="g4621"><path
             d="M108,206h784c54.1,0,98-43.9,98-98c0-54.1-43.9-98-98-98H108c-54.1,0-98,43.9-98,98C10,162.1,53.9,206,108,206z M892,402H108c-54.1,0-98,43.9-98,98c0,54.1,43.9,98,98,98h784c54.1,0,98-43.9,98-98C990,445.9,946.1,402,892,402z M892,794H108c-54.1,0-98,43.9-98,98c0,54.1,43.9,98,98,98h784c54.1,0,98-43.9,98-98C990,837.9,946.1,794,892,794z"
             id="path4619" /></g></g></g><g
       id="g4626" /><g
       id="g4628" /><g
       id="g4630" /><g
       id="g4632" /><g
       id="g4634" /><g
       id="g4636" /><g
       id="g4638" /><g
       id="g4640" /><g
       id="g4642" /><g
       id="g4644" /><g
       id="g4646" /><g
       id="g4648" /><g
       id="g4650" /><g
       id="g4652" /><g
       id="g4654" /></g></svg>