<?xml version="1.0" encoding="UTF-8"?>
<svg viewBox="0 0 45 46" xmlns="http://www.w3.org/2000/svg" xmlns:xlink="http://www.w3.org/1999/xlink">
<defs>
<filter id="imagebot_27">
<feGaussianBlur stdDeviation=".2397"/>
</filter>
<filter id="imagebot_6"></filter>
<filter height="1.48246" id="imagebot_29" width="1.30918" x="-.15459" y="-.24123">
<feGaussianBlur stdDeviation=".2037"/>
</filter>
<filter height="1.34152" id="imagebot_4" width="1.21287" x="-.10643" y="-.17076"></filter>
<filter height="1.19698" id="imagebot_8" width="1.24108" x="-.12054" y="-.09849"></filter>
<filter height="1.13295" id="imagebot_12" width="1.21379" x="-.10689" y="-.06648"></filter>
<linearGradient id="imagebot_77">
<stop offset="0" stop-color="#520"/>
<stop offset="1" stop-color="#b6632c"/>
</linearGradient>
<linearGradient id="imagebot_78">
<stop offset="0" stop-color="#ffd73b"/>
<stop offset="1" stop-color="#ee8400"/>
</linearGradient>
<linearGradient id="imagebot_81">
<stop offset="0" stop-color="#ff5959"/>
<stop offset="1" stop-color="#d90000"/>
</linearGradient>
<linearGradient id="imagebot_80">
<stop offset="0" stop-color="#7ed249"/>
<stop offset="1" stop-color="#286325"/>
</linearGradient>
<linearGradient id="imagebot_82">
<stop offset="0" stop-color="#9a5723"/>
<stop offset="1" stop-color="#db9762"/>
</linearGradient>
<linearGradient id="imagebot_41" x2=".90873" xlink:href="#imagebot_78"/>
<linearGradient id="imagebot_39" x1=".11163" x2=".63256" xlink:href="#imagebot_78" y1=".41371" y2=".56345"/>
<linearGradient id="imagebot_37" x2="1.33765" xlink:href="#imagebot_78"/>
<linearGradient id="imagebot_35" x1=".61146" x2=".34658" xlink:href="#imagebot_77" y1=".37319" y2=".10585"/>
<linearGradient id="imagebot_33" x2="0" xlink:href="#imagebot_78" y1="2.14364" y2=".61714"/>
<linearGradient id="imagebot_31" x2=".9928" xlink:href="#imagebot_78" y1=".52243" y2=".23459"/>
<linearGradient id="imagebot_67" x1=".28277" x2=".27548" xlink:href="#imagebot_82" y1=".17074" y2=".45156"/>
<linearGradient id="imagebot_65" x1=".32465" x2=".1578" xlink:href="#imagebot_82" y2=".5"/>
<linearGradient id="imagebot_63" x1=".38286" x2=".28653" xlink:href="#imagebot_82" y1=".1618" y2=".50398"/>
<linearGradient id="imagebot_61" x1=".4808" x2=".41311" xlink:href="#imagebot_82" y1=".08333" y2=".39722"/>
<linearGradient id="imagebot_55" x1=".61445" x2=".5" xlink:href="#imagebot_80" y1=".57605" y2="-.11874"/>
<linearGradient id="imagebot_57" x1=".11142" x2="1.22636" xlink:href="#imagebot_80"/>
<linearGradient id="imagebot_16" x1=".49647" x2="1.55886" xlink:href="#imagebot_77" y1=".17104" y2="-.00001"/>
<linearGradient id="imagebot_24" x1=".49648" x2="1.55887" xlink:href="#imagebot_77" y1=".17104" y2="-.00001"/>
<linearGradient id="imagebot_51" x1=".29154" x2=".86923" xlink:href="#imagebot_77" y1=".23188" y2="-.18227"/>
<linearGradient id="imagebot_47" x1=".18167" x2="-.11757" xlink:href="#imagebot_77" y1=".64568" y2="-.61574"/>
<radialGradient cx="15.625" cy="1021.1249" gradientTransform="matrix(.243555,1.154828,-1.054433,.222388,1088.5269,779.10683)" gradientUnits="userSpaceOnUse" id="imagebot_59" r="15.07241">
<stop offset="0" stop-color="#4d4d4d"/>
<stop offset="1" stop-color="#2b2b2b"/>
</radialGradient>
<radialGradient cx="17.36039" cy="1023.9149" gradientTransform="matrix(.400597,.904994,-.76871,.340276,797.49962,661.7292)" gradientUnits="userSpaceOnUse" id="imagebot_43" r="17.59222" xlink:href="#imagebot_78"/>
<radialGradient cx="18.8125" cy="1040.8357" gradientTransform="matrix(.743641,.795838,-.678172,.633692,710.68819,366.44577)" gradientUnits="userSpaceOnUse" id="imagebot_14" r="4.79061" xlink:href="#imagebot_81"/>
<radialGradient cx="13" cy="1038.0936" gradientTransform="matrix(.388427,.9524,-.859432,.350512,900.12184,661.99127)" gradientUnits="userSpaceOnUse" id="imagebot_22" r="4.79061" xlink:href="#imagebot_81"/>
<radialGradient cx="16.3125" cy="1030.1973" gradientTransform="matrix(.344054,1.216848,-.993704,.280962,1034.4117,720.8781)" gradientUnits="userSpaceOnUse" id="imagebot_49" r="3.88417" xlink:href="#imagebot_81"/>
<radialGradient cx="19.3125" cy="18.5" gradientTransform="matrix(1.55496,.153306,-.145833,1.47917,-1.01978,1014.54)" gradientUnits="userSpaceOnUse" id="imagebot_20" r="3" xlink:href="#imagebot_77"/>
<radialGradient cx="19.5625" cy="18.5" gradientTransform="matrix(1.47917,3.16667e-08,-1.78404e-08,.833333,2.6263,1030.45)" gradientUnits="userSpaceOnUse" id="imagebot_18" r="3" xlink:href="#imagebot_77"/>
<radialGradient cx="19.54167" cy="18.5" gradientTransform="matrix(1.486111,4.5288099e-7,-2.5473629e-7,.833655,-9.499421,3.077379)" gradientUnits="userSpaceOnUse" id="imagebot_53" r="3" xlink:href="#imagebot_77"/>
<radialGradient cx="8.24972" cy="1037.2844" gradientTransform="matrix(2.686095,-.06458,.03308,1.375921,-48.223528,-389.74103)" gradientUnits="userSpaceOnUse" id="imagebot_45" r="5.66878" xlink:href="#imagebot_78"/>
</defs>
<path d="m41.9679,14.92103c-.43136-3.40281-1.06695-6.38926-2.26828-8.82507-1.44843-2.93684-3.71926-5.07323-7.44613-6.17381-2.62996-5.66928-11.71026.563-18.72728.18261-.2739.73649 1.24369,1.91277 2.08107,1.77932 5.02871,4.62427-4.43847,7.26758-4.75105,12.9206 5.80546,3.22865 8.27442-6.04416 17.38712-6.04416s8.35643,5.30381 13.72455,6.1605v1e-005z" fill="url(#imagebot_67)" fill-rule="evenodd" transform="matrix(.928357,.396228,-.430378,1.1459,4.04118,2.284108)"/>
<path d="m21.3125,1013.74c-.766.7-.9706,2.02-.0167,2.57 .552.31.1502.93-.1396,1.43l.0313.25c.0625-.19 3.625,2.87 3.875,3.06 .2449.18 15.9944,8.46 16.6563,8.81 .0439-.68-.3191-1.46.0483-2 2.5484-3.72-.6107-7.12-4.1733-9.97-5.4627-2.95-10.9246-3.81-16.2813-4.15z" fill="url(#imagebot_65)" transform="matrix(1,0,0,1,-3.50926,-1002.8464)"/>
<path d="m21.3438,1016.33c-1.0615-.39-3.3228,1.49-2.1876,3.38l-.2187.71c.1875.13-1.4375,5-1.125,5.44 .0588.08 1.0706.47 2.4063.94 2.8512-1.07 6.0942-2.01 9.7812-.44 3.8211,1.63 5.3124,3.71 6.2188,5.78 1.415.46 4.4687,1.47 4.4687,1.47l.6563-.53c.0465-.28-.0779-.65.1298-.85 1.2136-1.12 1.3294-2.85.3076-4.27-.0071-.02.2574-.67.25-.69-2.2148-5.61-10.6726-10.54-20.6874-10.94z" fill="url(#imagebot_63)" transform="matrix(1,0,0,1,-3.50926,-1002.8464)"/>
<path d="m19.2812,1019.8c-2.7582.67-5.3849,1.73-8.0312,6.59 4,6 10.2902-3.64 18.75-.03 7.5828,3.24 5.9987,8.2 8.9062,11.44 .5356.09-1.5654,4.47-1.1562,4.5 2.1092-.55 4.6658-7.02 3.4688-8.47-.0848-.09-.2813-.34-.2813-.34 .8667-7.01-7.3796-12.92-21.6563-13.69z" fill="url(#imagebot_61)" transform="matrix(1,0,0,1,-3.50926,-1002.8464)"/>
<path d="m40,1039.36218c-2.13396,5.68164-10.34498,7.52149-18.33983,4.10926s-12.74604-10.78431-10.61209-16.46607 12.23505-5.63159 20.2299-2.21924 10.85598,8.89429 8.72202,14.57605z" fill="url(#imagebot_59)" fill-rule="evenodd" transform="matrix(1,0,0,1,-3.50926,-1002.8464)"/>
<path d="m40.32289,1034.38416c-1.54668.38647-2.67252,1.13586-3.35359,2.26855l1.92481,1.60937-1.28014.57752 1.7833,2.35278-2.90465-.35681 .27343,1.76734c-6.5817-2.66541-8.11251-8.62195-5.37355-15.10108l.87603,2.42017 1.84569-3.31897 .01445,3.09167 1.55876-.43725-.006,2.09204c1.40959.51806 2.46381-.04004 3.58093-.40833l-.56167,1.34656 2.9302-.50305-2.19069,2.03943 .88166.5603 .00103-.00024z" fill="url(#imagebot_57)" transform="matrix(1,0,0,1,-3.50926,-1002.8464)"/>
<path d="m19.92698,1021.73761c.22694,1.578.85772,2.77435 1.91522,3.5672l1.79699-1.75092 .44414,1.33234 2.52214-1.53442-.6508,2.85315 1.7861-.09192c-3.322,6.276-9.40342,7.19214-15.5699,3.80761l2.49674-.625-3.11359-2.17419 3.07703.30054-.27627-1.59522 2.08057.219c.65889-1.34949.21087-2.45508-.04153-3.60389l1.28242.69593-.20207-2.96619 1.80566,2.38696 .64726-.82-.00011-.00098z" fill="url(#imagebot_55)" transform="matrix(1,0,0,1,-3.50926,-1002.8464)"/>
<path d="m24,18.5c0,1.38071-1.34315,2.5-3,2.5s-3-1.11929-3-2.5 1.34315-2.5 3-2.5 3,1.11929 3,2.5z" fill="url(#imagebot_53)" fill-rule="evenodd" transform="matrix(.9,0,0,.9,-12.70926,12.8636)"/>
<path d="m16.46978,1030.33215c-.7438-.88134-1.03981-1.88708-1.44711-2.86169 .42787-.16748.89856-.41126 1.07805-.13965-.04572,1.14856.08661,2.00708.65112,3.02454l-.28214-.02295 8e-005-.00025z" fill="url(#imagebot_51)" transform="matrix(1,0,0,1,-3.50926,-1002.8464)"/>
<path d="m13.76468,1031.41589c.18728,1.69593 4.11916,4.35669 5.42813,3.20484 .86033-1.09778 1.87244-1.37598 2.10814-1.76465 1.25103-2.06336-2.84884-9.92877-5.30095-3.4939-1.33827.18909-2.01064.7179-2.23532,2.05371z" fill="url(#imagebot_49)" transform="matrix(1,0,0,1,-3.50926,-1002.8464)"/>
<path d="m6.80045,1038.30933c-1.05947.45568-2.10779.44665-3.15869.55334-.03596-.45813-.1325-.97937.17953-1.07214 1.08578.37744 1.94579.50024 3.08331.25573l-.10398.26319-.00017-.00012z" fill="url(#imagebot_47)" transform="matrix(1,0,0,1,-3.50926,-1002.8464)"/>
<path d="m6.26213,1038.33545c.91192,2.36877 3.80106-.5813 5.73787-.97327 3.14069-.36889 5.35711-.47424 5.00717-3.45373-.36888-3.14075-2.5484-5.43189-4.35904-4.58252-3.62127,1.69897-2.34707,4.41491-4.1577,5.2644s-3.76818,2.58667-2.2283,3.74512z" fill="url(#imagebot_45)" transform="matrix(1,0,0,1,-3.50926,-1002.8464)"/>
<g transform="matrix(.578984,0,0,.578984,9.87884,-565.2724)">
<path d="m9,1027.36218c-2,3-2.5099,8.43067-2,12 1,7 8,6 11,7s17,0 20-3 4-5 4-9c-1-11-4-14-16-15-8-1-12,1-17,8z" fill="url(#imagebot_43)"/>
<path d="m22.9739,1023.05-4.7819,21.15c0,0 5.3017-20.11 4.7819-21.15z" fill="url(#imagebot_41)"/>
<path d="m21.0508,1021.9c-4.8991,1.58-11.13064,12.17-11.17513,20.48 .51543-5.79 6.39273-18.2 11.17513-20.48z" fill="url(#imagebot_39)"/>
<path d="m25.4169,1023.51c.3639.3 3.9346,14.46 3.6903,19.91 1.1318-2.74-.9232-15.28-3.6903-19.91z" fill="url(#imagebot_37)"/>
<path d="m23,1021.36218c1.94802-3.68811 2.90848-4.7525 5.12882-6.07678 2.10316-.12134 3.94427.59198 3.3243,2.41577-4,2-2.97289,1.8169-6.45312,4.66101-1,0-2,0-2-1z" fill="url(#imagebot_35)"/>
<path d="m21.62252,1020.81201c-1.64683-.55371-3.77479-.23388-5.66551-.104l-.98757.57178c1.85434-.20051 5.07513-.95826 6.65308-.46778z" fill="url(#imagebot_33)"/>
<path d="m28.6914,1022.11c3.8212.39 11.0363,8.38 11.6429,12.22 .0851-4.37-7.8183-12.82-11.6429-12.22z" fill="url(#imagebot_31)"/>
<path d="m28.1716,1015.51c.8972.77 1.5563,1.77 2.9628,2.03 0,0 1.3514-1.61-2.9628-2.03z" fill="#fff" fill-opacity=".48" filter="url(#imagebot_29)"/>
<path d="m10.9672,1025.49c3.4766-1.15 7.5905-5.65 11.9028-6.13-.4013-.71-9.3196.83-11.9028,6.13z" fill="#fff" fill-opacity=".6711" filter="url(#imagebot_27)"/>
</g>
<path d="m14.36311,1037.60132c-.12479-1.14649.19126-2.146.39774-3.18201 .44849.09998.97503.16077.97227.48621-.67941.92724-1.04912,1.71338-1.14904,2.87256l-.22097-.17676z" fill="url(#imagebot_24)" transform="matrix(1,0,0,1,-3.50926,-1002.8464)"/>
<path d="m10.57187,1036.50964c-1.31118,1.78675.11141,7.78675 2.37562,7.83533 1.78758-.29407 3,.32935 3.56706.16467 3.00972-.87414 6-12-2-8-1.44622-.99511-2.55398-1.0802-3.94268,0z" fill="url(#imagebot_22)" transform="matrix(1,0,0,1,-3.50926,-1002.8464)"/>
<path d="m31,1044.86c0,1.38-1.3431,2.5-3,2.5s-3-1.12-3-2.5 1.3431-2.5 3-2.5 3,1.12 3,2.5z" fill="url(#imagebot_20)" fill-rule="evenodd" transform="matrix(1,0,0,1,-3.50926,-1002.8464)"/>
<path d="m36,1045.86c0,1.38-1.3431,2.5-3,2.5s-3-1.12-3-2.5 1.3431-2.5 3-2.5 3,1.12 3,2.5z" fill="url(#imagebot_18)" fill-rule="evenodd" transform="matrix(1,0,0,1,-3.50926,-1002.8464)"/>
<path d="m19.88738,1040.25305c-.12478-1.14648.19126-2.14599.39775-3.18201 .44848.09998.97503.16065.97227.48621-.67942.92725-1.04913,1.71338-1.14905,2.87256l-.22097-.17676z" fill="url(#imagebot_16)" transform="matrix(1,0,0,1,-3.50926,-1002.8464)"/>
<path d="m16.05732,1039.36218c-1.31118,1.78675.11141,7.78675 2.37563,7.83533 1.78757-.29407 3,.32935 3.56705.16467 3.00973-.87414 6-12-2-8-1.44622-.99511-2.55397-1.0802-3.94268,0z" fill="url(#imagebot_14)" transform="matrix(1,0,0,1,-3.50926,-1002.8464)"/>
<path d="m18.429,1038.84c-1.8033.44-2.5215,1.47-2.6517,4.33-.0304-.06-.7132-4.96 2.6517-4.33z" fill="#fff" fill-opacity=".5491" filter="url(#imagebot_12)" transform="matrix(1,0,0,1,-3.50926,-1002.8464)"/>
<path d="m13.2141,1036.14c-1.4747-.14-2.9874,1.45-2.8727,4.33-.53924-3.87 1.231-4.7 2.8727-4.33z" fill="#fff" fill-opacity=".5491" filter="url(#imagebot_6)" transform="matrix(1,0,0,1,-3.50926,-1002.8464)"/>
<path d="m6.14299,1037.91c-.38454-.99 1.39622-1.97 2.16551-2.96-.00544,0-3.35006,1.89-2.16551,2.96z" fill="#fff" fill-opacity=".5491" filter="url(#imagebot_8)" transform="matrix(1,0,0,1,-3.50926,-1002.8464)"/>
<path d="m9.94369,1033.23c.86001-1.94 2.01741-3.44 3.93331-3.85-.1857-.18-3.4696.46-3.93331,3.85z" fill="#fff" fill-opacity=".5491" filter="url(#imagebot_6)" transform="matrix(1,0,0,1,-3.50926,-1002.8464)"/>
<path d="m16.4844,1028.81c.7495-1.07 1.6411-1.69 2.7401-1.24-.0497-.15-1.522-1.52-2.7401,1.24z" fill="#fff" fill-opacity=".5491" filter="url(#imagebot_4)" transform="matrix(1,0,0,1,-3.50926,-1002.8464)"/>
<title>Layer 1</title>
</svg>
