<?xml version="1.0" encoding="UTF-8" standalone="no"?>
<svg viewBox="0 0 300.78833 371.16595" xmlns="http://www.w3.org/2000/svg" xmlns:xlink="http://www.w3.org/1999/xlink">
<defs>
<filter height="1.93061" id="filter8152" width="1.06088" x="-.03044" y="-.46531">
<feGaussianBlur stdDeviation="1.93878"/>
</filter>
<filter height="5.4898" id="filter8194" width="1.29372" x="-.14686" y="-2.2449">
<feGaussianBlur stdDeviation="9.35374"/>
</filter>
<filter height="1.74498" id="filter8226" width="1.96777" x="-.48389" y="-.37249">
<feGaussianBlur stdDeviation="30.819"/>
</filter>
<filter height="1.19026" id="filter8295" width="1.60083" x="-.30041" y="-.09513">
<feGaussianBlur stdDeviation="3.39753"/>
</filter>
<linearGradient gradientUnits="userSpaceOnUse" id="linearGradient8512" x1="300" x2="395.71429" y1="376.64789" y2="372.36218">
<stop offset="0" stop-color="#800000"/>
<stop offset="1" stop-color="#800000" stop-opacity="0"/>
</linearGradient>
<linearGradient id="linearGradient8202-7">
<stop offset="0" stop-color="#fffcfc"/>
<stop offset=".5" stop-color="#a49595" stop-opacity=".49804"/>
<stop offset="1" stop-color="#fff5f5" stop-opacity="0"/>
</linearGradient>
<linearGradient gradientUnits="userSpaceOnUse" id="linearGradient9200" x1="239.60583" x2="259.60584" xlink:href="#linearGradient8202-7"/>
<linearGradient gradientUnits="userSpaceOnUse" id="linearGradient9291" x1="394.60583" x2="401.0344" xlink:href="#linearGradient8202-7"/>
</defs>
<g transform="translate(-158.89154,-150.79878)">
<path d="m241.54137,239.30429h157.35397v205.84129h-157.35397z" stroke="#f1e0e0" stroke-width="1.72982"/>
<path d="m1.42858,193.79076h152.85715v10h-152.85715z" fill="#f00" filter="url(#filter8152)" transform="matrix(1,0,0,16.31712,242.85714,-2894.1885)"/>
<path d="m232.85713,243.79074h152.85715v198.57143h-152.85715z" fill="#0f0" filter="url(#filter8226)"/>
<path d="m254.5,439.5c-1.88677,1.34535-2.90625,2.7947-2.90625,4.28125 0,3.85033 6.82704,7.35721 17.90625,9.90625-10.19172,2.3853-16.3125,5.39788-16.3125,8.6875 0,3.69048 7.72885,7.03604 20.25,9.53125-11.68798,2.59669-19.0625,6.31883-19.0625,10.46875 0,4.15773 7.39863,7.87147 19.125,10.46875-10.83758,2.57189-18.09375,7.14101-18.09375,12.375 0,8.05263 17.08547,14.59375 38.15625,14.59375s38.15625-6.54112 38.15625-14.59375c0-3.35343-2.95847-6.44298-7.9375-8.90625 27.08041-1.24247 47.5625-7.00056 47.5625-13.9375 0-2.81056-3.38648-5.42002-9.1875-7.625 23.95962-2.32276 40.375-6.98285 40.375-12.375 0-4.86992-13.38806-9.16037-33.625-11.65625 5.13911-2.05037 8.09375-4.41458 8.09375-6.9375 0-1.48655-1.01764-2.9359-2.90625-4.28125h-119.59375z" fill="#0f0" stroke="#000" stroke-width="4.30445"/>
<path d="m268.89432,439.5c-3.95307,1.89796-6.23982,4.08518-6.23982,6.42409 0,3.55893 5.22239,6.80667 13.70186,9.16279-7.80022,2.20477-12.47962,4.97255-12.47962,8.0132 0,3.4112 5.91998,6.51831 15.50303,8.82468-8.94538,2.40018-14.60244,5.83409-14.60244,9.66995s5.65983,7.26925 14.6346,9.66995c-8.29453,2.37726-13.8305,6.59025-13.8305,11.42812 0,7.4432 13.07838,13.4906 29.20488,13.4906s29.20489-6.0474 29.20489-13.4906c0-3.09962-2.2683-5.93923-6.07899-8.21607 20.72597-1.14843 36.40962-6.47006 36.40962-12.882 0-2.59786-2.60411-5.02838-7.04391-7.0665 18.33748-2.14697 30.90958-6.44406 30.90958-11.42813 0-4.50135-10.24284-8.47871-25.73118-10.78571 3.93322-1.89519 6.17548-4.05831 6.17548-6.39028 0-2.33891-2.28335-4.52613-6.23981-6.42409h-83.49767z" fill="#fff" opacity=".50811"/>
<path d="m242.85713,240.93361h152.85715v198.57143h-152.85715z" fill="url(#linearGradient8512)" stroke="#000" stroke-width="5"/>
<path d="m242.85715,283.79077h152.85715v10h-152.85715z" fill="#f00" filter="url(#filter8194)"/>
<path d="m242.85715,335.21933h152.85715v10h-152.85715z" fill="#f00" filter="url(#filter8194)"/>
<path d="m242.85715,243.79076h152.85715v10h-152.85715z" fill="#f00" filter="url(#filter8152)" transform="matrix(.99119,0,0,.29704,3.52702,168.10419)"/>
<path d="m242.85715,385.21933h152.85715v10h-152.85715z" fill="#f00" filter="url(#filter8194)"/>
<path d="m-300,258.79074c0,8.28427-7.67511,15-17.14285,15s-17.14286-6.71573-17.14286-15 7.67512-15 17.14286-15 17.14285,6.71573 17.14285,15z" fill="#008000" stroke="#000" stroke-width="4" transform="matrix(.43058,0,0,.6171,415.12622,45.51854)"/>
<path d="m-300,258.79074c0,8.28427-7.67511,15-17.14285,15s-17.14286-6.71573-17.14286-15 7.67512-15 17.14286-15 17.14285,6.71573 17.14285,15z" fill="#0f0" transform="matrix(.22554,0,0,.32324,351.94547,120.68495)"/>
<path d="m-300,258.79074c0,8.28427-7.67511,15-17.14285,15s-17.14286-6.71573-17.14286-15 7.67512-15 17.14286-15 17.14285,6.71573 17.14285,15z" fill="#008000" stroke="#000" stroke-width="4" transform="matrix(.57983,0,0,.41176,522.46099,79.37271)"/>
<path d="m-300,258.79074c0,8.28427-7.67511,15-17.14285,15s-17.14286-6.71573-17.14286-15 7.67512-15 17.14286-15 17.14285,6.71573 17.14285,15z" fill="#0f0" transform="matrix(.30372,0,0,.21569,437.37953,129.52775)"/>
<path d="m-379.33276,83.05041 6.75853,18.71451-8.32552-17.01062-3.84652,18.3829 1.7383-19.52856-10.81129,15.69763 11.7405-16.19807-17.34014,7.39211 16.09574-7.67798-16.99242-1.19588 16.48993.27651-13.3404-12.5213 13.07771,10.00076-6.13135-15.24675 7.54515,15.38813 3.89333-17.29644-1.63187,16.91158 11.38872-13.56189-9.4754,14.06233 15.95402-6.31022-17.55211,9.75336 17.56977,2.70214-17.22056-3.40952 13.54044,12.07723-13.12456-11.40195z" fill="#0f0" transform="translate(675.71428,88.57142)"/>
<path d="m244.28572,286.64789h147.14285v85.71429h-147.14285z" fill="#ff0"/>
<path d="m364,286.64789h27.14286v85.71429h-27.14286z" fill="#808000" filter="url(#filter8295)" opacity=".27807" transform="matrix(.69778,0,0,1.5321,120.67751,-156.04254)"/>
<path d="m196.47468,193.60625c0,5.64865-5.48366,10.22779-12.2481,10.22779s-12.2481-4.57914-12.2481-10.22779 5.48366-10.2278 12.2481-10.2278 12.2481,4.57914 12.2481,10.2278z" fill="#fff" opacity=".79679" transform="matrix(.23709,-.00242,.00233,.24692,233.78906,152.94011)"/>
<path d="m-300,258.79074c0,8.28427-7.67511,15-17.14285,15s-17.14286-6.71573-17.14286-15 7.67512-15 17.14286-15 17.14285,6.71573 17.14285,15z" fill="#008000" stroke="#000" stroke-width="4" transform="matrix(.57983,0,0,.57983,495.31813,68.73561)"/>
<path d="m-300,258.79074c0,8.28427-7.67511,15-17.14285,15s-17.14286-6.71573-17.14286-15 7.67512-15 17.14286-15 17.14285,6.71573 17.14285,15z" fill="#0f0" transform="matrix(.30372,0,0,.30372,410.23667,139.3621)"/>
<path d="m196.47468,193.60625c0,5.64865-5.48366,10.22779-12.2481,10.22779s-12.2481-4.57914-12.2481-10.22779 5.48366-10.2278 12.2481-10.2278 12.2481,4.57914 12.2481,10.2278z" fill="#fff" opacity=".79679" transform="matrix(.23709,-.00242,.00233,.24692,267.37663,166.57717)"/>
<path d="m196.47468,193.60625c0,5.64865-5.48366,10.22779-12.2481,10.22779s-12.2481-4.57914-12.2481-10.22779 5.48366-10.2278 12.2481-10.2278 12.2481,4.57914 12.2481,10.2278z" fill="#fff" opacity=".79679" transform="matrix(.23709,-.00242,.00233,.24692,294.14567,135.76752)"/>
<path d="m282.35207,430.56422c.8991,7.16213-22.63598,17.88154-52.56706,23.94247s-54.9239,5.16824-55.823-1.99389 22.63598-17.88155 52.56707-23.94249 54.92389-5.16823 55.82299,1.99391z" opacity=".34759"/>
<path d="m283.10244,456.02563c-5.4897,0-9.9375,3.88402-9.9375,8.6875 0,.1034-.004.20997 0,.3125h19.84375c.004-.10287.0312-.20876.0312-.3125 0-4.80348-4.4478-8.6875-9.9375-8.6875z" fill="#008000" stroke="#000" stroke-width="2.31933"/>
<path d="m282.28478,458.07544c-3.50362,0-6.32051,2.04639-6.32051,4.5625 0,.39314.06.76108.19038,1.125h12.26026c.13038-.36392.22845-.73186.22845-1.125 0-2.51611-2.85496-4.5625-6.35858-4.5625z" fill="#0f0"/>
<path d="m196.47468,193.60625c0,5.64865-5.48366,10.22779-12.2481,10.22779s-12.2481-4.57914-12.2481-10.22779 5.48366-10.2278 12.2481-10.2278 12.2481,4.57914 12.2481,10.2278z" fill="#fff" opacity=".79679" transform="matrix(.17008,-.00176,.00167,.17902,247.28042,424.71101)"/>
<path d="m307.85118,490.37103c-5.4897,0-9.9375,1.92212-9.9375,4.29926 0,.0512-.004.10391 0,.15465h19.84375c.004-.0509.0312-.10331.0312-.15465 0-2.37714-4.4478-4.29926-9.9375-4.29926z" fill="#008000" stroke="#000" stroke-width="1.63159"/>
<path d="m306.06739,491.38543c-2.87556,0-5.1875,1.01272-5.1875,2.25789 0,.19455.0492.37664.15625.55674h10.0625c.10701-.1801.1875-.36219.1875-.55674 0-1.24517-2.34319-2.25789-5.21875-2.25789z" fill="#0f0"/>
<path d="m196.47468,193.60625c0,5.64865-5.48366,10.22779-12.2481,10.22779s-12.2481-4.57914-12.2481-10.22779 5.48366-10.2278 12.2481-10.2278 12.2481,4.57914 12.2481,10.2278z" fill="#fff" opacity=".79679" transform="matrix(.09277,-.0012,9.1069351e-4,.12219,286.58682,468.64117)"/>
<path d="m337.1456,461.6294c-5.4897,0-9.9375,2.0989-9.9375,4.69467 0,.0559-.004.11346 0,.16887h19.84375c.004-.0556.0312-.11281.0312-.16887 0-2.59577-4.4478-4.69467-9.9375-4.69467z" fill="#008000" stroke="#000" stroke-width="1.70497"/>
<path d="m335.69654,462.91567c-3.71442,0-6.7008,1.10586-6.7008,2.46555 0,.21245.0636.41128.20183.60794h12.99794c.13822-.19666.24219-.39549.24219-.60794 0-1.35969-3.02674-2.46555-6.74116-2.46555z" fill="#0f0"/>
<path d="m196.47468,193.60625c0,5.64865-5.48366,10.22779-12.2481,10.22779s-12.2481-4.57914-12.2481-10.22779 5.48366-10.2278 12.2481-10.2278 12.2481,4.57914 12.2481,10.2278z" fill="#fff" opacity=".79679" transform="matrix(.10588,-.00131,.00104,.13343,313.60299,437.85583)"/>
<path d="m239.60583,234.82188h20v204.28571h-20z" fill="url(#linearGradient9200)" opacity=".52973"/>
<path d="m239.60583,244.1076h20v194.99998h-20z" fill="url(#linearGradient9200)" opacity=".52973"/>
<path d="m229.30462,467.48386a69.70052,13.13198 0 1,1 -139.40105,0 69.70052,13.13198 0 1,1 139.40105,0z" fill="#800000" stroke="#d62e2e" stroke-width="4" transform="matrix(.54088,-.97753,.94998,.55656,-319.77231,280.70816)"/>
<path d="m244.76654,318.60235c-7.38718-.17643-26.21072,23.33245-43.75,55.03125-18.70856,33.81206-30.06131,72.44387-26.4375,74.56696s.75894.68741.59375-1.03571c-.68365-7.13116 14.72775-41.72472 31.53125-72.09375 15.52305-28.05487 32.06256-49.67792 40.78125-54.15625-.29954-.91265-.76972-1.56458-1.40625-1.9375-.38693-.22669-.82002-.36324-1.3125-.375z" opacity=".3262"/>
<path d="m-138.3909,427.58282a17.17259,4.54569 0 1,1 -34.34519,0 17.17259,4.54569 0 1,1 34.34519,0z" stroke="#f1e0e0" stroke-width="1.5" transform="matrix(.54088,-.97753,.94998,.55656,-129.3639,26.14744)"/>
<path d="m394.60583,235.53616h6.42857v204.28571h-6.42857z" fill="url(#linearGradient9291)" opacity=".52973"/>
</g>
</svg>
