<?xml version="1.0" encoding="UTF-8" standalone="no"?>
<svg enable-background="new 0 0 247.095 211.642" viewBox="0 0 247.095 211.642" xml:space="preserve" xmlns="http://www.w3.org/2000/svg" xmlns:xml="http://www.w3.org/XML/1998/namespace"><defs></defs>



	<path d="m157.878,194.811c7.647.245 17.94-3.935 18.622-12.834 .559-7.298.333-14.624.333-21.941v-65.15" fill="none" stroke="#8c8c8c" stroke-linecap="square" stroke-miterlimit="10"></path>
	<path d="m137.324,91.697v81.477c0,9.696 2.99,17.007 13.295,19.479 9.958,2.39 24.268-1.252 24.268-13.629v-71.153-13.828c0-3.017-.646-2.167-3.767-2.167h-20.997c-3.808-.001-9.369.828-12.799-.179" fill="#5c0000"></path>
	<path d="m138.742,91.697v81.477c0,9.725 2.646,16.412 12.646,19.598 9.458,3.012 20.131-4.576 20.131-14.38v-67.858c0-1.981.929-18.653-.764-18.663l-32.013-.174" fill="#650000"></path>
	<path d="m139.981,91.697c.057,27.159.113,54.317.17,81.477 .019,8.427 2.019,18.335 12.207,19.552 10.363,1.238 15.794-7.429 15.794-16.977v-66.863c0-1.546.6-17.006-.496-17.013-9.225-.06-18.45-.13-27.675-.176" fill="#6e0000"></path>
	<path d="m141.4,91.519v81.645c0,8.906 2.437,18.387 12.757,19.787 4.663.633 8.32-5.392 9.742-9.303 1.165-3.204.886-6.773.886-10.131v-63.787-17.836c0-.32-21.491.253-23.385-.375" fill="#780000"></path>
	<path d="m142.819,91.519v81.475c0,8.607 1.719,18.521 11.86,20.035 3.86.577 6.083-9.381 6.507-12.357 .465-3.251.235-6.654.235-9.924v-59.878-18.522c0-1.055-16.339-.786-18.602-.829" fill="#810000"></path>
	<path d="m144.057,91.519c.056,27.159.111,54.317.168,81.475 .007,3.362.007,6.48.895,9.769 .632,2.34 1.577,4.874 3.19,6.733 .981,1.131 5.528,4.727 7.264,3.72 .729-.423 1.351-4.77 1.51-5.644 .511-2.813.971-5.681.971-8.549v-10.476-56.766-18.722c-.001-2.746-11.335-1.486-13.998-1.54" fill="#8c0000"></path>
	<path d="m145.476,91.342c.041,20.139.083,40.277.124,60.416 .018,8.407.034,16.815.052,25.224 .014,6.469 2.616,14.776 9.745,16.234 .05-17.125-.709-34.359-.709-51.537v-39.472-9.659c0-1.695-7.588-.75-9.212-1.206" fill="#960000"></path>
	<path d="m145.12,76.637 .177,38.8c2.779.632 1.771-2.791 1.771-4.517v-13.496-21.142c-.578.137-1.436.095-1.948.355" fill="#f7ffff"></path>
	<path d="m145.12,76.637 .177,38.8c2.779.632 1.771-2.791 1.771-4.517v-13.496-21.142c-.543.109-1.288.097-1.771.355" fill="none" stroke="#edffff" stroke-linecap="square" stroke-miterlimit="10"></path>
	<path d="m145.12,121.285 .177,16.299c3.012.291 1.815-4.287 1.837-6.24l.114-10.235c-.641.066-1.536-.056-2.128.176" fill="#f7ffff"></path>
	<path d="m145.12,121.285 .177,16.299c3.012.291 1.815-4.287 1.837-6.24l.114-10.235c-.596.054-1.404-.048-1.951.177" fill="none" stroke="#edffff" stroke-linecap="square" stroke-miterlimit="10"></path>
	<path d="m142.638,115.437c.03-6.349.061-12.697.091-19.046 .026-5.627-1.295-13.87.266-19.046v20.145 12.798c0,1.364.462,4.414-.357,5.149" fill="#f7ffff"></path>
	<path d="m142.638,115.437c.03-6.349.061-12.697.091-19.046 .026-5.627-1.295-13.87.266-19.046v19.046c0,5.625 1.361,13.866-.176,19.046" fill="none" stroke="#edffff" stroke-linecap="square" stroke-miterlimit="10"></path>
	<path d="m143.348,135.992c0-3.669 1.457-12.274-.354-14.884 .001,3.669-1.456,12.274.354,14.884" fill="#f7ffff"></path>
	<path d="m143.348,135.992c0-3.669 1.457-12.274-.354-14.884 .001,3.669-1.456,12.274.354,14.884" fill="none" stroke="#edffff" stroke-linecap="square" stroke-miterlimit="10"></path>
	<path d="m147.954,92.583c8.114,1.379 17.515.688 25.689-.178l-13.591-.385c-2.25-.064-11.31-1.505-12.098.563" fill="#5c0000"></path>
	<path d="m177.543,4.705c-6.128-.129-12.23-1.417-18.383-1.629-7.224-.249-14.286.109-21.48.744" fill="none" stroke="#edffff" stroke-linecap="square" stroke-miterlimit="10" stroke-width=".2"></path>
	<path d="m137.68,8.249c6.096-.11 12.103-.886 18.246-.886" fill="none" stroke="#8c8c8c" stroke-linecap="square" stroke-miterlimit="10"></path>
	<path d="m242.564,5.946c-12.251-2.509-23.855-2.729-36.32-1.418" fill="none" stroke="#edffff" stroke-linecap="square" stroke-miterlimit="10" stroke-width=".2"></path>
	<path d="m202.347,9.489c6.556-.988 12.812-1.594 19.489-1.594" fill="none" stroke="#8c8c8c" stroke-linecap="square" stroke-miterlimit="10"></path>
	<path d="m176.833,94.885v-48.506-29.322-7.434c0-2.203 2.854-4.759 4.077-6.512-15.874-3.851-33.453-2.928-49.432-.531 4.298,4.678 3.72,8.031 3.72,14.142v40.819 101.802c0,6.326-.65,13.035 0,19.347 1.207,11.701 12.297,16.088 22.68,16.122" fill="none" stroke="#8c8c8c" stroke-linecap="square" stroke-miterlimit="10"></path>
	<path d="m242.035,58.565c.035-9.725.071-19.45.106-29.174 .021-5.556.041-11.112.062-16.668 .013-3.578 1.998-5.381 4.081-8.371-16.059-4.554-33.186-3.239-49.428-.532 1.166,1.723 3.72,3.771 3.72,6.02v8.291 40.776 101.694c0,6.32-.65,13.022 0,19.328 1.207,11.702 12.293,16.086 22.676,16.121" fill="none" stroke="#8c8c8c" stroke-linecap="square" stroke-miterlimit="10"></path>
	<path d="m223.251,196.049c10.846.348 18.976-6.447 18.959-17.49l-.048-32.704c-.042-28.877-.085-57.754-.127-86.63-.001-.161-.001-.322-.001-.483" fill="none" stroke="#8c8c8c" stroke-linecap="square" stroke-miterlimit="10"></path>
	<path d="m202.347,56.084c.077,26.916.154,53.831.232,80.747 .037,13.116.075,26.231.113,39.347 .025,8.981 4.359,17.286 14.418,17.939 10.104.655 23.171-.909 23.152-14.042-.015-10.117-.029-20.233-.045-30.351-.044-30.5-.088-61-.133-91.5-.001-.613.373-2.141-.378-2.141h-11.38l-25.979.001" fill="#5c0000"></path>
	<path d="m203.762,56.084 .234,80.631c.038,13.097.076,26.193.113,39.291 .025,8.596 3.487,16.48 12.94,18.095 9.812,1.676 19.86-4.063 19.845-14.814-.016-11.046-.031-22.091-.047-33.137-.043-29.671-.085-59.342-.127-89.013-.004-2.466-9.588-1.053-11.603-1.053h-21.355" fill="#650000"></path>
	<path d="m205.181,55.908c.077,26.916.154,53.832.232,80.747 .037,13.116.075,26.231.113,39.347 .021,7.435 2.877,17.416 11.959,18.119 9.528.737 16.055-6.252 16.041-15.836l-.051-35.447-.123-86.281c-.002-1.56-25.355.418-28.171-.649" fill="#6e0000"></path>
	<path d="m206.6,55.908c.039,26.916.077,53.832.116,80.747 .019,13.116.037,26.231.057,39.347 .014,9.849 4.099,17.007 14.418,18.417 3.288.448 7.557-7.551 8.196-9.943 .797-2.986.773-5.854.77-8.909-.02-13.589-.039-27.179-.059-40.769-.008-5.663.269-78.71-.375-78.715l-23.123-.175" fill="#780000"></path>
	<path d="m207.839,55.908 .231,80.631c.038,13.097.075,26.194.113,39.291 .025,8.948 2.935,17.098 12.751,18.572 2.754.414 5.454-10.841 5.684-12.879 .297-2.632.173-5.308.169-7.949-.021-14.413-.041-28.826-.063-43.239l-.075-52.683c-.009-5.684-.017-11.368-.024-17.052-.006-3.57 1.05-4.505-2.707-4.541-5.359-.051-10.719-.114-16.079-.151" fill="#810000"></path>
	<path d="m209.257,55.731c.077,26.916.154,53.831.232,80.747 .037,13.116.075,26.231.113,39.347 .008,2.821.143,5.419.894,8.18 .638,2.345 1.58,4.861 3.19,6.73 1.083,1.257 5.319,4.82 7.264,3.723 .704-.397 1.349-4.774 1.508-5.644 .514-2.812.973-5.684.973-8.551 0-2.686-.006-5.371-.01-8.057-.021-14.76-.043-29.519-.064-44.278-.025-17.352-.051-34.704-.076-52.057l-.024-16.151c-.007-4.657-.216-3.639-5.358-3.704-2.649-.033-6.334.36-8.642-.285" fill="#8c0000"></path>
	<path d="m210.673,55.731 .114,79.676c.019,13.212.037,26.423.057,39.635 .011,7.427 1.373,17.525 9.93,19.415-.149-22.737-.752-45.545-.784-68.333l-.075-51.771c-.008-5.129-.015-10.259-.022-15.389-.001-.92-.002-1.84-.004-2.76 0-.302-7.19-.396-7.969-.426-.417-.015-.832-.03-1.247-.047" fill="#960000"></path>
	<path d="m210.497,77.877c.059,12.993.118,25.985.177,38.978 2.642.345 1.771-2.381 1.771-4.107v-13.413-21.634c-.581.069-1.416-.043-1.948.176" fill="#f7ffff"></path>
	<path d="m210.497,77.877c.059,12.993.118,25.985.177,38.978 2.642.345 1.771-2.381 1.771-4.107v-13.413-21.634c-.54.054-1.277-.033-1.771.176" fill="none" stroke="#edffff" stroke-linecap="square" stroke-miterlimit="10"></path>
	<path d="m210.497,122.524 .177,16.302c3.011.286 1.814-4.289 1.836-6.243 .037-3.412.075-6.823.112-10.235-.611.221-1.752.048-2.125.176" fill="#f7ffff"></path>
	<path d="m210.497,122.524 .177,16.302c3.011.286 1.814-4.289 1.836-6.243 .037-3.412.075-6.823.112-10.235-.599.109-1.411.083-1.948.354" fill="none" stroke="#edffff" stroke-linecap="square" stroke-miterlimit="10"></path>
	<path d="m208.015,116.679v-38.092c.812.756.356,3.791.356,5.173v13.961c.001,2.2.715,18.796-.356,18.958" fill="#f7ffff"></path>
	<path d="m208.015,116.679v-38.092c.812.756.356,3.791.356,5.173v13.961 13.154c0,1.488.539,5.146-.356,5.979" fill="none" stroke="#edffff" stroke-linecap="square" stroke-miterlimit="10"></path>
	<path d="m208.725,137.23c0-3.604 1.442-12.162-.354-14.706 .001,3.604-1.442,12.162.354,14.706" fill="#f7ffff"></path>
	<path d="m208.725,137.23c0-3.604 1.442-12.162-.354-14.706 .001,3.604-1.442,12.162.354,14.706" fill="none" stroke="#edffff" stroke-linecap="square" stroke-miterlimit="10"></path>
	<path d="m26.947,89.217 63.71,46.95 35.531,26.184c6.57,4.842 12.041,7.915 20.744,6.915 5.744-.66 10.911-2.669 15.926-5.516 2.606-1.479 4.39-2.148 5.827-4.727 1.407-2.524 2.299-5.488 3.09-8.25 2.384-8.321 1.565-19.272-5.993-24.527l-76.344-53.07-22.966-15.965c-4.443-3.088-8.938-4.83-14.643-4.288-7.768.737-16.965,4.345-20.809,11.667-3.732,7.11-4.823,16.779-4.073,24.627" fill="none" stroke="#edffff" stroke-linecap="square" stroke-miterlimit="10" stroke-width=".2"></path>
	<path d="m62.382,54.491 105.947,73.526c-4.38-1.425-10.688-.236-14.88,1.417-1.632.644-11.217,7.225-11.525,7.007l-25.121-17.712-77.877-54.911-4.182-2.949c6.382-7.989 19.058-8.748 27.638-6.378" fill="#edffff"></path>
	<path d="m62.382,54.491 105.947,73.526c-4.38-1.425-10.688-.236-14.88,1.417-1.632.644-11.217,7.225-11.525,7.007l-25.121-17.712-77.877-54.911-4.182-2.949c6.681-8.363 18.334-8.159 27.814-6.379" fill="none" stroke="#edffff" stroke-linecap="square" stroke-miterlimit="10" stroke-width=".2"></path>
	<path d="m26.947,89.217 107.366,79.018c-2.907-11.157.153-23.309 7.973-31.538-21.397-15.087-42.795-30.175-64.193-45.262l-36.605-25.811-6.703-4.726c-1.94-1.368-7.043,11.609-7.374,12.712-1.507,5.026-.93,10.49-.464,15.607" fill="#edffff"></path>
	<path d="m26.947,89.217 107.366,79.018c-2.907-11.157.153-23.309 7.973-31.538-21.397-15.087-42.795-30.175-64.193-45.262l-36.605-25.811-6.703-4.726c-1.94-1.368-7.043,11.609-7.374,12.712-1.507,5.026-.93,10.49-.464,15.607" fill="none" stroke="#edffff" stroke-linecap="square" stroke-miterlimit="10" stroke-width=".2"></path>
	<path d="m134.666,164.515-63.346-46.745c-12.041-8.885-24.082-17.77-36.122-26.656l-6.614-4.881c-1.316-.971-1.682-7.771-1.371-9.331 .741-3.722 4.134-18.499 9.557-14.676l29.738,20.966 73.461,51.791 1.431,1.009c-7.531,7.274-6.115,19.78-6.734,28.523" fill="#f0ffff"></path>
	<path d="m135.022,160.972-63.21-46.795-35.652-26.394c-5-3.701-8.627-6.411-8.149-13.273 .271-3.884 2.377-8.764 5.137-11.515 2.26-2.254 2.472-1.654 4.833.015l31.677,22.382 70.355,49.711 .502.354c-2.393,2.506-2.95,8.071-3.759,11.318-.975,3.912-.256,11.461-1.734,14.197" fill="#f3ffff"></path>
	<path d="m135.375,157.428-63.46-47.216-34.981-26.028c-4.213-3.135-8.727-6.427-8.039-12.331 .366-3.139 2.656-7.913 5.404-9.744 1.931-1.287 2.991.339 4.716,1.558l32.987,23.305 67.531,47.71c.112.08-.728,7.144-1.006,7.982-1.503,4.532-1.632,11.096-3.152,14.764" fill="#f6ffff"></path>
	<path d="m135.908,153.885-63.924-47.642-34.391-25.63c-3.373-2.514-9.752-6.989-7.812-11.86 1.153-2.895 2.704-5.517 5.491-6.908 1.431-.714 4.32,2.281 5.488,3.106l34.46,24.318 63.697,44.951c-1.105,1.905 1.526,4.551.571,7.099-1.522,4.06-2.951,8.86-3.58,12.566" fill="#f9ffff"></path>
	<path d="m136.261,150.341-63.66-47.689-33.813-25.33c-3.66-2.741-10.197-6.437-7.768-11.494 3.862-8.042 9.621-.858 14.527,2.603l39.354,27.767 40.991,28.923c5.273,3.721 11.225,6.822 14.797,12.196 1.305,1.962-4.256,10.578-4.428,13.024" fill="#fcffff"></path>
	<path d="m34.744,60.692c35.847,25.335 71.695,50.67 107.542,76.005-2.555,1.867-5.854,6.72-5.492,10.102l-60.983-45.89-36.445-27.425c-2.681-2.017-5.362-4.035-8.043-6.052-2.021-1.521 2.369-5.9 3.421-6.74" fill="#fff"></path>
	<path d="m144.59,135.105c-1.716,2.816-4.687,4.663-4.963,8.503l-63.496-47.273-35.411-26.364-5.8-4.318c-2.446-1.828-2.413-3.239.088-5.758 3.158-3.181 12.71,5.779 14.881,7.306l38.426,27.021 41.057,28.87 12.727,8.949c1.11.78 3.966,2.165 2.491,3.064" fill="#f4f7f7"></path>
	<path d="m147.068,133.863c-2.002,1.706-3.993,3.513-4.43,6.378l-54.781-40.186-36.322-26.645c-4.704-3.45-10.705-6.867-14.667-10.946 4.55-5.133 6.874-4.068 11.888-.542l34.294,24.116 66.457,46.734 .042.029c-.747.352-1.621.726-2.481,1.062" fill="#e8eeee"></path>
	<path d="m149.549,132.448c-1.44.911-3.903,2.321-3.896,4.43l-59.37-42.979-36.056-26.102c-4.278-3.097-8.956-6.015-12.826-9.585 1.295-1.073 2.916-2.289 4.604-2.569 1.95-.324 3.008,1.432 4.607,2.036 2.147.812 3.031.685 5.158,2.172l32.333,22.607 69.858,48.844 .372.26c-1.611-.026-3.587.671-4.784.886" fill="#dde6e6"></path>
	<path d="m152.03,131.029c-1.182.513-3.044.887-3.543,2.481l-58.153-41.538-36.763-26.258c-3.834-2.739-9.934-5.616-12.273-9.806 1.329-.422 2.49-1.417 3.986-1.417 1.956,0 3.192,1.46 4.872,1.95 1.934.563 3.077.15 4.818,1.365l29.462,20.55 73.278,51.111 1.225.854c-2.372-.001-4.985.587-6.909.708" fill="#d3dddd"></path>
	<path d="m154.511,129.789c-1.074-.252-2.456-.343-3.015.354l-107.008-75.474c2.502-.685 2.801-.868 5.135-.356 2.435.533 5.191.365 7.531,1.153 6.911,2.327 13.955,9.25 19.944,13.421l80.009,55.711c2.146,1.495 4.292,2.989 6.438,4.483-3.003-.456-6.123-.245-9.034.708" fill="#c8d4d4"></path>
	<path d="m62.382,54.491 105.947,73.526c-1.738-.525-4.153-.854-6.023-.619-.864.107-4.885,1.271-5.406.909l-7.189-4.98-37.33-25.863-63.82-44.214c4.558,0 9.922.344 13.821,1.241" fill="#becccc"></path>
	<path d="m134.313,168.059c9.964,5.649 23.001-2.436 30.225-8.854 7.376-6.557 12.43-20.155 5.726-28.717-2.129-2.719-2.894-2.886-6.423-2.415-2.877.384-5.645,1.063-8.449,1.802-5.456,1.435-9.923,5.059-13.814,8.95-6.882,6.881-8.71,20.771-7.265,29.234" fill="#93bfbf"></path>
	<path d="m134.313,168.059c9.964,5.649 23.001-2.436 30.225-8.854 7.376-6.557 12.43-20.155 5.726-28.717-2.129-2.719-2.894-2.886-6.423-2.415-2.877.384-5.645,1.063-8.449,1.802-5.456,1.435-9.923,5.059-13.814,8.95-7.107,7.107-8.339,20.124-7.264,29.41" fill="none" stroke="#edffff" stroke-linecap="square" stroke-miterlimit="10" stroke-width=".2"></path>
	<path d="m160.712,139.001c-6.198.93-12.358,5.366-14.707,11.25-1.255,3.144-2.008,6.529-1.331,9.904 .734,3.662 6.172,6.024 8.951,8.079 0-5.403-.36-11.865 3.751-15.977 4.002-4.002 9.386-7.212 15.205-5.816l-11.869-7.44" fill="#becccc"></path>
	<path d="m153.625,168.059c4.834,1.246 11.236-1.799 14.199-5.573 2.211-2.815 9.233-12.948 4.757-16.044-3.809-2.635-12.63,2.517-14.884,5.495-2.902,3.836-4.959,12.017-4.072,16.122" fill="#93bfbf"></path>
	<path d="m153.625,168.059c4.834,1.246 11.236-1.799 14.199-5.573 2.463-3.137 8.451-11.601 5.199-15.512-3.439-4.137-12.404,2.458-15.068,4.741-3.492,2.995-4.962,12.267-4.33,16.52" fill="none" stroke="#edffff" stroke-linecap="square" stroke-miterlimit="10" stroke-width=".2"></path>
	<path d="m146.182,150.341 8.682,5.315c.932-2.469 2.635-5.752 5.492-6.378-1.472-1.128-7.274-6.807-8.682-6.112-2.437,1.203-5.869,4.883-5.492,7.175" fill="#c8d4d4"></path>
	<path d="m160.356,161.501c1.667-3.974 3.2-6.549 7.973-6.73-.14,4.289-3.829,7.098-7.973,6.73" fill="#676e6e"></path>
	<path d="m163.899,159.91c12.771,9.285 25.542,18.569 38.313,27.854l24.031,17.472c4.995,3.631 7.215,5.189 13.31,6.406l-42.856-31.442-25.062-18.387c-2.091-1.534-7.053-7.026-7.736-1.903" fill="#4f5454"></path>
	<path d="m166.204,161.148 36.461,26.605c7.89,5.757 15.78,11.515 23.67,17.271 4.646,3.39 6.868,5.292 12.51,6.265l-40.72-29.801-24.568-17.98c-2.435-1.781-6.188-6.146-7.353-2.36" fill="#797f7f"></path>
	<path d="m168.685,162.567 34.937,25.467 22.937,16.72c4.019,2.93 6.551,5.296 11.4,6.18l-38.073-27.86-23.786-17.405c-1.475-1.08-6.674-6.661-7.415-3.102" fill="#a5aaaa"></path>
	<path d="m171.166,163.806 32.888,24.203 21.806,16.047c3.638,2.678 6.706,5.957 11.214,6.523l-65.378-47.836c-.213.348-.539,1.187-.53,1.063" fill="#d1d4d4"></path>
	<path d="m173.467,165.225 31.461,23.07 21.104,15.476c2.619,1.92 6.654,6.419 10.154,6.633l-62.543-46.065c.011.069-.153,1.554-.176.886" fill="#fff"></path>
	<path d="m165.141,160.262 7.616,5.849c-.173-1.455.785-2.45 2.129-1.596-2.067-1.551-8.52-8.346-9.745-4.253" fill="#4f5454"></path>
	<path d="m234.238,210.047c1.248-.146 3.184.385 4.606,1.242-1.576-.019-3.414-.457-4.606-1.242" fill="#4f5454"></path>
	<path d="m149.019,119.69c-3.237.183-6.345,1.188-8.152,4.076" fill="none" stroke="#b4c2c2" stroke-linecap="square" stroke-miterlimit="10"></path>
	<path d="m140.867,114.198c-3.353.282-6.229,1.009-8.149,4.074" fill="none" stroke="#b4c2c2" stroke-linecap="square" stroke-miterlimit="10"></path>
	<path d="m133.427,109.945c-2.908.232-6.679,1.065-7.973,4.077" fill="none" stroke="#b4c2c2" stroke-linecap="square" stroke-miterlimit="10"></path>
	<path d="m127.226,105.163c-3.208.665-6.009,1.096-8.149,4.073" fill="none" stroke="#b4c2c2" stroke-linecap="square" stroke-miterlimit="10"></path>
	<path d="m120.849,100.555c-3.26-.057-6.213,1.205-8.149,3.898" fill="none" stroke="#b4c2c2" stroke-linecap="square" stroke-miterlimit="10"></path>
	<path d="m115.357,96.48c-3.207.662-6.019,1.097-8.153,4.075" fill="none" stroke="#b4c2c2" stroke-linecap="square" stroke-miterlimit="10"></path>
	<path d="m108.799,92.051c-2.923.17-6.86,1.079-8.149,4.075" fill="none" stroke="#b4c2c2" stroke-linecap="square" stroke-miterlimit="10"></path>
	<path d="m102.069,87.268c-2.745.68-6.222,1.008-7.973,4.074" fill="none" stroke="#b4c2c2" stroke-linecap="square" stroke-miterlimit="10"></path>
	<path d="m95.512,82.307c-2.839.042-6.755,1.247-7.973,4.074" fill="none" stroke="#b4c2c2" stroke-linecap="square" stroke-miterlimit="10"></path>
	<path d="m88.958,77.877c-3.082.23-6.334.923-7.973,3.896" fill="none" stroke="#b4c2c2" stroke-linecap="square" stroke-miterlimit="10"></path>
	<path d="m56.71,53.605c7.516.164 13.604,6.305 19.578,10.402l5.443,3.732c.815.559 3.291-1.625 4.036-2.087 3.889-2.409 4.289-3.633 4.253-8.326-.031-4.144-3.8-17.209-10.133-14.297-7.58,3.486-15.273,7.983-23.177,10.576" fill="#becccc"></path>
	<path d="m32.263,93.823-9.479,5.492c-2.354,1.363-6.735,5.235-9.479,5.491-5.944.554-11.694-8.533-11.694-13.457 0-2.119-.215-7.175 1.824-8.301l9.79-5.409 21.696-11.986c-5.8,7.636-7.73,20.265-2.658,28.17" fill="#becccc"></path>
	<path d="m34.92,65.652-17.954,9.919-11.371,6.282c-2.82,1.558-2.569,1.632-5.401-.256 5.912-3.155 11.823-6.31 17.734-9.465 5.185-2.767 11.121-8.111 16.992-6.48" fill="#edffff"></path>
	<path d="m34.92,65.652-17.954,9.919-11.371,6.282c-2.82,1.558-2.569,1.632-5.401-.256 5.912-3.155 11.823-6.31 17.734-9.465 5.185-2.767 11.121-8.111 16.992-6.48" fill="none" stroke="#edffff" stroke-linecap="square" stroke-miterlimit="10" stroke-width=".2"></path>
	<path d="m52.99,53.074c5.048,1.063 8.594-1.68 13.271-3.818l14.9-6.812c-3.717-1.728-9.859,2.75-13.128,4.171-4.95,2.15-9.938,4.758-15.043,6.459" fill="#edffff"></path>
	<path d="m52.99,53.074c5.048,1.063 8.594-1.68 13.271-3.818l14.9-6.812c-3.717-1.728-9.859,2.75-13.128,4.171l-14.866,6.459" fill="none" stroke="#edffff" stroke-linecap="square" stroke-miterlimit="10" stroke-width=".2"></path>
	<path d="m2.674,83.369c-.834,6.2-1.732,10.958 1.771,16.655-4.455-5.026-4.543-12.035-4.251-18.426 .716.477 2.286,1.567 2.48,1.771" fill="#f6ffff"></path>
	<path d="m32.263,93.823-8.568,4.981c-1.873,1.089-5.055,3.88-7.2,3.701-5.284-.442-9.745-8.4-9.745-13.061 0-1.464-.315-7.976 1.108-8.758l7.858-4.314c6.401-3.515 12.803-7.029 19.205-10.544-6.265,7.128-7.487,20.468-2.658,27.995" fill="#b5c9c9"></path>
	<path d="m32.263,93.823c-2.897,1.668-10.353,8.169-13.432,5.971-4.213-3.008-6.843-7.48-7.12-12.705-.148-2.789.431-5.395 1.03-8.087 .416-1.869 3.214-2.62 4.794-3.499 5.795-3.225 11.59-6.45 17.386-9.675-5.824,7.676-7.782,20.008-2.658,27.995" fill="#acc7c7"></path>
	<path d="m32.263,93.823c-3.533,2.073-7.056,6.315-10.453,3.01-3.352-3.26-4.415-7.571-5.083-12.033-.565-3.773-.058-8.718 3.332-10.589l14.862-8.205c-6.322,7.176-7.544,20.202-2.658,27.817" fill="#a4c4c4"></path>
	<path d="m32.263,93.823c-3.803,2.194-4.719,3.645-7.344-.296-2.05-3.078-2.866-6.876-3.047-10.506-.097-1.95-.494-9.447 1.373-10.49l11.676-6.524c-5.566,8.045-8,19.49-2.658,27.816" fill="#9bc2c2"></path>
	<path d="m34.744,66.185c-2.51,4.715-4.823,8.729-5.37,14.166-.285,2.836.134,5.526.711,8.294 .299,1.437 3.287,6.512.936,5.532-3.889-1.621-4.312-11.774-4.25-15.06 .056-2.968.652-5.866 1.19-8.77 .255-1.378 6.024-3.559 6.783-4.162" fill="#93bfbf"></path>
	<path d="m88.072,64.235c0-4.269-.203-8.552-2.038-12.49-1.377-2.954-5.335-8.923-9.213-7.264-6.039,2.583-14.796,5.37-19.577,9.303 4.743-.14 7.905,2.397 11.869,5.137 3.623,2.503 7.198,5.08 10.796,7.62 2.386,1.684 5.701-1.119 8.163-2.306" fill="#b5c9c9"></path>
	<path d="m86.653,64.943c-.292-3.704-1.412-7.637-3.158-10.907-1.358-2.544-4.565-8.549-8.002-8.759-1.885-.115-6.335,2.72-8.153,3.543-2.743,1.242-8.057,2.586-9.744,4.962 9.962-.668 19.603,18.435 29.057,11.161" fill="#acc7c7"></path>
	<path d="m85.238,65.829c-.337-6.456-6.244-15.012-12.172-17.507-2.712-1.141-3.875-.324-6.431.854-2.458,1.133-7.49,2.456-8.859,4.43 3.79.811 5.604,1.453 9.272,3.982 4.453,3.069 12.22,11.502 18.19,8.241" fill="#a4c4c4"></path>
	<path d="m83.819,66.714c-1.647-5.471-6.586-11.434-10.997-14.903-5.65-4.442-9.271-1.174-15.226,1.439 1.97,1.366 4.77,1.11 7.177,2.747 2.695,1.833 16.736,13.433 19.046,10.717" fill="#9bc2c2"></path>
	<path d="m57.067,53.427c3.018.787 5.128.813 7.881,2.715 1.996,1.379 15.84,12.657 17.366,11.636 1.587-1.062-8.129-11.496-9.479-12.58-2.493-2.004-4.943-3.306-8.03-4.117-2.789-.734-5.188,2.43-7.738,2.346" fill="#93bfbf"></path>
	<path d="m31.021,63.527c4.062-5.199 10.079-8.92 16.603-10.106 1.527-.277 9.404-.243 8.025-3.006-1.397-2.8-5.319-4.102-8.115-4.7-6.488-1.39-13.65.832-18.625,5.095-6.395,5.48-8.87,11.513-8.87,19.804 2.955-1.583 9.939-3.584 10.982-7.087" fill="#4f5454"></path>
	<path d="m19.86,70.436c-.453-16.777 18.28-31.475 33.84-22.325-5.187-5.871-17.901-3.938-23.742-.353-8.829,5.42-12.205,13.751-11.515,23.742 .696-.239 1.287-.867 1.417-1.064" fill="#748c8c"></path>
	<path d="m29.958,65.121c2.663-3.881 6.252-6.75 10.28-9.121 2.008-1.182 4.29-1.793 6.551-2.307 2.284-.52 6.15.313 7.62-1.682-10.501-.096-23.879,1.81-26.752,14.35 .8-.268 1.774-.792 2.301-1.24" fill="#3c4040"></path>
	<path d="m138.918,127.309c2.212-3.377 5.097-5.937 9.215-6.558" fill="none" stroke="#fff" stroke-linecap="square" stroke-miterlimit="10"></path>
	<path d="m130.593,121.637c2.454-2.739 5.016-6.474 9.388-6.377" fill="none" stroke="#fff" stroke-linecap="square" stroke-miterlimit="10"></path>
	<path d="m123.33,117.386c2.36-2.775 5.087-6.467 9.388-6.379" fill="none" stroke="#fff" stroke-linecap="square" stroke-miterlimit="10"></path>
	<path d="m117.128,113.135c2.63-3.331 4.94-5.887 9.388-6.557" fill="none" stroke="#fff" stroke-linecap="square" stroke-miterlimit="10"></path>
	<path d="m110.395,108.173c2.206-3.363 5.099-5.95 9.211-6.554" fill="none" stroke="#fff" stroke-linecap="square" stroke-miterlimit="10"></path>
	<path d="m105.08,104.454c2.084-3.54 5.019-5.933 9.211-6.556" fill="none" stroke="#fff" stroke-linecap="square" stroke-miterlimit="10"></path>
	<path d="m98.525,99.848c2.198-3.535 5.183-5.924 9.388-6.558" fill="none" stroke="#fff" stroke-linecap="square" stroke-miterlimit="10"></path>
	<path d="m91.792,95.24c2.487-3.462 4.993-5.901 9.392-6.556" fill="none" stroke="#fff" stroke-linecap="square" stroke-miterlimit="10"></path>
	<path d="m84.881,90.28c2.359-2.771 5.091-6.473 9.391-6.377" fill="none" stroke="#fff" stroke-linecap="square" stroke-miterlimit="10"></path>
	<path d="m78.151,85.674c2.286-3.485 5.059-6.019 9.388-6.557" fill="none" stroke="#fff" stroke-linecap="square" stroke-miterlimit="10"></path>

</svg>
