<?xml version="1.0" encoding="UTF-8" standalone="no"?>
<svg viewBox="0 0 392.42999 523.50098" xmlns="http://www.w3.org/2000/svg" xmlns:xlink="http://www.w3.org/1999/xlink">
<defs>
<linearGradient id="linearGradient7503">
<stop offset="0" stop-color="#0f0"/>
<stop offset="1" stop-opacity=".52256"/>
</linearGradient>
<linearGradient gradientUnits="userSpaceOnUse" id="linearGradient2273" x1="195.7535" x2="584.24662">
<stop offset="0" stop-color="#ff0"/>
<stop offset="1" stop-opacity=".60902"/>
</linearGradient>
<linearGradient gradientUnits="userSpaceOnUse" id="linearGradient2277" x1="205.49656" x2="577.69475" xlink:href="#linearGradient7503"/>
<linearGradient gradientUnits="userSpaceOnUse" id="linearGradient2279" x1="203.49656" x2="575.69475" xlink:href="#linearGradient7503"/>
<linearGradient gradientUnits="userSpaceOnUse" id="linearGradient2281" x1="201.49656" x2="573.69475" xlink:href="#linearGradient7503"/>
<linearGradient gradientUnits="userSpaceOnUse" id="linearGradient2283" x1="197.49656" x2="569.69475" xlink:href="#linearGradient7503"/>
<radialGradient cx="389.84174" cy="279.66214" gradientTransform="matrix(1,0,0,.26611,-2.755023e-4,205.141)" gradientUnits="userSpaceOnUse" id="radialGradient2275" r="190.64781">
<stop offset="0"/>
<stop offset=".6729"/>
<stop offset="1" stop-opacity="0"/>
</radialGradient>
</defs>
<g transform="translate(-191.5719,-225.318)">
<path d="m199.26893,270.45028c0-56.82792 381.46239-54.80044 381.46239,0v378.15253c0,130.22674-381.46239,128.29759-381.46239,0v-378.15253z" fill="url(#linearGradient2273)" fill-rule="evenodd" stroke="#000" stroke-opacity=".55926" stroke-width="6.5368"/>
<path d="m199.51192,277.19781c0-65.65797 380.97734-63.31545 380.97734,0v4.39105c0,58.75886-380.26121,49.94834-380.97734-4.39106-.71612-52.14387 0,142.21258 0,1e-005z" fill="url(#radialGradient2275)" fill-rule="evenodd"/>
<path d="m206.01612,288.58279c-3.34495,31.82403-11.30716,88.608 13.18933,96.46377s54.36158-63.35119 84.7966-60.49454 13.36172,70.70196 35.63125,71.41613 23.01185-69.98781 53.44687-68.55949 40.08516,76.41526 68.29323,74.27278 21.52722-79.98608 44.53906-82.84272 44.53904,82.84272 47.50832,71.41614-8.17514-68.29255 5.93855-85.69936c12.76221-15.74001 16.50338-4.35297 16.50338-13.87232l.19877-.05384c0,0-19.74215,29.28062-173.55387,29.28062-153.43924,0-196.49149-31.32717-196.49149-31.32717z" fill="url(#linearGradient2277)" fill-rule="evenodd" stroke="#000" stroke-width="1.01934"/>
<path d="m204.01612,286.58279c-3.34495,31.82403-11.30716,88.608 13.18933,96.46377s54.36158-63.35119 84.7966-60.49454 13.36172,70.70196 35.63125,71.41613 23.01185-69.98781 53.44687-68.55949 40.08516,76.41526 68.29323,74.27278 21.52722-79.98608 44.53906-82.84272 44.53904,82.84272 47.50832,71.41614-8.17514-68.29255 5.93855-85.69936c12.76221-15.74001 16.50338-4.35297 16.50338-13.87232l.19877-.05384c0,0-19.74215,29.28062-173.55387,29.28062-153.43924,0-196.49149-31.32717-196.49149-31.32717z" fill="url(#linearGradient2279)" fill-rule="evenodd" stroke="#000" stroke-width="5"/>
<g transform="translate(-21.42888,42.75749)">
<path d="m513.4464,517.64344c-47.5926-2.02874-50.55751-2.43112-50.55751-6.86148 0-16.91565-9.55896-34.10503-24.27208-43.64729l-5.99828-3.8902 22.91293-46.05821c12.60211-25.33202 23.29472-46.55934 23.76136-47.17182 2.42768-3.18647 25.91208,13.08343 42.05198,29.13345 26.9342,26.78417 38.4551,52.89624 43.5382,98.67857 1.1903,10.72064 1.4794,20.05007.6426,20.73208s-24.2725.27021-52.0792-.9151z" fill="#010102"/>
<path d="m390.09045,417.31158c22.03936,42.23077 23.17334,44.99964 19.33654,47.21482-14.64938,8.45783-24.75634,25.33082-25.66362,42.84389l-.36988,7.13976-51.34404,3.18592c-28.23923,1.75227-51.96893,3.10586-52.73267,3.00797-3.97341-.50919-1.62546-28.98223 4.20431-50.9848 9.72867-36.71779 26.58194-59.75122 63.68905-87.04448 8.6892-6.39115 16.62417-11.30623 17.63321-10.92254s12.37026,20.88549 25.2471,45.55946z" fill="#010102"/>
<path d="m366.68307,574.93697c25.55324-40.20203 27.38416-42.56853 31.22097-40.35335 14.64938,8.45783 34.3153,8.77421 49.9357.80341l6.36815-3.24956 28.43112,42.87228c15.63711,23.57976 28.67421,43.45349 28.97131,44.16385 1.54573,3.69567-24.28662,15.89881-46.2563,21.85136-36.66287,9.93362-65.03703,6.85497-107.22724-11.6341-9.8795-4.32949-18.10357-8.74384-18.27581-9.80953s11.90224-21.15571 26.8321-44.64436z" fill="#010102"/>
<path d="m444.28573,568.07648a35.71429,35.71429 0 1,1 -71.42858,0 35.71429,35.71429 0 1,1 71.42858,0z" fill-opacity=".64444" fill-rule="evenodd" transform="matrix(.78,0,0,.78,104.8857,59.97683)"/>
</g>
<path d="m202.01612,282.58279c-3.34495,31.82403-11.30716,88.608 13.18933,96.46377s54.36158-63.35119 84.7966-60.49454 13.36172,70.70196 35.63125,71.41613 23.01185-69.98781 53.44687-68.55949 40.08516,76.41526 68.29323,74.27278 21.52722-79.98608 44.53906-82.84272 44.53904,82.84272 47.50832,71.41614-8.17514-68.29255 5.93855-85.69936c12.76221-15.74001 16.50338-4.35297 16.50338-13.87232l.19877-.05384c0,0-19.74215,29.28062-173.55387,29.28062-153.43924,0-196.49149-31.32717-196.49149-31.32717z" fill="url(#linearGradient2281)" fill-rule="evenodd" stroke="#000" stroke-width="5"/>
<path d="m198.01612,280.58279c-3.34495,31.82403-11.30716,88.608 13.18933,96.46377s54.36158-63.35119 84.7966-60.49454 13.36172,70.70196 35.63125,71.41613 23.01185-69.98781 53.44687-68.55949 40.08516,76.41526 68.29323,74.27278 21.52722-79.98608 44.53906-82.84272 44.53904,82.84272 47.50832,71.41614-8.17514-68.29255 5.93855-85.69936c12.76221-15.74001 16.50338-4.35297 16.50338-13.87232l.19877-.05384c0,0-19.74215,29.28062-173.55387,29.28062-153.43924,0-196.49149-31.32717-196.49149-31.32717z" fill="url(#linearGradient2283)" fill-rule="evenodd" stroke="#000" stroke-width="5"/>
</g>
</svg>
