<?xml version="1.0" encoding="UTF-8" standalone="no"?>
<svg
   xmlns:dc="http://purl.org/dc/elements/1.1/"
   xmlns:cc="http://creativecommons.org/ns#"
   xmlns:rdf="http://www.w3.org/1999/02/22-rdf-syntax-ns#"
   xmlns:svg="http://www.w3.org/2000/svg"
   xmlns="http://www.w3.org/2000/svg"
   xmlns:xlink="http://www.w3.org/1999/xlink"
   xmlns:sodipodi="http://sodipodi.sourceforge.net/DTD/sodipodi-0.dtd"
   xmlns:inkscape="http://www.inkscape.org/namespaces/inkscape"
   viewBox="0 0 155.42866 161.50334"
   version="1.1"
   id="svg194"
   sodipodi:docname="logo1.svg"
   width="155.42867"
   height="161.50334"
   inkscape:version="0.92.2 (5c3e80d, 2017-08-06)">
  <metadata
     id="metadata198">
    <rdf:RDF>
      <cc:Work
         rdf:about="">
        <dc:format>image/svg+xml</dc:format>
        <dc:type
           rdf:resource="http://purl.org/dc/dcmitype/StillImage" />
        <dc:title></dc:title>
      </cc:Work>
    </rdf:RDF>
  </metadata>
  <sodipodi:namedview
     pagecolor="#ffffff"
     bordercolor="#666666"
     borderopacity="1"
     objecttolerance="10"
     gridtolerance="10"
     guidetolerance="10"
     inkscape:pageopacity="0"
     inkscape:pageshadow="2"
     inkscape:window-width="1366"
     inkscape:window-height="705"
     id="namedview196"
     showgrid="false"
     inkscape:zoom="1.245955"
     inkscape:cx="-70.399243"
     inkscape:cy="79.059673"
     inkscape:window-x="-8"
     inkscape:window-y="-8"
     inkscape:window-maximized="1"
     inkscape:current-layer="svg194" />
  <defs
     id="defs138">
    <filter
       id="s">
      <feGaussianBlur
         stdDeviation="2.3517"
         id="feGaussianBlur2" />
    </filter>
    <filter
       id="d">
      <feGaussianBlur
         stdDeviation=".4217"
         id="feGaussianBlur5" />
    </filter>
    <filter
       id="t">
      <feGaussianBlur
         stdDeviation=".6298"
         id="feGaussianBlur8" />
    </filter>
    <linearGradient
       id="r"
       x1="-847.01001"
       x2="-743.91998"
       y1="959.03998"
       y2="891.70001"
       gradientUnits="userSpaceOnUse"
       spreadMethod="reflect"
       gradientTransform="matrix(0.17575,0,0,0.17575,207.42163,-101.9328)">
      <stop
         stop-color="#a2677d"
         offset="0"
         id="stop11" />
      <stop
         stop-color="#9f617a"
         offset=".4529"
         id="stop13" />
      <stop
         stop-color="#fff8db"
         offset="1"
         id="stop15" />
    </linearGradient>
    <linearGradient
       id="q"
       x1="-1668"
       x2="-1543.7"
       gradientUnits="userSpaceOnUse">
      <stop
         stop-color="#fbcd35"
         offset="0"
         id="stop18" />
      <stop
         stop-color="#fefacb"
         offset=".2416"
         id="stop20" />
      <stop
         stop-color="#c59531"
         offset=".6416"
         id="stop22" />
      <stop
         stop-color="#faf3bc"
         offset="1"
         id="stop24" />
    </linearGradient>
    <linearGradient
       id="p"
       x1="-1564.6"
       x2="-1582.4"
       y1="1186.4"
       y2="1254.8"
       gradientUnits="userSpaceOnUse">
      <stop
         stop-color="#ac5f01"
         stop-opacity=".7741"
         offset="0"
         id="stop27" />
      <stop
         stop-color="#ddad2d"
         offset=".5"
         id="stop29" />
      <stop
         stop-color="#b67b00"
         offset="1"
         id="stop31" />
    </linearGradient>
    <linearGradient
       id="o"
       x1="-1668.1"
       x2="-1558.9"
       y1="1228.2"
       y2="1229"
       gradientUnits="userSpaceOnUse">
      <stop
         stop-color="#fbc208"
         offset="0"
         id="stop34" />
      <stop
         stop-color="#f7edb3"
         offset="1"
         id="stop36" />
    </linearGradient>
    <linearGradient
       id="c">
      <stop
         stop-color="#fbce36"
         offset="0"
         id="stop39" />
      <stop
         stop-color="#fdf7c7"
         offset=".2944"
         id="stop41" />
      <stop
         stop-color="#c4922f"
         offset=".6986"
         id="stop43" />
      <stop
         stop-color="#fdf6c3"
         offset="1"
         id="stop45" />
    </linearGradient>
    <linearGradient
       id="b"
       x1="-2316.5"
       x2="-2222.3999"
       y1="88.775002"
       y2="88.075996"
       gradientUnits="userSpaceOnUse">
      <stop
         stop-color="#e6a622"
         offset="0"
         id="stop48" />
      <stop
         stop-color="#ebd290"
         offset=".4697"
         id="stop50" />
      <stop
         stop-color="#a4673d"
         offset="1"
         id="stop52" />
    </linearGradient>
    <linearGradient
       id="l"
       x1="-2519.1001"
       x2="-2480.2"
       gradientUnits="userSpaceOnUse">
      <stop
         stop-color="#e6a622"
         offset="0"
         id="stop55" />
      <stop
         stop-color="#e5a727"
         offset=".4104"
         id="stop57" />
      <stop
         stop-color="#dfbf80"
         offset=".5554"
         id="stop59" />
      <stop
         stop-color="#954f25"
         offset=".7733"
         id="stop61" />
      <stop
         stop-color="#893e16"
         offset="1"
         id="stop63" />
    </linearGradient>
    <linearGradient
       id="k"
       x1="-2519.1001"
       x2="-2480.2"
       gradientUnits="userSpaceOnUse">
      <stop
         stop-color="#fcd651"
         offset="0"
         id="stop66" />
      <stop
         stop-color="#fcd651"
         offset=".4104"
         id="stop68" />
      <stop
         stop-color="#fdf5c4"
         offset=".5554"
         id="stop70" />
      <stop
         stop-color="#ecc688"
         offset=".7733"
         id="stop72" />
      <stop
         stop-color="#e9c082"
         offset="1"
         id="stop74" />
    </linearGradient>
    <linearGradient
       id="a"
       x1="-1275.2"
       x2="-1728.7"
       y1="-5721.6001"
       y2="-5398.2998"
       gradientUnits="userSpaceOnUse">
      <stop
         stop-color="#a1667c"
         offset="0"
         id="stop77" />
      <stop
         stop-color="#cfa6b4"
         offset=".1453"
         id="stop79" />
      <stop
         stop-color="#feeff3"
         stop-opacity=".0251"
         offset=".8622"
         id="stop81" />
      <stop
         stop-color="#feeff4"
         offset="1"
         id="stop83" />
    </linearGradient>
    <linearGradient
       id="j"
       x1="-279.17001"
       x2="-934.63"
       y1="-5655.8999"
       y2="-5467"
       gradientUnits="userSpaceOnUse"
       gradientTransform="matrix(0.17575,0,0,0.17575,426.59509,1164.0619)">
      <stop
         stop-color="#feeff4"
         offset="0"
         id="stop86" />
      <stop
         stop-color="#feeff3"
         stop-opacity=".0251"
         offset=".2327"
         id="stop88" />
      <stop
         stop-color="#a1667c"
         offset=".7191"
         id="stop90" />
      <stop
         stop-color="#a1667c"
         offset="1"
         id="stop92" />
    </linearGradient>
    <linearGradient
       id="n"
       x1="-1634.1"
       x2="-1503"
       y1="8.8640003"
       y2="7.9661999"
       gradientUnits="userSpaceOnUse"
       xlink:href="#c" />
    <linearGradient
       id="m"
       x1="-2237.5"
       x2="-2106.3999"
       y1="-59.374001"
       y2="-60.271999"
       gradientTransform="matrix(0.89993,0,0,0.35867,386.16,-4.1384)"
       gradientUnits="userSpaceOnUse"
       xlink:href="#c" />
    <radialGradient
       id="i"
       cx="-2496.8999"
       cy="589.33002"
       r="15.281"
       gradientUnits="userSpaceOnUse">
      <stop
         stop-color="#bf8d58"
         stop-opacity="0"
         offset="0"
         id="stop97" />
      <stop
         stop-color="#bf8d58"
         offset="1"
         id="stop99" />
    </radialGradient>
    <radialGradient
       id="h"
       cx="-896.31"
       cy="-6069.2002"
       r="436.89001"
       gradientTransform="matrix(0.10196488,-0.01184731,0.01084202,0.09331798,486.15414,698.26349)"
       gradientUnits="userSpaceOnUse">
      <stop
         stop-color="#feeff4"
         offset="0"
         id="stop102" />
      <stop
         stop-color="#ebd1da"
         offset=".1378"
         id="stop104" />
      <stop
         stop-color="#cfa6b4"
         offset=".6788"
         id="stop106" />
      <stop
         stop-color="#a1667c"
         offset="1"
         id="stop108" />
    </radialGradient>
    <radialGradient
       id="g"
       cx="-991.15002"
       cy="-6111.3999"
       r="436.89001"
       gradientTransform="matrix(-0.19597882,-0.02730101,-0.01296156,0.09304732,96.150105,588.05238)"
       gradientUnits="userSpaceOnUse">
      <stop
         stop-color="#feeff4"
         offset="0"
         id="stop111" />
      <stop
         stop-color="#ebd1da"
         offset=".4414"
         id="stop113" />
      <stop
         stop-color="#cfa6b4"
         offset=".6788"
         id="stop115" />
      <stop
         stop-color="#a1667c"
         stop-opacity="0"
         offset="1"
         id="stop117" />
    </radialGradient>
    <radialGradient
       id="f"
       cx="-852.77002"
       cy="-5584.2998"
       r="427.92999"
       gradientTransform="matrix(0.24938925,-0.13411307,0.06043164,0.11237279,879.81955,764.12573)"
       gradientUnits="userSpaceOnUse">
      <stop
         stop-color="#a1667c"
         offset="0"
         id="stop120" />
      <stop
         stop-color="#cfa6b4"
         offset=".377"
         id="stop122" />
      <stop
         stop-color="#feeff3"
         stop-opacity=".0251"
         offset=".8622"
         id="stop124" />
      <stop
         stop-color="#feeff4"
         offset="1"
         id="stop126" />
    </radialGradient>
    <radialGradient
       id="e"
       cx="-750.90002"
       cy="-5432.2998"
       r="417.70999"
       gradientTransform="matrix(0.25395875,-0.09837958,0.06766023,0.17466211,866.52086,936.17647)"
       gradientUnits="userSpaceOnUse">
      <stop
         stop-color="#a1667c"
         offset="0"
         id="stop129" />
      <stop
         stop-color="#cfa6b4"
         offset=".2425"
         id="stop131" />
      <stop
         stop-color="#ebd1da"
         offset=".8622"
         id="stop133" />
      <stop
         stop-color="#feeff4"
         offset="1"
         id="stop135" />
    </radialGradient>
    <linearGradient
       inkscape:collect="always"
       xlink:href="#b"
       id="linearGradient4716"
       gradientUnits="userSpaceOnUse"
       x1="-2316.5"
       y1="88.775002"
       x2="-2222.3999"
       y2="88.075996" />
    <linearGradient
       inkscape:collect="always"
       xlink:href="#b"
       id="linearGradient4718"
       gradientUnits="userSpaceOnUse"
       x1="-2316.5"
       y1="88.775002"
       x2="-2222.3999"
       y2="88.075996" />
  </defs>
  <path
     style="opacity:1;fill:#a1667c;fill-opacity:1"
     inkscape:connector-curvature="0"
     id="path140"
     d="m 76.68543,3.3783445 c -11.1831,0 -21.2996,2.58376 -28.6563,6.7812505 -7.3567,4.19749 -11.9687,10.05392 -11.9687,16.5625 0,2.44074 0.6433,4.76577 1.8437,6.96875 0.018,0.03287 0.045,0.06094 0.062,0.09375 0.3875,0.70019 0.8169,1.39352 1.3125,2.0625 0.101,0.13746 0.2069,0.27016 0.3125,0.40625 0.4371,0.56042 0.8969,1.12087 1.4062,1.65625 0.3103,0.32624 0.6321,0.65227 0.9688,0.96875 0.01,0.0052 0.026,-0.0052 0.031,0 0.3316,0.31109 0.6751,0.63632 1.0313,0.9375 0.01,0.0051 0.025,-0.0051 0.031,0 0.3565,0.30091 0.7133,0.6157 1.0937,0.90625 0.1518,0.11629 0.3133,0.22919 0.4687,0.34375 0.2402,0.17642 0.4699,0.35897 0.7188,0.53125 l 0.062,0.03125 c 0.393,0.27079 0.8049,0.52111 1.2187,0.78125 0.025,0.01557 0.038,0.04697 0.063,0.0625 0.4107,0.25681 0.8194,0.50406 1.25,0.75 l 0.094,0.0625 c 0.4253,0.24132 0.8688,0.45713 1.3125,0.6875 l 0.094,0.0625 c 0.4461,0.23017 0.911,0.46876 1.375,0.6875 4.189,1.98913 9.0896,3.50712 14.4374,4.40625 v 1.71875 h -1.0312 v 3.53125 c -5.2247,-1.79267 -11.818,-3.25461 -19.5625,-3.3125 -1.3792,-0.0103 -2.768,0.0099 -4.2187,0.09375 C 21.97533,52.227605 2.5396297,67.369755 0.27852973,83.003345 -3.1202703,106.50347 25.28063,137.00373 47.59103,157.44084 c 1.1108,0.17367 2.1407,0.30577 3.2188,0.46875 0.2605,0.21495 0.5217,0.44359 0.7812,0.65625 6.5273,1.49031 15.7424,2.93748 24.2812,2.9375 11.4149,-2e-5 20.6395,-1.21017 31.6876,-2.9375 17.4333,-15.96956 38.5825,-38.1039 45.375,-58.21875 l -0.1876,-0.125 c 2.2226,-6.074885 3.2052,-11.976455 2.4063,-17.499995 -2.2497,-15.55469 -21.4683,-30.60896 -39.8437,-31.8125 -0.1056,0.08885 -0.2069,0.19104 -0.3126,0.28125 -0.084,-0.0055 -0.1658,-0.02638 -0.25,-0.03125 -1.4507,-0.0839 -2.8707,-0.10405 -4.25,-0.09375 -8.455,0.0632 -15.5106,1.7965 -20.9374,3.8125 v -4.03125 h -1.4376 l -0.062,-1.6875 c 6.6216,-1.10314 12.5508,-3.15486 17.3124,-5.875 7.3568,-4.20261 11.9376,-10.05386 11.9376,-16.5625 0,-6.50864 -4.5808,-12.36501 -11.9376,-16.5625 -7.3568,-4.1974905 -17.5043,-6.7812505 -28.6874,-6.7812505 z m 0,4.5 c 4.0181,0 7.7915,0.74916 11.125,2.09375 0.8127,0.3325305 1.5878,0.6633005 2.3437,1.0625005 0.3997,0.2084 0.774,0.4614 1.1563,0.6875 1.4937,0.89223 2.8669,1.89863 4.0624,3.03125 0.01,0.005 0.026,-0.005 0.031,0 0.6944,0.65919 1.3278,1.36509 1.9063,2.09375 l 0.094,0.125 0.031,0.0312 c 0.064,0.0827 0.1252,0.16652 0.1874,0.25 0.3607,0.48013 0.6929,0.96307 1,1.46875 0.3003,0.49987 0.5685,1.0089 0.8126,1.53125 0.016,0.0335 0.047,0.0602 0.062,0.0937 0.1173,0.25549 0.2092,0.52087 0.3126,0.78125 0.017,0.0425 0.045,0.0823 0.062,0.125 0.6683,1.72932 1,3.57318 1,5.46875 0,5.18392 -2.6563,9.86115 -7.0312,13.28125 -1.736,1.35717 -3.7656,2.50723 -5.9688,3.40625 l -0.062,-2.21875 -0.125,-0.03125 c -0.096,-0.1706 -0.438,-0.3201 -0.9688,-0.46875 l -0.031,-2.1875 h -0.125 c -0.1654,-0.68758 -4.5824,-1.25 -10.0626,-1.25 -5.5848,0 -10.125,0.57537 -10.125,1.28125 v 0.03125 l 0.063,2.0625 c -0.7443,0.18981 -1.1876,0.39881 -1.1876,0.625 0,0.02874 0.018,0.06543 0.031,0.09375 h -0.031 v 1.96875 c -2.1032,-0.88384 -4.0159,-2.00575 -5.6874,-3.3125 -4.3749,-3.4201 -7.0627,-8.09733 -7.0626,-13.28125 1e-4,-5.18392 2.6877,-9.8924 7.0626,-13.3125 4.3749,-3.4201005 10.4208,-5.5312505 17.125,-5.5312505 z m 29.5937,3.5937505 c 0.438,0.27337 0.8672,0.55872 1.2813,0.84375 -0.4108,-0.28401 -0.8475,-0.57143 -1.2813,-0.84375 z m 1.3437,0.875 c 0.7623,0.52712 1.4799,1.06069 2.1563,1.625 -0.6784,-0.56757 -1.3938,-1.09547 -2.1563,-1.625 z m -53.2812,22.90625 c 0.3415,0.54807 0.7221,1.07627 1.125,1.59375 -0.4036,-0.52082 -0.785,-1.042 -1.125,-1.59375 z" />
  <path
     d="M 63.350568,50.83262 H 88.71481 V 62.548818 H 63.350568 Z"
     id="path142"
     inkscape:connector-curvature="0"
     style="fill:url(#r);stroke-width:0.17575" />
  <g
     transform="matrix(0.17575,0,0,0.17575,351.1078,44.84306)"
     id="g172">
    <g
       transform="matrix(3.6903,0,0,3.6903,4358.4,-4635.7)"
       id="g154">
      <path
         d="m -1605.8,1193.1 c -34.331,0 -62.156,15.872 -62.156,35.469 0,19.597 27.826,35.5 62.156,35.5 34.33,0 62.156,-15.903 62.156,-35.5 0,-19.597 -27.826,-35.469 -62.156,-35.469 z m 0,5.9062 c 20.884,0 37.812,13.232 37.812,29.562 0,16.33 -16.928,29.562 -37.812,29.562 -20.884,0 -37.813,-13.232 -37.813,-29.562 0,-16.33 16.928,-29.562 37.813,-29.562 z"
         id="path144"
         inkscape:connector-curvature="0"
         style="fill:url(#q)" />
      <path
         d="m -1610.5,1193.9 c -25.249,1.7625 -44.969,16.414 -44.969,34.25 0,17.894 19.85,32.595 45.219,34.281 -23.943,-1.7659 -42.625,-16.445 -42.625,-34.281 0,-17.836 18.682,-32.488 42.625,-34.25 -0.083,0.01 -0.1672,-0.01 -0.25,0 z"
         id="path146"
         inkscape:connector-curvature="0"
         style="opacity:0.93900003;fill:#fbc000;filter:url(#d)" />
      <path
         d="m -1600.6,1193.9 c 23.943,1.7625 42.625,16.414 42.625,34.25 0,17.836 -18.682,32.515 -42.625,34.281 25.368,-1.6864 45.219,-16.387 45.219,-34.281 0,-17.894 -19.851,-32.567 -45.219,-34.25 z"
         id="path148"
         inkscape:connector-curvature="0"
         style="opacity:0.93900003;fill:#e3be53;filter:url(#d)" />
      <path
         d="m -1586.9,1201.3 c 0,0 5.247,-0.098 6.3458,-1.1316 1.0988,-1.0336 0.6137,-2.5313 0.6137,-2.5313 0,0 9.1987,5.6284 12.271,9.8899 4.1908,5.8135 8.2069,12.727 7.5088,20.146 -2.3222,24.68 -23.259,27.105 -23.259,27.105 0,0 17.993,-6.074 20.695,-27.472 0.8903,-7.0487 -2.7318,-14.173 -7.5088,-19.047 -4.2141,-4.2995 -16.666,-6.9595 -16.666,-6.9595 z"
         id="path150"
         inkscape:connector-curvature="0"
         style="opacity:0.75609999;fill:url(#p);filter:url(#t)" />
      <path
         d="m -1605.5,1192.3 c -17.242,0 -32.845,3.9657 -44.187,10.438 -11.342,6.4723 -18.469,15.496 -18.469,25.531 0,10.035 7.1259,19.052 18.469,25.531 11.3431,6.479 26.945,10.469 44.187,10.469 17.242,0 32.876,-3.989 44.219,-10.469 11.343,-6.48 18.438,-15.496 18.438,-25.531 0,-10.035 -7.0947,-19.059 -18.438,-25.531 -11.3433,-6.472 -26.976,-10.438 -44.219,-10.438 z m 0,1 c 17.088,0 32.566,3.9492 43.719,10.312 11.153,6.3628 17.938,15.094 17.938,24.656 0,9.562 -6.7849,18.285 -17.938,24.656 -11.1531,6.371 -26.631,10.344 -43.719,10.344 -17.088,0 -32.535,-3.9727 -43.687,-10.344 -11.152,-6.3713 -17.969,-15.094 -17.969,-24.656 0,-9.562 6.8161,-18.293 17.969,-24.656 11.1529,-6.363 26.599,-10.312 43.687,-10.312 z m 0,4.9063 c -10.548,0 -20.091,3.3247 -27.031,8.75 -6.94,5.4253 -11.281,12.974 -11.281,21.312 0,8.338 4.3414,15.856 11.281,21.281 6.9396,5.425 16.483,8.7813 27.031,8.7813 10.548,0 20.123,-3.356 27.063,-8.7813 6.94,-5.4253 11.25,-12.943 11.25,-21.281 0,-8.338 -4.3103,-15.887 -11.25,-21.312 -6.9397,-5.425 -16.515,-8.75 -27.063,-8.75 z m 0,1 c 10.337,0 19.692,3.258 26.438,8.5312 6.746,5.2732 10.875,12.539 10.875,20.531 0,7.992 -4.1297,15.227 -10.875,20.5 -6.7453,5.273 -16.101,8.5625 -26.438,8.5626 -10.337,10e-5 -19.661,-3.2893 -26.406,-8.5626 -6.745,-5.2733 -10.906,-12.507 -10.906,-20.5 0,-7.993 4.1609,-15.258 10.906,-20.531 6.7451,-5.273 16.07,-8.5312 26.406,-8.5312 z"
         id="path152"
         inkscape:connector-curvature="0"
         style="fill:url(#o)" />
    </g>
    <path
       d="m -1631.4,-19.868 v 54.77 c 0,0 42.314,8.3923 63.749,8.4489 22.326,0.05898 66.442,-8.4489 66.442,-8.4489 l -1.7958,-55.668 c 0,0 -42.719,-5.7 -64.198,-5.5511 -21.506,0.14909 -64.198,6.4489 -64.198,6.4489 z"
       id="path156"
       inkscape:connector-curvature="0"
       style="fill:url(#n)" />
    <path
       transform="matrix(1.2716,0,0,1.2857,1318.7,-134.49)"
       d="m -2219.5,88.775 c 0,3.4712 -22.512,6.2851 -50.281,6.2851 -27.769,0 -50.281,-2.8139 -50.281,-6.2851 0,-3.4712 22.512,-6.2851 50.281,-6.2851 27.769,0 50.281,2.8139 50.281,6.2851 z"
       id="path158"
       inkscape:connector-curvature="0"
       style="fill:url(#linearGradient4716)" />
    <path
       d="m -1625,-35.739 0.6349,14.692 c 0,0 38.749,6.1567 58.531,5.738 23.223,-0.4915 56.633,-6.6903 56.633,-6.6903 l -0.251,-14.062 c 0,0 -38.444,-2.0444 -57.774,-1.991 -19.354,0.0535 -57.774,2.313 -57.774,2.313 z"
       id="path160"
       inkscape:connector-curvature="0"
       style="fill:url(#m)" />
    <path
       transform="matrix(1.1443,0,0,1.1571,1029.9,-138.57)"
       d="m -2219.5,88.775 c 0,3.4712 -22.512,6.2851 -50.281,6.2851 -27.769,0 -50.281,-2.8139 -50.281,-6.2851 0,-3.4712 22.512,-6.2851 50.281,-6.2851 27.769,0 50.281,2.8139 50.281,6.2851 z"
       id="path162"
       inkscape:connector-curvature="0"
       style="fill:url(#linearGradient4718)" />
    <g
       transform="translate(930.37,-568.48)"
       id="g170">
      <path
         d="m -2484.4,583.14 c 0,8.4396 -6.8417,15.281 -15.281,15.281 -8.4393,0 -15.281,-6.8417 -15.281,-15.281 0,-8.4393 6.8416,-15.281 15.281,-15.281 8.4394,0 15.281,6.8417 15.281,15.281 z"
         id="path164"
         inkscape:connector-curvature="0"
         style="fill:url(#l)" />
      <path
         transform="matrix(0.90412,0,0,0.90412,-239.66,55.911)"
         d="m -2484.4,583.14 c 0,8.4396 -6.8417,15.281 -15.281,15.281 -8.4393,0 -15.281,-6.8417 -15.281,-15.281 0,-8.4393 6.8416,-15.281 15.281,-15.281 8.4394,0 15.281,6.8417 15.281,15.281 z"
         id="path166"
         inkscape:connector-curvature="0"
         style="fill:url(#k)" />
      <path
         transform="matrix(0.15815,0,0,0.15815,-2104.3,490.92)"
         d="m -2484.4,583.14 c 0,8.4396 -6.8417,15.281 -15.281,15.281 -8.4393,0 -15.281,-6.8417 -15.281,-15.281 0,-8.4393 6.8416,-15.281 15.281,-15.281 8.4394,0 15.281,6.8417 15.281,15.281 z"
         id="path168"
         inkscape:connector-curvature="0"
         style="fill:url(#i)" />
    </g>
  </g>
  <g
     aria-label="D"
     transform="matrix(0.986179,0,0,1.0140147,-25.64447,-12.434155)"
     style="font-style:normal;font-weight:normal;font-size:85.33333588px;line-height:1.25;font-family:sans-serif;letter-spacing:0px;word-spacing:0px;fill:#ffffff;fill-opacity:1;stroke:none;stroke-width:0.86452609"
     id="text202">
    <path
       d="m 124.38325,74.659561 q 0,1.992188 -0.46875,4.21875 -0.46875,2.1875 -0.89844,2.1875 -0.23438,0 -0.23438,-0.234375 0,-0.273437 0.0781,-0.507812 0.89844,-2.382813 0.89844,-5.585938 0,-4.921875 -3.00782,-7.890625 -2.96875,-3.007812 -7.89062,-3.007812 -9.45313,0 -18.320313,8.984375 3.359375,6.25 3.359375,13.203125 0,12.8125 -9.84375,21.718751 -9.804687,8.90625 -23.984375,8.90625 -4.375,0 -11.992187,-1.21094 -6.601563,1.21094 -12.65625,1.21094 -10.3125,0 -10.3125,-2.07031 0,-1.01563 2.5,-1.79688 2.539062,-0.78125 5.898437,-0.78125 4.0625,0 16.171875,2.65625 8.164063,-2.14844 12.851563,-6.75781 4.570312,-4.49219 14.023437,-19.570314 5.703125,-9.140625 12.539063,-15.585937 -5.703125,-9.609375 -18.476563,-9.609375 -13.203125,0 -24.21875,10.390625 -5.546875,5.234375 -8.867187,11.5625 -3.320313,6.328125 -3.320313,11.640625 0,4.218746 2.65625,6.757816 2.695313,2.53906 7.109375,2.53906 7.460938,0 15.46875,-8.046876 8.046875,-8.046875 8.046875,-15.46875 0,-2.8125 -1.5625,-4.53125 -1.5625,-1.71875 -4.101562,-1.71875 -2.890625,0 -2.890625,0.9375 0,0.273437 0.429687,0.273437 0.234375,0 0.390625,-0.07813 h 0.546875 q 1.914063,0 1.914063,1.757813 0,1.289062 -0.976563,2.265625 -0.976562,0.9375 -2.304687,0.9375 -2.382813,0 -2.382813,-2.578125 0,-1.757813 1.5625,-3.007813 1.5625,-1.25 3.789063,-1.25 2.851562,0 4.609375,1.914063 1.796875,1.875 1.796875,4.921875 0,7.890625 -8.242188,16.132812 -8.203125,8.242179 -16.09375,8.242179 -5.429687,0 -8.945312,-3.59375 -3.515625,-3.632804 -3.515625,-9.296866 0,-12.148438 11.992187,-21.757813 11.992188,-9.648437 27.109375,-9.648437 12.851563,0 19.375,9.492187 9.531248,-8.789062 19.374998,-8.789062 4.92188,0 7.96875,3.203125 3.04688,3.164062 3.04688,8.320312 z m -28.632815,8.476563 q 0,-5 -2.070313,-9.375 -5.273437,6.015625 -9.453125,15.117187 -5.507812,12.070309 -11.40625,17.382809 -6.09375,5.42969 -17.851562,8.71094 4.960937,1.05469 10.546875,1.05469 14.960937,0 24.21875,-14.49219 6.015625,-9.374999 6.015625,-18.398436 z M 50.711372,115.20644 q -10.78125,-1.52344 -16.09375,-1.52344 -4.6875,0 -4.6875,0.89844 0,1.36718 10.234375,1.36718 5.859375,0 10.546875,-0.74218 z"
       style="font-style:normal;font-variant:normal;font-weight:normal;font-stretch:normal;font-size:80px;font-family:'Edwardian Script ITC';-inkscape-font-specification:'Edwardian Script ITC';fill:#00ffff;stroke-width:0.86452609"
       id="path4916"
       inkscape:connector-curvature="0" />
  </g>
  <g
     aria-label="A"
     transform="matrix(0.97603236,0,0,1.0245562,-25.64447,-12.434155)"
     style="font-style:normal;font-weight:normal;font-size:174.08433533px;line-height:1.25;font-family:sans-serif;letter-spacing:0px;word-spacing:0px;fill:#000000;fill-opacity:1;stroke:none;stroke-width:0.90668923"
     id="text202-2">
    <path
       d="m 135.43111,126.50603 q 0,0.42968 -1.44532,2.07031 -3.98437,4.57031 -7.53906,4.57031 -2.26562,0 -3.71094,-1.5625 -1.40625,-1.60156 -1.40625,-4.17969 0,-2.1875 2.57813,-7.07031 1.21094,-2.26562 1.21094,-3.75 0,-1.95312 -2.1875,-3.32031 -2.14844,-1.40625 -5.27344,-1.40625 -8.94531,0 -16.60156,6.875 -7.617191,6.875 -7.617191,14.88281 0,4.0625 2.539063,6.64063 2.578125,2.57812 6.640628,2.57812 4.41406,0 8.86718,-3.20312 4.49219,-3.24219 6.32813,-7.77344 0.11719,-0.39063 0.3125,-0.39063 0.35156,0 0.35156,0.39063 0,0.82031 -1.36719,2.92969 -1.36718,2.07031 -2.8125,3.47656 -5.27343,5.19531 -11.83593,5.19531 -4.453128,0 -7.148441,-2.73437 -2.695312,-2.73438 -2.695312,-7.26563 0,-8.24219 7.929683,-15.27344 7.96875,-7.03125 17.26563,-7.03125 4.10156,0 6.40625,2.03125 2.34375,2.03125 2.34375,5.58594 0,2.65625 -1.875,6.28906 -1.67969,3.32032 -1.67969,4.49219 0,2.89063 3.4375,2.89063 3.90625,0 8.08594,-5.78125 0.35156,-0.46875 0.58594,-0.46875 0.3125,0 0.3125,0.3125 z m 41.83593,-7.10938 q 0,0.70313 -0.82031,0.70313 -0.35156,0 -2.61719,-0.46875 -4.17968,-0.85938 -6.95312,-0.85938 -6.28906,1.91406 -11.13281,7.42188 -4.80469,5.50781 -10.97657,17.85156 -9.45312,18.94531 -24.21875,22.38281 3.08594,0.46875 5.35157,0.46875 7.1875,0 12.07031,-4.60937 4.72656,-4.45313 7.85156,-9.45313 0.35156,-0.54687 0.54688,-0.54687 0.23437,0 0.27343,0.15625 0,0.58593 -4.49218,6.05468 -4.17969,5.11719 -7.61719,7.07032 -3.4375,1.91406 -8.39844,1.91406 -2.85156,0 -6.95312,-0.82031 -2.5,0.82031 -5.74219,0.82031 -2.26563,0 -2.26563,-0.82031 0,-0.9375 3.04688,-0.9375 2.14844,0 4.96094,0.39062 6.05468,-1.44531 9.14062,-4.76562 3.125,-3.32032 11.99219,-17.96875 h -15.03906 q -9.57032,10.07812 -14.80469,14.33593 -12.226563,9.92188 -23.046876,9.92188 -6.171875,0 -10.507812,-2.89063 -4.296875,-2.89062 -4.296875,-7.03125 0,-2.14843 1.289062,-3.67187 1.328125,-1.52344 3.203125,-1.52344 2.539063,0 2.539063,2.46094 0,1.28906 -0.898438,2.22656 -0.859375,0.89844 -2.03125,0.89844 -1.835937,0 -1.835937,-1.75781 l 0.07813,-0.78125 q 0.07813,-0.15625 0.07813,-0.42969 0,-0.39063 -0.351563,-0.39063 -0.390625,0 -0.78125,0.97657 -0.390625,0.97656 -0.390625,1.99218 0,3.82813 4.023438,6.48438 4.023437,2.61719 9.882812,2.61719 8.398438,0 18.476566,-8.24219 2.30468,-1.83594 5.11718,-4.84375 5.58594,-5.85938 8.90625,-9.14063 l 1.17188,-1.21093 h -7.57813 l 0.46875,-0.70313 q 3.75,0 7.69532,0.0781 11.44531,-12.73438 22.1875,-18.59375 10.78125,-5.89844 22.77343,-5.97657 2.77344,-0.54687 5.19532,-0.54687 5.42968,0 5.42968,1.75781 z m -12.38281,-0.46875 q -10.19531,0.50781 -18.90625,5.85938 -8.71094,5.35156 -20.07812,17.96875 h 14.80468 q 5,-8.71094 12.07032,-15.625 6.95312,-6.875 12.10937,-8.20313 z"
       style="font-style:normal;font-variant:normal;font-weight:normal;font-stretch:normal;font-size:80px;font-family:'Edwardian Script ITC';-inkscape-font-specification:'Edwardian Script ITC';fill:#00ffff;stroke-width:0.90668923"
       id="path4913"
       inkscape:connector-curvature="0" />
  </g>
</svg>
